G04 #@! TF.GenerationSoftware,KiCad,Pcbnew,(5.0.1)-4*
G04 #@! TF.CreationDate,2018-12-26T20:48:14-08:00*
G04 #@! TF.ProjectId,Launch_Controller-Pad_Box,4C61756E63685F436F6E74726F6C6C65,rev?*
G04 #@! TF.SameCoordinates,Original*
G04 #@! TF.FileFunction,Soldermask,Top*
G04 #@! TF.FilePolarity,Negative*
%FSLAX46Y46*%
G04 Gerber Fmt 4.6, Leading zero omitted, Abs format (unit mm)*
G04 Created by KiCad (PCBNEW (5.0.1)-4) date 12/26/2018 8:48:14 PM*
%MOMM*%
%LPD*%
G01*
G04 APERTURE LIST*
%ADD10C,0.100000*%
G04 APERTURE END LIST*
D10*
G36*
X116453228Y-126816703D02*
X116608100Y-126880853D01*
X116747481Y-126973985D01*
X116866015Y-127092519D01*
X116959147Y-127231900D01*
X117023297Y-127386772D01*
X117056000Y-127551184D01*
X117056000Y-127718816D01*
X117023297Y-127883228D01*
X116959147Y-128038100D01*
X116866015Y-128177481D01*
X116747481Y-128296015D01*
X116608100Y-128389147D01*
X116453228Y-128453297D01*
X116288816Y-128486000D01*
X116121184Y-128486000D01*
X115956772Y-128453297D01*
X115801900Y-128389147D01*
X115662519Y-128296015D01*
X115543985Y-128177481D01*
X115450853Y-128038100D01*
X115386703Y-127883228D01*
X115354000Y-127718816D01*
X115354000Y-127551184D01*
X115386703Y-127386772D01*
X115450853Y-127231900D01*
X115543985Y-127092519D01*
X115662519Y-126973985D01*
X115801900Y-126880853D01*
X115956772Y-126816703D01*
X116121184Y-126784000D01*
X116288816Y-126784000D01*
X116453228Y-126816703D01*
X116453228Y-126816703D01*
G37*
G36*
X106928228Y-125546703D02*
X107083100Y-125610853D01*
X107222481Y-125703985D01*
X107341015Y-125822519D01*
X107434147Y-125961900D01*
X107498297Y-126116772D01*
X107531000Y-126281184D01*
X107531000Y-126448816D01*
X107498297Y-126613228D01*
X107434147Y-126768100D01*
X107341015Y-126907481D01*
X107222481Y-127026015D01*
X107083100Y-127119147D01*
X106928228Y-127183297D01*
X106763816Y-127216000D01*
X106596184Y-127216000D01*
X106431772Y-127183297D01*
X106276900Y-127119147D01*
X106137519Y-127026015D01*
X106018985Y-126907481D01*
X105925853Y-126768100D01*
X105861703Y-126613228D01*
X105829000Y-126448816D01*
X105829000Y-126281184D01*
X105861703Y-126116772D01*
X105925853Y-125961900D01*
X106018985Y-125822519D01*
X106137519Y-125703985D01*
X106276900Y-125610853D01*
X106431772Y-125546703D01*
X106596184Y-125514000D01*
X106763816Y-125514000D01*
X106928228Y-125546703D01*
X106928228Y-125546703D01*
G37*
G36*
X104306821Y-125526313D02*
X104306824Y-125526314D01*
X104306825Y-125526314D01*
X104467239Y-125574975D01*
X104467241Y-125574976D01*
X104467244Y-125574977D01*
X104615078Y-125653995D01*
X104744659Y-125760341D01*
X104851005Y-125889922D01*
X104930023Y-126037756D01*
X104930024Y-126037759D01*
X104930025Y-126037761D01*
X104978686Y-126198175D01*
X104978687Y-126198179D01*
X104995117Y-126365000D01*
X104978687Y-126531821D01*
X104978686Y-126531824D01*
X104978686Y-126531825D01*
X104953993Y-126613228D01*
X104930023Y-126692244D01*
X104851005Y-126840078D01*
X104744659Y-126969659D01*
X104615078Y-127076005D01*
X104467244Y-127155023D01*
X104467241Y-127155024D01*
X104467239Y-127155025D01*
X104306825Y-127203686D01*
X104306824Y-127203686D01*
X104306821Y-127203687D01*
X104181804Y-127216000D01*
X104098196Y-127216000D01*
X103973179Y-127203687D01*
X103973176Y-127203686D01*
X103973175Y-127203686D01*
X103812761Y-127155025D01*
X103812759Y-127155024D01*
X103812756Y-127155023D01*
X103664922Y-127076005D01*
X103535341Y-126969659D01*
X103428995Y-126840078D01*
X103349977Y-126692244D01*
X103326008Y-126613228D01*
X103301314Y-126531825D01*
X103301314Y-126531824D01*
X103301313Y-126531821D01*
X103284883Y-126365000D01*
X103301313Y-126198179D01*
X103301314Y-126198175D01*
X103349975Y-126037761D01*
X103349976Y-126037759D01*
X103349977Y-126037756D01*
X103428995Y-125889922D01*
X103535341Y-125760341D01*
X103664922Y-125653995D01*
X103812756Y-125574977D01*
X103812759Y-125574976D01*
X103812761Y-125574975D01*
X103973175Y-125526314D01*
X103973176Y-125526314D01*
X103973179Y-125526313D01*
X104098196Y-125514000D01*
X104181804Y-125514000D01*
X104306821Y-125526313D01*
X104306821Y-125526313D01*
G37*
G36*
X116371821Y-124256313D02*
X116371824Y-124256314D01*
X116371825Y-124256314D01*
X116532239Y-124304975D01*
X116532241Y-124304976D01*
X116532244Y-124304977D01*
X116680078Y-124383995D01*
X116809659Y-124490341D01*
X116916005Y-124619922D01*
X116995023Y-124767756D01*
X117043687Y-124928179D01*
X117060117Y-125095000D01*
X117043687Y-125261821D01*
X116995023Y-125422244D01*
X116916005Y-125570078D01*
X116809659Y-125699659D01*
X116680078Y-125806005D01*
X116532244Y-125885023D01*
X116532241Y-125885024D01*
X116532239Y-125885025D01*
X116371825Y-125933686D01*
X116371824Y-125933686D01*
X116371821Y-125933687D01*
X116246804Y-125946000D01*
X116163196Y-125946000D01*
X116038179Y-125933687D01*
X116038176Y-125933686D01*
X116038175Y-125933686D01*
X115877761Y-125885025D01*
X115877759Y-125885024D01*
X115877756Y-125885023D01*
X115729922Y-125806005D01*
X115600341Y-125699659D01*
X115493995Y-125570078D01*
X115414977Y-125422244D01*
X115366313Y-125261821D01*
X115349883Y-125095000D01*
X115366313Y-124928179D01*
X115414977Y-124767756D01*
X115493995Y-124619922D01*
X115600341Y-124490341D01*
X115729922Y-124383995D01*
X115877756Y-124304977D01*
X115877759Y-124304976D01*
X115877761Y-124304975D01*
X116038175Y-124256314D01*
X116038176Y-124256314D01*
X116038179Y-124256313D01*
X116163196Y-124244000D01*
X116246804Y-124244000D01*
X116371821Y-124256313D01*
X116371821Y-124256313D01*
G37*
G36*
X111462916Y-121987334D02*
X111571492Y-122020271D01*
X111671557Y-122073756D01*
X111759264Y-122145736D01*
X111831244Y-122233443D01*
X111884729Y-122333508D01*
X111917666Y-122442084D01*
X111928787Y-122555000D01*
X111917666Y-122667916D01*
X111884729Y-122776492D01*
X111884726Y-122776497D01*
X111831244Y-122876557D01*
X111759264Y-122964264D01*
X111671557Y-123036244D01*
X111590143Y-123079760D01*
X111569768Y-123093373D01*
X111552441Y-123110701D01*
X111538827Y-123131075D01*
X111529450Y-123153714D01*
X111524669Y-123177747D01*
X111524669Y-123202252D01*
X111529449Y-123226285D01*
X111538827Y-123248924D01*
X111552440Y-123269299D01*
X111569768Y-123286626D01*
X111590143Y-123300240D01*
X111671557Y-123343756D01*
X111759264Y-123415736D01*
X111831244Y-123503443D01*
X111884729Y-123603508D01*
X111917666Y-123712084D01*
X111928787Y-123825000D01*
X111917666Y-123937916D01*
X111884729Y-124046492D01*
X111884726Y-124046497D01*
X111831244Y-124146557D01*
X111759264Y-124234264D01*
X111682365Y-124297374D01*
X111665038Y-124314701D01*
X111651424Y-124335076D01*
X111642046Y-124357715D01*
X111637266Y-124381748D01*
X111637266Y-124406252D01*
X111642047Y-124430286D01*
X111651424Y-124452925D01*
X111665038Y-124473299D01*
X111682365Y-124490626D01*
X111702740Y-124504240D01*
X111725379Y-124513618D01*
X111761664Y-124519000D01*
X111926000Y-124519000D01*
X111926000Y-125671000D01*
X110324000Y-125671000D01*
X110324000Y-124519000D01*
X110488336Y-124519000D01*
X110512722Y-124516598D01*
X110536171Y-124509485D01*
X110557782Y-124497934D01*
X110576724Y-124482388D01*
X110592270Y-124463446D01*
X110603821Y-124441835D01*
X110610934Y-124418386D01*
X110613336Y-124394000D01*
X110610934Y-124369614D01*
X110603821Y-124346165D01*
X110592270Y-124324554D01*
X110567635Y-124297374D01*
X110490736Y-124234264D01*
X110418756Y-124146557D01*
X110365274Y-124046497D01*
X110365271Y-124046492D01*
X110332334Y-123937916D01*
X110321213Y-123825000D01*
X110332334Y-123712084D01*
X110365271Y-123603508D01*
X110418756Y-123503443D01*
X110490736Y-123415736D01*
X110578443Y-123343756D01*
X110659857Y-123300240D01*
X110680232Y-123286627D01*
X110697559Y-123269299D01*
X110711173Y-123248925D01*
X110720550Y-123226286D01*
X110725331Y-123202253D01*
X110725331Y-123177748D01*
X110720551Y-123153715D01*
X110711173Y-123131076D01*
X110697560Y-123110701D01*
X110680232Y-123093374D01*
X110659857Y-123079760D01*
X110578443Y-123036244D01*
X110490736Y-122964264D01*
X110418756Y-122876557D01*
X110365274Y-122776497D01*
X110365271Y-122776492D01*
X110332334Y-122667916D01*
X110321213Y-122555000D01*
X110332334Y-122442084D01*
X110365271Y-122333508D01*
X110418756Y-122233443D01*
X110490736Y-122145736D01*
X110578443Y-122073756D01*
X110678508Y-122020271D01*
X110787084Y-121987334D01*
X110871702Y-121979000D01*
X111378298Y-121979000D01*
X111462916Y-121987334D01*
X111462916Y-121987334D01*
G37*
G36*
X121066000Y-121653500D02*
X118964000Y-121653500D01*
X118964000Y-119646500D01*
X121066000Y-119646500D01*
X121066000Y-121653500D01*
X121066000Y-121653500D01*
G37*
G36*
X96151000Y-120916000D02*
X94349000Y-120916000D01*
X94349000Y-119114000D01*
X96151000Y-119114000D01*
X96151000Y-120916000D01*
X96151000Y-120916000D01*
G37*
G36*
X92820443Y-119120519D02*
X92886627Y-119127037D01*
X92999853Y-119161384D01*
X93056467Y-119178557D01*
X93143311Y-119224977D01*
X93212991Y-119262222D01*
X93248729Y-119291552D01*
X93350186Y-119374814D01*
X93430369Y-119472519D01*
X93462778Y-119512009D01*
X93462779Y-119512011D01*
X93546443Y-119668533D01*
X93563616Y-119725147D01*
X93597963Y-119838373D01*
X93615359Y-120015000D01*
X93597963Y-120191627D01*
X93576243Y-120263228D01*
X93546443Y-120361467D01*
X93477698Y-120490078D01*
X93462778Y-120517991D01*
X93433448Y-120553729D01*
X93350186Y-120655186D01*
X93248729Y-120738448D01*
X93212991Y-120767778D01*
X93212989Y-120767779D01*
X93056467Y-120851443D01*
X93049069Y-120853687D01*
X92886627Y-120902963D01*
X92820442Y-120909482D01*
X92754260Y-120916000D01*
X92665740Y-120916000D01*
X92599558Y-120909482D01*
X92533373Y-120902963D01*
X92370931Y-120853687D01*
X92363533Y-120851443D01*
X92207011Y-120767779D01*
X92207009Y-120767778D01*
X92171271Y-120738448D01*
X92069814Y-120655186D01*
X91986552Y-120553729D01*
X91957222Y-120517991D01*
X91942302Y-120490078D01*
X91873557Y-120361467D01*
X91843757Y-120263228D01*
X91822037Y-120191627D01*
X91804641Y-120015000D01*
X91822037Y-119838373D01*
X91856384Y-119725147D01*
X91873557Y-119668533D01*
X91957221Y-119512011D01*
X91957222Y-119512009D01*
X91989631Y-119472519D01*
X92069814Y-119374814D01*
X92171271Y-119291552D01*
X92207009Y-119262222D01*
X92276689Y-119224977D01*
X92363533Y-119178557D01*
X92420147Y-119161384D01*
X92533373Y-119127037D01*
X92599557Y-119120519D01*
X92665740Y-119114000D01*
X92754260Y-119114000D01*
X92820443Y-119120519D01*
X92820443Y-119120519D01*
G37*
G36*
X105658228Y-119196703D02*
X105813100Y-119260853D01*
X105952481Y-119353985D01*
X106071015Y-119472519D01*
X106164147Y-119611900D01*
X106228297Y-119766772D01*
X106261000Y-119931184D01*
X106261000Y-120098816D01*
X106228297Y-120263228D01*
X106164147Y-120418100D01*
X106071015Y-120557481D01*
X105952481Y-120676015D01*
X105813100Y-120769147D01*
X105658228Y-120833297D01*
X105493816Y-120866000D01*
X105326184Y-120866000D01*
X105161772Y-120833297D01*
X105006900Y-120769147D01*
X104867519Y-120676015D01*
X104748985Y-120557481D01*
X104655853Y-120418100D01*
X104591703Y-120263228D01*
X104559000Y-120098816D01*
X104559000Y-119931184D01*
X104591703Y-119766772D01*
X104655853Y-119611900D01*
X104748985Y-119472519D01*
X104867519Y-119353985D01*
X105006900Y-119260853D01*
X105161772Y-119196703D01*
X105326184Y-119164000D01*
X105493816Y-119164000D01*
X105658228Y-119196703D01*
X105658228Y-119196703D01*
G37*
G36*
X103036821Y-119176313D02*
X103036824Y-119176314D01*
X103036825Y-119176314D01*
X103197239Y-119224975D01*
X103197241Y-119224976D01*
X103197244Y-119224977D01*
X103345078Y-119303995D01*
X103474659Y-119410341D01*
X103581005Y-119539922D01*
X103660023Y-119687756D01*
X103660024Y-119687759D01*
X103660025Y-119687761D01*
X103705713Y-119838375D01*
X103708687Y-119848179D01*
X103725117Y-120015000D01*
X103708687Y-120181821D01*
X103708686Y-120181824D01*
X103708686Y-120181825D01*
X103683993Y-120263228D01*
X103660023Y-120342244D01*
X103581005Y-120490078D01*
X103474659Y-120619659D01*
X103345078Y-120726005D01*
X103197244Y-120805023D01*
X103197241Y-120805024D01*
X103197239Y-120805025D01*
X103036825Y-120853686D01*
X103036824Y-120853686D01*
X103036821Y-120853687D01*
X102911804Y-120866000D01*
X102828196Y-120866000D01*
X102703179Y-120853687D01*
X102703176Y-120853686D01*
X102703175Y-120853686D01*
X102542761Y-120805025D01*
X102542759Y-120805024D01*
X102542756Y-120805023D01*
X102394922Y-120726005D01*
X102265341Y-120619659D01*
X102158995Y-120490078D01*
X102079977Y-120342244D01*
X102056008Y-120263228D01*
X102031314Y-120181825D01*
X102031314Y-120181824D01*
X102031313Y-120181821D01*
X102014883Y-120015000D01*
X102031313Y-119848179D01*
X102034287Y-119838375D01*
X102079975Y-119687761D01*
X102079976Y-119687759D01*
X102079977Y-119687756D01*
X102158995Y-119539922D01*
X102265341Y-119410341D01*
X102394922Y-119303995D01*
X102542756Y-119224977D01*
X102542759Y-119224976D01*
X102542761Y-119224975D01*
X102703175Y-119176314D01*
X102703176Y-119176314D01*
X102703179Y-119176313D01*
X102828196Y-119164000D01*
X102911804Y-119164000D01*
X103036821Y-119176313D01*
X103036821Y-119176313D01*
G37*
G36*
X120170764Y-117112308D02*
X120259220Y-117121020D01*
X120448381Y-117178401D01*
X120622712Y-117271583D01*
X120775515Y-117396985D01*
X120900917Y-117549788D01*
X120994099Y-117724119D01*
X121051480Y-117913280D01*
X121070855Y-118110000D01*
X121051480Y-118306720D01*
X120994099Y-118495881D01*
X120900917Y-118670212D01*
X120775515Y-118823015D01*
X120622712Y-118948417D01*
X120448381Y-119041599D01*
X120259220Y-119098980D01*
X120170764Y-119107692D01*
X120111796Y-119113500D01*
X119918204Y-119113500D01*
X119859236Y-119107692D01*
X119770780Y-119098980D01*
X119581619Y-119041599D01*
X119407288Y-118948417D01*
X119254485Y-118823015D01*
X119129083Y-118670212D01*
X119035901Y-118495881D01*
X118978520Y-118306720D01*
X118959145Y-118110000D01*
X118978520Y-117913280D01*
X119035901Y-117724119D01*
X119129083Y-117549788D01*
X119254485Y-117396985D01*
X119407288Y-117271583D01*
X119581619Y-117178401D01*
X119770780Y-117121020D01*
X119859236Y-117112308D01*
X119918204Y-117106500D01*
X120111796Y-117106500D01*
X120170764Y-117112308D01*
X120170764Y-117112308D01*
G37*
G36*
X125361000Y-119011000D02*
X123559000Y-119011000D01*
X123559000Y-117209000D01*
X125361000Y-117209000D01*
X125361000Y-119011000D01*
X125361000Y-119011000D01*
G37*
G36*
X111291821Y-117271313D02*
X111291824Y-117271314D01*
X111291825Y-117271314D01*
X111452239Y-117319975D01*
X111452241Y-117319976D01*
X111452244Y-117319977D01*
X111600078Y-117398995D01*
X111729659Y-117505341D01*
X111836005Y-117634922D01*
X111915023Y-117782756D01*
X111915024Y-117782759D01*
X111915025Y-117782761D01*
X111954617Y-117913280D01*
X111963687Y-117943179D01*
X111980117Y-118110000D01*
X111963687Y-118276821D01*
X111963686Y-118276824D01*
X111963686Y-118276825D01*
X111938993Y-118358228D01*
X111915023Y-118437244D01*
X111836005Y-118585078D01*
X111729659Y-118714659D01*
X111600078Y-118821005D01*
X111452244Y-118900023D01*
X111452241Y-118900024D01*
X111452239Y-118900025D01*
X111291825Y-118948686D01*
X111291824Y-118948686D01*
X111291821Y-118948687D01*
X111166804Y-118961000D01*
X111083196Y-118961000D01*
X110958179Y-118948687D01*
X110958176Y-118948686D01*
X110958175Y-118948686D01*
X110797761Y-118900025D01*
X110797759Y-118900024D01*
X110797756Y-118900023D01*
X110649922Y-118821005D01*
X110520341Y-118714659D01*
X110413995Y-118585078D01*
X110334977Y-118437244D01*
X110311008Y-118358228D01*
X110286314Y-118276825D01*
X110286314Y-118276824D01*
X110286313Y-118276821D01*
X110269883Y-118110000D01*
X110286313Y-117943179D01*
X110295383Y-117913280D01*
X110334975Y-117782761D01*
X110334976Y-117782759D01*
X110334977Y-117782756D01*
X110413995Y-117634922D01*
X110520341Y-117505341D01*
X110649922Y-117398995D01*
X110797756Y-117319977D01*
X110797759Y-117319976D01*
X110797761Y-117319975D01*
X110958175Y-117271314D01*
X110958176Y-117271314D01*
X110958179Y-117271313D01*
X111083196Y-117259000D01*
X111166804Y-117259000D01*
X111291821Y-117271313D01*
X111291821Y-117271313D01*
G37*
G36*
X113913228Y-117291703D02*
X114068100Y-117355853D01*
X114207481Y-117448985D01*
X114326015Y-117567519D01*
X114419147Y-117706900D01*
X114483297Y-117861772D01*
X114516000Y-118026184D01*
X114516000Y-118193816D01*
X114483297Y-118358228D01*
X114419147Y-118513100D01*
X114326015Y-118652481D01*
X114207481Y-118771015D01*
X114068100Y-118864147D01*
X113913228Y-118928297D01*
X113748816Y-118961000D01*
X113581184Y-118961000D01*
X113416772Y-118928297D01*
X113261900Y-118864147D01*
X113122519Y-118771015D01*
X113003985Y-118652481D01*
X112910853Y-118513100D01*
X112846703Y-118358228D01*
X112814000Y-118193816D01*
X112814000Y-118026184D01*
X112846703Y-117861772D01*
X112910853Y-117706900D01*
X113003985Y-117567519D01*
X113122519Y-117448985D01*
X113261900Y-117355853D01*
X113416772Y-117291703D01*
X113581184Y-117259000D01*
X113748816Y-117259000D01*
X113913228Y-117291703D01*
X113913228Y-117291703D01*
G37*
G36*
X106561000Y-116721000D02*
X104259000Y-116721000D01*
X104259000Y-114419000D01*
X106561000Y-114419000D01*
X106561000Y-116721000D01*
X106561000Y-116721000D01*
G37*
G36*
X95374180Y-114425662D02*
X95475635Y-114435654D01*
X95692600Y-114501470D01*
X95692602Y-114501471D01*
X95692605Y-114501472D01*
X95892556Y-114608347D01*
X96067818Y-114752182D01*
X96211653Y-114927444D01*
X96318528Y-115127395D01*
X96318529Y-115127398D01*
X96318530Y-115127400D01*
X96384346Y-115344365D01*
X96406569Y-115570000D01*
X96384346Y-115795635D01*
X96318530Y-116012600D01*
X96318528Y-116012605D01*
X96211653Y-116212556D01*
X96067818Y-116387818D01*
X95892556Y-116531653D01*
X95692605Y-116638528D01*
X95692602Y-116638529D01*
X95692600Y-116638530D01*
X95475635Y-116704346D01*
X95374180Y-116714338D01*
X95306545Y-116721000D01*
X95193455Y-116721000D01*
X95125820Y-116714338D01*
X95024365Y-116704346D01*
X94807400Y-116638530D01*
X94807398Y-116638529D01*
X94807395Y-116638528D01*
X94607444Y-116531653D01*
X94432182Y-116387818D01*
X94288347Y-116212556D01*
X94181472Y-116012605D01*
X94181470Y-116012600D01*
X94115654Y-115795635D01*
X94093431Y-115570000D01*
X94115654Y-115344365D01*
X94181470Y-115127400D01*
X94181471Y-115127398D01*
X94181472Y-115127395D01*
X94288347Y-114927444D01*
X94432182Y-114752182D01*
X94607444Y-114608347D01*
X94807395Y-114501472D01*
X94807398Y-114501471D01*
X94807400Y-114501470D01*
X95024365Y-114435654D01*
X95125820Y-114425662D01*
X95193455Y-114419000D01*
X95306545Y-114419000D01*
X95374180Y-114425662D01*
X95374180Y-114425662D01*
G37*
G36*
X120170764Y-114572308D02*
X120259220Y-114581020D01*
X120448381Y-114638401D01*
X120622712Y-114731583D01*
X120775515Y-114856985D01*
X120900917Y-115009788D01*
X120994099Y-115184119D01*
X121051480Y-115373280D01*
X121070855Y-115570000D01*
X121051480Y-115766720D01*
X120994099Y-115955881D01*
X120900917Y-116130212D01*
X120775515Y-116283015D01*
X120622712Y-116408417D01*
X120448381Y-116501599D01*
X120259220Y-116558980D01*
X120170764Y-116567692D01*
X120111796Y-116573500D01*
X119918204Y-116573500D01*
X119859236Y-116567692D01*
X119770780Y-116558980D01*
X119581619Y-116501599D01*
X119407288Y-116408417D01*
X119254485Y-116283015D01*
X119129083Y-116130212D01*
X119035901Y-115955881D01*
X118978520Y-115766720D01*
X118959145Y-115570000D01*
X118978520Y-115373280D01*
X119035901Y-115184119D01*
X119129083Y-115009788D01*
X119254485Y-114856985D01*
X119407288Y-114731583D01*
X119581619Y-114638401D01*
X119770780Y-114581020D01*
X119859236Y-114572308D01*
X119918204Y-114566500D01*
X120111796Y-114566500D01*
X120170764Y-114572308D01*
X120170764Y-114572308D01*
G37*
G36*
X124570443Y-114675519D02*
X124636627Y-114682037D01*
X124749853Y-114716384D01*
X124806467Y-114733557D01*
X124841311Y-114752182D01*
X124962991Y-114817222D01*
X124998729Y-114846552D01*
X125100186Y-114929814D01*
X125183448Y-115031271D01*
X125212778Y-115067009D01*
X125212779Y-115067011D01*
X125296443Y-115223533D01*
X125296443Y-115223534D01*
X125347963Y-115393373D01*
X125365359Y-115570000D01*
X125347963Y-115746627D01*
X125313616Y-115859853D01*
X125296443Y-115916467D01*
X125275375Y-115955881D01*
X125212778Y-116072991D01*
X125183448Y-116108729D01*
X125100186Y-116210186D01*
X125011442Y-116283015D01*
X124962991Y-116322778D01*
X124962989Y-116322779D01*
X124806467Y-116406443D01*
X124799959Y-116408417D01*
X124636627Y-116457963D01*
X124570442Y-116464482D01*
X124504260Y-116471000D01*
X124415740Y-116471000D01*
X124349558Y-116464482D01*
X124283373Y-116457963D01*
X124120041Y-116408417D01*
X124113533Y-116406443D01*
X123957011Y-116322779D01*
X123957009Y-116322778D01*
X123908558Y-116283015D01*
X123819814Y-116210186D01*
X123736552Y-116108729D01*
X123707222Y-116072991D01*
X123644625Y-115955881D01*
X123623557Y-115916467D01*
X123606384Y-115859853D01*
X123572037Y-115746627D01*
X123554641Y-115570000D01*
X123572037Y-115393373D01*
X123623557Y-115223534D01*
X123623557Y-115223533D01*
X123707221Y-115067011D01*
X123707222Y-115067009D01*
X123736552Y-115031271D01*
X123819814Y-114929814D01*
X123921271Y-114846552D01*
X123957009Y-114817222D01*
X124078689Y-114752182D01*
X124113533Y-114733557D01*
X124170147Y-114716384D01*
X124283373Y-114682037D01*
X124349557Y-114675519D01*
X124415740Y-114669000D01*
X124504260Y-114669000D01*
X124570443Y-114675519D01*
X124570443Y-114675519D01*
G37*
G36*
X113775443Y-113405519D02*
X113841627Y-113412037D01*
X113954853Y-113446384D01*
X114011467Y-113463557D01*
X114150087Y-113537652D01*
X114167991Y-113547222D01*
X114203729Y-113576552D01*
X114305186Y-113659814D01*
X114388448Y-113761271D01*
X114417778Y-113797009D01*
X114417779Y-113797011D01*
X114501443Y-113953533D01*
X114501443Y-113953534D01*
X114552963Y-114123373D01*
X114570359Y-114300000D01*
X114552963Y-114476627D01*
X114545426Y-114501472D01*
X114501443Y-114646467D01*
X114482430Y-114682037D01*
X114417778Y-114802991D01*
X114388448Y-114838729D01*
X114305186Y-114940186D01*
X114220374Y-115009788D01*
X114167991Y-115052778D01*
X114167989Y-115052779D01*
X114011467Y-115136443D01*
X113954853Y-115153616D01*
X113841627Y-115187963D01*
X113775442Y-115194482D01*
X113709260Y-115201000D01*
X113620740Y-115201000D01*
X113554558Y-115194482D01*
X113488373Y-115187963D01*
X113375147Y-115153616D01*
X113318533Y-115136443D01*
X113162011Y-115052779D01*
X113162009Y-115052778D01*
X113109626Y-115009788D01*
X113024814Y-114940186D01*
X112941552Y-114838729D01*
X112912222Y-114802991D01*
X112847570Y-114682037D01*
X112828557Y-114646467D01*
X112784574Y-114501472D01*
X112777037Y-114476627D01*
X112759641Y-114300000D01*
X112777037Y-114123373D01*
X112828557Y-113953534D01*
X112828557Y-113953533D01*
X112912221Y-113797011D01*
X112912222Y-113797009D01*
X112941552Y-113761271D01*
X113024814Y-113659814D01*
X113126271Y-113576552D01*
X113162009Y-113547222D01*
X113179913Y-113537652D01*
X113318533Y-113463557D01*
X113375147Y-113446384D01*
X113488373Y-113412037D01*
X113554557Y-113405519D01*
X113620740Y-113399000D01*
X113709260Y-113399000D01*
X113775443Y-113405519D01*
X113775443Y-113405519D01*
G37*
G36*
X112026000Y-115201000D02*
X110224000Y-115201000D01*
X110224000Y-113399000D01*
X112026000Y-113399000D01*
X112026000Y-115201000D01*
X112026000Y-115201000D01*
G37*
G36*
X116453228Y-107131703D02*
X116608100Y-107195853D01*
X116747481Y-107288985D01*
X116866015Y-107407519D01*
X116959147Y-107546900D01*
X117023297Y-107701772D01*
X117056000Y-107866184D01*
X117056000Y-108033816D01*
X117023297Y-108198228D01*
X116959147Y-108353100D01*
X116866015Y-108492481D01*
X116747481Y-108611015D01*
X116608100Y-108704147D01*
X116453228Y-108768297D01*
X116288816Y-108801000D01*
X116121184Y-108801000D01*
X115956772Y-108768297D01*
X115801900Y-108704147D01*
X115662519Y-108611015D01*
X115543985Y-108492481D01*
X115450853Y-108353100D01*
X115386703Y-108198228D01*
X115354000Y-108033816D01*
X115354000Y-107866184D01*
X115386703Y-107701772D01*
X115450853Y-107546900D01*
X115543985Y-107407519D01*
X115662519Y-107288985D01*
X115801900Y-107195853D01*
X115956772Y-107131703D01*
X116121184Y-107099000D01*
X116288816Y-107099000D01*
X116453228Y-107131703D01*
X116453228Y-107131703D01*
G37*
G36*
X94228228Y-107059806D02*
X94383100Y-107123956D01*
X94522481Y-107217088D01*
X94641015Y-107335622D01*
X94734147Y-107475003D01*
X94798297Y-107629875D01*
X94831000Y-107794287D01*
X94831000Y-107961919D01*
X94798297Y-108126331D01*
X94734147Y-108281203D01*
X94641015Y-108420584D01*
X94522481Y-108539118D01*
X94383100Y-108632250D01*
X94228228Y-108696400D01*
X94063816Y-108729103D01*
X93896184Y-108729103D01*
X93731772Y-108696400D01*
X93576900Y-108632250D01*
X93437519Y-108539118D01*
X93318985Y-108420584D01*
X93225853Y-108281203D01*
X93161703Y-108126331D01*
X93129000Y-107961919D01*
X93129000Y-107794287D01*
X93161703Y-107629875D01*
X93225853Y-107475003D01*
X93318985Y-107335622D01*
X93437519Y-107217088D01*
X93576900Y-107123956D01*
X93731772Y-107059806D01*
X93896184Y-107027103D01*
X94063816Y-107027103D01*
X94228228Y-107059806D01*
X94228228Y-107059806D01*
G37*
G36*
X106928228Y-105861703D02*
X107083100Y-105925853D01*
X107222481Y-106018985D01*
X107341015Y-106137519D01*
X107434147Y-106276900D01*
X107498297Y-106431772D01*
X107531000Y-106596184D01*
X107531000Y-106763816D01*
X107498297Y-106928228D01*
X107434147Y-107083100D01*
X107341015Y-107222481D01*
X107222481Y-107341015D01*
X107083100Y-107434147D01*
X106928228Y-107498297D01*
X106763816Y-107531000D01*
X106596184Y-107531000D01*
X106431772Y-107498297D01*
X106276900Y-107434147D01*
X106137519Y-107341015D01*
X106018985Y-107222481D01*
X105925853Y-107083100D01*
X105861703Y-106928228D01*
X105829000Y-106763816D01*
X105829000Y-106596184D01*
X105861703Y-106431772D01*
X105925853Y-106276900D01*
X106018985Y-106137519D01*
X106137519Y-106018985D01*
X106276900Y-105925853D01*
X106431772Y-105861703D01*
X106596184Y-105829000D01*
X106763816Y-105829000D01*
X106928228Y-105861703D01*
X106928228Y-105861703D01*
G37*
G36*
X104306821Y-105841313D02*
X104306824Y-105841314D01*
X104306825Y-105841314D01*
X104467239Y-105889975D01*
X104467241Y-105889976D01*
X104467244Y-105889977D01*
X104615078Y-105968995D01*
X104744659Y-106075341D01*
X104851005Y-106204922D01*
X104930023Y-106352756D01*
X104930024Y-106352759D01*
X104930025Y-106352761D01*
X104978686Y-106513175D01*
X104978687Y-106513179D01*
X104995117Y-106680000D01*
X104978687Y-106846821D01*
X104978686Y-106846824D01*
X104978686Y-106846825D01*
X104953993Y-106928228D01*
X104930023Y-107007244D01*
X104851005Y-107155078D01*
X104744659Y-107284659D01*
X104615078Y-107391005D01*
X104467244Y-107470023D01*
X104467241Y-107470024D01*
X104467239Y-107470025D01*
X104306825Y-107518686D01*
X104306824Y-107518686D01*
X104306821Y-107518687D01*
X104181804Y-107531000D01*
X104098196Y-107531000D01*
X103973179Y-107518687D01*
X103973176Y-107518686D01*
X103973175Y-107518686D01*
X103812761Y-107470025D01*
X103812759Y-107470024D01*
X103812756Y-107470023D01*
X103664922Y-107391005D01*
X103535341Y-107284659D01*
X103428995Y-107155078D01*
X103349977Y-107007244D01*
X103326008Y-106928228D01*
X103301314Y-106846825D01*
X103301314Y-106846824D01*
X103301313Y-106846821D01*
X103284883Y-106680000D01*
X103301313Y-106513179D01*
X103301314Y-106513175D01*
X103349975Y-106352761D01*
X103349976Y-106352759D01*
X103349977Y-106352756D01*
X103428995Y-106204922D01*
X103535341Y-106075341D01*
X103664922Y-105968995D01*
X103812756Y-105889977D01*
X103812759Y-105889976D01*
X103812761Y-105889975D01*
X103973175Y-105841314D01*
X103973176Y-105841314D01*
X103973179Y-105841313D01*
X104098196Y-105829000D01*
X104181804Y-105829000D01*
X104306821Y-105841313D01*
X104306821Y-105841313D01*
G37*
G36*
X94831000Y-106729103D02*
X93129000Y-106729103D01*
X93129000Y-105027103D01*
X94831000Y-105027103D01*
X94831000Y-106729103D01*
X94831000Y-106729103D01*
G37*
G36*
X116371821Y-104571313D02*
X116371824Y-104571314D01*
X116371825Y-104571314D01*
X116532239Y-104619975D01*
X116532241Y-104619976D01*
X116532244Y-104619977D01*
X116680078Y-104698995D01*
X116809659Y-104805341D01*
X116916005Y-104934922D01*
X116995023Y-105082756D01*
X117043687Y-105243179D01*
X117060117Y-105410000D01*
X117043687Y-105576821D01*
X116995023Y-105737244D01*
X116916005Y-105885078D01*
X116809659Y-106014659D01*
X116680078Y-106121005D01*
X116532244Y-106200023D01*
X116532241Y-106200024D01*
X116532239Y-106200025D01*
X116371825Y-106248686D01*
X116371824Y-106248686D01*
X116371821Y-106248687D01*
X116246804Y-106261000D01*
X116163196Y-106261000D01*
X116038179Y-106248687D01*
X116038176Y-106248686D01*
X116038175Y-106248686D01*
X115877761Y-106200025D01*
X115877759Y-106200024D01*
X115877756Y-106200023D01*
X115729922Y-106121005D01*
X115600341Y-106014659D01*
X115493995Y-105885078D01*
X115414977Y-105737244D01*
X115366313Y-105576821D01*
X115349883Y-105410000D01*
X115366313Y-105243179D01*
X115414977Y-105082756D01*
X115493995Y-104934922D01*
X115600341Y-104805341D01*
X115729922Y-104698995D01*
X115877756Y-104619977D01*
X115877759Y-104619976D01*
X115877761Y-104619975D01*
X116038175Y-104571314D01*
X116038176Y-104571314D01*
X116038179Y-104571313D01*
X116163196Y-104559000D01*
X116246804Y-104559000D01*
X116371821Y-104571313D01*
X116371821Y-104571313D01*
G37*
G36*
X111462916Y-102302334D02*
X111571492Y-102335271D01*
X111671557Y-102388756D01*
X111759264Y-102460736D01*
X111831244Y-102548443D01*
X111884729Y-102648508D01*
X111917666Y-102757084D01*
X111928787Y-102870000D01*
X111917666Y-102982916D01*
X111884729Y-103091492D01*
X111884726Y-103091497D01*
X111831244Y-103191557D01*
X111759264Y-103279264D01*
X111671557Y-103351244D01*
X111590143Y-103394760D01*
X111569768Y-103408373D01*
X111552441Y-103425701D01*
X111538827Y-103446075D01*
X111529450Y-103468714D01*
X111524669Y-103492747D01*
X111524669Y-103517252D01*
X111529449Y-103541285D01*
X111538827Y-103563924D01*
X111552440Y-103584299D01*
X111569768Y-103601626D01*
X111590143Y-103615240D01*
X111671557Y-103658756D01*
X111759264Y-103730736D01*
X111831244Y-103818443D01*
X111884729Y-103918508D01*
X111917666Y-104027084D01*
X111928787Y-104140000D01*
X111917666Y-104252916D01*
X111884729Y-104361492D01*
X111884726Y-104361497D01*
X111831244Y-104461557D01*
X111759264Y-104549264D01*
X111682365Y-104612374D01*
X111665038Y-104629701D01*
X111651424Y-104650076D01*
X111642046Y-104672715D01*
X111637266Y-104696748D01*
X111637266Y-104721252D01*
X111642047Y-104745286D01*
X111651424Y-104767925D01*
X111665038Y-104788299D01*
X111682365Y-104805626D01*
X111702740Y-104819240D01*
X111725379Y-104828618D01*
X111761664Y-104834000D01*
X111926000Y-104834000D01*
X111926000Y-105986000D01*
X110324000Y-105986000D01*
X110324000Y-104834000D01*
X110488336Y-104834000D01*
X110512722Y-104831598D01*
X110536171Y-104824485D01*
X110557782Y-104812934D01*
X110576724Y-104797388D01*
X110592270Y-104778446D01*
X110603821Y-104756835D01*
X110610934Y-104733386D01*
X110613336Y-104709000D01*
X110610934Y-104684614D01*
X110603821Y-104661165D01*
X110592270Y-104639554D01*
X110567635Y-104612374D01*
X110490736Y-104549264D01*
X110418756Y-104461557D01*
X110365274Y-104361497D01*
X110365271Y-104361492D01*
X110332334Y-104252916D01*
X110321213Y-104140000D01*
X110332334Y-104027084D01*
X110365271Y-103918508D01*
X110418756Y-103818443D01*
X110490736Y-103730736D01*
X110578443Y-103658756D01*
X110659857Y-103615240D01*
X110680232Y-103601627D01*
X110697559Y-103584299D01*
X110711173Y-103563925D01*
X110720550Y-103541286D01*
X110725331Y-103517253D01*
X110725331Y-103492748D01*
X110720551Y-103468715D01*
X110711173Y-103446076D01*
X110697560Y-103425701D01*
X110680232Y-103408374D01*
X110659857Y-103394760D01*
X110578443Y-103351244D01*
X110490736Y-103279264D01*
X110418756Y-103191557D01*
X110365274Y-103091497D01*
X110365271Y-103091492D01*
X110332334Y-102982916D01*
X110321213Y-102870000D01*
X110332334Y-102757084D01*
X110365271Y-102648508D01*
X110418756Y-102548443D01*
X110490736Y-102460736D01*
X110578443Y-102388756D01*
X110678508Y-102335271D01*
X110787084Y-102302334D01*
X110871702Y-102294000D01*
X111378298Y-102294000D01*
X111462916Y-102302334D01*
X111462916Y-102302334D01*
G37*
G36*
X121066000Y-101968500D02*
X118964000Y-101968500D01*
X118964000Y-99961500D01*
X121066000Y-99961500D01*
X121066000Y-101968500D01*
X121066000Y-101968500D01*
G37*
G36*
X94537025Y-98833693D02*
X94688012Y-98879495D01*
X94827165Y-98953873D01*
X94949133Y-99053970D01*
X95049230Y-99175938D01*
X95123608Y-99315091D01*
X95169410Y-99466078D01*
X95184875Y-99623103D01*
X95169410Y-99780128D01*
X95123608Y-99931115D01*
X95049230Y-100070268D01*
X94949133Y-100192236D01*
X94827165Y-100292333D01*
X94688012Y-100366711D01*
X94537025Y-100412513D01*
X94419346Y-100424103D01*
X93540654Y-100424103D01*
X93422975Y-100412513D01*
X93271988Y-100366711D01*
X93132835Y-100292333D01*
X93010867Y-100192236D01*
X92910770Y-100070268D01*
X92836392Y-99931115D01*
X92790590Y-99780128D01*
X92775125Y-99623103D01*
X92790590Y-99466078D01*
X92836392Y-99315091D01*
X92910770Y-99175938D01*
X93010867Y-99053970D01*
X93132835Y-98953873D01*
X93271988Y-98879495D01*
X93422975Y-98833693D01*
X93540654Y-98822103D01*
X94419346Y-98822103D01*
X94537025Y-98833693D01*
X94537025Y-98833693D01*
G37*
G36*
X120170764Y-97427308D02*
X120259220Y-97436020D01*
X120448381Y-97493401D01*
X120622712Y-97586583D01*
X120775515Y-97711985D01*
X120900917Y-97864788D01*
X120994099Y-98039119D01*
X121051480Y-98228280D01*
X121070855Y-98425000D01*
X121051480Y-98621720D01*
X120994099Y-98810881D01*
X120900917Y-98985212D01*
X120775515Y-99138015D01*
X120622712Y-99263417D01*
X120448381Y-99356599D01*
X120259220Y-99413980D01*
X120170764Y-99422692D01*
X120111796Y-99428500D01*
X119918204Y-99428500D01*
X119859236Y-99422692D01*
X119770780Y-99413980D01*
X119581619Y-99356599D01*
X119407288Y-99263417D01*
X119254485Y-99138015D01*
X119129083Y-98985212D01*
X119035901Y-98810881D01*
X118978520Y-98621720D01*
X118959145Y-98425000D01*
X118978520Y-98228280D01*
X119035901Y-98039119D01*
X119129083Y-97864788D01*
X119254485Y-97711985D01*
X119407288Y-97586583D01*
X119581619Y-97493401D01*
X119770780Y-97436020D01*
X119859236Y-97427308D01*
X119918204Y-97421500D01*
X120111796Y-97421500D01*
X120170764Y-97427308D01*
X120170764Y-97427308D01*
G37*
G36*
X125361000Y-99326000D02*
X123559000Y-99326000D01*
X123559000Y-97524000D01*
X125361000Y-97524000D01*
X125361000Y-99326000D01*
X125361000Y-99326000D01*
G37*
G36*
X113913228Y-97606703D02*
X114068100Y-97670853D01*
X114207481Y-97763985D01*
X114326015Y-97882519D01*
X114419147Y-98021900D01*
X114483297Y-98176772D01*
X114516000Y-98341184D01*
X114516000Y-98508816D01*
X114483297Y-98673228D01*
X114419147Y-98828100D01*
X114326015Y-98967481D01*
X114207481Y-99086015D01*
X114068100Y-99179147D01*
X113913228Y-99243297D01*
X113748816Y-99276000D01*
X113581184Y-99276000D01*
X113416772Y-99243297D01*
X113261900Y-99179147D01*
X113122519Y-99086015D01*
X113003985Y-98967481D01*
X112910853Y-98828100D01*
X112846703Y-98673228D01*
X112814000Y-98508816D01*
X112814000Y-98341184D01*
X112846703Y-98176772D01*
X112910853Y-98021900D01*
X113003985Y-97882519D01*
X113122519Y-97763985D01*
X113261900Y-97670853D01*
X113416772Y-97606703D01*
X113581184Y-97574000D01*
X113748816Y-97574000D01*
X113913228Y-97606703D01*
X113913228Y-97606703D01*
G37*
G36*
X111291821Y-97586313D02*
X111291824Y-97586314D01*
X111291825Y-97586314D01*
X111452239Y-97634975D01*
X111452241Y-97634976D01*
X111452244Y-97634977D01*
X111600078Y-97713995D01*
X111729659Y-97820341D01*
X111836005Y-97949922D01*
X111915023Y-98097756D01*
X111915024Y-98097759D01*
X111915025Y-98097761D01*
X111954617Y-98228280D01*
X111963687Y-98258179D01*
X111980117Y-98425000D01*
X111963687Y-98591821D01*
X111963686Y-98591824D01*
X111963686Y-98591825D01*
X111924589Y-98720712D01*
X111915023Y-98752244D01*
X111836005Y-98900078D01*
X111729659Y-99029659D01*
X111600078Y-99136005D01*
X111452244Y-99215023D01*
X111452241Y-99215024D01*
X111452239Y-99215025D01*
X111291825Y-99263686D01*
X111291824Y-99263686D01*
X111291821Y-99263687D01*
X111166804Y-99276000D01*
X111083196Y-99276000D01*
X110958179Y-99263687D01*
X110958176Y-99263686D01*
X110958175Y-99263686D01*
X110797761Y-99215025D01*
X110797759Y-99215024D01*
X110797756Y-99215023D01*
X110649922Y-99136005D01*
X110520341Y-99029659D01*
X110413995Y-98900078D01*
X110334977Y-98752244D01*
X110325412Y-98720712D01*
X110286314Y-98591825D01*
X110286314Y-98591824D01*
X110286313Y-98591821D01*
X110269883Y-98425000D01*
X110286313Y-98258179D01*
X110295383Y-98228280D01*
X110334975Y-98097761D01*
X110334976Y-98097759D01*
X110334977Y-98097756D01*
X110413995Y-97949922D01*
X110520341Y-97820341D01*
X110649922Y-97713995D01*
X110797756Y-97634977D01*
X110797759Y-97634976D01*
X110797761Y-97634975D01*
X110958175Y-97586314D01*
X110958176Y-97586314D01*
X110958179Y-97586313D01*
X111083196Y-97574000D01*
X111166804Y-97574000D01*
X111291821Y-97586313D01*
X111291821Y-97586313D01*
G37*
G36*
X44749866Y-96778717D02*
X44941135Y-96857943D01*
X45113277Y-96972965D01*
X45259664Y-97119352D01*
X45374686Y-97291494D01*
X45453912Y-97482763D01*
X45494301Y-97685812D01*
X45494301Y-97892844D01*
X45453912Y-98095893D01*
X45374686Y-98287162D01*
X45259664Y-98459304D01*
X45113277Y-98605691D01*
X44941135Y-98720713D01*
X44749866Y-98799939D01*
X44546817Y-98840328D01*
X44339785Y-98840328D01*
X44136736Y-98799939D01*
X43945467Y-98720713D01*
X43773325Y-98605691D01*
X43626938Y-98459304D01*
X43511916Y-98287162D01*
X43432690Y-98095893D01*
X43392301Y-97892844D01*
X43392301Y-97685812D01*
X43432690Y-97482763D01*
X43511916Y-97291494D01*
X43626938Y-97119352D01*
X43773325Y-96972965D01*
X43945467Y-96857943D01*
X44136736Y-96778717D01*
X44339785Y-96738328D01*
X44546817Y-96738328D01*
X44749866Y-96778717D01*
X44749866Y-96778717D01*
G37*
G36*
X49829866Y-96778717D02*
X50021135Y-96857943D01*
X50193277Y-96972965D01*
X50339664Y-97119352D01*
X50454686Y-97291494D01*
X50533912Y-97482763D01*
X50574301Y-97685812D01*
X50574301Y-97892844D01*
X50533912Y-98095893D01*
X50454686Y-98287162D01*
X50339664Y-98459304D01*
X50193277Y-98605691D01*
X50021135Y-98720713D01*
X49829866Y-98799939D01*
X49626817Y-98840328D01*
X49419785Y-98840328D01*
X49216736Y-98799939D01*
X49025467Y-98720713D01*
X48853325Y-98605691D01*
X48706938Y-98459304D01*
X48591916Y-98287162D01*
X48512690Y-98095893D01*
X48472301Y-97892844D01*
X48472301Y-97685812D01*
X48512690Y-97482763D01*
X48591916Y-97291494D01*
X48706938Y-97119352D01*
X48853325Y-96972965D01*
X49025467Y-96857943D01*
X49216736Y-96778717D01*
X49419785Y-96738328D01*
X49626817Y-96738328D01*
X49829866Y-96778717D01*
X49829866Y-96778717D01*
G37*
G36*
X47289866Y-96778717D02*
X47481135Y-96857943D01*
X47653277Y-96972965D01*
X47799664Y-97119352D01*
X47914686Y-97291494D01*
X47993912Y-97482763D01*
X48034301Y-97685812D01*
X48034301Y-97892844D01*
X47993912Y-98095893D01*
X47914686Y-98287162D01*
X47799664Y-98459304D01*
X47653277Y-98605691D01*
X47481135Y-98720713D01*
X47289866Y-98799939D01*
X47086817Y-98840328D01*
X46879785Y-98840328D01*
X46676736Y-98799939D01*
X46485467Y-98720713D01*
X46313325Y-98605691D01*
X46166938Y-98459304D01*
X46051916Y-98287162D01*
X45972690Y-98095893D01*
X45932301Y-97892844D01*
X45932301Y-97685812D01*
X45972690Y-97482763D01*
X46051916Y-97291494D01*
X46166938Y-97119352D01*
X46313325Y-96972965D01*
X46485467Y-96857943D01*
X46676736Y-96778717D01*
X46879785Y-96738328D01*
X47086817Y-96738328D01*
X47289866Y-96778717D01*
X47289866Y-96778717D01*
G37*
G36*
X52369866Y-96778717D02*
X52561135Y-96857943D01*
X52733277Y-96972965D01*
X52879664Y-97119352D01*
X52994686Y-97291494D01*
X53073912Y-97482763D01*
X53114301Y-97685812D01*
X53114301Y-97892844D01*
X53073912Y-98095893D01*
X52994686Y-98287162D01*
X52879664Y-98459304D01*
X52733277Y-98605691D01*
X52561135Y-98720713D01*
X52369866Y-98799939D01*
X52166817Y-98840328D01*
X51959785Y-98840328D01*
X51756736Y-98799939D01*
X51565467Y-98720713D01*
X51393325Y-98605691D01*
X51246938Y-98459304D01*
X51131916Y-98287162D01*
X51052690Y-98095893D01*
X51012301Y-97892844D01*
X51012301Y-97685812D01*
X51052690Y-97482763D01*
X51131916Y-97291494D01*
X51246938Y-97119352D01*
X51393325Y-96972965D01*
X51565467Y-96857943D01*
X51756736Y-96778717D01*
X51959785Y-96738328D01*
X52166817Y-96738328D01*
X52369866Y-96778717D01*
X52369866Y-96778717D01*
G37*
G36*
X94537025Y-96293693D02*
X94688012Y-96339495D01*
X94827165Y-96413873D01*
X94949133Y-96513970D01*
X95049230Y-96635938D01*
X95123608Y-96775091D01*
X95169410Y-96926078D01*
X95184875Y-97083103D01*
X95169410Y-97240128D01*
X95123608Y-97391115D01*
X95049230Y-97530268D01*
X94949133Y-97652236D01*
X94827165Y-97752333D01*
X94688012Y-97826711D01*
X94537025Y-97872513D01*
X94419346Y-97884103D01*
X93540654Y-97884103D01*
X93422975Y-97872513D01*
X93271988Y-97826711D01*
X93132835Y-97752333D01*
X93010867Y-97652236D01*
X92910770Y-97530268D01*
X92836392Y-97391115D01*
X92790590Y-97240128D01*
X92775125Y-97083103D01*
X92790590Y-96926078D01*
X92836392Y-96775091D01*
X92910770Y-96635938D01*
X93010867Y-96513970D01*
X93132835Y-96413873D01*
X93271988Y-96339495D01*
X93422975Y-96293693D01*
X93540654Y-96282103D01*
X94419346Y-96282103D01*
X94537025Y-96293693D01*
X94537025Y-96293693D01*
G37*
G36*
X120170764Y-94887308D02*
X120259220Y-94896020D01*
X120448381Y-94953401D01*
X120622712Y-95046583D01*
X120775515Y-95171985D01*
X120900917Y-95324788D01*
X120994099Y-95499119D01*
X121051480Y-95688280D01*
X121070855Y-95885000D01*
X121051480Y-96081720D01*
X120994099Y-96270881D01*
X120900917Y-96445212D01*
X120775515Y-96598015D01*
X120622712Y-96723417D01*
X120448381Y-96816599D01*
X120259220Y-96873980D01*
X120170764Y-96882692D01*
X120111796Y-96888500D01*
X119918204Y-96888500D01*
X119859236Y-96882692D01*
X119770780Y-96873980D01*
X119581619Y-96816599D01*
X119407288Y-96723417D01*
X119254485Y-96598015D01*
X119129083Y-96445212D01*
X119035901Y-96270881D01*
X118978520Y-96081720D01*
X118959145Y-95885000D01*
X118978520Y-95688280D01*
X119035901Y-95499119D01*
X119129083Y-95324788D01*
X119254485Y-95171985D01*
X119407288Y-95046583D01*
X119581619Y-94953401D01*
X119770780Y-94896020D01*
X119859236Y-94887308D01*
X119918204Y-94881500D01*
X120111796Y-94881500D01*
X120170764Y-94887308D01*
X120170764Y-94887308D01*
G37*
G36*
X124570443Y-94990519D02*
X124636627Y-94997037D01*
X124749853Y-95031384D01*
X124806467Y-95048557D01*
X124936363Y-95117989D01*
X124962991Y-95132222D01*
X124998729Y-95161552D01*
X125100186Y-95244814D01*
X125181669Y-95344103D01*
X125212778Y-95382009D01*
X125212779Y-95382011D01*
X125296443Y-95538533D01*
X125296443Y-95538534D01*
X125347963Y-95708373D01*
X125365359Y-95885000D01*
X125347963Y-96061627D01*
X125313616Y-96174853D01*
X125296443Y-96231467D01*
X125275375Y-96270881D01*
X125212778Y-96387991D01*
X125191537Y-96413873D01*
X125100186Y-96525186D01*
X125011442Y-96598015D01*
X124962991Y-96637778D01*
X124962989Y-96637779D01*
X124806467Y-96721443D01*
X124799959Y-96723417D01*
X124636627Y-96772963D01*
X124570442Y-96779482D01*
X124504260Y-96786000D01*
X124415740Y-96786000D01*
X124349558Y-96779482D01*
X124283373Y-96772963D01*
X124120041Y-96723417D01*
X124113533Y-96721443D01*
X123957011Y-96637779D01*
X123957009Y-96637778D01*
X123908558Y-96598015D01*
X123819814Y-96525186D01*
X123728463Y-96413873D01*
X123707222Y-96387991D01*
X123644625Y-96270881D01*
X123623557Y-96231467D01*
X123606384Y-96174853D01*
X123572037Y-96061627D01*
X123554641Y-95885000D01*
X123572037Y-95708373D01*
X123623557Y-95538534D01*
X123623557Y-95538533D01*
X123707221Y-95382011D01*
X123707222Y-95382009D01*
X123738331Y-95344103D01*
X123819814Y-95244814D01*
X123921271Y-95161552D01*
X123957009Y-95132222D01*
X123983637Y-95117989D01*
X124113533Y-95048557D01*
X124170147Y-95031384D01*
X124283373Y-94997037D01*
X124349557Y-94990519D01*
X124415740Y-94984000D01*
X124504260Y-94984000D01*
X124570443Y-94990519D01*
X124570443Y-94990519D01*
G37*
G36*
X112026000Y-95516000D02*
X110224000Y-95516000D01*
X110224000Y-93714000D01*
X112026000Y-93714000D01*
X112026000Y-95516000D01*
X112026000Y-95516000D01*
G37*
G36*
X113775443Y-93720519D02*
X113841627Y-93727037D01*
X113954853Y-93761384D01*
X114011467Y-93778557D01*
X114150087Y-93852652D01*
X114167991Y-93862222D01*
X114203729Y-93891552D01*
X114305186Y-93974814D01*
X114388448Y-94076271D01*
X114417778Y-94112009D01*
X114417779Y-94112011D01*
X114501443Y-94268533D01*
X114501443Y-94268534D01*
X114552963Y-94438373D01*
X114570359Y-94615000D01*
X114552963Y-94791627D01*
X114525700Y-94881500D01*
X114501443Y-94961467D01*
X114482430Y-94997037D01*
X114417778Y-95117991D01*
X114388448Y-95153729D01*
X114305186Y-95255186D01*
X114220374Y-95324788D01*
X114167991Y-95367778D01*
X114167989Y-95367779D01*
X114011467Y-95451443D01*
X113954853Y-95468616D01*
X113841627Y-95502963D01*
X113775443Y-95509481D01*
X113709260Y-95516000D01*
X113620740Y-95516000D01*
X113554557Y-95509481D01*
X113488373Y-95502963D01*
X113375147Y-95468616D01*
X113318533Y-95451443D01*
X113162011Y-95367779D01*
X113162009Y-95367778D01*
X113109626Y-95324788D01*
X113024814Y-95255186D01*
X112941552Y-95153729D01*
X112912222Y-95117991D01*
X112847570Y-94997037D01*
X112828557Y-94961467D01*
X112804300Y-94881500D01*
X112777037Y-94791627D01*
X112759641Y-94615000D01*
X112777037Y-94438373D01*
X112828557Y-94268534D01*
X112828557Y-94268533D01*
X112912221Y-94112011D01*
X112912222Y-94112009D01*
X112941552Y-94076271D01*
X113024814Y-93974814D01*
X113126271Y-93891552D01*
X113162009Y-93862222D01*
X113179913Y-93852652D01*
X113318533Y-93778557D01*
X113375147Y-93761384D01*
X113488373Y-93727037D01*
X113554557Y-93720519D01*
X113620740Y-93714000D01*
X113709260Y-93714000D01*
X113775443Y-93720519D01*
X113775443Y-93720519D01*
G37*
G36*
X89801000Y-95516000D02*
X87999000Y-95516000D01*
X87999000Y-93714000D01*
X89801000Y-93714000D01*
X89801000Y-95516000D01*
X89801000Y-95516000D01*
G37*
G36*
X95181000Y-95344103D02*
X92779000Y-95344103D01*
X92779000Y-93742103D01*
X95181000Y-93742103D01*
X95181000Y-95344103D01*
X95181000Y-95344103D01*
G37*
G36*
X89010442Y-91180518D02*
X89076627Y-91187037D01*
X89189853Y-91221384D01*
X89246467Y-91238557D01*
X89385087Y-91312652D01*
X89402991Y-91322222D01*
X89438729Y-91351552D01*
X89540186Y-91434814D01*
X89623448Y-91536271D01*
X89652778Y-91572009D01*
X89652779Y-91572011D01*
X89736443Y-91728533D01*
X89736443Y-91728534D01*
X89787963Y-91898373D01*
X89805359Y-92075000D01*
X89787963Y-92251627D01*
X89753616Y-92364853D01*
X89736443Y-92421467D01*
X89662348Y-92560087D01*
X89652778Y-92577991D01*
X89623448Y-92613729D01*
X89540186Y-92715186D01*
X89438729Y-92798448D01*
X89402991Y-92827778D01*
X89402989Y-92827779D01*
X89246467Y-92911443D01*
X89189853Y-92928616D01*
X89076627Y-92962963D01*
X89010442Y-92969482D01*
X88944260Y-92976000D01*
X88855740Y-92976000D01*
X88789558Y-92969482D01*
X88723373Y-92962963D01*
X88610147Y-92928616D01*
X88553533Y-92911443D01*
X88397011Y-92827779D01*
X88397009Y-92827778D01*
X88361271Y-92798448D01*
X88259814Y-92715186D01*
X88176552Y-92613729D01*
X88147222Y-92577991D01*
X88137652Y-92560087D01*
X88063557Y-92421467D01*
X88046384Y-92364853D01*
X88012037Y-92251627D01*
X87994641Y-92075000D01*
X88012037Y-91898373D01*
X88063557Y-91728534D01*
X88063557Y-91728533D01*
X88147221Y-91572011D01*
X88147222Y-91572009D01*
X88176552Y-91536271D01*
X88259814Y-91434814D01*
X88361271Y-91351552D01*
X88397009Y-91322222D01*
X88414913Y-91312652D01*
X88553533Y-91238557D01*
X88610147Y-91221384D01*
X88723373Y-91187037D01*
X88789558Y-91180518D01*
X88855740Y-91174000D01*
X88944260Y-91174000D01*
X89010442Y-91180518D01*
X89010442Y-91180518D01*
G37*
G36*
X67886801Y-92976000D02*
X66084801Y-92976000D01*
X66084801Y-91174000D01*
X67886801Y-91174000D01*
X67886801Y-92976000D01*
X67886801Y-92976000D01*
G37*
G36*
X62812828Y-89807699D02*
X61010828Y-89807699D01*
X61010828Y-88005699D01*
X62812828Y-88005699D01*
X62812828Y-89807699D01*
X62812828Y-89807699D01*
G37*
G36*
X57732828Y-89807699D02*
X55930828Y-89807699D01*
X55930828Y-88005699D01*
X57732828Y-88005699D01*
X57732828Y-89807699D01*
X57732828Y-89807699D01*
G37*
G36*
X94831000Y-89751000D02*
X93129000Y-89751000D01*
X93129000Y-88049000D01*
X94831000Y-88049000D01*
X94831000Y-89751000D01*
X94831000Y-89751000D01*
G37*
G36*
X116453228Y-87446703D02*
X116608100Y-87510853D01*
X116747481Y-87603985D01*
X116866015Y-87722519D01*
X116959147Y-87861900D01*
X117023297Y-88016772D01*
X117056000Y-88181184D01*
X117056000Y-88348816D01*
X117023297Y-88513228D01*
X116959147Y-88668100D01*
X116866015Y-88807481D01*
X116747481Y-88926015D01*
X116608100Y-89019147D01*
X116453228Y-89083297D01*
X116288816Y-89116000D01*
X116121184Y-89116000D01*
X115956772Y-89083297D01*
X115801900Y-89019147D01*
X115662519Y-88926015D01*
X115543985Y-88807481D01*
X115450853Y-88668100D01*
X115386703Y-88513228D01*
X115354000Y-88348816D01*
X115354000Y-88181184D01*
X115386703Y-88016772D01*
X115450853Y-87861900D01*
X115543985Y-87722519D01*
X115662519Y-87603985D01*
X115801900Y-87510853D01*
X115956772Y-87446703D01*
X116121184Y-87414000D01*
X116288816Y-87414000D01*
X116453228Y-87446703D01*
X116453228Y-87446703D01*
G37*
G36*
X89010442Y-86735518D02*
X89076627Y-86742037D01*
X89189853Y-86776384D01*
X89246467Y-86793557D01*
X89311239Y-86828179D01*
X89402991Y-86877222D01*
X89438729Y-86906552D01*
X89540186Y-86989814D01*
X89613227Y-87078816D01*
X89652778Y-87127009D01*
X89652779Y-87127011D01*
X89736443Y-87283533D01*
X89736443Y-87283534D01*
X89787963Y-87453373D01*
X89805359Y-87630000D01*
X89787963Y-87806627D01*
X89779754Y-87833687D01*
X89736443Y-87976467D01*
X89662348Y-88115087D01*
X89652778Y-88132991D01*
X89623448Y-88168729D01*
X89540186Y-88270186D01*
X89444374Y-88348816D01*
X89402991Y-88382778D01*
X89402989Y-88382779D01*
X89246467Y-88466443D01*
X89189853Y-88483616D01*
X89076627Y-88517963D01*
X89010442Y-88524482D01*
X88944260Y-88531000D01*
X88855740Y-88531000D01*
X88789558Y-88524482D01*
X88723373Y-88517963D01*
X88610147Y-88483616D01*
X88553533Y-88466443D01*
X88397011Y-88382779D01*
X88397009Y-88382778D01*
X88355626Y-88348816D01*
X88259814Y-88270186D01*
X88176552Y-88168729D01*
X88147222Y-88132991D01*
X88137652Y-88115087D01*
X88063557Y-87976467D01*
X88020246Y-87833687D01*
X88012037Y-87806627D01*
X87994641Y-87630000D01*
X88012037Y-87453373D01*
X88063557Y-87283534D01*
X88063557Y-87283533D01*
X88147221Y-87127011D01*
X88147222Y-87127009D01*
X88186773Y-87078816D01*
X88259814Y-86989814D01*
X88361271Y-86906552D01*
X88397009Y-86877222D01*
X88488761Y-86828179D01*
X88553533Y-86793557D01*
X88610147Y-86776384D01*
X88723373Y-86742037D01*
X88789558Y-86735518D01*
X88855740Y-86729000D01*
X88944260Y-86729000D01*
X89010442Y-86735518D01*
X89010442Y-86735518D01*
G37*
G36*
X87261000Y-88531000D02*
X85459000Y-88531000D01*
X85459000Y-86729000D01*
X87261000Y-86729000D01*
X87261000Y-88531000D01*
X87261000Y-88531000D01*
G37*
G36*
X67886801Y-87895328D02*
X66084801Y-87895328D01*
X66084801Y-86093328D01*
X67886801Y-86093328D01*
X67886801Y-87895328D01*
X67886801Y-87895328D01*
G37*
G36*
X104306821Y-86156313D02*
X104306824Y-86156314D01*
X104306825Y-86156314D01*
X104467239Y-86204975D01*
X104467241Y-86204976D01*
X104467244Y-86204977D01*
X104615078Y-86283995D01*
X104744659Y-86390341D01*
X104851005Y-86519922D01*
X104930023Y-86667756D01*
X104930024Y-86667759D01*
X104930025Y-86667761D01*
X104978686Y-86828175D01*
X104978687Y-86828179D01*
X104995117Y-86995000D01*
X104978687Y-87161821D01*
X104978686Y-87161824D01*
X104978686Y-87161825D01*
X104935831Y-87303100D01*
X104930023Y-87322244D01*
X104851005Y-87470078D01*
X104744659Y-87599659D01*
X104615078Y-87706005D01*
X104467244Y-87785023D01*
X104467241Y-87785024D01*
X104467239Y-87785025D01*
X104306825Y-87833686D01*
X104306824Y-87833686D01*
X104306821Y-87833687D01*
X104181804Y-87846000D01*
X104098196Y-87846000D01*
X103973179Y-87833687D01*
X103973176Y-87833686D01*
X103973175Y-87833686D01*
X103812761Y-87785025D01*
X103812759Y-87785024D01*
X103812756Y-87785023D01*
X103664922Y-87706005D01*
X103535341Y-87599659D01*
X103428995Y-87470078D01*
X103349977Y-87322244D01*
X103344170Y-87303100D01*
X103301314Y-87161825D01*
X103301314Y-87161824D01*
X103301313Y-87161821D01*
X103284883Y-86995000D01*
X103301313Y-86828179D01*
X103301314Y-86828175D01*
X103349975Y-86667761D01*
X103349976Y-86667759D01*
X103349977Y-86667756D01*
X103428995Y-86519922D01*
X103535341Y-86390341D01*
X103664922Y-86283995D01*
X103812756Y-86204977D01*
X103812759Y-86204976D01*
X103812761Y-86204975D01*
X103973175Y-86156314D01*
X103973176Y-86156314D01*
X103973179Y-86156313D01*
X104098196Y-86144000D01*
X104181804Y-86144000D01*
X104306821Y-86156313D01*
X104306821Y-86156313D01*
G37*
G36*
X106928228Y-86176703D02*
X107083100Y-86240853D01*
X107222481Y-86333985D01*
X107341015Y-86452519D01*
X107434147Y-86591900D01*
X107498297Y-86746772D01*
X107531000Y-86911184D01*
X107531000Y-87078816D01*
X107498297Y-87243228D01*
X107434147Y-87398100D01*
X107341015Y-87537481D01*
X107222481Y-87656015D01*
X107083100Y-87749147D01*
X106928228Y-87813297D01*
X106763816Y-87846000D01*
X106596184Y-87846000D01*
X106431772Y-87813297D01*
X106276900Y-87749147D01*
X106137519Y-87656015D01*
X106018985Y-87537481D01*
X105925853Y-87398100D01*
X105861703Y-87243228D01*
X105829000Y-87078816D01*
X105829000Y-86911184D01*
X105861703Y-86746772D01*
X105925853Y-86591900D01*
X106018985Y-86452519D01*
X106137519Y-86333985D01*
X106276900Y-86240853D01*
X106431772Y-86176703D01*
X106596184Y-86144000D01*
X106763816Y-86144000D01*
X106928228Y-86176703D01*
X106928228Y-86176703D01*
G37*
G36*
X94228228Y-86081703D02*
X94383100Y-86145853D01*
X94522481Y-86238985D01*
X94641015Y-86357519D01*
X94734147Y-86496900D01*
X94798297Y-86651772D01*
X94831000Y-86816184D01*
X94831000Y-86983816D01*
X94798297Y-87148228D01*
X94734147Y-87303100D01*
X94641015Y-87442481D01*
X94522481Y-87561015D01*
X94383100Y-87654147D01*
X94228228Y-87718297D01*
X94063816Y-87751000D01*
X93896184Y-87751000D01*
X93731772Y-87718297D01*
X93576900Y-87654147D01*
X93437519Y-87561015D01*
X93318985Y-87442481D01*
X93225853Y-87303100D01*
X93161703Y-87148228D01*
X93129000Y-86983816D01*
X93129000Y-86816184D01*
X93161703Y-86651772D01*
X93225853Y-86496900D01*
X93318985Y-86357519D01*
X93437519Y-86238985D01*
X93576900Y-86145853D01*
X93731772Y-86081703D01*
X93896184Y-86049000D01*
X94063816Y-86049000D01*
X94228228Y-86081703D01*
X94228228Y-86081703D01*
G37*
G36*
X56942270Y-85472217D02*
X57008455Y-85478736D01*
X57121681Y-85513083D01*
X57178295Y-85530256D01*
X57230534Y-85558179D01*
X57334819Y-85613921D01*
X57370557Y-85643251D01*
X57472014Y-85726513D01*
X57555276Y-85827970D01*
X57584606Y-85863708D01*
X57584607Y-85863710D01*
X57668271Y-86020232D01*
X57685444Y-86076846D01*
X57719791Y-86190072D01*
X57737187Y-86366699D01*
X57719791Y-86543326D01*
X57709879Y-86576000D01*
X57668271Y-86713166D01*
X57650308Y-86746772D01*
X57584606Y-86869690D01*
X57555276Y-86905428D01*
X57472014Y-87006885D01*
X57370557Y-87090147D01*
X57334819Y-87119477D01*
X57334817Y-87119478D01*
X57178295Y-87203142D01*
X57121681Y-87220315D01*
X57008455Y-87254662D01*
X56942270Y-87261181D01*
X56876088Y-87267699D01*
X56787568Y-87267699D01*
X56721386Y-87261181D01*
X56655201Y-87254662D01*
X56541975Y-87220315D01*
X56485361Y-87203142D01*
X56328839Y-87119478D01*
X56328837Y-87119477D01*
X56293099Y-87090147D01*
X56191642Y-87006885D01*
X56108380Y-86905428D01*
X56079050Y-86869690D01*
X56013348Y-86746772D01*
X55995385Y-86713166D01*
X55953777Y-86576000D01*
X55943865Y-86543326D01*
X55926469Y-86366699D01*
X55943865Y-86190072D01*
X55978212Y-86076846D01*
X55995385Y-86020232D01*
X56079049Y-85863710D01*
X56079050Y-85863708D01*
X56108380Y-85827970D01*
X56191642Y-85726513D01*
X56293099Y-85643251D01*
X56328837Y-85613921D01*
X56433122Y-85558179D01*
X56485361Y-85530256D01*
X56541975Y-85513083D01*
X56655201Y-85478736D01*
X56721386Y-85472217D01*
X56787568Y-85465699D01*
X56876088Y-85465699D01*
X56942270Y-85472217D01*
X56942270Y-85472217D01*
G37*
G36*
X62022270Y-85472217D02*
X62088455Y-85478736D01*
X62201681Y-85513083D01*
X62258295Y-85530256D01*
X62310534Y-85558179D01*
X62414819Y-85613921D01*
X62450557Y-85643251D01*
X62552014Y-85726513D01*
X62635276Y-85827970D01*
X62664606Y-85863708D01*
X62664607Y-85863710D01*
X62748271Y-86020232D01*
X62765444Y-86076846D01*
X62799791Y-86190072D01*
X62817187Y-86366699D01*
X62799791Y-86543326D01*
X62789879Y-86576000D01*
X62748271Y-86713166D01*
X62730308Y-86746772D01*
X62664606Y-86869690D01*
X62635276Y-86905428D01*
X62552014Y-87006885D01*
X62450557Y-87090147D01*
X62414819Y-87119477D01*
X62414817Y-87119478D01*
X62258295Y-87203142D01*
X62201681Y-87220315D01*
X62088455Y-87254662D01*
X62022270Y-87261181D01*
X61956088Y-87267699D01*
X61867568Y-87267699D01*
X61801386Y-87261181D01*
X61735201Y-87254662D01*
X61621975Y-87220315D01*
X61565361Y-87203142D01*
X61408839Y-87119478D01*
X61408837Y-87119477D01*
X61373099Y-87090147D01*
X61271642Y-87006885D01*
X61188380Y-86905428D01*
X61159050Y-86869690D01*
X61093348Y-86746772D01*
X61075385Y-86713166D01*
X61033777Y-86576000D01*
X61023865Y-86543326D01*
X61006469Y-86366699D01*
X61023865Y-86190072D01*
X61058212Y-86076846D01*
X61075385Y-86020232D01*
X61159049Y-85863710D01*
X61159050Y-85863708D01*
X61188380Y-85827970D01*
X61271642Y-85726513D01*
X61373099Y-85643251D01*
X61408837Y-85613921D01*
X61513122Y-85558179D01*
X61565361Y-85530256D01*
X61621975Y-85513083D01*
X61735201Y-85478736D01*
X61801386Y-85472217D01*
X61867568Y-85465699D01*
X61956088Y-85465699D01*
X62022270Y-85472217D01*
X62022270Y-85472217D01*
G37*
G36*
X116371821Y-84886313D02*
X116371824Y-84886314D01*
X116371825Y-84886314D01*
X116532239Y-84934975D01*
X116532241Y-84934976D01*
X116532244Y-84934977D01*
X116680078Y-85013995D01*
X116809659Y-85120341D01*
X116916005Y-85249922D01*
X116995023Y-85397756D01*
X116995024Y-85397759D01*
X116995025Y-85397761D01*
X117021035Y-85483505D01*
X117043687Y-85558179D01*
X117060117Y-85725000D01*
X117043687Y-85891821D01*
X117043686Y-85891824D01*
X117043686Y-85891825D01*
X116996008Y-86049000D01*
X116995023Y-86052244D01*
X116916005Y-86200078D01*
X116809659Y-86329659D01*
X116680078Y-86436005D01*
X116532244Y-86515023D01*
X116532241Y-86515024D01*
X116532239Y-86515025D01*
X116371825Y-86563686D01*
X116371824Y-86563686D01*
X116371821Y-86563687D01*
X116246804Y-86576000D01*
X116163196Y-86576000D01*
X116038179Y-86563687D01*
X116038176Y-86563686D01*
X116038175Y-86563686D01*
X115877761Y-86515025D01*
X115877759Y-86515024D01*
X115877756Y-86515023D01*
X115729922Y-86436005D01*
X115600341Y-86329659D01*
X115493995Y-86200078D01*
X115414977Y-86052244D01*
X115413993Y-86049000D01*
X115366314Y-85891825D01*
X115366314Y-85891824D01*
X115366313Y-85891821D01*
X115349883Y-85725000D01*
X115366313Y-85558179D01*
X115388965Y-85483505D01*
X115414975Y-85397761D01*
X115414976Y-85397759D01*
X115414977Y-85397756D01*
X115493995Y-85249922D01*
X115600341Y-85120341D01*
X115729922Y-85013995D01*
X115877756Y-84934977D01*
X115877759Y-84934976D01*
X115877761Y-84934975D01*
X116038175Y-84886314D01*
X116038176Y-84886314D01*
X116038179Y-84886313D01*
X116163196Y-84874000D01*
X116246804Y-84874000D01*
X116371821Y-84886313D01*
X116371821Y-84886313D01*
G37*
G36*
X111462916Y-82617334D02*
X111571492Y-82650271D01*
X111671557Y-82703756D01*
X111759264Y-82775736D01*
X111831244Y-82863443D01*
X111884729Y-82963508D01*
X111917666Y-83072084D01*
X111928787Y-83185000D01*
X111917666Y-83297916D01*
X111884729Y-83406492D01*
X111884726Y-83406497D01*
X111831244Y-83506557D01*
X111759264Y-83594264D01*
X111671557Y-83666244D01*
X111590143Y-83709760D01*
X111569768Y-83723373D01*
X111552441Y-83740701D01*
X111538827Y-83761075D01*
X111529450Y-83783714D01*
X111524669Y-83807747D01*
X111524669Y-83832252D01*
X111529449Y-83856285D01*
X111538827Y-83878924D01*
X111552440Y-83899299D01*
X111569768Y-83916626D01*
X111590143Y-83930240D01*
X111671557Y-83973756D01*
X111759264Y-84045736D01*
X111831244Y-84133443D01*
X111884729Y-84233508D01*
X111917666Y-84342084D01*
X111928787Y-84455000D01*
X111917666Y-84567916D01*
X111884729Y-84676492D01*
X111884726Y-84676497D01*
X111831244Y-84776557D01*
X111759264Y-84864264D01*
X111682365Y-84927374D01*
X111665038Y-84944701D01*
X111651424Y-84965076D01*
X111642046Y-84987715D01*
X111637266Y-85011748D01*
X111637266Y-85036252D01*
X111642047Y-85060286D01*
X111651424Y-85082925D01*
X111665038Y-85103299D01*
X111682365Y-85120626D01*
X111702740Y-85134240D01*
X111725379Y-85143618D01*
X111761664Y-85149000D01*
X111926000Y-85149000D01*
X111926000Y-86301000D01*
X110324000Y-86301000D01*
X110324000Y-85149000D01*
X110488336Y-85149000D01*
X110512722Y-85146598D01*
X110536171Y-85139485D01*
X110557782Y-85127934D01*
X110576724Y-85112388D01*
X110592270Y-85093446D01*
X110603821Y-85071835D01*
X110610934Y-85048386D01*
X110613336Y-85024000D01*
X110610934Y-84999614D01*
X110603821Y-84976165D01*
X110592270Y-84954554D01*
X110567635Y-84927374D01*
X110490736Y-84864264D01*
X110418756Y-84776557D01*
X110365274Y-84676497D01*
X110365271Y-84676492D01*
X110332334Y-84567916D01*
X110321213Y-84455000D01*
X110332334Y-84342084D01*
X110365271Y-84233508D01*
X110418756Y-84133443D01*
X110490736Y-84045736D01*
X110578443Y-83973756D01*
X110659857Y-83930240D01*
X110680232Y-83916627D01*
X110697559Y-83899299D01*
X110711173Y-83878925D01*
X110720550Y-83856286D01*
X110725331Y-83832253D01*
X110725331Y-83807748D01*
X110720551Y-83783715D01*
X110711173Y-83761076D01*
X110697560Y-83740701D01*
X110680232Y-83723374D01*
X110659857Y-83709760D01*
X110578443Y-83666244D01*
X110490736Y-83594264D01*
X110418756Y-83506557D01*
X110365274Y-83406497D01*
X110365271Y-83406492D01*
X110332334Y-83297916D01*
X110321213Y-83185000D01*
X110332334Y-83072084D01*
X110365271Y-82963508D01*
X110418756Y-82863443D01*
X110490736Y-82775736D01*
X110578443Y-82703756D01*
X110678508Y-82650271D01*
X110787084Y-82617334D01*
X110871702Y-82609000D01*
X111378298Y-82609000D01*
X111462916Y-82617334D01*
X111462916Y-82617334D01*
G37*
G36*
X71604321Y-83933813D02*
X71604324Y-83933814D01*
X71604325Y-83933814D01*
X71764739Y-83982475D01*
X71764741Y-83982476D01*
X71764744Y-83982477D01*
X71912578Y-84061495D01*
X72042159Y-84167841D01*
X72148505Y-84297422D01*
X72227523Y-84445256D01*
X72227524Y-84445259D01*
X72227525Y-84445261D01*
X72264732Y-84567916D01*
X72276187Y-84605679D01*
X72292617Y-84772500D01*
X72276187Y-84939321D01*
X72276186Y-84939324D01*
X72276186Y-84939325D01*
X72229434Y-85093446D01*
X72227523Y-85099744D01*
X72148505Y-85247578D01*
X72042159Y-85377159D01*
X71912578Y-85483505D01*
X71764744Y-85562523D01*
X71764741Y-85562524D01*
X71764739Y-85562525D01*
X71604325Y-85611186D01*
X71604324Y-85611186D01*
X71604321Y-85611187D01*
X71479304Y-85623500D01*
X71395696Y-85623500D01*
X71270679Y-85611187D01*
X71270676Y-85611186D01*
X71270675Y-85611186D01*
X71110261Y-85562525D01*
X71110259Y-85562524D01*
X71110256Y-85562523D01*
X70962422Y-85483505D01*
X70832841Y-85377159D01*
X70726495Y-85247578D01*
X70647477Y-85099744D01*
X70645567Y-85093446D01*
X70598814Y-84939325D01*
X70598814Y-84939324D01*
X70598813Y-84939321D01*
X70582383Y-84772500D01*
X70598813Y-84605679D01*
X70610268Y-84567916D01*
X70647475Y-84445261D01*
X70647476Y-84445259D01*
X70647477Y-84445256D01*
X70726495Y-84297422D01*
X70832841Y-84167841D01*
X70962422Y-84061495D01*
X71110256Y-83982477D01*
X71110259Y-83982476D01*
X71110261Y-83982475D01*
X71270675Y-83933814D01*
X71270676Y-83933814D01*
X71270679Y-83933813D01*
X71395696Y-83921500D01*
X71479304Y-83921500D01*
X71604321Y-83933813D01*
X71604321Y-83933813D01*
G37*
G36*
X79224321Y-83933813D02*
X79224324Y-83933814D01*
X79224325Y-83933814D01*
X79384739Y-83982475D01*
X79384741Y-83982476D01*
X79384744Y-83982477D01*
X79532578Y-84061495D01*
X79662159Y-84167841D01*
X79768505Y-84297422D01*
X79847523Y-84445256D01*
X79847524Y-84445259D01*
X79847525Y-84445261D01*
X79884732Y-84567916D01*
X79896187Y-84605679D01*
X79912617Y-84772500D01*
X79896187Y-84939321D01*
X79896186Y-84939324D01*
X79896186Y-84939325D01*
X79849434Y-85093446D01*
X79847523Y-85099744D01*
X79768505Y-85247578D01*
X79662159Y-85377159D01*
X79532578Y-85483505D01*
X79384744Y-85562523D01*
X79384741Y-85562524D01*
X79384739Y-85562525D01*
X79224325Y-85611186D01*
X79224324Y-85611186D01*
X79224321Y-85611187D01*
X79099304Y-85623500D01*
X79015696Y-85623500D01*
X78890679Y-85611187D01*
X78890676Y-85611186D01*
X78890675Y-85611186D01*
X78730261Y-85562525D01*
X78730259Y-85562524D01*
X78730256Y-85562523D01*
X78582422Y-85483505D01*
X78452841Y-85377159D01*
X78346495Y-85247578D01*
X78267477Y-85099744D01*
X78265567Y-85093446D01*
X78218814Y-84939325D01*
X78218814Y-84939324D01*
X78218813Y-84939321D01*
X78202383Y-84772500D01*
X78218813Y-84605679D01*
X78230268Y-84567916D01*
X78267475Y-84445261D01*
X78267476Y-84445259D01*
X78267477Y-84445256D01*
X78346495Y-84297422D01*
X78452841Y-84167841D01*
X78582422Y-84061495D01*
X78730256Y-83982477D01*
X78730259Y-83982476D01*
X78730261Y-83982475D01*
X78890675Y-83933814D01*
X78890676Y-83933814D01*
X78890679Y-83933813D01*
X79015696Y-83921500D01*
X79099304Y-83921500D01*
X79224321Y-83933813D01*
X79224321Y-83933813D01*
G37*
G36*
X79224321Y-81393813D02*
X79224324Y-81393814D01*
X79224325Y-81393814D01*
X79384739Y-81442475D01*
X79384741Y-81442476D01*
X79384744Y-81442477D01*
X79532578Y-81521495D01*
X79662159Y-81627841D01*
X79768505Y-81757422D01*
X79847523Y-81905256D01*
X79896187Y-82065679D01*
X79912617Y-82232500D01*
X79896187Y-82399321D01*
X79847523Y-82559744D01*
X79768505Y-82707578D01*
X79662159Y-82837159D01*
X79532578Y-82943505D01*
X79384744Y-83022523D01*
X79384741Y-83022524D01*
X79384739Y-83022525D01*
X79224325Y-83071186D01*
X79224324Y-83071186D01*
X79224321Y-83071187D01*
X79099304Y-83083500D01*
X79015696Y-83083500D01*
X78890679Y-83071187D01*
X78890676Y-83071186D01*
X78890675Y-83071186D01*
X78730261Y-83022525D01*
X78730259Y-83022524D01*
X78730256Y-83022523D01*
X78582422Y-82943505D01*
X78452841Y-82837159D01*
X78346495Y-82707578D01*
X78267477Y-82559744D01*
X78218813Y-82399321D01*
X78202383Y-82232500D01*
X78218813Y-82065679D01*
X78267477Y-81905256D01*
X78346495Y-81757422D01*
X78452841Y-81627841D01*
X78582422Y-81521495D01*
X78730256Y-81442477D01*
X78730259Y-81442476D01*
X78730261Y-81442475D01*
X78890675Y-81393814D01*
X78890676Y-81393814D01*
X78890679Y-81393813D01*
X79015696Y-81381500D01*
X79099304Y-81381500D01*
X79224321Y-81393813D01*
X79224321Y-81393813D01*
G37*
G36*
X71604321Y-81393813D02*
X71604324Y-81393814D01*
X71604325Y-81393814D01*
X71764739Y-81442475D01*
X71764741Y-81442476D01*
X71764744Y-81442477D01*
X71912578Y-81521495D01*
X72042159Y-81627841D01*
X72148505Y-81757422D01*
X72227523Y-81905256D01*
X72276187Y-82065679D01*
X72292617Y-82232500D01*
X72276187Y-82399321D01*
X72227523Y-82559744D01*
X72148505Y-82707578D01*
X72042159Y-82837159D01*
X71912578Y-82943505D01*
X71764744Y-83022523D01*
X71764741Y-83022524D01*
X71764739Y-83022525D01*
X71604325Y-83071186D01*
X71604324Y-83071186D01*
X71604321Y-83071187D01*
X71479304Y-83083500D01*
X71395696Y-83083500D01*
X71270679Y-83071187D01*
X71270676Y-83071186D01*
X71270675Y-83071186D01*
X71110261Y-83022525D01*
X71110259Y-83022524D01*
X71110256Y-83022523D01*
X70962422Y-82943505D01*
X70832841Y-82837159D01*
X70726495Y-82707578D01*
X70647477Y-82559744D01*
X70598813Y-82399321D01*
X70582383Y-82232500D01*
X70598813Y-82065679D01*
X70647477Y-81905256D01*
X70726495Y-81757422D01*
X70832841Y-81627841D01*
X70962422Y-81521495D01*
X71110256Y-81442477D01*
X71110259Y-81442476D01*
X71110261Y-81442475D01*
X71270675Y-81393814D01*
X71270676Y-81393814D01*
X71270679Y-81393813D01*
X71395696Y-81381500D01*
X71479304Y-81381500D01*
X71604321Y-81393813D01*
X71604321Y-81393813D01*
G37*
G36*
X65272228Y-81183703D02*
X65427100Y-81247853D01*
X65566481Y-81340985D01*
X65685015Y-81459519D01*
X65778147Y-81598900D01*
X65842297Y-81753772D01*
X65875000Y-81918184D01*
X65875000Y-82085816D01*
X65842297Y-82250228D01*
X65778147Y-82405100D01*
X65685015Y-82544481D01*
X65566481Y-82663015D01*
X65427100Y-82756147D01*
X65272228Y-82820297D01*
X65107816Y-82853000D01*
X64940184Y-82853000D01*
X64775772Y-82820297D01*
X64620900Y-82756147D01*
X64481519Y-82663015D01*
X64362985Y-82544481D01*
X64269853Y-82405100D01*
X64205703Y-82250228D01*
X64173000Y-82085816D01*
X64173000Y-81918184D01*
X64205703Y-81753772D01*
X64269853Y-81598900D01*
X64362985Y-81459519D01*
X64481519Y-81340985D01*
X64620900Y-81247853D01*
X64775772Y-81183703D01*
X64940184Y-81151000D01*
X65107816Y-81151000D01*
X65272228Y-81183703D01*
X65272228Y-81183703D01*
G37*
G36*
X121066000Y-82283500D02*
X118964000Y-82283500D01*
X118964000Y-80276500D01*
X121066000Y-80276500D01*
X121066000Y-82283500D01*
X121066000Y-82283500D01*
G37*
G36*
X79224321Y-78853813D02*
X79224324Y-78853814D01*
X79224325Y-78853814D01*
X79384739Y-78902475D01*
X79384741Y-78902476D01*
X79384744Y-78902477D01*
X79532578Y-78981495D01*
X79662159Y-79087841D01*
X79768505Y-79217422D01*
X79847523Y-79365256D01*
X79847524Y-79365259D01*
X79847525Y-79365261D01*
X79873535Y-79451005D01*
X79896187Y-79525679D01*
X79912617Y-79692500D01*
X79896187Y-79859321D01*
X79896186Y-79859324D01*
X79896186Y-79859325D01*
X79852570Y-80003108D01*
X79847523Y-80019744D01*
X79768505Y-80167578D01*
X79662159Y-80297159D01*
X79532578Y-80403505D01*
X79384744Y-80482523D01*
X79384741Y-80482524D01*
X79384739Y-80482525D01*
X79224325Y-80531186D01*
X79224324Y-80531186D01*
X79224321Y-80531187D01*
X79099304Y-80543500D01*
X79015696Y-80543500D01*
X78890679Y-80531187D01*
X78890676Y-80531186D01*
X78890675Y-80531186D01*
X78730261Y-80482525D01*
X78730259Y-80482524D01*
X78730256Y-80482523D01*
X78582422Y-80403505D01*
X78452841Y-80297159D01*
X78346495Y-80167578D01*
X78267477Y-80019744D01*
X78262431Y-80003108D01*
X78218814Y-79859325D01*
X78218814Y-79859324D01*
X78218813Y-79859321D01*
X78202383Y-79692500D01*
X78218813Y-79525679D01*
X78241465Y-79451005D01*
X78267475Y-79365261D01*
X78267476Y-79365259D01*
X78267477Y-79365256D01*
X78346495Y-79217422D01*
X78452841Y-79087841D01*
X78582422Y-78981495D01*
X78730256Y-78902477D01*
X78730259Y-78902476D01*
X78730261Y-78902475D01*
X78890675Y-78853814D01*
X78890676Y-78853814D01*
X78890679Y-78853813D01*
X79015696Y-78841500D01*
X79099304Y-78841500D01*
X79224321Y-78853813D01*
X79224321Y-78853813D01*
G37*
G36*
X71604321Y-78853813D02*
X71604324Y-78853814D01*
X71604325Y-78853814D01*
X71764739Y-78902475D01*
X71764741Y-78902476D01*
X71764744Y-78902477D01*
X71912578Y-78981495D01*
X72042159Y-79087841D01*
X72148505Y-79217422D01*
X72227523Y-79365256D01*
X72227524Y-79365259D01*
X72227525Y-79365261D01*
X72253535Y-79451005D01*
X72276187Y-79525679D01*
X72292617Y-79692500D01*
X72276187Y-79859321D01*
X72276186Y-79859324D01*
X72276186Y-79859325D01*
X72232570Y-80003108D01*
X72227523Y-80019744D01*
X72148505Y-80167578D01*
X72042159Y-80297159D01*
X71912578Y-80403505D01*
X71764744Y-80482523D01*
X71764741Y-80482524D01*
X71764739Y-80482525D01*
X71604325Y-80531186D01*
X71604324Y-80531186D01*
X71604321Y-80531187D01*
X71479304Y-80543500D01*
X71395696Y-80543500D01*
X71270679Y-80531187D01*
X71270676Y-80531186D01*
X71270675Y-80531186D01*
X71110261Y-80482525D01*
X71110259Y-80482524D01*
X71110256Y-80482523D01*
X70962422Y-80403505D01*
X70832841Y-80297159D01*
X70726495Y-80167578D01*
X70647477Y-80019744D01*
X70642431Y-80003108D01*
X70598814Y-79859325D01*
X70598814Y-79859324D01*
X70598813Y-79859321D01*
X70582383Y-79692500D01*
X70598813Y-79525679D01*
X70621465Y-79451005D01*
X70647475Y-79365261D01*
X70647476Y-79365259D01*
X70647477Y-79365256D01*
X70726495Y-79217422D01*
X70832841Y-79087841D01*
X70962422Y-78981495D01*
X71110256Y-78902477D01*
X71110259Y-78902476D01*
X71110261Y-78902475D01*
X71270675Y-78853814D01*
X71270676Y-78853814D01*
X71270679Y-78853813D01*
X71395696Y-78841500D01*
X71479304Y-78841500D01*
X71604321Y-78853813D01*
X71604321Y-78853813D01*
G37*
G36*
X65272228Y-78683703D02*
X65427100Y-78747853D01*
X65566481Y-78840985D01*
X65685015Y-78959519D01*
X65778147Y-79098900D01*
X65842297Y-79253772D01*
X65875000Y-79418184D01*
X65875000Y-79585816D01*
X65842297Y-79750228D01*
X65778147Y-79905100D01*
X65685015Y-80044481D01*
X65566481Y-80163015D01*
X65427100Y-80256147D01*
X65272228Y-80320297D01*
X65107816Y-80353000D01*
X64940184Y-80353000D01*
X64775772Y-80320297D01*
X64620900Y-80256147D01*
X64481519Y-80163015D01*
X64362985Y-80044481D01*
X64269853Y-79905100D01*
X64205703Y-79750228D01*
X64173000Y-79585816D01*
X64173000Y-79418184D01*
X64205703Y-79253772D01*
X64269853Y-79098900D01*
X64362985Y-78959519D01*
X64481519Y-78840985D01*
X64620900Y-78747853D01*
X64775772Y-78683703D01*
X64940184Y-78651000D01*
X65107816Y-78651000D01*
X65272228Y-78683703D01*
X65272228Y-78683703D01*
G37*
G36*
X59606143Y-78722281D02*
X59751915Y-78782662D01*
X59883111Y-78870324D01*
X59994676Y-78981889D01*
X60082338Y-79113085D01*
X60142719Y-79258857D01*
X60173500Y-79413607D01*
X60173500Y-79571393D01*
X60142719Y-79726143D01*
X60082338Y-79871915D01*
X59994676Y-80003111D01*
X59883111Y-80114676D01*
X59751915Y-80202338D01*
X59606143Y-80262719D01*
X59451393Y-80293500D01*
X59293607Y-80293500D01*
X59138857Y-80262719D01*
X58993085Y-80202338D01*
X58861889Y-80114676D01*
X58750324Y-80003111D01*
X58662662Y-79871915D01*
X58602281Y-79726143D01*
X58571500Y-79571393D01*
X58571500Y-79413607D01*
X58602281Y-79258857D01*
X58662662Y-79113085D01*
X58750324Y-78981889D01*
X58861889Y-78870324D01*
X58993085Y-78782662D01*
X59138857Y-78722281D01*
X59293607Y-78691500D01*
X59451393Y-78691500D01*
X59606143Y-78722281D01*
X59606143Y-78722281D01*
G37*
G36*
X120170764Y-77742308D02*
X120259220Y-77751020D01*
X120448381Y-77808401D01*
X120622712Y-77901583D01*
X120775515Y-78026985D01*
X120900917Y-78179788D01*
X120994099Y-78354119D01*
X121051480Y-78543280D01*
X121070855Y-78740000D01*
X121051480Y-78936720D01*
X120994099Y-79125881D01*
X120900917Y-79300212D01*
X120775515Y-79453015D01*
X120622712Y-79578417D01*
X120448381Y-79671599D01*
X120259220Y-79728980D01*
X120170764Y-79737692D01*
X120111796Y-79743500D01*
X119918204Y-79743500D01*
X119859236Y-79737692D01*
X119770780Y-79728980D01*
X119581619Y-79671599D01*
X119407288Y-79578417D01*
X119254485Y-79453015D01*
X119129083Y-79300212D01*
X119035901Y-79125881D01*
X118978520Y-78936720D01*
X118959145Y-78740000D01*
X118978520Y-78543280D01*
X119035901Y-78354119D01*
X119129083Y-78179788D01*
X119254485Y-78026985D01*
X119407288Y-77901583D01*
X119581619Y-77808401D01*
X119770780Y-77751020D01*
X119859236Y-77742308D01*
X119918204Y-77736500D01*
X120111796Y-77736500D01*
X120170764Y-77742308D01*
X120170764Y-77742308D01*
G37*
G36*
X125361000Y-79641000D02*
X123559000Y-79641000D01*
X123559000Y-77839000D01*
X125361000Y-77839000D01*
X125361000Y-79641000D01*
X125361000Y-79641000D01*
G37*
G36*
X111291821Y-77901313D02*
X111291824Y-77901314D01*
X111291825Y-77901314D01*
X111452239Y-77949975D01*
X111452241Y-77949976D01*
X111452244Y-77949977D01*
X111600078Y-78028995D01*
X111729659Y-78135341D01*
X111836005Y-78264922D01*
X111915023Y-78412756D01*
X111915024Y-78412759D01*
X111915025Y-78412761D01*
X111954617Y-78543280D01*
X111963687Y-78573179D01*
X111980117Y-78740000D01*
X111963687Y-78906821D01*
X111963686Y-78906824D01*
X111963686Y-78906825D01*
X111938993Y-78988228D01*
X111915023Y-79067244D01*
X111836005Y-79215078D01*
X111729659Y-79344659D01*
X111600078Y-79451005D01*
X111452244Y-79530023D01*
X111452241Y-79530024D01*
X111452239Y-79530025D01*
X111291825Y-79578686D01*
X111291824Y-79578686D01*
X111291821Y-79578687D01*
X111166804Y-79591000D01*
X111083196Y-79591000D01*
X110958179Y-79578687D01*
X110958176Y-79578686D01*
X110958175Y-79578686D01*
X110797761Y-79530025D01*
X110797759Y-79530024D01*
X110797756Y-79530023D01*
X110649922Y-79451005D01*
X110520341Y-79344659D01*
X110413995Y-79215078D01*
X110334977Y-79067244D01*
X110311008Y-78988228D01*
X110286314Y-78906825D01*
X110286314Y-78906824D01*
X110286313Y-78906821D01*
X110269883Y-78740000D01*
X110286313Y-78573179D01*
X110295383Y-78543280D01*
X110334975Y-78412761D01*
X110334976Y-78412759D01*
X110334977Y-78412756D01*
X110413995Y-78264922D01*
X110520341Y-78135341D01*
X110649922Y-78028995D01*
X110797756Y-77949977D01*
X110797759Y-77949976D01*
X110797761Y-77949975D01*
X110958175Y-77901314D01*
X110958176Y-77901314D01*
X110958179Y-77901313D01*
X111083196Y-77889000D01*
X111166804Y-77889000D01*
X111291821Y-77901313D01*
X111291821Y-77901313D01*
G37*
G36*
X113913228Y-77921703D02*
X114068100Y-77985853D01*
X114207481Y-78078985D01*
X114326015Y-78197519D01*
X114419147Y-78336900D01*
X114483297Y-78491772D01*
X114516000Y-78656184D01*
X114516000Y-78823816D01*
X114483297Y-78988228D01*
X114419147Y-79143100D01*
X114326015Y-79282481D01*
X114207481Y-79401015D01*
X114068100Y-79494147D01*
X113913228Y-79558297D01*
X113748816Y-79591000D01*
X113581184Y-79591000D01*
X113416772Y-79558297D01*
X113261900Y-79494147D01*
X113122519Y-79401015D01*
X113003985Y-79282481D01*
X112910853Y-79143100D01*
X112846703Y-78988228D01*
X112814000Y-78823816D01*
X112814000Y-78656184D01*
X112846703Y-78491772D01*
X112910853Y-78336900D01*
X113003985Y-78197519D01*
X113122519Y-78078985D01*
X113261900Y-77985853D01*
X113416772Y-77921703D01*
X113581184Y-77889000D01*
X113748816Y-77889000D01*
X113913228Y-77921703D01*
X113913228Y-77921703D01*
G37*
G36*
X79224321Y-76313813D02*
X79224324Y-76313814D01*
X79224325Y-76313814D01*
X79384739Y-76362475D01*
X79384741Y-76362476D01*
X79384744Y-76362477D01*
X79532578Y-76441495D01*
X79662159Y-76547841D01*
X79768505Y-76677422D01*
X79847523Y-76825256D01*
X79896187Y-76985679D01*
X79912617Y-77152500D01*
X79896187Y-77319321D01*
X79847523Y-77479744D01*
X79768505Y-77627578D01*
X79662159Y-77757159D01*
X79532578Y-77863505D01*
X79384744Y-77942523D01*
X79384741Y-77942524D01*
X79384739Y-77942525D01*
X79224325Y-77991186D01*
X79224324Y-77991186D01*
X79224321Y-77991187D01*
X79099304Y-78003500D01*
X79015696Y-78003500D01*
X78890679Y-77991187D01*
X78890676Y-77991186D01*
X78890675Y-77991186D01*
X78730261Y-77942525D01*
X78730259Y-77942524D01*
X78730256Y-77942523D01*
X78582422Y-77863505D01*
X78452841Y-77757159D01*
X78346495Y-77627578D01*
X78267477Y-77479744D01*
X78218813Y-77319321D01*
X78202383Y-77152500D01*
X78218813Y-76985679D01*
X78267477Y-76825256D01*
X78346495Y-76677422D01*
X78452841Y-76547841D01*
X78582422Y-76441495D01*
X78730256Y-76362477D01*
X78730259Y-76362476D01*
X78730261Y-76362475D01*
X78890675Y-76313814D01*
X78890676Y-76313814D01*
X78890679Y-76313813D01*
X79015696Y-76301500D01*
X79099304Y-76301500D01*
X79224321Y-76313813D01*
X79224321Y-76313813D01*
G37*
G36*
X71604321Y-76313813D02*
X71604324Y-76313814D01*
X71604325Y-76313814D01*
X71764739Y-76362475D01*
X71764741Y-76362476D01*
X71764744Y-76362477D01*
X71912578Y-76441495D01*
X72042159Y-76547841D01*
X72148505Y-76677422D01*
X72227523Y-76825256D01*
X72276187Y-76985679D01*
X72292617Y-77152500D01*
X72276187Y-77319321D01*
X72227523Y-77479744D01*
X72148505Y-77627578D01*
X72042159Y-77757159D01*
X71912578Y-77863505D01*
X71764744Y-77942523D01*
X71764741Y-77942524D01*
X71764739Y-77942525D01*
X71604325Y-77991186D01*
X71604324Y-77991186D01*
X71604321Y-77991187D01*
X71479304Y-78003500D01*
X71395696Y-78003500D01*
X71270679Y-77991187D01*
X71270676Y-77991186D01*
X71270675Y-77991186D01*
X71110261Y-77942525D01*
X71110259Y-77942524D01*
X71110256Y-77942523D01*
X70962422Y-77863505D01*
X70832841Y-77757159D01*
X70726495Y-77627578D01*
X70647477Y-77479744D01*
X70598813Y-77319321D01*
X70582383Y-77152500D01*
X70598813Y-76985679D01*
X70647477Y-76825256D01*
X70726495Y-76677422D01*
X70832841Y-76547841D01*
X70962422Y-76441495D01*
X71110256Y-76362477D01*
X71110259Y-76362476D01*
X71110261Y-76362475D01*
X71270675Y-76313814D01*
X71270676Y-76313814D01*
X71270679Y-76313813D01*
X71395696Y-76301500D01*
X71479304Y-76301500D01*
X71604321Y-76313813D01*
X71604321Y-76313813D01*
G37*
G36*
X120170764Y-75202308D02*
X120259220Y-75211020D01*
X120448381Y-75268401D01*
X120622712Y-75361583D01*
X120775515Y-75486985D01*
X120900917Y-75639788D01*
X120994099Y-75814119D01*
X121051480Y-76003280D01*
X121070855Y-76200000D01*
X121051480Y-76396720D01*
X120994099Y-76585881D01*
X120900917Y-76760212D01*
X120775515Y-76913015D01*
X120622712Y-77038417D01*
X120448381Y-77131599D01*
X120259220Y-77188980D01*
X120170764Y-77197692D01*
X120111796Y-77203500D01*
X119918204Y-77203500D01*
X119859236Y-77197692D01*
X119770780Y-77188980D01*
X119581619Y-77131599D01*
X119407288Y-77038417D01*
X119254485Y-76913015D01*
X119129083Y-76760212D01*
X119035901Y-76585881D01*
X118978520Y-76396720D01*
X118959145Y-76200000D01*
X118978520Y-76003280D01*
X119035901Y-75814119D01*
X119129083Y-75639788D01*
X119254485Y-75486985D01*
X119407288Y-75361583D01*
X119581619Y-75268401D01*
X119770780Y-75211020D01*
X119859236Y-75202308D01*
X119918204Y-75196500D01*
X120111796Y-75196500D01*
X120170764Y-75202308D01*
X120170764Y-75202308D01*
G37*
G36*
X124570442Y-75305518D02*
X124636627Y-75312037D01*
X124749853Y-75346384D01*
X124806467Y-75363557D01*
X124899902Y-75413500D01*
X124962991Y-75447222D01*
X124998729Y-75476552D01*
X125100186Y-75559814D01*
X125183448Y-75661271D01*
X125212778Y-75697009D01*
X125212779Y-75697011D01*
X125296443Y-75853533D01*
X125296443Y-75853534D01*
X125347963Y-76023373D01*
X125365359Y-76200000D01*
X125347963Y-76376627D01*
X125328285Y-76441496D01*
X125296443Y-76546467D01*
X125275375Y-76585881D01*
X125212778Y-76702991D01*
X125183448Y-76738729D01*
X125100186Y-76840186D01*
X125011442Y-76913015D01*
X124962991Y-76952778D01*
X124962989Y-76952779D01*
X124806467Y-77036443D01*
X124799959Y-77038417D01*
X124636627Y-77087963D01*
X124570442Y-77094482D01*
X124504260Y-77101000D01*
X124415740Y-77101000D01*
X124349558Y-77094482D01*
X124283373Y-77087963D01*
X124120041Y-77038417D01*
X124113533Y-77036443D01*
X123957011Y-76952779D01*
X123957009Y-76952778D01*
X123908558Y-76913015D01*
X123819814Y-76840186D01*
X123736552Y-76738729D01*
X123707222Y-76702991D01*
X123644625Y-76585881D01*
X123623557Y-76546467D01*
X123591715Y-76441496D01*
X123572037Y-76376627D01*
X123554641Y-76200000D01*
X123572037Y-76023373D01*
X123623557Y-75853534D01*
X123623557Y-75853533D01*
X123707221Y-75697011D01*
X123707222Y-75697009D01*
X123736552Y-75661271D01*
X123819814Y-75559814D01*
X123921271Y-75476552D01*
X123957009Y-75447222D01*
X124020098Y-75413500D01*
X124113533Y-75363557D01*
X124170147Y-75346384D01*
X124283373Y-75312037D01*
X124349558Y-75305518D01*
X124415740Y-75299000D01*
X124504260Y-75299000D01*
X124570442Y-75305518D01*
X124570442Y-75305518D01*
G37*
G36*
X112026000Y-75831000D02*
X110224000Y-75831000D01*
X110224000Y-74029000D01*
X112026000Y-74029000D01*
X112026000Y-75831000D01*
X112026000Y-75831000D01*
G37*
G36*
X113775442Y-74035518D02*
X113841627Y-74042037D01*
X113933871Y-74070019D01*
X114011467Y-74093557D01*
X114027060Y-74101892D01*
X114167991Y-74177222D01*
X114203729Y-74206552D01*
X114305186Y-74289814D01*
X114388448Y-74391271D01*
X114417778Y-74427009D01*
X114417779Y-74427011D01*
X114501443Y-74583533D01*
X114501443Y-74583534D01*
X114552963Y-74753373D01*
X114570359Y-74930000D01*
X114552963Y-75106627D01*
X114538295Y-75154981D01*
X114501443Y-75276467D01*
X114453240Y-75366647D01*
X114417778Y-75432991D01*
X114402845Y-75451187D01*
X114305186Y-75570186D01*
X114220374Y-75639788D01*
X114167991Y-75682778D01*
X114167989Y-75682779D01*
X114011467Y-75766443D01*
X113954853Y-75783616D01*
X113841627Y-75817963D01*
X113775442Y-75824482D01*
X113709260Y-75831000D01*
X113620740Y-75831000D01*
X113554558Y-75824482D01*
X113488373Y-75817963D01*
X113375147Y-75783616D01*
X113318533Y-75766443D01*
X113162011Y-75682779D01*
X113162009Y-75682778D01*
X113109626Y-75639788D01*
X113024814Y-75570186D01*
X112927155Y-75451187D01*
X112912222Y-75432991D01*
X112876760Y-75366647D01*
X112828557Y-75276467D01*
X112791705Y-75154981D01*
X112777037Y-75106627D01*
X112759641Y-74930000D01*
X112777037Y-74753373D01*
X112828557Y-74583534D01*
X112828557Y-74583533D01*
X112912221Y-74427011D01*
X112912222Y-74427009D01*
X112941552Y-74391271D01*
X113024814Y-74289814D01*
X113126271Y-74206552D01*
X113162009Y-74177222D01*
X113302940Y-74101892D01*
X113318533Y-74093557D01*
X113396129Y-74070019D01*
X113488373Y-74042037D01*
X113554558Y-74035518D01*
X113620740Y-74029000D01*
X113709260Y-74029000D01*
X113775442Y-74035518D01*
X113775442Y-74035518D01*
G37*
G36*
X79224321Y-73773813D02*
X79224324Y-73773814D01*
X79224325Y-73773814D01*
X79384739Y-73822475D01*
X79384741Y-73822476D01*
X79384744Y-73822477D01*
X79532578Y-73901495D01*
X79662159Y-74007841D01*
X79768505Y-74137422D01*
X79847523Y-74285256D01*
X79847524Y-74285259D01*
X79847525Y-74285261D01*
X79890524Y-74427011D01*
X79896187Y-74445679D01*
X79912617Y-74612500D01*
X79896187Y-74779321D01*
X79896186Y-74779324D01*
X79896186Y-74779325D01*
X79871493Y-74860728D01*
X79847523Y-74939744D01*
X79768505Y-75087578D01*
X79662159Y-75217159D01*
X79532578Y-75323505D01*
X79384744Y-75402523D01*
X79384741Y-75402524D01*
X79384739Y-75402525D01*
X79224325Y-75451186D01*
X79224324Y-75451186D01*
X79224321Y-75451187D01*
X79099304Y-75463500D01*
X79015696Y-75463500D01*
X78890679Y-75451187D01*
X78890676Y-75451186D01*
X78890675Y-75451186D01*
X78730261Y-75402525D01*
X78730259Y-75402524D01*
X78730256Y-75402523D01*
X78582422Y-75323505D01*
X78452841Y-75217159D01*
X78346495Y-75087578D01*
X78267477Y-74939744D01*
X78243508Y-74860728D01*
X78218814Y-74779325D01*
X78218814Y-74779324D01*
X78218813Y-74779321D01*
X78202383Y-74612500D01*
X78218813Y-74445679D01*
X78224476Y-74427011D01*
X78267475Y-74285261D01*
X78267476Y-74285259D01*
X78267477Y-74285256D01*
X78346495Y-74137422D01*
X78452841Y-74007841D01*
X78582422Y-73901495D01*
X78730256Y-73822477D01*
X78730259Y-73822476D01*
X78730261Y-73822475D01*
X78890675Y-73773814D01*
X78890676Y-73773814D01*
X78890679Y-73773813D01*
X79015696Y-73761500D01*
X79099304Y-73761500D01*
X79224321Y-73773813D01*
X79224321Y-73773813D01*
G37*
G36*
X71604321Y-73773813D02*
X71604324Y-73773814D01*
X71604325Y-73773814D01*
X71764739Y-73822475D01*
X71764741Y-73822476D01*
X71764744Y-73822477D01*
X71912578Y-73901495D01*
X72042159Y-74007841D01*
X72148505Y-74137422D01*
X72227523Y-74285256D01*
X72227524Y-74285259D01*
X72227525Y-74285261D01*
X72270524Y-74427011D01*
X72276187Y-74445679D01*
X72292617Y-74612500D01*
X72276187Y-74779321D01*
X72276186Y-74779324D01*
X72276186Y-74779325D01*
X72251493Y-74860728D01*
X72227523Y-74939744D01*
X72148505Y-75087578D01*
X72042159Y-75217159D01*
X71912578Y-75323505D01*
X71764744Y-75402523D01*
X71764741Y-75402524D01*
X71764739Y-75402525D01*
X71604325Y-75451186D01*
X71604324Y-75451186D01*
X71604321Y-75451187D01*
X71479304Y-75463500D01*
X71395696Y-75463500D01*
X71270679Y-75451187D01*
X71270676Y-75451186D01*
X71270675Y-75451186D01*
X71110261Y-75402525D01*
X71110259Y-75402524D01*
X71110256Y-75402523D01*
X70962422Y-75323505D01*
X70832841Y-75217159D01*
X70726495Y-75087578D01*
X70647477Y-74939744D01*
X70623508Y-74860728D01*
X70598814Y-74779325D01*
X70598814Y-74779324D01*
X70598813Y-74779321D01*
X70582383Y-74612500D01*
X70598813Y-74445679D01*
X70604476Y-74427011D01*
X70647475Y-74285261D01*
X70647476Y-74285259D01*
X70647477Y-74285256D01*
X70726495Y-74137422D01*
X70832841Y-74007841D01*
X70962422Y-73901495D01*
X71110256Y-73822477D01*
X71110259Y-73822476D01*
X71110261Y-73822475D01*
X71270675Y-73773814D01*
X71270676Y-73773814D01*
X71270679Y-73773813D01*
X71395696Y-73761500D01*
X71479304Y-73761500D01*
X71604321Y-73773813D01*
X71604321Y-73773813D01*
G37*
G36*
X65272228Y-73794203D02*
X65427100Y-73858353D01*
X65566481Y-73951485D01*
X65685015Y-74070019D01*
X65778147Y-74209400D01*
X65842297Y-74364272D01*
X65875000Y-74528684D01*
X65875000Y-74696316D01*
X65842297Y-74860728D01*
X65778147Y-75015600D01*
X65685015Y-75154981D01*
X65566481Y-75273515D01*
X65427100Y-75366647D01*
X65272228Y-75430797D01*
X65107816Y-75463500D01*
X64940184Y-75463500D01*
X64775772Y-75430797D01*
X64620900Y-75366647D01*
X64481519Y-75273515D01*
X64362985Y-75154981D01*
X64269853Y-75015600D01*
X64205703Y-74860728D01*
X64173000Y-74696316D01*
X64173000Y-74528684D01*
X64205703Y-74364272D01*
X64269853Y-74209400D01*
X64362985Y-74070019D01*
X64481519Y-73951485D01*
X64620900Y-73858353D01*
X64775772Y-73794203D01*
X64940184Y-73761500D01*
X65107816Y-73761500D01*
X65272228Y-73794203D01*
X65272228Y-73794203D01*
G37*
G36*
X59606143Y-73842281D02*
X59751915Y-73902662D01*
X59883111Y-73990324D01*
X59994676Y-74101889D01*
X60082338Y-74233085D01*
X60142719Y-74378857D01*
X60173500Y-74533607D01*
X60173500Y-74691393D01*
X60142719Y-74846143D01*
X60082338Y-74991915D01*
X59994676Y-75123111D01*
X59883111Y-75234676D01*
X59751915Y-75322338D01*
X59606143Y-75382719D01*
X59451393Y-75413500D01*
X59293607Y-75413500D01*
X59138857Y-75382719D01*
X58993085Y-75322338D01*
X58861889Y-75234676D01*
X58750324Y-75123111D01*
X58662662Y-74991915D01*
X58602281Y-74846143D01*
X58571500Y-74691393D01*
X58571500Y-74533607D01*
X58602281Y-74378857D01*
X58662662Y-74233085D01*
X58750324Y-74101889D01*
X58861889Y-73990324D01*
X58993085Y-73902662D01*
X59138857Y-73842281D01*
X59293607Y-73811500D01*
X59451393Y-73811500D01*
X59606143Y-73842281D01*
X59606143Y-73842281D01*
G37*
G36*
X65272228Y-71294203D02*
X65427100Y-71358353D01*
X65566481Y-71451485D01*
X65685015Y-71570019D01*
X65778147Y-71709400D01*
X65842297Y-71864272D01*
X65875000Y-72028684D01*
X65875000Y-72196316D01*
X65842297Y-72360728D01*
X65778147Y-72515600D01*
X65685015Y-72654981D01*
X65566481Y-72773515D01*
X65427100Y-72866647D01*
X65272228Y-72930797D01*
X65107816Y-72963500D01*
X64940184Y-72963500D01*
X64775772Y-72930797D01*
X64620900Y-72866647D01*
X64481519Y-72773515D01*
X64362985Y-72654981D01*
X64269853Y-72515600D01*
X64205703Y-72360728D01*
X64173000Y-72196316D01*
X64173000Y-72028684D01*
X64205703Y-71864272D01*
X64269853Y-71709400D01*
X64362985Y-71570019D01*
X64481519Y-71451485D01*
X64620900Y-71358353D01*
X64775772Y-71294203D01*
X64940184Y-71261500D01*
X65107816Y-71261500D01*
X65272228Y-71294203D01*
X65272228Y-71294203D01*
G37*
G36*
X71604321Y-71233813D02*
X71604324Y-71233814D01*
X71604325Y-71233814D01*
X71764739Y-71282475D01*
X71764741Y-71282476D01*
X71764744Y-71282477D01*
X71912578Y-71361495D01*
X72042159Y-71467841D01*
X72148505Y-71597422D01*
X72227523Y-71745256D01*
X72227524Y-71745259D01*
X72227525Y-71745261D01*
X72276186Y-71905675D01*
X72276187Y-71905679D01*
X72292617Y-72072500D01*
X72276187Y-72239321D01*
X72276186Y-72239324D01*
X72276186Y-72239325D01*
X72239359Y-72360728D01*
X72227523Y-72399744D01*
X72148505Y-72547578D01*
X72042159Y-72677159D01*
X71912578Y-72783505D01*
X71764744Y-72862523D01*
X71764741Y-72862524D01*
X71764739Y-72862525D01*
X71604325Y-72911186D01*
X71604324Y-72911186D01*
X71604321Y-72911187D01*
X71479304Y-72923500D01*
X71395696Y-72923500D01*
X71270679Y-72911187D01*
X71270676Y-72911186D01*
X71270675Y-72911186D01*
X71110261Y-72862525D01*
X71110259Y-72862524D01*
X71110256Y-72862523D01*
X70962422Y-72783505D01*
X70832841Y-72677159D01*
X70726495Y-72547578D01*
X70647477Y-72399744D01*
X70635642Y-72360728D01*
X70598814Y-72239325D01*
X70598814Y-72239324D01*
X70598813Y-72239321D01*
X70582383Y-72072500D01*
X70598813Y-71905679D01*
X70598814Y-71905675D01*
X70647475Y-71745261D01*
X70647476Y-71745259D01*
X70647477Y-71745256D01*
X70726495Y-71597422D01*
X70832841Y-71467841D01*
X70962422Y-71361495D01*
X71110256Y-71282477D01*
X71110259Y-71282476D01*
X71110261Y-71282475D01*
X71270675Y-71233814D01*
X71270676Y-71233814D01*
X71270679Y-71233813D01*
X71395696Y-71221500D01*
X71479304Y-71221500D01*
X71604321Y-71233813D01*
X71604321Y-71233813D01*
G37*
G36*
X79224321Y-71233813D02*
X79224324Y-71233814D01*
X79224325Y-71233814D01*
X79384739Y-71282475D01*
X79384741Y-71282476D01*
X79384744Y-71282477D01*
X79532578Y-71361495D01*
X79662159Y-71467841D01*
X79768505Y-71597422D01*
X79847523Y-71745256D01*
X79847524Y-71745259D01*
X79847525Y-71745261D01*
X79896186Y-71905675D01*
X79896187Y-71905679D01*
X79912617Y-72072500D01*
X79896187Y-72239321D01*
X79896186Y-72239324D01*
X79896186Y-72239325D01*
X79859359Y-72360728D01*
X79847523Y-72399744D01*
X79768505Y-72547578D01*
X79662159Y-72677159D01*
X79532578Y-72783505D01*
X79384744Y-72862523D01*
X79384741Y-72862524D01*
X79384739Y-72862525D01*
X79224325Y-72911186D01*
X79224324Y-72911186D01*
X79224321Y-72911187D01*
X79099304Y-72923500D01*
X79015696Y-72923500D01*
X78890679Y-72911187D01*
X78890676Y-72911186D01*
X78890675Y-72911186D01*
X78730261Y-72862525D01*
X78730259Y-72862524D01*
X78730256Y-72862523D01*
X78582422Y-72783505D01*
X78452841Y-72677159D01*
X78346495Y-72547578D01*
X78267477Y-72399744D01*
X78255642Y-72360728D01*
X78218814Y-72239325D01*
X78218814Y-72239324D01*
X78218813Y-72239321D01*
X78202383Y-72072500D01*
X78218813Y-71905679D01*
X78218814Y-71905675D01*
X78267475Y-71745261D01*
X78267476Y-71745259D01*
X78267477Y-71745256D01*
X78346495Y-71597422D01*
X78452841Y-71467841D01*
X78582422Y-71361495D01*
X78730256Y-71282477D01*
X78730259Y-71282476D01*
X78730261Y-71282475D01*
X78890675Y-71233814D01*
X78890676Y-71233814D01*
X78890679Y-71233813D01*
X79015696Y-71221500D01*
X79099304Y-71221500D01*
X79224321Y-71233813D01*
X79224321Y-71233813D01*
G37*
G36*
X85623500Y-71653500D02*
X83921500Y-71653500D01*
X83921500Y-69951500D01*
X85623500Y-69951500D01*
X85623500Y-71653500D01*
X85623500Y-71653500D01*
G37*
G36*
X71604321Y-68693813D02*
X71604324Y-68693814D01*
X71604325Y-68693814D01*
X71764739Y-68742475D01*
X71764741Y-68742476D01*
X71764744Y-68742477D01*
X71912578Y-68821495D01*
X72042159Y-68927841D01*
X72148505Y-69057422D01*
X72227523Y-69205256D01*
X72227524Y-69205259D01*
X72227525Y-69205261D01*
X72276186Y-69365675D01*
X72276187Y-69365679D01*
X72292617Y-69532500D01*
X72276187Y-69699321D01*
X72227523Y-69859744D01*
X72148505Y-70007578D01*
X72042159Y-70137159D01*
X71912578Y-70243505D01*
X71764744Y-70322523D01*
X71764741Y-70322524D01*
X71764739Y-70322525D01*
X71604325Y-70371186D01*
X71604324Y-70371186D01*
X71604321Y-70371187D01*
X71479304Y-70383500D01*
X71395696Y-70383500D01*
X71270679Y-70371187D01*
X71270676Y-70371186D01*
X71270675Y-70371186D01*
X71110261Y-70322525D01*
X71110259Y-70322524D01*
X71110256Y-70322523D01*
X70962422Y-70243505D01*
X70832841Y-70137159D01*
X70726495Y-70007578D01*
X70647477Y-69859744D01*
X70598813Y-69699321D01*
X70582383Y-69532500D01*
X70598813Y-69365679D01*
X70598814Y-69365675D01*
X70647475Y-69205261D01*
X70647476Y-69205259D01*
X70647477Y-69205256D01*
X70726495Y-69057422D01*
X70832841Y-68927841D01*
X70962422Y-68821495D01*
X71110256Y-68742477D01*
X71110259Y-68742476D01*
X71110261Y-68742475D01*
X71270675Y-68693814D01*
X71270676Y-68693814D01*
X71270679Y-68693813D01*
X71395696Y-68681500D01*
X71479304Y-68681500D01*
X71604321Y-68693813D01*
X71604321Y-68693813D01*
G37*
G36*
X79224321Y-68693813D02*
X79224324Y-68693814D01*
X79224325Y-68693814D01*
X79384739Y-68742475D01*
X79384741Y-68742476D01*
X79384744Y-68742477D01*
X79532578Y-68821495D01*
X79662159Y-68927841D01*
X79768505Y-69057422D01*
X79847523Y-69205256D01*
X79847524Y-69205259D01*
X79847525Y-69205261D01*
X79896186Y-69365675D01*
X79896187Y-69365679D01*
X79912617Y-69532500D01*
X79896187Y-69699321D01*
X79847523Y-69859744D01*
X79768505Y-70007578D01*
X79662159Y-70137159D01*
X79532578Y-70243505D01*
X79384744Y-70322523D01*
X79384741Y-70322524D01*
X79384739Y-70322525D01*
X79224325Y-70371186D01*
X79224324Y-70371186D01*
X79224321Y-70371187D01*
X79099304Y-70383500D01*
X79015696Y-70383500D01*
X78890679Y-70371187D01*
X78890676Y-70371186D01*
X78890675Y-70371186D01*
X78730261Y-70322525D01*
X78730259Y-70322524D01*
X78730256Y-70322523D01*
X78582422Y-70243505D01*
X78452841Y-70137159D01*
X78346495Y-70007578D01*
X78267477Y-69859744D01*
X78218813Y-69699321D01*
X78202383Y-69532500D01*
X78218813Y-69365679D01*
X78218814Y-69365675D01*
X78267475Y-69205261D01*
X78267476Y-69205259D01*
X78267477Y-69205256D01*
X78346495Y-69057422D01*
X78452841Y-68927841D01*
X78582422Y-68821495D01*
X78730256Y-68742477D01*
X78730259Y-68742476D01*
X78730261Y-68742475D01*
X78890675Y-68693814D01*
X78890676Y-68693814D01*
X78890679Y-68693813D01*
X79015696Y-68681500D01*
X79099304Y-68681500D01*
X79224321Y-68693813D01*
X79224321Y-68693813D01*
G37*
G36*
X85020728Y-67984203D02*
X85175600Y-68048353D01*
X85314981Y-68141485D01*
X85433515Y-68260019D01*
X85526647Y-68399400D01*
X85590797Y-68554272D01*
X85623500Y-68718684D01*
X85623500Y-68886316D01*
X85590797Y-69050728D01*
X85526647Y-69205600D01*
X85433515Y-69344981D01*
X85314981Y-69463515D01*
X85175600Y-69556647D01*
X85020728Y-69620797D01*
X84856316Y-69653500D01*
X84688684Y-69653500D01*
X84524272Y-69620797D01*
X84369400Y-69556647D01*
X84230019Y-69463515D01*
X84111485Y-69344981D01*
X84018353Y-69205600D01*
X83954203Y-69050728D01*
X83921500Y-68886316D01*
X83921500Y-68718684D01*
X83954203Y-68554272D01*
X84018353Y-68399400D01*
X84111485Y-68260019D01*
X84230019Y-68141485D01*
X84369400Y-68048353D01*
X84524272Y-67984203D01*
X84688684Y-67951500D01*
X84856316Y-67951500D01*
X85020728Y-67984203D01*
X85020728Y-67984203D01*
G37*
G36*
X116453228Y-67761703D02*
X116608100Y-67825853D01*
X116747481Y-67918985D01*
X116866015Y-68037519D01*
X116959147Y-68176900D01*
X117023297Y-68331772D01*
X117056000Y-68496184D01*
X117056000Y-68663816D01*
X117023297Y-68828228D01*
X116959147Y-68983100D01*
X116866015Y-69122481D01*
X116747481Y-69241015D01*
X116608100Y-69334147D01*
X116453228Y-69398297D01*
X116288816Y-69431000D01*
X116121184Y-69431000D01*
X115956772Y-69398297D01*
X115801900Y-69334147D01*
X115662519Y-69241015D01*
X115543985Y-69122481D01*
X115450853Y-68983100D01*
X115386703Y-68828228D01*
X115354000Y-68663816D01*
X115354000Y-68496184D01*
X115386703Y-68331772D01*
X115450853Y-68176900D01*
X115543985Y-68037519D01*
X115662519Y-67918985D01*
X115801900Y-67825853D01*
X115956772Y-67761703D01*
X116121184Y-67729000D01*
X116288816Y-67729000D01*
X116453228Y-67761703D01*
X116453228Y-67761703D01*
G37*
G36*
X65970728Y-66904203D02*
X66125600Y-66968353D01*
X66264981Y-67061485D01*
X66383515Y-67180019D01*
X66476647Y-67319400D01*
X66540797Y-67474272D01*
X66573500Y-67638684D01*
X66573500Y-67806316D01*
X66540797Y-67970728D01*
X66476647Y-68125600D01*
X66383515Y-68264981D01*
X66264981Y-68383515D01*
X66125600Y-68476647D01*
X65970728Y-68540797D01*
X65806316Y-68573500D01*
X65638684Y-68573500D01*
X65474272Y-68540797D01*
X65319400Y-68476647D01*
X65180019Y-68383515D01*
X65061485Y-68264981D01*
X64968353Y-68125600D01*
X64904203Y-67970728D01*
X64871500Y-67806316D01*
X64871500Y-67638684D01*
X64904203Y-67474272D01*
X64968353Y-67319400D01*
X65061485Y-67180019D01*
X65180019Y-67061485D01*
X65319400Y-66968353D01*
X65474272Y-66904203D01*
X65638684Y-66871500D01*
X65806316Y-66871500D01*
X65970728Y-66904203D01*
X65970728Y-66904203D01*
G37*
G36*
X97265443Y-66415519D02*
X97331627Y-66422037D01*
X97444853Y-66456384D01*
X97501467Y-66473557D01*
X97588311Y-66519977D01*
X97657991Y-66557222D01*
X97693729Y-66586552D01*
X97795186Y-66669814D01*
X97875369Y-66767519D01*
X97907778Y-66807009D01*
X97907779Y-66807011D01*
X97991443Y-66963533D01*
X98000230Y-66992500D01*
X98042963Y-67133373D01*
X98060359Y-67310000D01*
X98042963Y-67486627D01*
X98021243Y-67558228D01*
X97991443Y-67656467D01*
X97935192Y-67761703D01*
X97907778Y-67812991D01*
X97892845Y-67831187D01*
X97795186Y-67950186D01*
X97693729Y-68033448D01*
X97657991Y-68062778D01*
X97657989Y-68062779D01*
X97501467Y-68146443D01*
X97494069Y-68148687D01*
X97331627Y-68197963D01*
X97265443Y-68204481D01*
X97199260Y-68211000D01*
X97110740Y-68211000D01*
X97044557Y-68204481D01*
X96978373Y-68197963D01*
X96815931Y-68148687D01*
X96808533Y-68146443D01*
X96652011Y-68062779D01*
X96652009Y-68062778D01*
X96616271Y-68033448D01*
X96514814Y-67950186D01*
X96417155Y-67831187D01*
X96402222Y-67812991D01*
X96374808Y-67761703D01*
X96318557Y-67656467D01*
X96288757Y-67558228D01*
X96267037Y-67486627D01*
X96249641Y-67310000D01*
X96267037Y-67133373D01*
X96309770Y-66992500D01*
X96318557Y-66963533D01*
X96402221Y-66807011D01*
X96402222Y-66807009D01*
X96434631Y-66767519D01*
X96514814Y-66669814D01*
X96616271Y-66586552D01*
X96652009Y-66557222D01*
X96721689Y-66519977D01*
X96808533Y-66473557D01*
X96865147Y-66456384D01*
X96978373Y-66422037D01*
X97044557Y-66415519D01*
X97110740Y-66409000D01*
X97199260Y-66409000D01*
X97265443Y-66415519D01*
X97265443Y-66415519D01*
G37*
G36*
X100596000Y-68211000D02*
X98794000Y-68211000D01*
X98794000Y-66409000D01*
X100596000Y-66409000D01*
X100596000Y-68211000D01*
X100596000Y-68211000D01*
G37*
G36*
X106928228Y-66491703D02*
X107083100Y-66555853D01*
X107222481Y-66648985D01*
X107341015Y-66767519D01*
X107434147Y-66906900D01*
X107498297Y-67061772D01*
X107531000Y-67226184D01*
X107531000Y-67393816D01*
X107498297Y-67558228D01*
X107434147Y-67713100D01*
X107341015Y-67852481D01*
X107222481Y-67971015D01*
X107083100Y-68064147D01*
X106928228Y-68128297D01*
X106763816Y-68161000D01*
X106596184Y-68161000D01*
X106431772Y-68128297D01*
X106276900Y-68064147D01*
X106137519Y-67971015D01*
X106018985Y-67852481D01*
X105925853Y-67713100D01*
X105861703Y-67558228D01*
X105829000Y-67393816D01*
X105829000Y-67226184D01*
X105861703Y-67061772D01*
X105925853Y-66906900D01*
X106018985Y-66767519D01*
X106137519Y-66648985D01*
X106276900Y-66555853D01*
X106431772Y-66491703D01*
X106596184Y-66459000D01*
X106763816Y-66459000D01*
X106928228Y-66491703D01*
X106928228Y-66491703D01*
G37*
G36*
X104306821Y-66471313D02*
X104306824Y-66471314D01*
X104306825Y-66471314D01*
X104467239Y-66519975D01*
X104467241Y-66519976D01*
X104467244Y-66519977D01*
X104615078Y-66598995D01*
X104744659Y-66705341D01*
X104851005Y-66834922D01*
X104930023Y-66982756D01*
X104930024Y-66982759D01*
X104930025Y-66982761D01*
X104975713Y-67133375D01*
X104978687Y-67143179D01*
X104995117Y-67310000D01*
X104978687Y-67476821D01*
X104978686Y-67476824D01*
X104978686Y-67476825D01*
X104953993Y-67558228D01*
X104930023Y-67637244D01*
X104851005Y-67785078D01*
X104744659Y-67914659D01*
X104615078Y-68021005D01*
X104467244Y-68100023D01*
X104467241Y-68100024D01*
X104467239Y-68100025D01*
X104306825Y-68148686D01*
X104306824Y-68148686D01*
X104306821Y-68148687D01*
X104181804Y-68161000D01*
X104098196Y-68161000D01*
X103973179Y-68148687D01*
X103973176Y-68148686D01*
X103973175Y-68148686D01*
X103812761Y-68100025D01*
X103812759Y-68100024D01*
X103812756Y-68100023D01*
X103664922Y-68021005D01*
X103535341Y-67914659D01*
X103428995Y-67785078D01*
X103349977Y-67637244D01*
X103326008Y-67558228D01*
X103301314Y-67476825D01*
X103301314Y-67476824D01*
X103301313Y-67476821D01*
X103284883Y-67310000D01*
X103301313Y-67143179D01*
X103304287Y-67133375D01*
X103349975Y-66982761D01*
X103349976Y-66982759D01*
X103349977Y-66982756D01*
X103428995Y-66834922D01*
X103535341Y-66705341D01*
X103664922Y-66598995D01*
X103812756Y-66519977D01*
X103812759Y-66519976D01*
X103812761Y-66519975D01*
X103973175Y-66471314D01*
X103973176Y-66471314D01*
X103973179Y-66471313D01*
X104098196Y-66459000D01*
X104181804Y-66459000D01*
X104306821Y-66471313D01*
X104306821Y-66471313D01*
G37*
G36*
X71604321Y-66153813D02*
X71604324Y-66153814D01*
X71604325Y-66153814D01*
X71764739Y-66202475D01*
X71764741Y-66202476D01*
X71764744Y-66202477D01*
X71912578Y-66281495D01*
X72042159Y-66387841D01*
X72148505Y-66517422D01*
X72227523Y-66665256D01*
X72227524Y-66665259D01*
X72227525Y-66665261D01*
X72270524Y-66807011D01*
X72276187Y-66825679D01*
X72292617Y-66992500D01*
X72276187Y-67159321D01*
X72276186Y-67159324D01*
X72276186Y-67159325D01*
X72227628Y-67319400D01*
X72227523Y-67319744D01*
X72148505Y-67467578D01*
X72042159Y-67597159D01*
X71912578Y-67703505D01*
X71764744Y-67782523D01*
X71764741Y-67782524D01*
X71764739Y-67782525D01*
X71604325Y-67831186D01*
X71604324Y-67831186D01*
X71604321Y-67831187D01*
X71479304Y-67843500D01*
X71395696Y-67843500D01*
X71270679Y-67831187D01*
X71270676Y-67831186D01*
X71270675Y-67831186D01*
X71110261Y-67782525D01*
X71110259Y-67782524D01*
X71110256Y-67782523D01*
X70962422Y-67703505D01*
X70832841Y-67597159D01*
X70726495Y-67467578D01*
X70647477Y-67319744D01*
X70647373Y-67319400D01*
X70598814Y-67159325D01*
X70598814Y-67159324D01*
X70598813Y-67159321D01*
X70582383Y-66992500D01*
X70598813Y-66825679D01*
X70604476Y-66807011D01*
X70647475Y-66665261D01*
X70647476Y-66665259D01*
X70647477Y-66665256D01*
X70726495Y-66517422D01*
X70832841Y-66387841D01*
X70962422Y-66281495D01*
X71110256Y-66202477D01*
X71110259Y-66202476D01*
X71110261Y-66202475D01*
X71270675Y-66153814D01*
X71270676Y-66153814D01*
X71270679Y-66153813D01*
X71395696Y-66141500D01*
X71479304Y-66141500D01*
X71604321Y-66153813D01*
X71604321Y-66153813D01*
G37*
G36*
X79224321Y-66153813D02*
X79224324Y-66153814D01*
X79224325Y-66153814D01*
X79384739Y-66202475D01*
X79384741Y-66202476D01*
X79384744Y-66202477D01*
X79532578Y-66281495D01*
X79662159Y-66387841D01*
X79768505Y-66517422D01*
X79847523Y-66665256D01*
X79847524Y-66665259D01*
X79847525Y-66665261D01*
X79890524Y-66807011D01*
X79896187Y-66825679D01*
X79912617Y-66992500D01*
X79896187Y-67159321D01*
X79896186Y-67159324D01*
X79896186Y-67159325D01*
X79847628Y-67319400D01*
X79847523Y-67319744D01*
X79768505Y-67467578D01*
X79662159Y-67597159D01*
X79532578Y-67703505D01*
X79384744Y-67782523D01*
X79384741Y-67782524D01*
X79384739Y-67782525D01*
X79224325Y-67831186D01*
X79224324Y-67831186D01*
X79224321Y-67831187D01*
X79099304Y-67843500D01*
X79015696Y-67843500D01*
X78890679Y-67831187D01*
X78890676Y-67831186D01*
X78890675Y-67831186D01*
X78730261Y-67782525D01*
X78730259Y-67782524D01*
X78730256Y-67782523D01*
X78582422Y-67703505D01*
X78452841Y-67597159D01*
X78346495Y-67467578D01*
X78267477Y-67319744D01*
X78267373Y-67319400D01*
X78218814Y-67159325D01*
X78218814Y-67159324D01*
X78218813Y-67159321D01*
X78202383Y-66992500D01*
X78218813Y-66825679D01*
X78224476Y-66807011D01*
X78267475Y-66665261D01*
X78267476Y-66665259D01*
X78267477Y-66665256D01*
X78346495Y-66517422D01*
X78452841Y-66387841D01*
X78582422Y-66281495D01*
X78730256Y-66202477D01*
X78730259Y-66202476D01*
X78730261Y-66202475D01*
X78890675Y-66153814D01*
X78890676Y-66153814D01*
X78890679Y-66153813D01*
X79015696Y-66141500D01*
X79099304Y-66141500D01*
X79224321Y-66153813D01*
X79224321Y-66153813D01*
G37*
G36*
X116371821Y-65201313D02*
X116371824Y-65201314D01*
X116371825Y-65201314D01*
X116532239Y-65249975D01*
X116532241Y-65249976D01*
X116532244Y-65249977D01*
X116680078Y-65328995D01*
X116809659Y-65435341D01*
X116916005Y-65564922D01*
X116995023Y-65712756D01*
X117043687Y-65873179D01*
X117060117Y-66040000D01*
X117043687Y-66206821D01*
X117043686Y-66206824D01*
X117043686Y-66206825D01*
X117021035Y-66281496D01*
X116995023Y-66367244D01*
X116916005Y-66515078D01*
X116809659Y-66644659D01*
X116680078Y-66751005D01*
X116532244Y-66830023D01*
X116532241Y-66830024D01*
X116532239Y-66830025D01*
X116371825Y-66878686D01*
X116371824Y-66878686D01*
X116371821Y-66878687D01*
X116246804Y-66891000D01*
X116163196Y-66891000D01*
X116038179Y-66878687D01*
X116038176Y-66878686D01*
X116038175Y-66878686D01*
X115877761Y-66830025D01*
X115877759Y-66830024D01*
X115877756Y-66830023D01*
X115729922Y-66751005D01*
X115600341Y-66644659D01*
X115493995Y-66515078D01*
X115414977Y-66367244D01*
X115388966Y-66281496D01*
X115366314Y-66206825D01*
X115366314Y-66206824D01*
X115366313Y-66206821D01*
X115349883Y-66040000D01*
X115366313Y-65873179D01*
X115414977Y-65712756D01*
X115493995Y-65564922D01*
X115600341Y-65435341D01*
X115729922Y-65328995D01*
X115877756Y-65249977D01*
X115877759Y-65249976D01*
X115877761Y-65249975D01*
X116038175Y-65201314D01*
X116038176Y-65201314D01*
X116038179Y-65201313D01*
X116163196Y-65189000D01*
X116246804Y-65189000D01*
X116371821Y-65201313D01*
X116371821Y-65201313D01*
G37*
G36*
X111462916Y-62932334D02*
X111571492Y-62965271D01*
X111671557Y-63018756D01*
X111759264Y-63090736D01*
X111831244Y-63178443D01*
X111884729Y-63278508D01*
X111917666Y-63387084D01*
X111928787Y-63500000D01*
X111917666Y-63612916D01*
X111884729Y-63721492D01*
X111884726Y-63721497D01*
X111831244Y-63821557D01*
X111759264Y-63909264D01*
X111671557Y-63981244D01*
X111590143Y-64024760D01*
X111569768Y-64038373D01*
X111552441Y-64055701D01*
X111538827Y-64076075D01*
X111529450Y-64098714D01*
X111524669Y-64122747D01*
X111524669Y-64147252D01*
X111529449Y-64171285D01*
X111538827Y-64193924D01*
X111552440Y-64214299D01*
X111569768Y-64231626D01*
X111590143Y-64245240D01*
X111671557Y-64288756D01*
X111759264Y-64360736D01*
X111831244Y-64448443D01*
X111884729Y-64548508D01*
X111917666Y-64657084D01*
X111928787Y-64770000D01*
X111917666Y-64882916D01*
X111884729Y-64991492D01*
X111884726Y-64991497D01*
X111831244Y-65091557D01*
X111759264Y-65179264D01*
X111682365Y-65242374D01*
X111665038Y-65259701D01*
X111651424Y-65280076D01*
X111642046Y-65302715D01*
X111637266Y-65326748D01*
X111637266Y-65351252D01*
X111642047Y-65375286D01*
X111651424Y-65397925D01*
X111665038Y-65418299D01*
X111682365Y-65435626D01*
X111702740Y-65449240D01*
X111725379Y-65458618D01*
X111761664Y-65464000D01*
X111926000Y-65464000D01*
X111926000Y-66616000D01*
X110324000Y-66616000D01*
X110324000Y-65464000D01*
X110488336Y-65464000D01*
X110512722Y-65461598D01*
X110536171Y-65454485D01*
X110557782Y-65442934D01*
X110576724Y-65427388D01*
X110592270Y-65408446D01*
X110603821Y-65386835D01*
X110610934Y-65363386D01*
X110613336Y-65339000D01*
X110610934Y-65314614D01*
X110603821Y-65291165D01*
X110592270Y-65269554D01*
X110567635Y-65242374D01*
X110490736Y-65179264D01*
X110418756Y-65091557D01*
X110365274Y-64991497D01*
X110365271Y-64991492D01*
X110332334Y-64882916D01*
X110321213Y-64770000D01*
X110332334Y-64657084D01*
X110365271Y-64548508D01*
X110418756Y-64448443D01*
X110490736Y-64360736D01*
X110578443Y-64288756D01*
X110659857Y-64245240D01*
X110680232Y-64231627D01*
X110697559Y-64214299D01*
X110711173Y-64193925D01*
X110720550Y-64171286D01*
X110725331Y-64147253D01*
X110725331Y-64122748D01*
X110720551Y-64098715D01*
X110711173Y-64076076D01*
X110697560Y-64055701D01*
X110680232Y-64038374D01*
X110659857Y-64024760D01*
X110578443Y-63981244D01*
X110490736Y-63909264D01*
X110418756Y-63821557D01*
X110365274Y-63721497D01*
X110365271Y-63721492D01*
X110332334Y-63612916D01*
X110321213Y-63500000D01*
X110332334Y-63387084D01*
X110365271Y-63278508D01*
X110418756Y-63178443D01*
X110490736Y-63090736D01*
X110578443Y-63018756D01*
X110678508Y-62965271D01*
X110787084Y-62932334D01*
X110871702Y-62924000D01*
X111378298Y-62924000D01*
X111462916Y-62932334D01*
X111462916Y-62932334D01*
G37*
G36*
X66573500Y-66573500D02*
X64871500Y-66573500D01*
X64871500Y-64871500D01*
X66573500Y-64871500D01*
X66573500Y-66573500D01*
X66573500Y-66573500D01*
G37*
G36*
X87422943Y-63558019D02*
X87489127Y-63564537D01*
X87602353Y-63598884D01*
X87658967Y-63616057D01*
X87745811Y-63662477D01*
X87815491Y-63699722D01*
X87842024Y-63721497D01*
X87952686Y-63812314D01*
X88032250Y-63909264D01*
X88065278Y-63949509D01*
X88065279Y-63949511D01*
X88148943Y-64106033D01*
X88161446Y-64147252D01*
X88200463Y-64275873D01*
X88217859Y-64452500D01*
X88200463Y-64629127D01*
X88191982Y-64657084D01*
X88148943Y-64798967D01*
X88080198Y-64927578D01*
X88065278Y-64955491D01*
X88035948Y-64991229D01*
X87952686Y-65092686D01*
X87851229Y-65175948D01*
X87815491Y-65205278D01*
X87815489Y-65205279D01*
X87658967Y-65288943D01*
X87602353Y-65306116D01*
X87489127Y-65340463D01*
X87432908Y-65346000D01*
X87356760Y-65353500D01*
X87268240Y-65353500D01*
X87192092Y-65346000D01*
X87135873Y-65340463D01*
X87022647Y-65306116D01*
X86966033Y-65288943D01*
X86809511Y-65205279D01*
X86809509Y-65205278D01*
X86773771Y-65175948D01*
X86672314Y-65092686D01*
X86589052Y-64991229D01*
X86559722Y-64955491D01*
X86544802Y-64927578D01*
X86476057Y-64798967D01*
X86433018Y-64657084D01*
X86424537Y-64629127D01*
X86407141Y-64452500D01*
X86424537Y-64275873D01*
X86463554Y-64147252D01*
X86476057Y-64106033D01*
X86559721Y-63949511D01*
X86559722Y-63949509D01*
X86592750Y-63909264D01*
X86672314Y-63812314D01*
X86782976Y-63721497D01*
X86809509Y-63699722D01*
X86879189Y-63662477D01*
X86966033Y-63616057D01*
X87022647Y-63598884D01*
X87135873Y-63564537D01*
X87202057Y-63558019D01*
X87268240Y-63551500D01*
X87356760Y-63551500D01*
X87422943Y-63558019D01*
X87422943Y-63558019D01*
G37*
G36*
X79224321Y-63613813D02*
X79224324Y-63613814D01*
X79224325Y-63613814D01*
X79384739Y-63662475D01*
X79384741Y-63662476D01*
X79384744Y-63662477D01*
X79532578Y-63741495D01*
X79662159Y-63847841D01*
X79768505Y-63977422D01*
X79847523Y-64125256D01*
X79847524Y-64125259D01*
X79847525Y-64125261D01*
X79893213Y-64275875D01*
X79896187Y-64285679D01*
X79912617Y-64452500D01*
X79896187Y-64619321D01*
X79896186Y-64619324D01*
X79896186Y-64619325D01*
X79884731Y-64657088D01*
X79847523Y-64779744D01*
X79768505Y-64927578D01*
X79662159Y-65057159D01*
X79532578Y-65163505D01*
X79384744Y-65242523D01*
X79384741Y-65242524D01*
X79384739Y-65242525D01*
X79224325Y-65291186D01*
X79224324Y-65291186D01*
X79224321Y-65291187D01*
X79099304Y-65303500D01*
X79015696Y-65303500D01*
X78890679Y-65291187D01*
X78890676Y-65291186D01*
X78890675Y-65291186D01*
X78730261Y-65242525D01*
X78730259Y-65242524D01*
X78730256Y-65242523D01*
X78582422Y-65163505D01*
X78452841Y-65057159D01*
X78346495Y-64927578D01*
X78267477Y-64779744D01*
X78230270Y-64657088D01*
X78218814Y-64619325D01*
X78218814Y-64619324D01*
X78218813Y-64619321D01*
X78202383Y-64452500D01*
X78218813Y-64285679D01*
X78221787Y-64275875D01*
X78267475Y-64125261D01*
X78267476Y-64125259D01*
X78267477Y-64125256D01*
X78346495Y-63977422D01*
X78452841Y-63847841D01*
X78582422Y-63741495D01*
X78730256Y-63662477D01*
X78730259Y-63662476D01*
X78730261Y-63662475D01*
X78890675Y-63613814D01*
X78890676Y-63613814D01*
X78890679Y-63613813D01*
X79015696Y-63601500D01*
X79099304Y-63601500D01*
X79224321Y-63613813D01*
X79224321Y-63613813D01*
G37*
G36*
X71604321Y-63613813D02*
X71604324Y-63613814D01*
X71604325Y-63613814D01*
X71764739Y-63662475D01*
X71764741Y-63662476D01*
X71764744Y-63662477D01*
X71912578Y-63741495D01*
X72042159Y-63847841D01*
X72148505Y-63977422D01*
X72227523Y-64125256D01*
X72227524Y-64125259D01*
X72227525Y-64125261D01*
X72273213Y-64275875D01*
X72276187Y-64285679D01*
X72292617Y-64452500D01*
X72276187Y-64619321D01*
X72276186Y-64619324D01*
X72276186Y-64619325D01*
X72264731Y-64657088D01*
X72227523Y-64779744D01*
X72148505Y-64927578D01*
X72042159Y-65057159D01*
X71912578Y-65163505D01*
X71764744Y-65242523D01*
X71764741Y-65242524D01*
X71764739Y-65242525D01*
X71604325Y-65291186D01*
X71604324Y-65291186D01*
X71604321Y-65291187D01*
X71479304Y-65303500D01*
X71395696Y-65303500D01*
X71270679Y-65291187D01*
X71270676Y-65291186D01*
X71270675Y-65291186D01*
X71110261Y-65242525D01*
X71110259Y-65242524D01*
X71110256Y-65242523D01*
X70962422Y-65163505D01*
X70832841Y-65057159D01*
X70726495Y-64927578D01*
X70647477Y-64779744D01*
X70610270Y-64657088D01*
X70598814Y-64619325D01*
X70598814Y-64619324D01*
X70598813Y-64619321D01*
X70582383Y-64452500D01*
X70598813Y-64285679D01*
X70601787Y-64275875D01*
X70647475Y-64125261D01*
X70647476Y-64125259D01*
X70647477Y-64125256D01*
X70726495Y-63977422D01*
X70832841Y-63847841D01*
X70962422Y-63741495D01*
X71110256Y-63662477D01*
X71110259Y-63662476D01*
X71110261Y-63662475D01*
X71270675Y-63613814D01*
X71270676Y-63613814D01*
X71270679Y-63613813D01*
X71395696Y-63601500D01*
X71479304Y-63601500D01*
X71604321Y-63613813D01*
X71604321Y-63613813D01*
G37*
G36*
X87422942Y-61018018D02*
X87489127Y-61024537D01*
X87602353Y-61058884D01*
X87658967Y-61076057D01*
X87745811Y-61122477D01*
X87815491Y-61159722D01*
X87851229Y-61189052D01*
X87952686Y-61272314D01*
X88035948Y-61373771D01*
X88065278Y-61409509D01*
X88065279Y-61409511D01*
X88148943Y-61566033D01*
X88166116Y-61622647D01*
X88200463Y-61735873D01*
X88217859Y-61912500D01*
X88200463Y-62089127D01*
X88166116Y-62202353D01*
X88148943Y-62258967D01*
X88080198Y-62387578D01*
X88065278Y-62415491D01*
X88035948Y-62451229D01*
X87952686Y-62552686D01*
X87851229Y-62635948D01*
X87815491Y-62665278D01*
X87815489Y-62665279D01*
X87658967Y-62748943D01*
X87651569Y-62751187D01*
X87489127Y-62800463D01*
X87422942Y-62806982D01*
X87356760Y-62813500D01*
X87268240Y-62813500D01*
X87202058Y-62806982D01*
X87135873Y-62800463D01*
X86973431Y-62751187D01*
X86966033Y-62748943D01*
X86809511Y-62665279D01*
X86809509Y-62665278D01*
X86773771Y-62635948D01*
X86672314Y-62552686D01*
X86589052Y-62451229D01*
X86559722Y-62415491D01*
X86544802Y-62387578D01*
X86476057Y-62258967D01*
X86458884Y-62202353D01*
X86424537Y-62089127D01*
X86407141Y-61912500D01*
X86424537Y-61735873D01*
X86458884Y-61622647D01*
X86476057Y-61566033D01*
X86559721Y-61409511D01*
X86559722Y-61409509D01*
X86589052Y-61373771D01*
X86672314Y-61272314D01*
X86773771Y-61189052D01*
X86809509Y-61159722D01*
X86879189Y-61122477D01*
X86966033Y-61076057D01*
X87022647Y-61058884D01*
X87135873Y-61024537D01*
X87202058Y-61018018D01*
X87268240Y-61011500D01*
X87356760Y-61011500D01*
X87422942Y-61018018D01*
X87422942Y-61018018D01*
G37*
G36*
X62022942Y-61018018D02*
X62089127Y-61024537D01*
X62202353Y-61058884D01*
X62258967Y-61076057D01*
X62345811Y-61122477D01*
X62415491Y-61159722D01*
X62451229Y-61189052D01*
X62552686Y-61272314D01*
X62635948Y-61373771D01*
X62665278Y-61409509D01*
X62665279Y-61409511D01*
X62748943Y-61566033D01*
X62766116Y-61622647D01*
X62800463Y-61735873D01*
X62817859Y-61912500D01*
X62800463Y-62089127D01*
X62766116Y-62202353D01*
X62748943Y-62258967D01*
X62680198Y-62387578D01*
X62665278Y-62415491D01*
X62635948Y-62451229D01*
X62552686Y-62552686D01*
X62451229Y-62635948D01*
X62415491Y-62665278D01*
X62415489Y-62665279D01*
X62258967Y-62748943D01*
X62251569Y-62751187D01*
X62089127Y-62800463D01*
X62022942Y-62806982D01*
X61956760Y-62813500D01*
X61868240Y-62813500D01*
X61802058Y-62806982D01*
X61735873Y-62800463D01*
X61573431Y-62751187D01*
X61566033Y-62748943D01*
X61409511Y-62665279D01*
X61409509Y-62665278D01*
X61373771Y-62635948D01*
X61272314Y-62552686D01*
X61189052Y-62451229D01*
X61159722Y-62415491D01*
X61144802Y-62387578D01*
X61076057Y-62258967D01*
X61058884Y-62202353D01*
X61024537Y-62089127D01*
X61007141Y-61912500D01*
X61024537Y-61735873D01*
X61058884Y-61622647D01*
X61076057Y-61566033D01*
X61159721Y-61409511D01*
X61159722Y-61409509D01*
X61189052Y-61373771D01*
X61272314Y-61272314D01*
X61373771Y-61189052D01*
X61409509Y-61159722D01*
X61479189Y-61122477D01*
X61566033Y-61076057D01*
X61622647Y-61058884D01*
X61735873Y-61024537D01*
X61802058Y-61018018D01*
X61868240Y-61011500D01*
X61956760Y-61011500D01*
X62022942Y-61018018D01*
X62022942Y-61018018D01*
G37*
G36*
X79224321Y-61073813D02*
X79224324Y-61073814D01*
X79224325Y-61073814D01*
X79384739Y-61122475D01*
X79384741Y-61122476D01*
X79384744Y-61122477D01*
X79532578Y-61201495D01*
X79662159Y-61307841D01*
X79768505Y-61437422D01*
X79847523Y-61585256D01*
X79847524Y-61585259D01*
X79847525Y-61585261D01*
X79893213Y-61735875D01*
X79896187Y-61745679D01*
X79912617Y-61912500D01*
X79896187Y-62079321D01*
X79896186Y-62079324D01*
X79896186Y-62079325D01*
X79893213Y-62089127D01*
X79847523Y-62239744D01*
X79768505Y-62387578D01*
X79662159Y-62517159D01*
X79532578Y-62623505D01*
X79384744Y-62702523D01*
X79384741Y-62702524D01*
X79384739Y-62702525D01*
X79224325Y-62751186D01*
X79224324Y-62751186D01*
X79224321Y-62751187D01*
X79099304Y-62763500D01*
X79015696Y-62763500D01*
X78890679Y-62751187D01*
X78890676Y-62751186D01*
X78890675Y-62751186D01*
X78730261Y-62702525D01*
X78730259Y-62702524D01*
X78730256Y-62702523D01*
X78582422Y-62623505D01*
X78452841Y-62517159D01*
X78346495Y-62387578D01*
X78267477Y-62239744D01*
X78221788Y-62089127D01*
X78218814Y-62079325D01*
X78218814Y-62079324D01*
X78218813Y-62079321D01*
X78202383Y-61912500D01*
X78218813Y-61745679D01*
X78221787Y-61735875D01*
X78267475Y-61585261D01*
X78267476Y-61585259D01*
X78267477Y-61585256D01*
X78346495Y-61437422D01*
X78452841Y-61307841D01*
X78582422Y-61201495D01*
X78730256Y-61122477D01*
X78730259Y-61122476D01*
X78730261Y-61122475D01*
X78890675Y-61073814D01*
X78890676Y-61073814D01*
X78890679Y-61073813D01*
X79015696Y-61061500D01*
X79099304Y-61061500D01*
X79224321Y-61073813D01*
X79224321Y-61073813D01*
G37*
G36*
X71604321Y-61073813D02*
X71604324Y-61073814D01*
X71604325Y-61073814D01*
X71764739Y-61122475D01*
X71764741Y-61122476D01*
X71764744Y-61122477D01*
X71912578Y-61201495D01*
X72042159Y-61307841D01*
X72148505Y-61437422D01*
X72227523Y-61585256D01*
X72227524Y-61585259D01*
X72227525Y-61585261D01*
X72273213Y-61735875D01*
X72276187Y-61745679D01*
X72292617Y-61912500D01*
X72276187Y-62079321D01*
X72276186Y-62079324D01*
X72276186Y-62079325D01*
X72273213Y-62089127D01*
X72227523Y-62239744D01*
X72148505Y-62387578D01*
X72042159Y-62517159D01*
X71912578Y-62623505D01*
X71764744Y-62702523D01*
X71764741Y-62702524D01*
X71764739Y-62702525D01*
X71604325Y-62751186D01*
X71604324Y-62751186D01*
X71604321Y-62751187D01*
X71479304Y-62763500D01*
X71395696Y-62763500D01*
X71270679Y-62751187D01*
X71270676Y-62751186D01*
X71270675Y-62751186D01*
X71110261Y-62702525D01*
X71110259Y-62702524D01*
X71110256Y-62702523D01*
X70962422Y-62623505D01*
X70832841Y-62517159D01*
X70726495Y-62387578D01*
X70647477Y-62239744D01*
X70601788Y-62089127D01*
X70598814Y-62079325D01*
X70598814Y-62079324D01*
X70598813Y-62079321D01*
X70582383Y-61912500D01*
X70598813Y-61745679D01*
X70601787Y-61735875D01*
X70647475Y-61585261D01*
X70647476Y-61585259D01*
X70647477Y-61585256D01*
X70726495Y-61437422D01*
X70832841Y-61307841D01*
X70962422Y-61201495D01*
X71110256Y-61122477D01*
X71110259Y-61122476D01*
X71110261Y-61122475D01*
X71270675Y-61073814D01*
X71270676Y-61073814D01*
X71270679Y-61073813D01*
X71395696Y-61061500D01*
X71479304Y-61061500D01*
X71604321Y-61073813D01*
X71604321Y-61073813D01*
G37*
G36*
X121066000Y-62598500D02*
X118964000Y-62598500D01*
X118964000Y-60591500D01*
X121066000Y-60591500D01*
X121066000Y-62598500D01*
X121066000Y-62598500D01*
G37*
G36*
X87422943Y-58478019D02*
X87489127Y-58484537D01*
X87581371Y-58512519D01*
X87658967Y-58536057D01*
X87745811Y-58582477D01*
X87815491Y-58619722D01*
X87851229Y-58649052D01*
X87952686Y-58732314D01*
X88013791Y-58806772D01*
X88065278Y-58869509D01*
X88065279Y-58869511D01*
X88148943Y-59026033D01*
X88157730Y-59055000D01*
X88200463Y-59195873D01*
X88217859Y-59372500D01*
X88200463Y-59549127D01*
X88185795Y-59597481D01*
X88148943Y-59718967D01*
X88100740Y-59809147D01*
X88065278Y-59875491D01*
X88050345Y-59893687D01*
X87952686Y-60012686D01*
X87851229Y-60095948D01*
X87815491Y-60125278D01*
X87815489Y-60125279D01*
X87658967Y-60208943D01*
X87651569Y-60211187D01*
X87489127Y-60260463D01*
X87422943Y-60266981D01*
X87356760Y-60273500D01*
X87268240Y-60273500D01*
X87202057Y-60266981D01*
X87135873Y-60260463D01*
X86973431Y-60211187D01*
X86966033Y-60208943D01*
X86809511Y-60125279D01*
X86809509Y-60125278D01*
X86773771Y-60095948D01*
X86672314Y-60012686D01*
X86574655Y-59893687D01*
X86559722Y-59875491D01*
X86524260Y-59809147D01*
X86476057Y-59718967D01*
X86439205Y-59597481D01*
X86424537Y-59549127D01*
X86407141Y-59372500D01*
X86424537Y-59195873D01*
X86467270Y-59055000D01*
X86476057Y-59026033D01*
X86559721Y-58869511D01*
X86559722Y-58869509D01*
X86611209Y-58806772D01*
X86672314Y-58732314D01*
X86773771Y-58649052D01*
X86809509Y-58619722D01*
X86879189Y-58582477D01*
X86966033Y-58536057D01*
X87043629Y-58512519D01*
X87135873Y-58484537D01*
X87202057Y-58478019D01*
X87268240Y-58471500D01*
X87356760Y-58471500D01*
X87422943Y-58478019D01*
X87422943Y-58478019D01*
G37*
G36*
X62022943Y-58478019D02*
X62089127Y-58484537D01*
X62181371Y-58512519D01*
X62258967Y-58536057D01*
X62345811Y-58582477D01*
X62415491Y-58619722D01*
X62451229Y-58649052D01*
X62552686Y-58732314D01*
X62613791Y-58806772D01*
X62665278Y-58869509D01*
X62665279Y-58869511D01*
X62748943Y-59026033D01*
X62757730Y-59055000D01*
X62800463Y-59195873D01*
X62817859Y-59372500D01*
X62800463Y-59549127D01*
X62785795Y-59597481D01*
X62748943Y-59718967D01*
X62700740Y-59809147D01*
X62665278Y-59875491D01*
X62650345Y-59893687D01*
X62552686Y-60012686D01*
X62451229Y-60095948D01*
X62415491Y-60125278D01*
X62415489Y-60125279D01*
X62258967Y-60208943D01*
X62251569Y-60211187D01*
X62089127Y-60260463D01*
X62022943Y-60266981D01*
X61956760Y-60273500D01*
X61868240Y-60273500D01*
X61802057Y-60266981D01*
X61735873Y-60260463D01*
X61573431Y-60211187D01*
X61566033Y-60208943D01*
X61409511Y-60125279D01*
X61409509Y-60125278D01*
X61373771Y-60095948D01*
X61272314Y-60012686D01*
X61174655Y-59893687D01*
X61159722Y-59875491D01*
X61124260Y-59809147D01*
X61076057Y-59718967D01*
X61039205Y-59597481D01*
X61024537Y-59549127D01*
X61007141Y-59372500D01*
X61024537Y-59195873D01*
X61067270Y-59055000D01*
X61076057Y-59026033D01*
X61159721Y-58869511D01*
X61159722Y-58869509D01*
X61211209Y-58806772D01*
X61272314Y-58732314D01*
X61373771Y-58649052D01*
X61409509Y-58619722D01*
X61479189Y-58582477D01*
X61566033Y-58536057D01*
X61643629Y-58512519D01*
X61735873Y-58484537D01*
X61802057Y-58478019D01*
X61868240Y-58471500D01*
X61956760Y-58471500D01*
X62022943Y-58478019D01*
X62022943Y-58478019D01*
G37*
G36*
X79224321Y-58533813D02*
X79224324Y-58533814D01*
X79224325Y-58533814D01*
X79384739Y-58582475D01*
X79384741Y-58582476D01*
X79384744Y-58582477D01*
X79532578Y-58661495D01*
X79662159Y-58767841D01*
X79768505Y-58897422D01*
X79847523Y-59045256D01*
X79847524Y-59045259D01*
X79847525Y-59045261D01*
X79893213Y-59195875D01*
X79896187Y-59205679D01*
X79912617Y-59372500D01*
X79896187Y-59539321D01*
X79896186Y-59539324D01*
X79896186Y-59539325D01*
X79873167Y-59615210D01*
X79847523Y-59699744D01*
X79768505Y-59847578D01*
X79662159Y-59977159D01*
X79532578Y-60083505D01*
X79384744Y-60162523D01*
X79384741Y-60162524D01*
X79384739Y-60162525D01*
X79224325Y-60211186D01*
X79224324Y-60211186D01*
X79224321Y-60211187D01*
X79099304Y-60223500D01*
X79015696Y-60223500D01*
X78890679Y-60211187D01*
X78890676Y-60211186D01*
X78890675Y-60211186D01*
X78730261Y-60162525D01*
X78730259Y-60162524D01*
X78730256Y-60162523D01*
X78582422Y-60083505D01*
X78452841Y-59977159D01*
X78346495Y-59847578D01*
X78267477Y-59699744D01*
X78241834Y-59615210D01*
X78218814Y-59539325D01*
X78218814Y-59539324D01*
X78218813Y-59539321D01*
X78202383Y-59372500D01*
X78218813Y-59205679D01*
X78221787Y-59195875D01*
X78267475Y-59045261D01*
X78267476Y-59045259D01*
X78267477Y-59045256D01*
X78346495Y-58897422D01*
X78452841Y-58767841D01*
X78582422Y-58661495D01*
X78730256Y-58582477D01*
X78730259Y-58582476D01*
X78730261Y-58582475D01*
X78890675Y-58533814D01*
X78890676Y-58533814D01*
X78890679Y-58533813D01*
X79015696Y-58521500D01*
X79099304Y-58521500D01*
X79224321Y-58533813D01*
X79224321Y-58533813D01*
G37*
G36*
X71604321Y-58533813D02*
X71604324Y-58533814D01*
X71604325Y-58533814D01*
X71764739Y-58582475D01*
X71764741Y-58582476D01*
X71764744Y-58582477D01*
X71912578Y-58661495D01*
X72042159Y-58767841D01*
X72148505Y-58897422D01*
X72227523Y-59045256D01*
X72227524Y-59045259D01*
X72227525Y-59045261D01*
X72273213Y-59195875D01*
X72276187Y-59205679D01*
X72292617Y-59372500D01*
X72276187Y-59539321D01*
X72276186Y-59539324D01*
X72276186Y-59539325D01*
X72253167Y-59615210D01*
X72227523Y-59699744D01*
X72148505Y-59847578D01*
X72042159Y-59977159D01*
X71912578Y-60083505D01*
X71764744Y-60162523D01*
X71764741Y-60162524D01*
X71764739Y-60162525D01*
X71604325Y-60211186D01*
X71604324Y-60211186D01*
X71604321Y-60211187D01*
X71479304Y-60223500D01*
X71395696Y-60223500D01*
X71270679Y-60211187D01*
X71270676Y-60211186D01*
X71270675Y-60211186D01*
X71110261Y-60162525D01*
X71110259Y-60162524D01*
X71110256Y-60162523D01*
X70962422Y-60083505D01*
X70832841Y-59977159D01*
X70726495Y-59847578D01*
X70647477Y-59699744D01*
X70621834Y-59615210D01*
X70598814Y-59539325D01*
X70598814Y-59539324D01*
X70598813Y-59539321D01*
X70582383Y-59372500D01*
X70598813Y-59205679D01*
X70601787Y-59195875D01*
X70647475Y-59045261D01*
X70647476Y-59045259D01*
X70647477Y-59045256D01*
X70726495Y-58897422D01*
X70832841Y-58767841D01*
X70962422Y-58661495D01*
X71110256Y-58582477D01*
X71110259Y-58582476D01*
X71110261Y-58582475D01*
X71270675Y-58533814D01*
X71270676Y-58533814D01*
X71270679Y-58533813D01*
X71395696Y-58521500D01*
X71479304Y-58521500D01*
X71604321Y-58533813D01*
X71604321Y-58533813D01*
G37*
G36*
X120170764Y-58057308D02*
X120259220Y-58066020D01*
X120448381Y-58123401D01*
X120622712Y-58216583D01*
X120775515Y-58341985D01*
X120900917Y-58494788D01*
X120994099Y-58669119D01*
X121051480Y-58858280D01*
X121070855Y-59055000D01*
X121051480Y-59251720D01*
X120994099Y-59440881D01*
X120900917Y-59615212D01*
X120775515Y-59768015D01*
X120622712Y-59893417D01*
X120448381Y-59986599D01*
X120259220Y-60043980D01*
X120170764Y-60052692D01*
X120111796Y-60058500D01*
X119918204Y-60058500D01*
X119859236Y-60052692D01*
X119770780Y-60043980D01*
X119581619Y-59986599D01*
X119407288Y-59893417D01*
X119254485Y-59768015D01*
X119129083Y-59615212D01*
X119035901Y-59440881D01*
X118978520Y-59251720D01*
X118959145Y-59055000D01*
X118978520Y-58858280D01*
X119035901Y-58669119D01*
X119129083Y-58494788D01*
X119254485Y-58341985D01*
X119407288Y-58216583D01*
X119581619Y-58123401D01*
X119770780Y-58066020D01*
X119859236Y-58057308D01*
X119918204Y-58051500D01*
X120111796Y-58051500D01*
X120170764Y-58057308D01*
X120170764Y-58057308D01*
G37*
G36*
X125361000Y-59956000D02*
X123559000Y-59956000D01*
X123559000Y-58154000D01*
X125361000Y-58154000D01*
X125361000Y-59956000D01*
X125361000Y-59956000D01*
G37*
G36*
X113913228Y-58236703D02*
X114068100Y-58300853D01*
X114207481Y-58393985D01*
X114326015Y-58512519D01*
X114419147Y-58651900D01*
X114483297Y-58806772D01*
X114516000Y-58971184D01*
X114516000Y-59138816D01*
X114483297Y-59303228D01*
X114419147Y-59458100D01*
X114326015Y-59597481D01*
X114207481Y-59716015D01*
X114068100Y-59809147D01*
X113913228Y-59873297D01*
X113748816Y-59906000D01*
X113581184Y-59906000D01*
X113416772Y-59873297D01*
X113261900Y-59809147D01*
X113122519Y-59716015D01*
X113003985Y-59597481D01*
X112910853Y-59458100D01*
X112846703Y-59303228D01*
X112814000Y-59138816D01*
X112814000Y-58971184D01*
X112846703Y-58806772D01*
X112910853Y-58651900D01*
X113003985Y-58512519D01*
X113122519Y-58393985D01*
X113261900Y-58300853D01*
X113416772Y-58236703D01*
X113581184Y-58204000D01*
X113748816Y-58204000D01*
X113913228Y-58236703D01*
X113913228Y-58236703D01*
G37*
G36*
X111291821Y-58216313D02*
X111291824Y-58216314D01*
X111291825Y-58216314D01*
X111452239Y-58264975D01*
X111452241Y-58264976D01*
X111452244Y-58264977D01*
X111600078Y-58343995D01*
X111729659Y-58450341D01*
X111836005Y-58579922D01*
X111915023Y-58727756D01*
X111915024Y-58727759D01*
X111915025Y-58727761D01*
X111958024Y-58869511D01*
X111963687Y-58888179D01*
X111980117Y-59055000D01*
X111963687Y-59221821D01*
X111963686Y-59221824D01*
X111963686Y-59221825D01*
X111938993Y-59303228D01*
X111915023Y-59382244D01*
X111836005Y-59530078D01*
X111729659Y-59659659D01*
X111600078Y-59766005D01*
X111452244Y-59845023D01*
X111452241Y-59845024D01*
X111452239Y-59845025D01*
X111291825Y-59893686D01*
X111291824Y-59893686D01*
X111291821Y-59893687D01*
X111166804Y-59906000D01*
X111083196Y-59906000D01*
X110958179Y-59893687D01*
X110958176Y-59893686D01*
X110958175Y-59893686D01*
X110797761Y-59845025D01*
X110797759Y-59845024D01*
X110797756Y-59845023D01*
X110649922Y-59766005D01*
X110520341Y-59659659D01*
X110413995Y-59530078D01*
X110334977Y-59382244D01*
X110311008Y-59303228D01*
X110286314Y-59221825D01*
X110286314Y-59221824D01*
X110286313Y-59221821D01*
X110269883Y-59055000D01*
X110286313Y-58888179D01*
X110291976Y-58869511D01*
X110334975Y-58727761D01*
X110334976Y-58727759D01*
X110334977Y-58727756D01*
X110413995Y-58579922D01*
X110520341Y-58450341D01*
X110649922Y-58343995D01*
X110797756Y-58264977D01*
X110797759Y-58264976D01*
X110797761Y-58264975D01*
X110958175Y-58216314D01*
X110958176Y-58216314D01*
X110958179Y-58216313D01*
X111083196Y-58204000D01*
X111166804Y-58204000D01*
X111291821Y-58216313D01*
X111291821Y-58216313D01*
G37*
G36*
X47289866Y-56138717D02*
X47481135Y-56217943D01*
X47653277Y-56332965D01*
X47799664Y-56479352D01*
X47914686Y-56651494D01*
X47993912Y-56842763D01*
X48034301Y-57045812D01*
X48034301Y-57252844D01*
X47993912Y-57455893D01*
X47914686Y-57647162D01*
X47799664Y-57819304D01*
X47653277Y-57965691D01*
X47481135Y-58080713D01*
X47289866Y-58159939D01*
X47086817Y-58200328D01*
X46879785Y-58200328D01*
X46676736Y-58159939D01*
X46485467Y-58080713D01*
X46313325Y-57965691D01*
X46166938Y-57819304D01*
X46051916Y-57647162D01*
X45972690Y-57455893D01*
X45932301Y-57252844D01*
X45932301Y-57045812D01*
X45972690Y-56842763D01*
X46051916Y-56651494D01*
X46166938Y-56479352D01*
X46313325Y-56332965D01*
X46485467Y-56217943D01*
X46676736Y-56138717D01*
X46879785Y-56098328D01*
X47086817Y-56098328D01*
X47289866Y-56138717D01*
X47289866Y-56138717D01*
G37*
G36*
X49829866Y-56138717D02*
X50021135Y-56217943D01*
X50193277Y-56332965D01*
X50339664Y-56479352D01*
X50454686Y-56651494D01*
X50533912Y-56842763D01*
X50574301Y-57045812D01*
X50574301Y-57252844D01*
X50533912Y-57455893D01*
X50454686Y-57647162D01*
X50339664Y-57819304D01*
X50193277Y-57965691D01*
X50021135Y-58080713D01*
X49829866Y-58159939D01*
X49626817Y-58200328D01*
X49419785Y-58200328D01*
X49216736Y-58159939D01*
X49025467Y-58080713D01*
X48853325Y-57965691D01*
X48706938Y-57819304D01*
X48591916Y-57647162D01*
X48512690Y-57455893D01*
X48472301Y-57252844D01*
X48472301Y-57045812D01*
X48512690Y-56842763D01*
X48591916Y-56651494D01*
X48706938Y-56479352D01*
X48853325Y-56332965D01*
X49025467Y-56217943D01*
X49216736Y-56138717D01*
X49419785Y-56098328D01*
X49626817Y-56098328D01*
X49829866Y-56138717D01*
X49829866Y-56138717D01*
G37*
G36*
X52369866Y-56138717D02*
X52561135Y-56217943D01*
X52733277Y-56332965D01*
X52879664Y-56479352D01*
X52994686Y-56651494D01*
X53073912Y-56842763D01*
X53114301Y-57045812D01*
X53114301Y-57252844D01*
X53073912Y-57455893D01*
X52994686Y-57647162D01*
X52879664Y-57819304D01*
X52733277Y-57965691D01*
X52561135Y-58080713D01*
X52369866Y-58159939D01*
X52166817Y-58200328D01*
X51959785Y-58200328D01*
X51756736Y-58159939D01*
X51565467Y-58080713D01*
X51393325Y-57965691D01*
X51246938Y-57819304D01*
X51131916Y-57647162D01*
X51052690Y-57455893D01*
X51012301Y-57252844D01*
X51012301Y-57045812D01*
X51052690Y-56842763D01*
X51131916Y-56651494D01*
X51246938Y-56479352D01*
X51393325Y-56332965D01*
X51565467Y-56217943D01*
X51756736Y-56138717D01*
X51959785Y-56098328D01*
X52166817Y-56098328D01*
X52369866Y-56138717D01*
X52369866Y-56138717D01*
G37*
G36*
X44749866Y-56138717D02*
X44941135Y-56217943D01*
X45113277Y-56332965D01*
X45259664Y-56479352D01*
X45374686Y-56651494D01*
X45453912Y-56842763D01*
X45494301Y-57045812D01*
X45494301Y-57252844D01*
X45453912Y-57455893D01*
X45374686Y-57647162D01*
X45259664Y-57819304D01*
X45113277Y-57965691D01*
X44941135Y-58080713D01*
X44749866Y-58159939D01*
X44546817Y-58200328D01*
X44339785Y-58200328D01*
X44136736Y-58159939D01*
X43945467Y-58080713D01*
X43773325Y-57965691D01*
X43626938Y-57819304D01*
X43511916Y-57647162D01*
X43432690Y-57455893D01*
X43392301Y-57252844D01*
X43392301Y-57045812D01*
X43432690Y-56842763D01*
X43511916Y-56651494D01*
X43626938Y-56479352D01*
X43773325Y-56332965D01*
X43945467Y-56217943D01*
X44136736Y-56138717D01*
X44339785Y-56098328D01*
X44546817Y-56098328D01*
X44749866Y-56138717D01*
X44749866Y-56138717D01*
G37*
G36*
X87422942Y-55938018D02*
X87489127Y-55944537D01*
X87602353Y-55978884D01*
X87658967Y-55996057D01*
X87745811Y-56042477D01*
X87815491Y-56079722D01*
X87838162Y-56098328D01*
X87952686Y-56192314D01*
X88035948Y-56293771D01*
X88065278Y-56329509D01*
X88065279Y-56329511D01*
X88148943Y-56486033D01*
X88157730Y-56515000D01*
X88200463Y-56655873D01*
X88217859Y-56832500D01*
X88200463Y-57009127D01*
X88189334Y-57045814D01*
X88148943Y-57178967D01*
X88122726Y-57228015D01*
X88065278Y-57335491D01*
X88052186Y-57351443D01*
X87952686Y-57472686D01*
X87851229Y-57555948D01*
X87815491Y-57585278D01*
X87815489Y-57585279D01*
X87658967Y-57668943D01*
X87651569Y-57671187D01*
X87489127Y-57720463D01*
X87422943Y-57726981D01*
X87356760Y-57733500D01*
X87268240Y-57733500D01*
X87202057Y-57726981D01*
X87135873Y-57720463D01*
X86973431Y-57671187D01*
X86966033Y-57668943D01*
X86809511Y-57585279D01*
X86809509Y-57585278D01*
X86773771Y-57555948D01*
X86672314Y-57472686D01*
X86572814Y-57351443D01*
X86559722Y-57335491D01*
X86502274Y-57228015D01*
X86476057Y-57178967D01*
X86435666Y-57045814D01*
X86424537Y-57009127D01*
X86407141Y-56832500D01*
X86424537Y-56655873D01*
X86467270Y-56515000D01*
X86476057Y-56486033D01*
X86559721Y-56329511D01*
X86559722Y-56329509D01*
X86589052Y-56293771D01*
X86672314Y-56192314D01*
X86786838Y-56098328D01*
X86809509Y-56079722D01*
X86879189Y-56042477D01*
X86966033Y-55996057D01*
X87022647Y-55978884D01*
X87135873Y-55944537D01*
X87202058Y-55938018D01*
X87268240Y-55931500D01*
X87356760Y-55931500D01*
X87422942Y-55938018D01*
X87422942Y-55938018D01*
G37*
G36*
X62022942Y-55938018D02*
X62089127Y-55944537D01*
X62202353Y-55978884D01*
X62258967Y-55996057D01*
X62345811Y-56042477D01*
X62415491Y-56079722D01*
X62438162Y-56098328D01*
X62552686Y-56192314D01*
X62635948Y-56293771D01*
X62665278Y-56329509D01*
X62665279Y-56329511D01*
X62748943Y-56486033D01*
X62757730Y-56515000D01*
X62800463Y-56655873D01*
X62817859Y-56832500D01*
X62800463Y-57009127D01*
X62789334Y-57045814D01*
X62748943Y-57178967D01*
X62722726Y-57228015D01*
X62665278Y-57335491D01*
X62652186Y-57351443D01*
X62552686Y-57472686D01*
X62451229Y-57555948D01*
X62415491Y-57585278D01*
X62415489Y-57585279D01*
X62258967Y-57668943D01*
X62251569Y-57671187D01*
X62089127Y-57720463D01*
X62022943Y-57726981D01*
X61956760Y-57733500D01*
X61868240Y-57733500D01*
X61802057Y-57726981D01*
X61735873Y-57720463D01*
X61573431Y-57671187D01*
X61566033Y-57668943D01*
X61409511Y-57585279D01*
X61409509Y-57585278D01*
X61373771Y-57555948D01*
X61272314Y-57472686D01*
X61172814Y-57351443D01*
X61159722Y-57335491D01*
X61102274Y-57228015D01*
X61076057Y-57178967D01*
X61035666Y-57045814D01*
X61024537Y-57009127D01*
X61007141Y-56832500D01*
X61024537Y-56655873D01*
X61067270Y-56515000D01*
X61076057Y-56486033D01*
X61159721Y-56329511D01*
X61159722Y-56329509D01*
X61189052Y-56293771D01*
X61272314Y-56192314D01*
X61386838Y-56098328D01*
X61409509Y-56079722D01*
X61479189Y-56042477D01*
X61566033Y-55996057D01*
X61622647Y-55978884D01*
X61735873Y-55944537D01*
X61802058Y-55938018D01*
X61868240Y-55931500D01*
X61956760Y-55931500D01*
X62022942Y-55938018D01*
X62022942Y-55938018D01*
G37*
G36*
X71604321Y-55993813D02*
X71604324Y-55993814D01*
X71604325Y-55993814D01*
X71764739Y-56042475D01*
X71764741Y-56042476D01*
X71764744Y-56042477D01*
X71912578Y-56121495D01*
X72042159Y-56227841D01*
X72148505Y-56357422D01*
X72227523Y-56505256D01*
X72227524Y-56505259D01*
X72227525Y-56505261D01*
X72273213Y-56655875D01*
X72276187Y-56665679D01*
X72292617Y-56832500D01*
X72276187Y-56999321D01*
X72276186Y-56999324D01*
X72276186Y-56999325D01*
X72253167Y-57075210D01*
X72227523Y-57159744D01*
X72148505Y-57307578D01*
X72042159Y-57437159D01*
X71912578Y-57543505D01*
X71764744Y-57622523D01*
X71764741Y-57622524D01*
X71764739Y-57622525D01*
X71604325Y-57671186D01*
X71604324Y-57671186D01*
X71604321Y-57671187D01*
X71479304Y-57683500D01*
X71395696Y-57683500D01*
X71270679Y-57671187D01*
X71270676Y-57671186D01*
X71270675Y-57671186D01*
X71110261Y-57622525D01*
X71110259Y-57622524D01*
X71110256Y-57622523D01*
X70962422Y-57543505D01*
X70832841Y-57437159D01*
X70726495Y-57307578D01*
X70647477Y-57159744D01*
X70621834Y-57075210D01*
X70598814Y-56999325D01*
X70598814Y-56999324D01*
X70598813Y-56999321D01*
X70582383Y-56832500D01*
X70598813Y-56665679D01*
X70601787Y-56655875D01*
X70647475Y-56505261D01*
X70647476Y-56505259D01*
X70647477Y-56505256D01*
X70726495Y-56357422D01*
X70832841Y-56227841D01*
X70962422Y-56121495D01*
X71110256Y-56042477D01*
X71110259Y-56042476D01*
X71110261Y-56042475D01*
X71270675Y-55993814D01*
X71270676Y-55993814D01*
X71270679Y-55993813D01*
X71395696Y-55981500D01*
X71479304Y-55981500D01*
X71604321Y-55993813D01*
X71604321Y-55993813D01*
G37*
G36*
X79224321Y-55993813D02*
X79224324Y-55993814D01*
X79224325Y-55993814D01*
X79384739Y-56042475D01*
X79384741Y-56042476D01*
X79384744Y-56042477D01*
X79532578Y-56121495D01*
X79662159Y-56227841D01*
X79768505Y-56357422D01*
X79847523Y-56505256D01*
X79847524Y-56505259D01*
X79847525Y-56505261D01*
X79893213Y-56655875D01*
X79896187Y-56665679D01*
X79912617Y-56832500D01*
X79896187Y-56999321D01*
X79896186Y-56999324D01*
X79896186Y-56999325D01*
X79873167Y-57075210D01*
X79847523Y-57159744D01*
X79768505Y-57307578D01*
X79662159Y-57437159D01*
X79532578Y-57543505D01*
X79384744Y-57622523D01*
X79384741Y-57622524D01*
X79384739Y-57622525D01*
X79224325Y-57671186D01*
X79224324Y-57671186D01*
X79224321Y-57671187D01*
X79099304Y-57683500D01*
X79015696Y-57683500D01*
X78890679Y-57671187D01*
X78890676Y-57671186D01*
X78890675Y-57671186D01*
X78730261Y-57622525D01*
X78730259Y-57622524D01*
X78730256Y-57622523D01*
X78582422Y-57543505D01*
X78452841Y-57437159D01*
X78346495Y-57307578D01*
X78267477Y-57159744D01*
X78241834Y-57075210D01*
X78218814Y-56999325D01*
X78218814Y-56999324D01*
X78218813Y-56999321D01*
X78202383Y-56832500D01*
X78218813Y-56665679D01*
X78221787Y-56655875D01*
X78267475Y-56505261D01*
X78267476Y-56505259D01*
X78267477Y-56505256D01*
X78346495Y-56357422D01*
X78452841Y-56227841D01*
X78582422Y-56121495D01*
X78730256Y-56042477D01*
X78730259Y-56042476D01*
X78730261Y-56042475D01*
X78890675Y-55993814D01*
X78890676Y-55993814D01*
X78890679Y-55993813D01*
X79015696Y-55981500D01*
X79099304Y-55981500D01*
X79224321Y-55993813D01*
X79224321Y-55993813D01*
G37*
G36*
X120170764Y-55517308D02*
X120259220Y-55526020D01*
X120448381Y-55583401D01*
X120622712Y-55676583D01*
X120775515Y-55801985D01*
X120900917Y-55954788D01*
X120994099Y-56129119D01*
X121051480Y-56318280D01*
X121070855Y-56515000D01*
X121051480Y-56711720D01*
X120994099Y-56900881D01*
X120900917Y-57075212D01*
X120775515Y-57228015D01*
X120622712Y-57353417D01*
X120448381Y-57446599D01*
X120259220Y-57503980D01*
X120170764Y-57512692D01*
X120111796Y-57518500D01*
X119918204Y-57518500D01*
X119859236Y-57512692D01*
X119770780Y-57503980D01*
X119581619Y-57446599D01*
X119407288Y-57353417D01*
X119254485Y-57228015D01*
X119129083Y-57075212D01*
X119035901Y-56900881D01*
X118978520Y-56711720D01*
X118959145Y-56515000D01*
X118978520Y-56318280D01*
X119035901Y-56129119D01*
X119129083Y-55954788D01*
X119254485Y-55801985D01*
X119407288Y-55676583D01*
X119581619Y-55583401D01*
X119770780Y-55526020D01*
X119859236Y-55517308D01*
X119918204Y-55511500D01*
X120111796Y-55511500D01*
X120170764Y-55517308D01*
X120170764Y-55517308D01*
G37*
G36*
X124570443Y-55620519D02*
X124636627Y-55627037D01*
X124749853Y-55661384D01*
X124806467Y-55678557D01*
X124936363Y-55747989D01*
X124962991Y-55762222D01*
X124998729Y-55791552D01*
X125100186Y-55874814D01*
X125183448Y-55976271D01*
X125212778Y-56012009D01*
X125212779Y-56012011D01*
X125296443Y-56168533D01*
X125296443Y-56168534D01*
X125347963Y-56338373D01*
X125365359Y-56515000D01*
X125347963Y-56691627D01*
X125313616Y-56804853D01*
X125296443Y-56861467D01*
X125275375Y-56900881D01*
X125212778Y-57017991D01*
X125189946Y-57045812D01*
X125100186Y-57155186D01*
X125011442Y-57228015D01*
X124962991Y-57267778D01*
X124962989Y-57267779D01*
X124806467Y-57351443D01*
X124799959Y-57353417D01*
X124636627Y-57402963D01*
X124570443Y-57409481D01*
X124504260Y-57416000D01*
X124415740Y-57416000D01*
X124349557Y-57409481D01*
X124283373Y-57402963D01*
X124120041Y-57353417D01*
X124113533Y-57351443D01*
X123957011Y-57267779D01*
X123957009Y-57267778D01*
X123908558Y-57228015D01*
X123819814Y-57155186D01*
X123730054Y-57045812D01*
X123707222Y-57017991D01*
X123644625Y-56900881D01*
X123623557Y-56861467D01*
X123606384Y-56804853D01*
X123572037Y-56691627D01*
X123554641Y-56515000D01*
X123572037Y-56338373D01*
X123623557Y-56168534D01*
X123623557Y-56168533D01*
X123707221Y-56012011D01*
X123707222Y-56012009D01*
X123736552Y-55976271D01*
X123819814Y-55874814D01*
X123921271Y-55791552D01*
X123957009Y-55762222D01*
X123983637Y-55747989D01*
X124113533Y-55678557D01*
X124170147Y-55661384D01*
X124283373Y-55627037D01*
X124349557Y-55620519D01*
X124415740Y-55614000D01*
X124504260Y-55614000D01*
X124570443Y-55620519D01*
X124570443Y-55620519D01*
G37*
G36*
X113775442Y-54350518D02*
X113841627Y-54357037D01*
X113954853Y-54391384D01*
X114011467Y-54408557D01*
X114106438Y-54459321D01*
X114167991Y-54492222D01*
X114203729Y-54521552D01*
X114305186Y-54604814D01*
X114388448Y-54706271D01*
X114417778Y-54742009D01*
X114417779Y-54742011D01*
X114501443Y-54898533D01*
X114501443Y-54898534D01*
X114552963Y-55068373D01*
X114570359Y-55245000D01*
X114552963Y-55421627D01*
X114525700Y-55511500D01*
X114501443Y-55591467D01*
X114482430Y-55627037D01*
X114417778Y-55747991D01*
X114388448Y-55783729D01*
X114305186Y-55885186D01*
X114220374Y-55954788D01*
X114167991Y-55997778D01*
X114167989Y-55997779D01*
X114011467Y-56081443D01*
X113955804Y-56098328D01*
X113841627Y-56132963D01*
X113775443Y-56139481D01*
X113709260Y-56146000D01*
X113620740Y-56146000D01*
X113554557Y-56139481D01*
X113488373Y-56132963D01*
X113374196Y-56098328D01*
X113318533Y-56081443D01*
X113162011Y-55997779D01*
X113162009Y-55997778D01*
X113109626Y-55954788D01*
X113024814Y-55885186D01*
X112941552Y-55783729D01*
X112912222Y-55747991D01*
X112847570Y-55627037D01*
X112828557Y-55591467D01*
X112804300Y-55511500D01*
X112777037Y-55421627D01*
X112759641Y-55245000D01*
X112777037Y-55068373D01*
X112828557Y-54898534D01*
X112828557Y-54898533D01*
X112912221Y-54742011D01*
X112912222Y-54742009D01*
X112941552Y-54706271D01*
X113024814Y-54604814D01*
X113126271Y-54521552D01*
X113162009Y-54492222D01*
X113223562Y-54459321D01*
X113318533Y-54408557D01*
X113375147Y-54391384D01*
X113488373Y-54357037D01*
X113554558Y-54350518D01*
X113620740Y-54344000D01*
X113709260Y-54344000D01*
X113775442Y-54350518D01*
X113775442Y-54350518D01*
G37*
G36*
X112026000Y-56146000D02*
X110224000Y-56146000D01*
X110224000Y-54344000D01*
X112026000Y-54344000D01*
X112026000Y-56146000D01*
X112026000Y-56146000D01*
G37*
G36*
X88213500Y-55193500D02*
X86411500Y-55193500D01*
X86411500Y-53391500D01*
X88213500Y-53391500D01*
X88213500Y-55193500D01*
X88213500Y-55193500D01*
G37*
G36*
X62022943Y-53398019D02*
X62089127Y-53404537D01*
X62202353Y-53438884D01*
X62258967Y-53456057D01*
X62345811Y-53502477D01*
X62415491Y-53539722D01*
X62451229Y-53569052D01*
X62552686Y-53652314D01*
X62635948Y-53753771D01*
X62665278Y-53789509D01*
X62665279Y-53789511D01*
X62748943Y-53946033D01*
X62766116Y-54002647D01*
X62800463Y-54115873D01*
X62817859Y-54292500D01*
X62800463Y-54469127D01*
X62793457Y-54492222D01*
X62748943Y-54638967D01*
X62693865Y-54742009D01*
X62665278Y-54795491D01*
X62635948Y-54831229D01*
X62552686Y-54932686D01*
X62451229Y-55015948D01*
X62415491Y-55045278D01*
X62415489Y-55045279D01*
X62258967Y-55128943D01*
X62251569Y-55131187D01*
X62089127Y-55180463D01*
X62022943Y-55186981D01*
X61956760Y-55193500D01*
X61868240Y-55193500D01*
X61802057Y-55186981D01*
X61735873Y-55180463D01*
X61573431Y-55131187D01*
X61566033Y-55128943D01*
X61409511Y-55045279D01*
X61409509Y-55045278D01*
X61373771Y-55015948D01*
X61272314Y-54932686D01*
X61189052Y-54831229D01*
X61159722Y-54795491D01*
X61131135Y-54742009D01*
X61076057Y-54638967D01*
X61031543Y-54492222D01*
X61024537Y-54469127D01*
X61007141Y-54292500D01*
X61024537Y-54115873D01*
X61058884Y-54002647D01*
X61076057Y-53946033D01*
X61159721Y-53789511D01*
X61159722Y-53789509D01*
X61189052Y-53753771D01*
X61272314Y-53652314D01*
X61373771Y-53569052D01*
X61409509Y-53539722D01*
X61479189Y-53502477D01*
X61566033Y-53456057D01*
X61622647Y-53438884D01*
X61735873Y-53404537D01*
X61802057Y-53398019D01*
X61868240Y-53391500D01*
X61956760Y-53391500D01*
X62022943Y-53398019D01*
X62022943Y-53398019D01*
G37*
G36*
X79224321Y-53453813D02*
X79224324Y-53453814D01*
X79224325Y-53453814D01*
X79384739Y-53502475D01*
X79384741Y-53502476D01*
X79384744Y-53502477D01*
X79532578Y-53581495D01*
X79662159Y-53687841D01*
X79768505Y-53817422D01*
X79847523Y-53965256D01*
X79847524Y-53965259D01*
X79847525Y-53965261D01*
X79893213Y-54115875D01*
X79896187Y-54125679D01*
X79912617Y-54292500D01*
X79896187Y-54459321D01*
X79896186Y-54459324D01*
X79896186Y-54459325D01*
X79893213Y-54469127D01*
X79847523Y-54619744D01*
X79768505Y-54767578D01*
X79662159Y-54897159D01*
X79532578Y-55003505D01*
X79384744Y-55082523D01*
X79384741Y-55082524D01*
X79384739Y-55082525D01*
X79224325Y-55131186D01*
X79224324Y-55131186D01*
X79224321Y-55131187D01*
X79099304Y-55143500D01*
X79015696Y-55143500D01*
X78890679Y-55131187D01*
X78890676Y-55131186D01*
X78890675Y-55131186D01*
X78730261Y-55082525D01*
X78730259Y-55082524D01*
X78730256Y-55082523D01*
X78582422Y-55003505D01*
X78452841Y-54897159D01*
X78346495Y-54767578D01*
X78267477Y-54619744D01*
X78221788Y-54469127D01*
X78218814Y-54459325D01*
X78218814Y-54459324D01*
X78218813Y-54459321D01*
X78202383Y-54292500D01*
X78218813Y-54125679D01*
X78221787Y-54115875D01*
X78267475Y-53965261D01*
X78267476Y-53965259D01*
X78267477Y-53965256D01*
X78346495Y-53817422D01*
X78452841Y-53687841D01*
X78582422Y-53581495D01*
X78730256Y-53502477D01*
X78730259Y-53502476D01*
X78730261Y-53502475D01*
X78890675Y-53453814D01*
X78890676Y-53453814D01*
X78890679Y-53453813D01*
X79015696Y-53441500D01*
X79099304Y-53441500D01*
X79224321Y-53453813D01*
X79224321Y-53453813D01*
G37*
G36*
X67159321Y-53453813D02*
X67159324Y-53453814D01*
X67159325Y-53453814D01*
X67319739Y-53502475D01*
X67319741Y-53502476D01*
X67319744Y-53502477D01*
X67467578Y-53581495D01*
X67597159Y-53687841D01*
X67703505Y-53817422D01*
X67782523Y-53965256D01*
X67782524Y-53965259D01*
X67782525Y-53965261D01*
X67828213Y-54115875D01*
X67831187Y-54125679D01*
X67847617Y-54292500D01*
X67831187Y-54459321D01*
X67831186Y-54459324D01*
X67831186Y-54459325D01*
X67828213Y-54469127D01*
X67782523Y-54619744D01*
X67703505Y-54767578D01*
X67597159Y-54897159D01*
X67467578Y-55003505D01*
X67319744Y-55082523D01*
X67319741Y-55082524D01*
X67319739Y-55082525D01*
X67159325Y-55131186D01*
X67159324Y-55131186D01*
X67159321Y-55131187D01*
X67034304Y-55143500D01*
X66950696Y-55143500D01*
X66825679Y-55131187D01*
X66825676Y-55131186D01*
X66825675Y-55131186D01*
X66665261Y-55082525D01*
X66665259Y-55082524D01*
X66665256Y-55082523D01*
X66517422Y-55003505D01*
X66387841Y-54897159D01*
X66281495Y-54767578D01*
X66202477Y-54619744D01*
X66156788Y-54469127D01*
X66153814Y-54459325D01*
X66153814Y-54459324D01*
X66153813Y-54459321D01*
X66137383Y-54292500D01*
X66153813Y-54125679D01*
X66156787Y-54115875D01*
X66202475Y-53965261D01*
X66202476Y-53965259D01*
X66202477Y-53965256D01*
X66281495Y-53817422D01*
X66387841Y-53687841D01*
X66517422Y-53581495D01*
X66665256Y-53502477D01*
X66665259Y-53502476D01*
X66665261Y-53502475D01*
X66825675Y-53453814D01*
X66825676Y-53453814D01*
X66825679Y-53453813D01*
X66950696Y-53441500D01*
X67034304Y-53441500D01*
X67159321Y-53453813D01*
X67159321Y-53453813D01*
G37*
G36*
X71604321Y-53453813D02*
X71604324Y-53453814D01*
X71604325Y-53453814D01*
X71764739Y-53502475D01*
X71764741Y-53502476D01*
X71764744Y-53502477D01*
X71912578Y-53581495D01*
X72042159Y-53687841D01*
X72148505Y-53817422D01*
X72227523Y-53965256D01*
X72227524Y-53965259D01*
X72227525Y-53965261D01*
X72273213Y-54115875D01*
X72276187Y-54125679D01*
X72292617Y-54292500D01*
X72276187Y-54459321D01*
X72276186Y-54459324D01*
X72276186Y-54459325D01*
X72273213Y-54469127D01*
X72227523Y-54619744D01*
X72148505Y-54767578D01*
X72042159Y-54897159D01*
X71912578Y-55003505D01*
X71764744Y-55082523D01*
X71764741Y-55082524D01*
X71764739Y-55082525D01*
X71604325Y-55131186D01*
X71604324Y-55131186D01*
X71604321Y-55131187D01*
X71479304Y-55143500D01*
X71395696Y-55143500D01*
X71270679Y-55131187D01*
X71270676Y-55131186D01*
X71270675Y-55131186D01*
X71110261Y-55082525D01*
X71110259Y-55082524D01*
X71110256Y-55082523D01*
X70962422Y-55003505D01*
X70832841Y-54897159D01*
X70726495Y-54767578D01*
X70647477Y-54619744D01*
X70601788Y-54469127D01*
X70598814Y-54459325D01*
X70598814Y-54459324D01*
X70598813Y-54459321D01*
X70582383Y-54292500D01*
X70598813Y-54125679D01*
X70601787Y-54115875D01*
X70647475Y-53965261D01*
X70647476Y-53965259D01*
X70647477Y-53965256D01*
X70726495Y-53817422D01*
X70832841Y-53687841D01*
X70962422Y-53581495D01*
X71110256Y-53502477D01*
X71110259Y-53502476D01*
X71110261Y-53502475D01*
X71270675Y-53453814D01*
X71270676Y-53453814D01*
X71270679Y-53453813D01*
X71395696Y-53441500D01*
X71479304Y-53441500D01*
X71604321Y-53453813D01*
X71604321Y-53453813D01*
G37*
G36*
X52554321Y-51548813D02*
X52554324Y-51548814D01*
X52554325Y-51548814D01*
X52714739Y-51597475D01*
X52714741Y-51597476D01*
X52714744Y-51597477D01*
X52862578Y-51676495D01*
X52992159Y-51782841D01*
X53098505Y-51912422D01*
X53177523Y-52060256D01*
X53177524Y-52060259D01*
X53177525Y-52060261D01*
X53226186Y-52220675D01*
X53226187Y-52220679D01*
X53242617Y-52387500D01*
X53226187Y-52554321D01*
X53226186Y-52554324D01*
X53226186Y-52554325D01*
X53196102Y-52653500D01*
X53177523Y-52714744D01*
X53098505Y-52862578D01*
X52992159Y-52992159D01*
X52862578Y-53098505D01*
X52714744Y-53177523D01*
X52714741Y-53177524D01*
X52714739Y-53177525D01*
X52554325Y-53226186D01*
X52554324Y-53226186D01*
X52554321Y-53226187D01*
X52429304Y-53238500D01*
X52345696Y-53238500D01*
X52220679Y-53226187D01*
X52220676Y-53226186D01*
X52220675Y-53226186D01*
X52060261Y-53177525D01*
X52060259Y-53177524D01*
X52060256Y-53177523D01*
X51912422Y-53098505D01*
X51782841Y-52992159D01*
X51676495Y-52862578D01*
X51597477Y-52714744D01*
X51578899Y-52653500D01*
X51548814Y-52554325D01*
X51548814Y-52554324D01*
X51548813Y-52554321D01*
X51532383Y-52387500D01*
X51548813Y-52220679D01*
X51548814Y-52220675D01*
X51597475Y-52060261D01*
X51597476Y-52060259D01*
X51597477Y-52060256D01*
X51676495Y-51912422D01*
X51782841Y-51782841D01*
X51912422Y-51676495D01*
X52060256Y-51597477D01*
X52060259Y-51597476D01*
X52060261Y-51597475D01*
X52220675Y-51548814D01*
X52220676Y-51548814D01*
X52220679Y-51548813D01*
X52345696Y-51536500D01*
X52429304Y-51536500D01*
X52554321Y-51548813D01*
X52554321Y-51548813D01*
G37*
G36*
X55175728Y-51569203D02*
X55330600Y-51633353D01*
X55469981Y-51726485D01*
X55588515Y-51845019D01*
X55681647Y-51984400D01*
X55745797Y-52139272D01*
X55778500Y-52303684D01*
X55778500Y-52471316D01*
X55745797Y-52635728D01*
X55681647Y-52790600D01*
X55588515Y-52929981D01*
X55469981Y-53048515D01*
X55330600Y-53141647D01*
X55175728Y-53205797D01*
X55011316Y-53238500D01*
X54843684Y-53238500D01*
X54679272Y-53205797D01*
X54524400Y-53141647D01*
X54385019Y-53048515D01*
X54266485Y-52929981D01*
X54173353Y-52790600D01*
X54109203Y-52635728D01*
X54076500Y-52471316D01*
X54076500Y-52303684D01*
X54109203Y-52139272D01*
X54173353Y-51984400D01*
X54266485Y-51845019D01*
X54385019Y-51726485D01*
X54524400Y-51633353D01*
X54679272Y-51569203D01*
X54843684Y-51536500D01*
X55011316Y-51536500D01*
X55175728Y-51569203D01*
X55175728Y-51569203D01*
G37*
G36*
X62813500Y-52653500D02*
X61011500Y-52653500D01*
X61011500Y-50851500D01*
X62813500Y-50851500D01*
X62813500Y-52653500D01*
X62813500Y-52653500D01*
G37*
G36*
X72288500Y-52603500D02*
X70586500Y-52603500D01*
X70586500Y-50901500D01*
X72288500Y-50901500D01*
X72288500Y-52603500D01*
X72288500Y-52603500D01*
G37*
G36*
X67240728Y-50934203D02*
X67395600Y-50998353D01*
X67534981Y-51091485D01*
X67653515Y-51210019D01*
X67746647Y-51349400D01*
X67810797Y-51504272D01*
X67843500Y-51668684D01*
X67843500Y-51836316D01*
X67810797Y-52000728D01*
X67746647Y-52155600D01*
X67653515Y-52294981D01*
X67534981Y-52413515D01*
X67395600Y-52506647D01*
X67240728Y-52570797D01*
X67076316Y-52603500D01*
X66908684Y-52603500D01*
X66744272Y-52570797D01*
X66589400Y-52506647D01*
X66450019Y-52413515D01*
X66331485Y-52294981D01*
X66238353Y-52155600D01*
X66174203Y-52000728D01*
X66141500Y-51836316D01*
X66141500Y-51668684D01*
X66174203Y-51504272D01*
X66238353Y-51349400D01*
X66331485Y-51210019D01*
X66450019Y-51091485D01*
X66589400Y-50998353D01*
X66744272Y-50934203D01*
X66908684Y-50901500D01*
X67076316Y-50901500D01*
X67240728Y-50934203D01*
X67240728Y-50934203D01*
G37*
G36*
X79224321Y-50913813D02*
X79224324Y-50913814D01*
X79224325Y-50913814D01*
X79384739Y-50962475D01*
X79384741Y-50962476D01*
X79384744Y-50962477D01*
X79532578Y-51041495D01*
X79662159Y-51147841D01*
X79768505Y-51277422D01*
X79847523Y-51425256D01*
X79847524Y-51425259D01*
X79847525Y-51425261D01*
X79896186Y-51585675D01*
X79896187Y-51585679D01*
X79912617Y-51752500D01*
X79896187Y-51919321D01*
X79896186Y-51919324D01*
X79896186Y-51919325D01*
X79853434Y-52060261D01*
X79847523Y-52079744D01*
X79768505Y-52227578D01*
X79662159Y-52357159D01*
X79532578Y-52463505D01*
X79384744Y-52542523D01*
X79384741Y-52542524D01*
X79384739Y-52542525D01*
X79224325Y-52591186D01*
X79224324Y-52591186D01*
X79224321Y-52591187D01*
X79099304Y-52603500D01*
X79015696Y-52603500D01*
X78890679Y-52591187D01*
X78890676Y-52591186D01*
X78890675Y-52591186D01*
X78730261Y-52542525D01*
X78730259Y-52542524D01*
X78730256Y-52542523D01*
X78582422Y-52463505D01*
X78452841Y-52357159D01*
X78346495Y-52227578D01*
X78267477Y-52079744D01*
X78261567Y-52060261D01*
X78218814Y-51919325D01*
X78218814Y-51919324D01*
X78218813Y-51919321D01*
X78202383Y-51752500D01*
X78218813Y-51585679D01*
X78218814Y-51585675D01*
X78267475Y-51425261D01*
X78267476Y-51425259D01*
X78267477Y-51425256D01*
X78346495Y-51277422D01*
X78452841Y-51147841D01*
X78582422Y-51041495D01*
X78730256Y-50962477D01*
X78730259Y-50962476D01*
X78730261Y-50962475D01*
X78890675Y-50913814D01*
X78890676Y-50913814D01*
X78890679Y-50913813D01*
X79015696Y-50901500D01*
X79099304Y-50901500D01*
X79224321Y-50913813D01*
X79224321Y-50913813D01*
G37*
M02*
