G04 #@! TF.GenerationSoftware,KiCad,Pcbnew,(5.0.1)-4*
G04 #@! TF.CreationDate,2018-12-26T20:48:13-08:00*
G04 #@! TF.ProjectId,Launch_Controller-Pad_Box,4C61756E63685F436F6E74726F6C6C65,rev?*
G04 #@! TF.SameCoordinates,Original*
G04 #@! TF.FileFunction,Copper,L2,Bot,Signal*
G04 #@! TF.FilePolarity,Positive*
%FSLAX46Y46*%
G04 Gerber Fmt 4.6, Leading zero omitted, Abs format (unit mm)*
G04 Created by KiCad (PCBNEW (5.0.1)-4) date 12/26/2018 8:48:13 PM*
%MOMM*%
%LPD*%
G01*
G04 APERTURE LIST*
G04 #@! TA.AperFunction,ComponentPad*
%ADD10R,1.700000X1.700000*%
G04 #@! TD*
G04 #@! TA.AperFunction,ComponentPad*
%ADD11O,1.700000X1.700000*%
G04 #@! TD*
G04 #@! TA.AperFunction,ComponentPad*
%ADD12R,1.600000X1.600000*%
G04 #@! TD*
G04 #@! TA.AperFunction,ComponentPad*
%ADD13C,1.600000*%
G04 #@! TD*
G04 #@! TA.AperFunction,ComponentPad*
%ADD14O,2.000000X1.905000*%
G04 #@! TD*
G04 #@! TA.AperFunction,ComponentPad*
%ADD15R,2.000000X1.905000*%
G04 #@! TD*
G04 #@! TA.AperFunction,ComponentPad*
%ADD16R,2.200000X2.200000*%
G04 #@! TD*
G04 #@! TA.AperFunction,ComponentPad*
%ADD17O,2.200000X2.200000*%
G04 #@! TD*
G04 #@! TA.AperFunction,ComponentPad*
%ADD18O,1.500000X1.050000*%
G04 #@! TD*
G04 #@! TA.AperFunction,ComponentPad*
%ADD19R,1.500000X1.050000*%
G04 #@! TD*
G04 #@! TA.AperFunction,ComponentPad*
%ADD20C,2.000000*%
G04 #@! TD*
G04 #@! TA.AperFunction,ComponentPad*
%ADD21R,2.300000X1.500000*%
G04 #@! TD*
G04 #@! TA.AperFunction,ComponentPad*
%ADD22O,2.300000X1.500000*%
G04 #@! TD*
G04 #@! TA.AperFunction,ComponentPad*
%ADD23O,1.600000X1.600000*%
G04 #@! TD*
G04 #@! TA.AperFunction,ComponentPad*
%ADD24C,1.500000*%
G04 #@! TD*
G04 #@! TA.AperFunction,ViaPad*
%ADD25C,0.800000*%
G04 #@! TD*
G04 #@! TA.AperFunction,Conductor*
%ADD26C,0.250000*%
G04 #@! TD*
G04 #@! TA.AperFunction,Conductor*
%ADD27C,2.000000*%
G04 #@! TD*
G04 #@! TA.AperFunction,Conductor*
%ADD28C,0.254000*%
G04 #@! TD*
G04 APERTURE END LIST*
D10*
G04 #@! TO.P,SW2,1*
G04 #@! TO.N,Net-(R2-Pad1)*
X111125000Y-94615000D03*
D11*
G04 #@! TO.P,SW2,2*
G04 #@! TO.N,Net-(J5-Pad2)*
X113665000Y-94615000D03*
G04 #@! TD*
D12*
G04 #@! TO.P,C3,1*
G04 #@! TO.N,Net-(C3-Pad1)*
X93980000Y-88900000D03*
D13*
G04 #@! TO.P,C3,2*
G04 #@! TO.N,GND*
X93980000Y-86900000D03*
G04 #@! TD*
D14*
G04 #@! TO.P,Q2,3*
G04 #@! TO.N,Net-(J4-Pad2)*
X120015000Y-115570000D03*
G04 #@! TO.P,Q2,2*
G04 #@! TO.N,Net-(Q2-Pad2)*
X120015000Y-118110000D03*
D15*
G04 #@! TO.P,Q2,1*
G04 #@! TO.N,Net-(Q1-Pad3)*
X120015000Y-120650000D03*
G04 #@! TD*
D13*
G04 #@! TO.P,C1,1*
G04 #@! TO.N,Net-(C1-Pad1)*
X65024000Y-74612500D03*
G04 #@! TO.P,C1,2*
G04 #@! TO.N,GND*
X65024000Y-72112500D03*
G04 #@! TD*
G04 #@! TO.P,C2,2*
G04 #@! TO.N,GND*
X65024000Y-82002000D03*
G04 #@! TO.P,C2,1*
G04 #@! TO.N,Net-(C2-Pad1)*
X65024000Y-79502000D03*
G04 #@! TD*
G04 #@! TO.P,C4,2*
G04 #@! TO.N,GND*
X93980000Y-107878103D03*
D12*
G04 #@! TO.P,C4,1*
G04 #@! TO.N,+3V3*
X93980000Y-105878103D03*
G04 #@! TD*
G04 #@! TO.P,C5,1*
G04 #@! TO.N,+3V3*
X84772500Y-70802500D03*
D13*
G04 #@! TO.P,C5,2*
G04 #@! TO.N,GND*
X84772500Y-68802500D03*
G04 #@! TD*
G04 #@! TO.P,C6,2*
G04 #@! TO.N,GND*
X65722500Y-67722500D03*
D12*
G04 #@! TO.P,C6,1*
G04 #@! TO.N,+3V3*
X65722500Y-65722500D03*
G04 #@! TD*
D16*
G04 #@! TO.P,D1,1*
G04 #@! TO.N,Net-(D1-Pad1)*
X105410000Y-115570000D03*
D17*
G04 #@! TO.P,D1,2*
G04 #@! TO.N,Net-(D1-Pad2)*
X95250000Y-115570000D03*
G04 #@! TD*
D11*
G04 #@! TO.P,D2,2*
G04 #@! TO.N,+3V3*
X92710000Y-120015000D03*
D10*
G04 #@! TO.P,D2,1*
G04 #@! TO.N,Net-(D1-Pad2)*
X95250000Y-120015000D03*
G04 #@! TD*
G04 #@! TO.P,J1,1*
G04 #@! TO.N,Net-(J1-Pad1)*
X56831828Y-88906699D03*
D11*
G04 #@! TO.P,J1,2*
G04 #@! TO.N,Net-(J1-Pad2)*
X56831828Y-86366699D03*
G04 #@! TD*
D10*
G04 #@! TO.P,J2,1*
G04 #@! TO.N,Net-(J1-Pad1)*
X61911828Y-88906699D03*
D11*
G04 #@! TO.P,J2,2*
G04 #@! TO.N,Net-(J1-Pad2)*
X61911828Y-86366699D03*
G04 #@! TD*
G04 #@! TO.P,J3,5*
G04 #@! TO.N,+3V3*
X61912500Y-61912500D03*
G04 #@! TO.P,J3,4*
G04 #@! TO.N,GND*
X61912500Y-59372500D03*
G04 #@! TO.P,J3,3*
G04 #@! TO.N,Net-(J3-Pad3)*
X61912500Y-56832500D03*
G04 #@! TO.P,J3,2*
G04 #@! TO.N,Net-(J3-Pad2)*
X61912500Y-54292500D03*
D10*
G04 #@! TO.P,J3,1*
G04 #@! TO.N,Net-(J3-Pad1)*
X61912500Y-51752500D03*
G04 #@! TD*
G04 #@! TO.P,J4,1*
G04 #@! TO.N,GND*
X124460000Y-118110000D03*
D11*
G04 #@! TO.P,J4,2*
G04 #@! TO.N,Net-(J4-Pad2)*
X124460000Y-115570000D03*
G04 #@! TD*
G04 #@! TO.P,J5,2*
G04 #@! TO.N,Net-(J5-Pad2)*
X124460000Y-95885000D03*
D10*
G04 #@! TO.P,J5,1*
G04 #@! TO.N,GND*
X124460000Y-98425000D03*
G04 #@! TD*
D11*
G04 #@! TO.P,J6,2*
G04 #@! TO.N,Net-(J6-Pad2)*
X124460000Y-76200000D03*
D10*
G04 #@! TO.P,J6,1*
G04 #@! TO.N,GND*
X124460000Y-78740000D03*
G04 #@! TD*
D11*
G04 #@! TO.P,J7,2*
G04 #@! TO.N,Net-(J7-Pad2)*
X124460000Y-56515000D03*
D10*
G04 #@! TO.P,J7,1*
G04 #@! TO.N,GND*
X124460000Y-59055000D03*
G04 #@! TD*
G04 #@! TO.P,J8,1*
G04 #@! TO.N,GND*
X86360000Y-87630000D03*
D11*
G04 #@! TO.P,J8,2*
G04 #@! TO.N,+28V*
X88900000Y-87630000D03*
G04 #@! TD*
D10*
G04 #@! TO.P,J1-A1,1*
G04 #@! TO.N,Net-(J1-A1-Pad1)*
X66985801Y-86994328D03*
G04 #@! TD*
G04 #@! TO.P,J2-B1,1*
G04 #@! TO.N,Net-(J1-A1-Pad1)*
X66985801Y-92075000D03*
G04 #@! TD*
D18*
G04 #@! TO.P,Q1,2*
G04 #@! TO.N,Net-(Q1-Pad2)*
X111125000Y-123825000D03*
G04 #@! TO.P,Q1,3*
G04 #@! TO.N,Net-(Q1-Pad3)*
X111125000Y-122555000D03*
D19*
G04 #@! TO.P,Q1,1*
G04 #@! TO.N,GND*
X111125000Y-125095000D03*
G04 #@! TD*
D18*
G04 #@! TO.P,Q3,2*
G04 #@! TO.N,Net-(Q3-Pad2)*
X111125000Y-104140000D03*
G04 #@! TO.P,Q3,3*
G04 #@! TO.N,Net-(Q3-Pad3)*
X111125000Y-102870000D03*
D19*
G04 #@! TO.P,Q3,1*
G04 #@! TO.N,GND*
X111125000Y-105410000D03*
G04 #@! TD*
D15*
G04 #@! TO.P,Q4,1*
G04 #@! TO.N,Net-(Q3-Pad3)*
X120015000Y-100965000D03*
D14*
G04 #@! TO.P,Q4,2*
G04 #@! TO.N,Net-(Q2-Pad2)*
X120015000Y-98425000D03*
G04 #@! TO.P,Q4,3*
G04 #@! TO.N,Net-(J5-Pad2)*
X120015000Y-95885000D03*
G04 #@! TD*
D19*
G04 #@! TO.P,Q5,1*
G04 #@! TO.N,GND*
X111125000Y-85725000D03*
D18*
G04 #@! TO.P,Q5,3*
G04 #@! TO.N,Net-(Q5-Pad3)*
X111125000Y-83185000D03*
G04 #@! TO.P,Q5,2*
G04 #@! TO.N,Net-(Q5-Pad2)*
X111125000Y-84455000D03*
G04 #@! TD*
D14*
G04 #@! TO.P,Q6,3*
G04 #@! TO.N,Net-(J6-Pad2)*
X120015000Y-76200000D03*
G04 #@! TO.P,Q6,2*
G04 #@! TO.N,Net-(Q2-Pad2)*
X120015000Y-78740000D03*
D15*
G04 #@! TO.P,Q6,1*
G04 #@! TO.N,Net-(Q5-Pad3)*
X120015000Y-81280000D03*
G04 #@! TD*
D19*
G04 #@! TO.P,Q7,1*
G04 #@! TO.N,GND*
X111125000Y-66040000D03*
D18*
G04 #@! TO.P,Q7,3*
G04 #@! TO.N,Net-(Q7-Pad3)*
X111125000Y-63500000D03*
G04 #@! TO.P,Q7,2*
G04 #@! TO.N,Net-(Q7-Pad2)*
X111125000Y-64770000D03*
G04 #@! TD*
D15*
G04 #@! TO.P,Q8,1*
G04 #@! TO.N,Net-(Q7-Pad3)*
X120015000Y-61595000D03*
D14*
G04 #@! TO.P,Q8,2*
G04 #@! TO.N,Net-(Q2-Pad2)*
X120015000Y-59055000D03*
G04 #@! TO.P,Q8,3*
G04 #@! TO.N,Net-(J7-Pad2)*
X120015000Y-56515000D03*
G04 #@! TD*
D11*
G04 #@! TO.P,SW1,2*
G04 #@! TO.N,Net-(J4-Pad2)*
X113665000Y-114300000D03*
D10*
G04 #@! TO.P,SW1,1*
G04 #@! TO.N,Net-(R2-Pad1)*
X111125000Y-114300000D03*
G04 #@! TD*
G04 #@! TO.P,SW3,1*
G04 #@! TO.N,Net-(R2-Pad1)*
X111125000Y-74930000D03*
D11*
G04 #@! TO.P,SW3,2*
G04 #@! TO.N,Net-(J6-Pad2)*
X113665000Y-74930000D03*
G04 #@! TD*
D10*
G04 #@! TO.P,SW4,1*
G04 #@! TO.N,Net-(R2-Pad1)*
X111125000Y-55245000D03*
D11*
G04 #@! TO.P,SW4,2*
G04 #@! TO.N,Net-(J7-Pad2)*
X113665000Y-55245000D03*
G04 #@! TD*
D10*
G04 #@! TO.P,SW5,1*
G04 #@! TO.N,Net-(SW5-Pad1)*
X87312500Y-54292500D03*
D11*
G04 #@! TO.P,SW5,2*
G04 #@! TO.N,Net-(SW5-Pad2)*
X87312500Y-56832500D03*
G04 #@! TO.P,SW5,3*
G04 #@! TO.N,Net-(SW5-Pad3)*
X87312500Y-59372500D03*
G04 #@! TO.P,SW5,4*
G04 #@! TO.N,Net-(SW5-Pad4)*
X87312500Y-61912500D03*
G04 #@! TO.P,SW5,5*
G04 #@! TO.N,+3V3*
X87312500Y-64452500D03*
G04 #@! TD*
D10*
G04 #@! TO.P,SW6,1*
G04 #@! TO.N,Net-(Q2-Pad2)*
X99695000Y-67310000D03*
D11*
G04 #@! TO.P,SW6,2*
G04 #@! TO.N,Net-(C3-Pad1)*
X97155000Y-67310000D03*
G04 #@! TD*
G04 #@! TO.P,SW7,2*
G04 #@! TO.N,+28V*
X88900000Y-92075000D03*
D10*
G04 #@! TO.P,SW7,1*
G04 #@! TO.N,Net-(C3-Pad1)*
X88900000Y-94615000D03*
G04 #@! TD*
D20*
G04 #@! TO.P,U1,2*
G04 #@! TO.N,Net-(U1-Pad2)*
X49523301Y-57149328D03*
G04 #@! TO.P,U1,1*
G04 #@! TO.N,Net-(R8-Pad2)*
X52063301Y-57149328D03*
G04 #@! TO.P,U1,3*
G04 #@! TO.N,Net-(U1-Pad2)*
X46983301Y-57149328D03*
G04 #@! TO.P,U1,4*
G04 #@! TO.N,Net-(J3-Pad3)*
X44443301Y-57149328D03*
G04 #@! TO.P,U1,8*
G04 #@! TO.N,GND*
X44443301Y-97789328D03*
G04 #@! TO.P,U1,7*
G04 #@! TO.N,Net-(J1-Pad1)*
X46983301Y-97789328D03*
G04 #@! TO.P,U1,6*
G04 #@! TO.N,Net-(J1-Pad2)*
X49523301Y-97789328D03*
G04 #@! TO.P,U1,5*
G04 #@! TO.N,+3V3*
X52063301Y-97789328D03*
G04 #@! TD*
D21*
G04 #@! TO.P,U2,1*
G04 #@! TO.N,Net-(C3-Pad1)*
X93980000Y-94543103D03*
D22*
G04 #@! TO.P,U2,2*
G04 #@! TO.N,GND*
X93980000Y-97083103D03*
G04 #@! TO.P,U2,3*
G04 #@! TO.N,+3V3*
X93980000Y-99623103D03*
G04 #@! TD*
D12*
G04 #@! TO.P,U3,1*
G04 #@! TO.N,Net-(J3-Pad1)*
X71437500Y-51752500D03*
D23*
G04 #@! TO.P,U3,15*
G04 #@! TO.N,Net-(U3-Pad15)*
X79057500Y-84772500D03*
G04 #@! TO.P,U3,2*
G04 #@! TO.N,Net-(J3-Pad2)*
X71437500Y-54292500D03*
G04 #@! TO.P,U3,16*
G04 #@! TO.N,Net-(U3-Pad16)*
X79057500Y-82232500D03*
G04 #@! TO.P,U3,3*
G04 #@! TO.N,Net-(J3-Pad3)*
X71437500Y-56832500D03*
G04 #@! TO.P,U3,17*
G04 #@! TO.N,Net-(U3-Pad17)*
X79057500Y-79692500D03*
G04 #@! TO.P,U3,4*
G04 #@! TO.N,Net-(U1-Pad2)*
X71437500Y-59372500D03*
G04 #@! TO.P,U3,18*
G04 #@! TO.N,Net-(U3-Pad18)*
X79057500Y-77152500D03*
G04 #@! TO.P,U3,5*
G04 #@! TO.N,Net-(U3-Pad5)*
X71437500Y-61912500D03*
G04 #@! TO.P,U3,19*
G04 #@! TO.N,Net-(U3-Pad19)*
X79057500Y-74612500D03*
G04 #@! TO.P,U3,6*
G04 #@! TO.N,Net-(U3-Pad6)*
X71437500Y-64452500D03*
G04 #@! TO.P,U3,20*
G04 #@! TO.N,+3V3*
X79057500Y-72072500D03*
G04 #@! TO.P,U3,7*
X71437500Y-66992500D03*
G04 #@! TO.P,U3,21*
G04 #@! TO.N,Net-(U3-Pad21)*
X79057500Y-69532500D03*
G04 #@! TO.P,U3,8*
G04 #@! TO.N,GND*
X71437500Y-69532500D03*
G04 #@! TO.P,U3,22*
X79057500Y-66992500D03*
G04 #@! TO.P,U3,9*
G04 #@! TO.N,Net-(C1-Pad1)*
X71437500Y-72072500D03*
G04 #@! TO.P,U3,23*
G04 #@! TO.N,Net-(SW5-Pad4)*
X79057500Y-64452500D03*
G04 #@! TO.P,U3,10*
G04 #@! TO.N,Net-(C2-Pad1)*
X71437500Y-74612500D03*
G04 #@! TO.P,U3,24*
G04 #@! TO.N,Net-(SW5-Pad3)*
X79057500Y-61912500D03*
G04 #@! TO.P,U3,11*
G04 #@! TO.N,Net-(R7-Pad2)*
X71437500Y-77152500D03*
G04 #@! TO.P,U3,25*
G04 #@! TO.N,Net-(SW5-Pad2)*
X79057500Y-59372500D03*
G04 #@! TO.P,U3,12*
G04 #@! TO.N,Net-(R11-Pad2)*
X71437500Y-79692500D03*
G04 #@! TO.P,U3,26*
G04 #@! TO.N,Net-(SW5-Pad1)*
X79057500Y-56832500D03*
G04 #@! TO.P,U3,13*
G04 #@! TO.N,Net-(R14-Pad2)*
X71437500Y-82232500D03*
G04 #@! TO.P,U3,27*
G04 #@! TO.N,Net-(U3-Pad27)*
X79057500Y-54292500D03*
G04 #@! TO.P,U3,14*
G04 #@! TO.N,Net-(R4-Pad2)*
X71437500Y-84772500D03*
G04 #@! TO.P,U3,28*
G04 #@! TO.N,Net-(U3-Pad28)*
X79057500Y-51752500D03*
G04 #@! TD*
D24*
G04 #@! TO.P,Y1,1*
G04 #@! TO.N,Net-(C1-Pad1)*
X59372500Y-74612500D03*
G04 #@! TO.P,Y1,2*
G04 #@! TO.N,Net-(C2-Pad1)*
X59372500Y-79492500D03*
G04 #@! TD*
D13*
G04 #@! TO.P,R15,1*
G04 #@! TO.N,Net-(Q2-Pad2)*
X113665000Y-59055000D03*
D23*
G04 #@! TO.P,R15,2*
G04 #@! TO.N,Net-(Q7-Pad3)*
X111125000Y-59055000D03*
G04 #@! TD*
G04 #@! TO.P,R1,2*
G04 #@! TO.N,+3V3*
X66992500Y-54292500D03*
D13*
G04 #@! TO.P,R1,1*
G04 #@! TO.N,Net-(J3-Pad1)*
X66992500Y-51752500D03*
G04 #@! TD*
D23*
G04 #@! TO.P,R2,2*
G04 #@! TO.N,Net-(D1-Pad1)*
X102870000Y-120015000D03*
D13*
G04 #@! TO.P,R2,1*
G04 #@! TO.N,Net-(R2-Pad1)*
X105410000Y-120015000D03*
G04 #@! TD*
D23*
G04 #@! TO.P,R3,2*
G04 #@! TO.N,Net-(Q1-Pad2)*
X116205000Y-125095000D03*
D13*
G04 #@! TO.P,R3,1*
G04 #@! TO.N,GND*
X116205000Y-127635000D03*
G04 #@! TD*
G04 #@! TO.P,R4,1*
G04 #@! TO.N,Net-(Q1-Pad2)*
X106680000Y-126365000D03*
D23*
G04 #@! TO.P,R4,2*
G04 #@! TO.N,Net-(R4-Pad2)*
X104140000Y-126365000D03*
G04 #@! TD*
D13*
G04 #@! TO.P,R5,1*
G04 #@! TO.N,Net-(Q2-Pad2)*
X113665000Y-118110000D03*
D23*
G04 #@! TO.P,R5,2*
G04 #@! TO.N,Net-(Q1-Pad3)*
X111125000Y-118110000D03*
G04 #@! TD*
D13*
G04 #@! TO.P,R6,1*
G04 #@! TO.N,GND*
X116205000Y-107950000D03*
D23*
G04 #@! TO.P,R6,2*
G04 #@! TO.N,Net-(Q3-Pad2)*
X116205000Y-105410000D03*
G04 #@! TD*
G04 #@! TO.P,R7,2*
G04 #@! TO.N,Net-(R7-Pad2)*
X104140000Y-106680000D03*
D13*
G04 #@! TO.P,R7,1*
G04 #@! TO.N,Net-(Q3-Pad2)*
X106680000Y-106680000D03*
G04 #@! TD*
D23*
G04 #@! TO.P,R8,2*
G04 #@! TO.N,Net-(R8-Pad2)*
X52387500Y-52387500D03*
D13*
G04 #@! TO.P,R8,1*
G04 #@! TO.N,Net-(J3-Pad2)*
X54927500Y-52387500D03*
G04 #@! TD*
G04 #@! TO.P,R9,1*
G04 #@! TO.N,Net-(Q2-Pad2)*
X113665000Y-98425000D03*
D23*
G04 #@! TO.P,R9,2*
G04 #@! TO.N,Net-(Q3-Pad3)*
X111125000Y-98425000D03*
G04 #@! TD*
D13*
G04 #@! TO.P,R10,1*
G04 #@! TO.N,GND*
X116205000Y-88265000D03*
D23*
G04 #@! TO.P,R10,2*
G04 #@! TO.N,Net-(Q5-Pad2)*
X116205000Y-85725000D03*
G04 #@! TD*
G04 #@! TO.P,R11,2*
G04 #@! TO.N,Net-(R11-Pad2)*
X104140000Y-86995000D03*
D13*
G04 #@! TO.P,R11,1*
G04 #@! TO.N,Net-(Q5-Pad2)*
X106680000Y-86995000D03*
G04 #@! TD*
G04 #@! TO.P,R12,1*
G04 #@! TO.N,Net-(Q2-Pad2)*
X113665000Y-78740000D03*
D23*
G04 #@! TO.P,R12,2*
G04 #@! TO.N,Net-(Q5-Pad3)*
X111125000Y-78740000D03*
G04 #@! TD*
D13*
G04 #@! TO.P,R13,1*
G04 #@! TO.N,GND*
X116205000Y-68580000D03*
D23*
G04 #@! TO.P,R13,2*
G04 #@! TO.N,Net-(Q7-Pad2)*
X116205000Y-66040000D03*
G04 #@! TD*
G04 #@! TO.P,R14,2*
G04 #@! TO.N,Net-(R14-Pad2)*
X104140000Y-67310000D03*
D13*
G04 #@! TO.P,R14,1*
G04 #@! TO.N,Net-(Q7-Pad2)*
X106680000Y-67310000D03*
G04 #@! TD*
D25*
G04 #@! TO.N,*
X60452000Y-50800000D03*
X70104000Y-59436000D03*
X70104000Y-76708000D03*
X53340000Y-98552000D03*
X53340000Y-56388000D03*
X48260000Y-56388000D03*
X113284000Y-96520000D03*
X109728000Y-93472000D03*
X109728000Y-95504000D03*
X110236000Y-102108000D03*
X105156000Y-105664000D03*
X105156000Y-107696000D03*
X103124000Y-107696000D03*
X103124000Y-105664000D03*
X105156000Y-87884000D03*
X102616000Y-86360000D03*
X105156000Y-125476000D03*
X126492000Y-113792000D03*
X126492000Y-116840000D03*
X118872000Y-82804000D03*
X109728000Y-58928000D03*
X109728000Y-56388000D03*
X104648000Y-66040000D03*
X109728000Y-74168000D03*
X109728000Y-75692000D03*
X110236000Y-79756000D03*
X111760000Y-79756000D03*
X110236000Y-82296000D03*
X114300000Y-112776000D03*
X115316000Y-67056000D03*
G04 #@! TO.N,GND*
X101600000Y-80010000D03*
X105410000Y-95250000D03*
X100330000Y-111760000D03*
X100330000Y-115570000D03*
X100330000Y-121920000D03*
X99060000Y-128270000D03*
X119380000Y-128270000D03*
X74930000Y-83820000D03*
X92710000Y-57150000D03*
X104140000Y-57150000D03*
X99060000Y-60960000D03*
X91440000Y-72390000D03*
X85090000Y-81280000D03*
X73152000Y-53340000D03*
X73152000Y-55880000D03*
X73152000Y-58420000D03*
X73152000Y-60960000D03*
X73152000Y-63500000D03*
X73152000Y-66040000D03*
X73152000Y-71120000D03*
X73152000Y-73660000D03*
X73152000Y-76200000D03*
X73152000Y-78740000D03*
X73152000Y-81280000D03*
X73152000Y-83820000D03*
X80772000Y-82804000D03*
X80772000Y-80264000D03*
X80772000Y-77724000D03*
X80772000Y-75184000D03*
X80772000Y-73152000D03*
X80772000Y-70612000D03*
X80772000Y-67564000D03*
X80772000Y-65024000D03*
X80772000Y-61468000D03*
X80772000Y-58928000D03*
X80772000Y-56388000D03*
X80772000Y-53848000D03*
X80772000Y-51308000D03*
X85344000Y-55880000D03*
X85344000Y-57912000D03*
X85344000Y-60452000D03*
X85344000Y-62992000D03*
X85344000Y-65024000D03*
X89408000Y-65024000D03*
X89408000Y-62992000D03*
X89408000Y-60452000D03*
X89408000Y-57912000D03*
X89408000Y-55880000D03*
X85344000Y-52324000D03*
X89408000Y-52324000D03*
X60452000Y-55372000D03*
X63500000Y-50800000D03*
X64008000Y-53340000D03*
X64008000Y-57404000D03*
X64008000Y-61976000D03*
X70104000Y-62992000D03*
X70104000Y-57912000D03*
X67056000Y-62484000D03*
X69596000Y-70612000D03*
X69596000Y-68072000D03*
X66548000Y-70612000D03*
X69596000Y-73660000D03*
X66548000Y-75692000D03*
X59436000Y-76200000D03*
X59436000Y-77724000D03*
X61468000Y-77216000D03*
X57404000Y-77216000D03*
X59436000Y-72136000D03*
X59436000Y-82296000D03*
X63500000Y-80772000D03*
X66548000Y-80772000D03*
X65024000Y-77216000D03*
X70104000Y-80772000D03*
X70104000Y-83820000D03*
X65024000Y-85344000D03*
X67564000Y-85344000D03*
X69596000Y-86868000D03*
X67564000Y-88900000D03*
X65024000Y-86868000D03*
X65024000Y-93980000D03*
X68580000Y-93980000D03*
X68580000Y-91948000D03*
X67564000Y-90424000D03*
X65024000Y-91948000D03*
X59436000Y-90424000D03*
X59436000Y-87884000D03*
X59436000Y-85344000D03*
X63500000Y-85344000D03*
X63500000Y-90932000D03*
X55372000Y-90424000D03*
X54864000Y-87884000D03*
X54864000Y-85344000D03*
X56896000Y-84328000D03*
X45720000Y-96012000D03*
X45720000Y-99060000D03*
X48260000Y-99060000D03*
X50800000Y-96520000D03*
X53340000Y-96520000D03*
X42672000Y-96520000D03*
X42672000Y-99060000D03*
X43180000Y-58420000D03*
X43180000Y-55880000D03*
X45720000Y-58420000D03*
X48260000Y-58420000D03*
X53340000Y-58420000D03*
X48260000Y-54864000D03*
X45720000Y-54864000D03*
X53340000Y-50800000D03*
X55372000Y-50800000D03*
X53340000Y-53848000D03*
X56388000Y-53848000D03*
X50800000Y-52324000D03*
X121920000Y-97536000D03*
X121920000Y-99568000D03*
X121920000Y-102108000D03*
X118872000Y-102616000D03*
X118364000Y-100076000D03*
X117348000Y-93980000D03*
X115316000Y-100076000D03*
X114300000Y-92964000D03*
X112268000Y-92964000D03*
X111252000Y-96520000D03*
X111760000Y-106680000D03*
X110236000Y-106680000D03*
X115316000Y-103124000D03*
X115316000Y-106680000D03*
X117348000Y-106680000D03*
X117348000Y-104140000D03*
X117348000Y-109220000D03*
X108204000Y-106172000D03*
X108204000Y-107696000D03*
X105156000Y-85852000D03*
X103632000Y-85344000D03*
X105156000Y-127508000D03*
X103124000Y-127508000D03*
X102616000Y-125984000D03*
X103632000Y-124968000D03*
X109728000Y-122936000D03*
X117348000Y-123952000D03*
X117348000Y-125984000D03*
X114808000Y-125984000D03*
X121920000Y-117348000D03*
X121920000Y-120396000D03*
X120904000Y-122428000D03*
X118872000Y-122428000D03*
X118364000Y-121412000D03*
X118364000Y-119888000D03*
X117348000Y-113792000D03*
X120396000Y-113792000D03*
X123444000Y-113792000D03*
X120396000Y-93980000D03*
X123444000Y-93980000D03*
X125984000Y-93980000D03*
X125984000Y-97028000D03*
X120396000Y-74168000D03*
X123444000Y-74168000D03*
X125984000Y-74168000D03*
X125984000Y-75692000D03*
X125984000Y-77724000D03*
X122936000Y-77724000D03*
X121920000Y-77724000D03*
X118364000Y-76708000D03*
X117348000Y-77216000D03*
X118364000Y-80264000D03*
X115316000Y-80264000D03*
X121920000Y-79756000D03*
X121920000Y-82804000D03*
X117856000Y-82296000D03*
X121920000Y-61468000D03*
X120904000Y-63500000D03*
X117856000Y-62992000D03*
X118364000Y-60960000D03*
X115316000Y-60960000D03*
X121920000Y-58420000D03*
X115824000Y-54864000D03*
X118872000Y-54864000D03*
X121920000Y-54864000D03*
X124968000Y-54864000D03*
X125984000Y-55880000D03*
X125984000Y-57404000D03*
X113284000Y-57404000D03*
X111760000Y-57404000D03*
X111252000Y-61468000D03*
X109728000Y-62992000D03*
X109728000Y-53848000D03*
X112776000Y-53340000D03*
X109220000Y-66040000D03*
X108204000Y-68072000D03*
X103124000Y-66040000D03*
X107188000Y-65024000D03*
X109728000Y-71120000D03*
X111252000Y-72644000D03*
X107188000Y-71120000D03*
X108712000Y-72644000D03*
X113792000Y-73152000D03*
X113284000Y-76708000D03*
X111760000Y-77216000D03*
X108712000Y-77216000D03*
X108204000Y-78740000D03*
X108204000Y-80264000D03*
X108204000Y-81788000D03*
X108204000Y-83312000D03*
X108204000Y-86360000D03*
X108204000Y-89408000D03*
X108204000Y-91440000D03*
X110236000Y-91440000D03*
X110236000Y-87884000D03*
X108712000Y-97028000D03*
X108204000Y-100076000D03*
X108204000Y-103124000D03*
X110236000Y-100584000D03*
X110236000Y-109728000D03*
X111252000Y-112268000D03*
X108204000Y-109728000D03*
X108712000Y-112268000D03*
X109220000Y-114808000D03*
X107696000Y-116332000D03*
X110236000Y-116332000D03*
X108712000Y-117856000D03*
X107188000Y-119380000D03*
X106172000Y-117856000D03*
X114300000Y-122936000D03*
X96520000Y-70612000D03*
X98044000Y-72136000D03*
X100076000Y-74168000D03*
X101600000Y-75692000D03*
X101600000Y-77724000D03*
X101600000Y-82296000D03*
X99568000Y-84328000D03*
X97028000Y-86868000D03*
X102108000Y-71120000D03*
X104140000Y-73152000D03*
X104648000Y-75692000D03*
X104648000Y-78232000D03*
X104648000Y-80264000D03*
X104648000Y-82296000D03*
X99568000Y-89408000D03*
X96520000Y-90424000D03*
X95504000Y-91948000D03*
X92456000Y-92456000D03*
X92456000Y-89916000D03*
X90424000Y-92964000D03*
X96012000Y-93980000D03*
X96012000Y-95504000D03*
X92456000Y-96012000D03*
X90424000Y-96012000D03*
X87376000Y-93472000D03*
X87376000Y-90932000D03*
X85344000Y-92456000D03*
X83820000Y-90424000D03*
X82296000Y-89408000D03*
X81280000Y-87884000D03*
X79248000Y-86360000D03*
X75692000Y-85852000D03*
X77724000Y-88900000D03*
X79248000Y-90424000D03*
X80772000Y-91948000D03*
X82804000Y-93980000D03*
X84836000Y-96012000D03*
X87376000Y-98552000D03*
X88900000Y-100076000D03*
X91440000Y-101092000D03*
X92456000Y-102108000D03*
X92456000Y-103632000D03*
X90424000Y-121412000D03*
X91948000Y-122936000D03*
X93980000Y-124460000D03*
X96012000Y-125476000D03*
X99060000Y-125476000D03*
X102108000Y-123444000D03*
X100076000Y-123444000D03*
X97536000Y-123444000D03*
X95504000Y-122428000D03*
X92964000Y-109728000D03*
X92964000Y-111760000D03*
X92964000Y-114300000D03*
X92964000Y-117348000D03*
X92964000Y-115824000D03*
X97028000Y-113792000D03*
X97028000Y-117348000D03*
X103632000Y-117348000D03*
X103632000Y-113284000D03*
X96012000Y-104648000D03*
X96012000Y-108712000D03*
X96012000Y-106172000D03*
X96012000Y-102108000D03*
X98044000Y-104140000D03*
X100584000Y-105156000D03*
X100584000Y-108204000D03*
X111760000Y-108204000D03*
X113284000Y-110744000D03*
X117348000Y-111252000D03*
X115824000Y-119888000D03*
X113792000Y-119888000D03*
X111760000Y-87376000D03*
X111760000Y-89408000D03*
X113284000Y-90424000D03*
X117348000Y-90424000D03*
X115316000Y-82296000D03*
X115316000Y-83820000D03*
X115316000Y-86868000D03*
X112268000Y-71120000D03*
X113792000Y-71120000D03*
X117348000Y-73152000D03*
X117348000Y-71120000D03*
X111760000Y-68072000D03*
X115316000Y-64008000D03*
X104648000Y-71120000D03*
X107188000Y-75184000D03*
X48260000Y-64516000D03*
X51816000Y-64008000D03*
X45212000Y-65024000D03*
X45720000Y-72136000D03*
X53340000Y-71120000D03*
X49276000Y-74168000D03*
X46736000Y-79756000D03*
X44704000Y-82804000D03*
X45212000Y-88900000D03*
X46736000Y-89916000D03*
X49276000Y-91440000D03*
X44704000Y-92456000D03*
X48768000Y-84836000D03*
X44196000Y-76708000D03*
X57404000Y-65024000D03*
X58420000Y-66040000D03*
X58928000Y-62484000D03*
X55880000Y-68580000D03*
X75184000Y-56388000D03*
X75692000Y-60960000D03*
X76200000Y-68072000D03*
X75692000Y-65532000D03*
X74676000Y-75184000D03*
X86868000Y-74676000D03*
X97028000Y-80264000D03*
X92964000Y-81280000D03*
X90932000Y-81280000D03*
X73660000Y-90424000D03*
X75692000Y-92964000D03*
X79248000Y-93980000D03*
X64008000Y-96520000D03*
X69088000Y-98552000D03*
X71120000Y-97536000D03*
X80772000Y-99060000D03*
X76708000Y-96012000D03*
X123952000Y-64516000D03*
X124460000Y-69596000D03*
X123444000Y-71628000D03*
X120396000Y-68072000D03*
X124460000Y-85852000D03*
X124460000Y-90424000D03*
X119888000Y-89408000D03*
X120904000Y-86360000D03*
X123952000Y-105664000D03*
X124968000Y-110236000D03*
X120396000Y-110744000D03*
X119380000Y-106680000D03*
X124968000Y-122936000D03*
X119888000Y-125476000D03*
X111252000Y-128524000D03*
X94996000Y-129540000D03*
X103124000Y-102616000D03*
X98552000Y-98552000D03*
X101600000Y-92964000D03*
X97536000Y-52324000D03*
X107696000Y-51308000D03*
X118364000Y-50292000D03*
X84836000Y-49784000D03*
X93472000Y-66040000D03*
X112776000Y-121920000D03*
G04 #@! TO.N,Net-(J3-Pad3)*
X50800000Y-55824327D03*
G04 #@! TO.N,Net-(R11-Pad2)*
X74930000Y-80010000D03*
G04 #@! TD*
D26*
G04 #@! TO.N,Net-(J1-Pad1)*
X61911828Y-88906699D02*
X56831828Y-88906699D01*
X46983301Y-97655226D02*
X46983301Y-97789328D01*
X55731828Y-88906699D02*
X46983301Y-97655226D01*
X56831828Y-88906699D02*
X55731828Y-88906699D01*
G04 #@! TO.N,Net-(J1-Pad2)*
X56831828Y-86366699D02*
X61911828Y-86366699D01*
X50523300Y-98789327D02*
X49523301Y-97789328D01*
X50848302Y-99114329D02*
X50523300Y-98789327D01*
X53989200Y-99114329D02*
X50848302Y-99114329D01*
X63500000Y-89603529D02*
X53989200Y-99114329D01*
X63500000Y-87954871D02*
X63500000Y-89603529D01*
X61911828Y-86366699D02*
X63500000Y-87954871D01*
G04 #@! TO.N,Net-(J3-Pad3)*
X71437500Y-56832500D02*
X61912500Y-56832500D01*
X61912500Y-56832500D02*
X55562500Y-56832500D01*
X45443300Y-56149329D02*
X44443301Y-57149328D01*
X45768302Y-55824327D02*
X45443300Y-56149329D01*
X54554327Y-55824327D02*
X50800000Y-55824327D01*
X55562500Y-56832500D02*
X54554327Y-55824327D01*
X50800000Y-55824327D02*
X45768302Y-55824327D01*
G04 #@! TO.N,Net-(J3-Pad2)*
X62762499Y-55142499D02*
X61912500Y-54292500D01*
X63500000Y-55880000D02*
X62762499Y-55142499D01*
X69850000Y-55880000D02*
X63500000Y-55880000D01*
X71437500Y-54292500D02*
X69850000Y-55880000D01*
G04 #@! TO.N,Net-(J3-Pad1)*
X71437500Y-51752500D02*
X66992500Y-51752500D01*
X66992500Y-51752500D02*
X61912500Y-51752500D01*
D27*
G04 #@! TO.N,Net-(J4-Pad2)*
X124460000Y-115570000D02*
X120015000Y-115570000D01*
X114935000Y-115570000D02*
X113665000Y-114300000D01*
X120015000Y-115570000D02*
X114935000Y-115570000D01*
G04 #@! TO.N,Net-(J5-Pad2)*
X124460000Y-95885000D02*
X120015000Y-95885000D01*
X114935000Y-95885000D02*
X113665000Y-94615000D01*
X120015000Y-95885000D02*
X114935000Y-95885000D01*
G04 #@! TO.N,Net-(J6-Pad2)*
X118745000Y-74930000D02*
X120015000Y-76200000D01*
X113665000Y-74930000D02*
X118745000Y-74930000D01*
X120015000Y-76200000D02*
X124460000Y-76200000D01*
G04 #@! TO.N,Net-(J7-Pad2)*
X124460000Y-56515000D02*
X120015000Y-56515000D01*
X114935000Y-56515000D02*
X113665000Y-55245000D01*
X120015000Y-56515000D02*
X114935000Y-56515000D01*
D26*
G04 #@! TO.N,Net-(Q1-Pad2)*
X114935000Y-123825000D02*
X111125000Y-123825000D01*
X116205000Y-125095000D02*
X114935000Y-123825000D01*
X109220000Y-123825000D02*
X106680000Y-126365000D01*
X111125000Y-123825000D02*
X109220000Y-123825000D01*
G04 #@! TO.N,Net-(Q1-Pad3)*
X111125000Y-121780000D02*
X111125000Y-122555000D01*
X112255000Y-120650000D02*
X111125000Y-121780000D01*
X120015000Y-120650000D02*
X112255000Y-120650000D01*
X112255000Y-120371370D02*
X112255000Y-120650000D01*
X111125000Y-119241370D02*
X112255000Y-120371370D01*
X111125000Y-118110000D02*
X111125000Y-119241370D01*
D27*
G04 #@! TO.N,Net-(Q2-Pad2)*
X120015000Y-78740000D02*
X113665000Y-78740000D01*
X120015000Y-59055000D02*
X113665000Y-59055000D01*
X120015000Y-98425000D02*
X113665000Y-98425000D01*
X120015000Y-118110000D02*
X113665000Y-118110000D01*
D26*
G04 #@! TO.N,Net-(Q3-Pad2)*
X114935000Y-104140000D02*
X111125000Y-104140000D01*
X116205000Y-105410000D02*
X114935000Y-104140000D01*
X109220000Y-104140000D02*
X106680000Y-106680000D01*
X111125000Y-104140000D02*
X109220000Y-104140000D01*
G04 #@! TO.N,Net-(Q3-Pad3)*
X111125000Y-102095000D02*
X111125000Y-102870000D01*
X112255000Y-100965000D02*
X111125000Y-102095000D01*
X120015000Y-100965000D02*
X112255000Y-100965000D01*
X111125000Y-99835000D02*
X112255000Y-100965000D01*
X111125000Y-98425000D02*
X111125000Y-99835000D01*
G04 #@! TO.N,Net-(Q5-Pad3)*
X111125000Y-82410000D02*
X111125000Y-83185000D01*
X112255000Y-81280000D02*
X111125000Y-82410000D01*
X120015000Y-81280000D02*
X112255000Y-81280000D01*
X112255000Y-81001370D02*
X112255000Y-81280000D01*
X111125000Y-79871370D02*
X112255000Y-81001370D01*
X111125000Y-78740000D02*
X111125000Y-79871370D01*
G04 #@! TO.N,Net-(Q5-Pad2)*
X114935000Y-84455000D02*
X111125000Y-84455000D01*
X116205000Y-85725000D02*
X114935000Y-84455000D01*
X109220000Y-84455000D02*
X111125000Y-84455000D01*
X106680000Y-86995000D02*
X109220000Y-84455000D01*
G04 #@! TO.N,Net-(Q7-Pad3)*
X111125000Y-62725000D02*
X111125000Y-63500000D01*
X112255000Y-61595000D02*
X111125000Y-62725000D01*
X120015000Y-61595000D02*
X112255000Y-61595000D01*
X111125000Y-60465000D02*
X112255000Y-61595000D01*
X111125000Y-59055000D02*
X111125000Y-60465000D01*
G04 #@! TO.N,Net-(Q7-Pad2)*
X114935000Y-64770000D02*
X111125000Y-64770000D01*
X116205000Y-66040000D02*
X114935000Y-64770000D01*
X109220000Y-64770000D02*
X106680000Y-67310000D01*
X111125000Y-64770000D02*
X109220000Y-64770000D01*
G04 #@! TO.N,Net-(R2-Pad1)*
X111125000Y-56345000D02*
X111125000Y-55245000D01*
X105554999Y-61915001D02*
X111125000Y-56345000D01*
X105554999Y-68259999D02*
X105554999Y-61915001D01*
X111125000Y-73830000D02*
X105554999Y-68259999D01*
X111125000Y-74930000D02*
X111125000Y-73830000D01*
G04 #@! TO.N,Net-(R7-Pad2)*
X103008630Y-106680000D02*
X104140000Y-106680000D01*
X68580000Y-80010000D02*
X68580000Y-85344000D01*
X68580000Y-90170000D02*
X76200000Y-97790000D01*
X76200000Y-97790000D02*
X90355414Y-97790000D01*
X71437500Y-77152500D02*
X68580000Y-80010000D01*
X90355414Y-97790000D02*
X99245414Y-106680000D01*
X99245414Y-106680000D02*
X103008630Y-106680000D01*
X68580000Y-85344000D02*
X68580000Y-90170000D01*
G04 #@! TO.N,Net-(R11-Pad2)*
X78567499Y-83647499D02*
X74930000Y-80010000D01*
X104140000Y-86995000D02*
X100792499Y-83647499D01*
X100792499Y-83647499D02*
X78567499Y-83647499D01*
G04 #@! TO.N,Net-(R14-Pad2)*
X72237499Y-81432501D02*
X71437500Y-82232500D01*
X75102501Y-78567499D02*
X72237499Y-81432501D01*
X92882501Y-78567499D02*
X75102501Y-78567499D01*
X104140000Y-67310000D02*
X92882501Y-78567499D01*
G04 #@! TO.N,Net-(U1-Pad2)*
X70637501Y-60172499D02*
X71437500Y-59372500D01*
X70262499Y-60547501D02*
X70637501Y-60172499D01*
X52921474Y-60547501D02*
X70262499Y-60547501D01*
X49523301Y-57149328D02*
X52921474Y-60547501D01*
G04 #@! TD*
D28*
G04 #@! TO.N,GND*
G36*
X123812604Y-47766895D02*
X124409782Y-47954039D01*
X124957124Y-48257436D01*
X125432289Y-48664701D01*
X125815852Y-49159188D01*
X126092150Y-49720700D01*
X126252104Y-50334774D01*
X126290000Y-50827270D01*
X126290001Y-112757000D01*
X126286126Y-112757000D01*
X125905720Y-112914569D01*
X125614569Y-113205720D01*
X125457000Y-113586126D01*
X125457000Y-113997874D01*
X125612725Y-114373829D01*
X125097945Y-114029864D01*
X124621031Y-113935000D01*
X115612239Y-113935000D01*
X115108475Y-113431236D01*
X115177431Y-113362280D01*
X115335000Y-112981874D01*
X115335000Y-112570126D01*
X115177431Y-112189720D01*
X114886280Y-111898569D01*
X114505874Y-111741000D01*
X114094126Y-111741000D01*
X113713720Y-111898569D01*
X113422569Y-112189720D01*
X113265000Y-112570126D01*
X113265000Y-112712534D01*
X113027055Y-112759865D01*
X112508908Y-113106080D01*
X112432809Y-112992191D01*
X112222765Y-112851843D01*
X111975000Y-112802560D01*
X110275000Y-112802560D01*
X110027235Y-112851843D01*
X109817191Y-112992191D01*
X109676843Y-113202235D01*
X109627560Y-113450000D01*
X109627560Y-115150000D01*
X109676843Y-115397765D01*
X109817191Y-115607809D01*
X110027235Y-115748157D01*
X110275000Y-115797440D01*
X111975000Y-115797440D01*
X112222765Y-115748157D01*
X112432809Y-115607809D01*
X112524038Y-115471276D01*
X113527761Y-116475000D01*
X113503969Y-116475000D01*
X113027055Y-116569864D01*
X112486231Y-116931231D01*
X112274731Y-117247763D01*
X112159577Y-117075423D01*
X111684909Y-116758260D01*
X111266333Y-116675000D01*
X110983667Y-116675000D01*
X110565091Y-116758260D01*
X110090423Y-117075423D01*
X109773260Y-117550091D01*
X109661887Y-118110000D01*
X109773260Y-118669909D01*
X110090423Y-119144577D01*
X110367713Y-119329856D01*
X110409097Y-119537907D01*
X110487648Y-119655466D01*
X110577072Y-119789299D01*
X110640527Y-119831699D01*
X111319513Y-120510685D01*
X110640530Y-121189669D01*
X110577071Y-121232071D01*
X110409096Y-121483464D01*
X110408080Y-121488572D01*
X110063687Y-121718687D01*
X109807305Y-122102391D01*
X109717275Y-122555000D01*
X109807305Y-123007609D01*
X109845652Y-123065000D01*
X109294846Y-123065000D01*
X109219999Y-123050112D01*
X109145152Y-123065000D01*
X109145148Y-123065000D01*
X108923463Y-123109096D01*
X108923461Y-123109097D01*
X108923462Y-123109097D01*
X108735526Y-123234671D01*
X108735524Y-123234673D01*
X108672071Y-123277071D01*
X108629673Y-123340524D01*
X107018302Y-124951897D01*
X106965439Y-124930000D01*
X106394561Y-124930000D01*
X106100558Y-125051780D01*
X106033431Y-124889720D01*
X105742280Y-124598569D01*
X105361874Y-124441000D01*
X104950126Y-124441000D01*
X104569720Y-124598569D01*
X104278569Y-124889720D01*
X104261885Y-124930000D01*
X103998667Y-124930000D01*
X103580091Y-125013260D01*
X103105423Y-125330423D01*
X102788260Y-125805091D01*
X102676887Y-126365000D01*
X102788260Y-126924909D01*
X103105423Y-127399577D01*
X103580091Y-127716740D01*
X103998667Y-127800000D01*
X104281333Y-127800000D01*
X104699909Y-127716740D01*
X105174577Y-127399577D01*
X105409606Y-127047832D01*
X105463466Y-127177862D01*
X105867138Y-127581534D01*
X106394561Y-127800000D01*
X106965439Y-127800000D01*
X107492862Y-127581534D01*
X107656173Y-127418223D01*
X114758035Y-127418223D01*
X114785222Y-127988454D01*
X114951136Y-128389005D01*
X115197255Y-128463139D01*
X116025395Y-127635000D01*
X116384605Y-127635000D01*
X117212745Y-128463139D01*
X117458864Y-128389005D01*
X117651965Y-127851777D01*
X117624778Y-127281546D01*
X117508158Y-127000000D01*
X120872500Y-127000000D01*
X120985927Y-127716147D01*
X121315103Y-128362192D01*
X121827808Y-128874897D01*
X122473853Y-129204073D01*
X123190000Y-129317500D01*
X123906147Y-129204073D01*
X124552192Y-128874897D01*
X125064897Y-128362192D01*
X125394073Y-127716147D01*
X125507500Y-127000000D01*
X125394073Y-126283853D01*
X125064897Y-125637808D01*
X124552192Y-125125103D01*
X123906147Y-124795927D01*
X123190000Y-124682500D01*
X122473853Y-124795927D01*
X121827808Y-125125103D01*
X121315103Y-125637808D01*
X120985927Y-126283853D01*
X120872500Y-127000000D01*
X117508158Y-127000000D01*
X117458864Y-126880995D01*
X117212745Y-126806861D01*
X116384605Y-127635000D01*
X116025395Y-127635000D01*
X115197255Y-126806861D01*
X114951136Y-126880995D01*
X114758035Y-127418223D01*
X107656173Y-127418223D01*
X107896534Y-127177862D01*
X108115000Y-126650439D01*
X108115000Y-126079561D01*
X108093103Y-126026698D01*
X108739051Y-125380750D01*
X109740000Y-125380750D01*
X109740000Y-125746309D01*
X109836673Y-125979698D01*
X110015301Y-126158327D01*
X110248690Y-126255000D01*
X110839250Y-126255000D01*
X110998000Y-126096250D01*
X110998000Y-125222000D01*
X111252000Y-125222000D01*
X111252000Y-126096250D01*
X111410750Y-126255000D01*
X112001310Y-126255000D01*
X112234699Y-126158327D01*
X112413327Y-125979698D01*
X112510000Y-125746309D01*
X112510000Y-125380750D01*
X112351250Y-125222000D01*
X111252000Y-125222000D01*
X110998000Y-125222000D01*
X109898750Y-125222000D01*
X109740000Y-125380750D01*
X108739051Y-125380750D01*
X109534803Y-124585000D01*
X109740000Y-124585000D01*
X109740000Y-124809250D01*
X109898750Y-124968000D01*
X110700290Y-124968000D01*
X110785754Y-124985000D01*
X111464246Y-124985000D01*
X111549710Y-124968000D01*
X112351250Y-124968000D01*
X112510000Y-124809250D01*
X112510000Y-124585000D01*
X114620199Y-124585000D01*
X114806312Y-124771113D01*
X114741887Y-125095000D01*
X114853260Y-125654909D01*
X115170423Y-126129577D01*
X115510203Y-126356611D01*
X115450995Y-126381136D01*
X115376861Y-126627255D01*
X116205000Y-127455395D01*
X117033139Y-126627255D01*
X116959005Y-126381136D01*
X116896641Y-126358720D01*
X117239577Y-126129577D01*
X117556740Y-125654909D01*
X117668113Y-125095000D01*
X117556740Y-124535091D01*
X117239577Y-124060423D01*
X116764909Y-123743260D01*
X116346333Y-123660000D01*
X116063667Y-123660000D01*
X115881114Y-123696312D01*
X115525331Y-123340530D01*
X115482929Y-123277071D01*
X115231537Y-123109096D01*
X115009852Y-123065000D01*
X115009847Y-123065000D01*
X114935000Y-123050112D01*
X114860153Y-123065000D01*
X112404348Y-123065000D01*
X112442695Y-123007609D01*
X112532725Y-122555000D01*
X112442695Y-122102391D01*
X112216274Y-121763528D01*
X112569803Y-121410000D01*
X118367560Y-121410000D01*
X118367560Y-121602500D01*
X118416843Y-121850265D01*
X118557191Y-122060309D01*
X118767235Y-122200657D01*
X119015000Y-122249940D01*
X121015000Y-122249940D01*
X121262765Y-122200657D01*
X121472809Y-122060309D01*
X121613157Y-121850265D01*
X121662440Y-121602500D01*
X121662440Y-119697500D01*
X121613157Y-119449735D01*
X121472809Y-119239691D01*
X121302568Y-119125939D01*
X121555136Y-118747945D01*
X121625191Y-118395750D01*
X122975000Y-118395750D01*
X122975000Y-119086310D01*
X123071673Y-119319699D01*
X123250302Y-119498327D01*
X123483691Y-119595000D01*
X124174250Y-119595000D01*
X124333000Y-119436250D01*
X124333000Y-118237000D01*
X124587000Y-118237000D01*
X124587000Y-119436250D01*
X124745750Y-119595000D01*
X125436309Y-119595000D01*
X125669698Y-119498327D01*
X125848327Y-119319699D01*
X125945000Y-119086310D01*
X125945000Y-118395750D01*
X125786250Y-118237000D01*
X124587000Y-118237000D01*
X124333000Y-118237000D01*
X123133750Y-118237000D01*
X122975000Y-118395750D01*
X121625191Y-118395750D01*
X121682031Y-118110000D01*
X121555136Y-117472055D01*
X121376696Y-117205000D01*
X122975000Y-117205000D01*
X122975000Y-117824250D01*
X123133750Y-117983000D01*
X124333000Y-117983000D01*
X124333000Y-117963000D01*
X124587000Y-117963000D01*
X124587000Y-117983000D01*
X125786250Y-117983000D01*
X125945000Y-117824250D01*
X125945000Y-117733701D01*
X126286126Y-117875000D01*
X126290001Y-117875000D01*
X126290001Y-126964026D01*
X126223105Y-127622604D01*
X126035961Y-128219782D01*
X125732563Y-128767125D01*
X125325299Y-129242289D01*
X124830812Y-129625852D01*
X124269304Y-129902148D01*
X123655227Y-130062104D01*
X123162730Y-130100000D01*
X92745964Y-130100000D01*
X92087396Y-130033105D01*
X91490218Y-129845961D01*
X90942875Y-129542563D01*
X90467711Y-129135299D01*
X90084148Y-128640812D01*
X89807852Y-128079304D01*
X89647896Y-127465227D01*
X89612099Y-127000000D01*
X90392500Y-127000000D01*
X90505927Y-127716147D01*
X90835103Y-128362192D01*
X91347808Y-128874897D01*
X91993853Y-129204073D01*
X92710000Y-129317500D01*
X93426147Y-129204073D01*
X94072192Y-128874897D01*
X94304344Y-128642745D01*
X115376861Y-128642745D01*
X115450995Y-128888864D01*
X115988223Y-129081965D01*
X116558454Y-129054778D01*
X116959005Y-128888864D01*
X117033139Y-128642745D01*
X116205000Y-127814605D01*
X115376861Y-128642745D01*
X94304344Y-128642745D01*
X94584897Y-128362192D01*
X94914073Y-127716147D01*
X95027500Y-127000000D01*
X94914073Y-126283853D01*
X94584897Y-125637808D01*
X94072192Y-125125103D01*
X93426147Y-124795927D01*
X92710000Y-124682500D01*
X91993853Y-124795927D01*
X91347808Y-125125103D01*
X90835103Y-125637808D01*
X90505927Y-126283853D01*
X90392500Y-127000000D01*
X89612099Y-127000000D01*
X89610000Y-126972730D01*
X89610000Y-120015000D01*
X91195908Y-120015000D01*
X91311161Y-120594418D01*
X91639375Y-121085625D01*
X92130582Y-121413839D01*
X92563744Y-121500000D01*
X92856256Y-121500000D01*
X93289418Y-121413839D01*
X93780625Y-121085625D01*
X93792816Y-121067381D01*
X93801843Y-121112765D01*
X93942191Y-121322809D01*
X94152235Y-121463157D01*
X94400000Y-121512440D01*
X96100000Y-121512440D01*
X96347765Y-121463157D01*
X96557809Y-121322809D01*
X96698157Y-121112765D01*
X96747440Y-120865000D01*
X96747440Y-120015000D01*
X101406887Y-120015000D01*
X101518260Y-120574909D01*
X101835423Y-121049577D01*
X102310091Y-121366740D01*
X102728667Y-121450000D01*
X103011333Y-121450000D01*
X103429909Y-121366740D01*
X103904577Y-121049577D01*
X104139606Y-120697832D01*
X104193466Y-120827862D01*
X104597138Y-121231534D01*
X105124561Y-121450000D01*
X105695439Y-121450000D01*
X106222862Y-121231534D01*
X106626534Y-120827862D01*
X106845000Y-120300439D01*
X106845000Y-119729561D01*
X106626534Y-119202138D01*
X106222862Y-118798466D01*
X105695439Y-118580000D01*
X105124561Y-118580000D01*
X104597138Y-118798466D01*
X104193466Y-119202138D01*
X104139606Y-119332168D01*
X103904577Y-118980423D01*
X103429909Y-118663260D01*
X103011333Y-118580000D01*
X102728667Y-118580000D01*
X102310091Y-118663260D01*
X101835423Y-118980423D01*
X101518260Y-119455091D01*
X101406887Y-120015000D01*
X96747440Y-120015000D01*
X96747440Y-119165000D01*
X96698157Y-118917235D01*
X96557809Y-118707191D01*
X96347765Y-118566843D01*
X96100000Y-118517560D01*
X94400000Y-118517560D01*
X94152235Y-118566843D01*
X93942191Y-118707191D01*
X93801843Y-118917235D01*
X93792816Y-118962619D01*
X93780625Y-118944375D01*
X93289418Y-118616161D01*
X92856256Y-118530000D01*
X92563744Y-118530000D01*
X92130582Y-118616161D01*
X91639375Y-118944375D01*
X91311161Y-119435582D01*
X91195908Y-120015000D01*
X89610000Y-120015000D01*
X89610000Y-115570000D01*
X93481010Y-115570000D01*
X93615666Y-116246963D01*
X93999135Y-116820865D01*
X94573037Y-117204334D01*
X95079120Y-117305000D01*
X95420880Y-117305000D01*
X95926963Y-117204334D01*
X96500865Y-116820865D01*
X96884334Y-116246963D01*
X97018990Y-115570000D01*
X96884334Y-114893037D01*
X96601670Y-114470000D01*
X103662560Y-114470000D01*
X103662560Y-116670000D01*
X103711843Y-116917765D01*
X103852191Y-117127809D01*
X104062235Y-117268157D01*
X104310000Y-117317440D01*
X106510000Y-117317440D01*
X106757765Y-117268157D01*
X106967809Y-117127809D01*
X107108157Y-116917765D01*
X107157440Y-116670000D01*
X107157440Y-114470000D01*
X107108157Y-114222235D01*
X106967809Y-114012191D01*
X106757765Y-113871843D01*
X106510000Y-113822560D01*
X104310000Y-113822560D01*
X104062235Y-113871843D01*
X103852191Y-114012191D01*
X103711843Y-114222235D01*
X103662560Y-114470000D01*
X96601670Y-114470000D01*
X96500865Y-114319135D01*
X95926963Y-113935666D01*
X95420880Y-113835000D01*
X95079120Y-113835000D01*
X94573037Y-113935666D01*
X93999135Y-114319135D01*
X93615666Y-114893037D01*
X93481010Y-115570000D01*
X89610000Y-115570000D01*
X89610000Y-108885848D01*
X93151861Y-108885848D01*
X93225995Y-109131967D01*
X93763223Y-109325068D01*
X94333454Y-109297881D01*
X94734005Y-109131967D01*
X94786482Y-108957745D01*
X115376861Y-108957745D01*
X115450995Y-109203864D01*
X115988223Y-109396965D01*
X116558454Y-109369778D01*
X116959005Y-109203864D01*
X117033139Y-108957745D01*
X116205000Y-108129605D01*
X115376861Y-108957745D01*
X94786482Y-108957745D01*
X94808139Y-108885848D01*
X93980000Y-108057708D01*
X93151861Y-108885848D01*
X89610000Y-108885848D01*
X89610000Y-105078103D01*
X92532560Y-105078103D01*
X92532560Y-106678103D01*
X92581843Y-106925868D01*
X92721995Y-107135619D01*
X92533035Y-107661326D01*
X92560222Y-108231557D01*
X92726136Y-108632108D01*
X92972255Y-108706242D01*
X93800395Y-107878103D01*
X93786252Y-107863961D01*
X93965858Y-107684356D01*
X93980000Y-107698498D01*
X93994143Y-107684356D01*
X94173748Y-107863961D01*
X94159605Y-107878103D01*
X94987745Y-108706242D01*
X95233864Y-108632108D01*
X95426965Y-108094880D01*
X95399778Y-107524649D01*
X95238395Y-107135036D01*
X95378157Y-106925868D01*
X95427440Y-106678103D01*
X95427440Y-105078103D01*
X95378157Y-104830338D01*
X95237809Y-104620294D01*
X95027765Y-104479946D01*
X94780000Y-104430663D01*
X93180000Y-104430663D01*
X92932235Y-104479946D01*
X92722191Y-104620294D01*
X92581843Y-104830338D01*
X92532560Y-105078103D01*
X89610000Y-105078103D01*
X89610000Y-104070074D01*
X89604647Y-104043163D01*
X89563057Y-103502653D01*
X89558442Y-103477004D01*
X89557168Y-103450954D01*
X89542224Y-103378155D01*
X89348117Y-102632971D01*
X89336013Y-102600423D01*
X89327374Y-102566778D01*
X89298097Y-102498471D01*
X88958116Y-101807539D01*
X88939714Y-101778090D01*
X88924487Y-101746869D01*
X88882073Y-101685844D01*
X88410105Y-101077386D01*
X88386157Y-101052238D01*
X88364963Y-101024717D01*
X88311145Y-100973467D01*
X87726469Y-100472339D01*
X87697949Y-100452518D01*
X87671659Y-100429824D01*
X87608634Y-100390442D01*
X86935134Y-100017114D01*
X86903212Y-100003432D01*
X86872894Y-99986488D01*
X86803238Y-99960583D01*
X86068426Y-99730307D01*
X86034401Y-99723323D01*
X86001299Y-99712822D01*
X85927857Y-99701453D01*
X85195368Y-99627050D01*
X85159926Y-99620000D01*
X59827089Y-99620000D01*
X60294897Y-99152192D01*
X60624073Y-98506147D01*
X60737500Y-97790000D01*
X60624073Y-97073853D01*
X60294897Y-96427808D01*
X59782192Y-95915103D01*
X59136147Y-95585927D01*
X58666749Y-95511581D01*
X63984476Y-90193856D01*
X64047929Y-90151458D01*
X64090327Y-90088005D01*
X64090329Y-90088003D01*
X64174102Y-89962627D01*
X64215904Y-89900066D01*
X64260000Y-89678381D01*
X64260000Y-89678377D01*
X64274888Y-89603530D01*
X64260000Y-89528683D01*
X64260000Y-88029717D01*
X64274888Y-87954870D01*
X64260000Y-87880023D01*
X64260000Y-87880019D01*
X64215904Y-87658334D01*
X64138793Y-87542929D01*
X64090329Y-87470397D01*
X64090327Y-87470395D01*
X64047929Y-87406942D01*
X63984476Y-87364544D01*
X63353037Y-86733106D01*
X63425920Y-86366699D01*
X63381688Y-86144328D01*
X65488361Y-86144328D01*
X65488361Y-87844328D01*
X65537644Y-88092093D01*
X65677992Y-88302137D01*
X65888036Y-88442485D01*
X66135801Y-88491768D01*
X67820001Y-88491768D01*
X67820001Y-90095148D01*
X67805112Y-90170000D01*
X67820001Y-90244852D01*
X67864097Y-90466537D01*
X67953988Y-90601069D01*
X67835801Y-90577560D01*
X66135801Y-90577560D01*
X65888036Y-90626843D01*
X65677992Y-90767191D01*
X65537644Y-90977235D01*
X65488361Y-91225000D01*
X65488361Y-92925000D01*
X65537644Y-93172765D01*
X65677992Y-93382809D01*
X65888036Y-93523157D01*
X66135801Y-93572440D01*
X67835801Y-93572440D01*
X68083566Y-93523157D01*
X68293610Y-93382809D01*
X68433958Y-93172765D01*
X68483241Y-92925000D01*
X68483241Y-91225000D01*
X68464132Y-91128934D01*
X75609673Y-98274476D01*
X75652071Y-98337929D01*
X75715524Y-98380327D01*
X75715526Y-98380329D01*
X75840902Y-98464102D01*
X75903463Y-98505904D01*
X76125148Y-98550000D01*
X76125152Y-98550000D01*
X76199999Y-98564888D01*
X76274846Y-98550000D01*
X90040613Y-98550000D01*
X98655085Y-107164473D01*
X98697485Y-107227929D01*
X98948877Y-107395904D01*
X99170562Y-107440000D01*
X99170566Y-107440000D01*
X99245414Y-107454888D01*
X99320262Y-107440000D01*
X102109763Y-107440000D01*
X102089000Y-107490126D01*
X102089000Y-107901874D01*
X102246569Y-108282280D01*
X102537720Y-108573431D01*
X102918126Y-108731000D01*
X103329874Y-108731000D01*
X103710280Y-108573431D01*
X104001431Y-108282280D01*
X104070721Y-108115000D01*
X104209279Y-108115000D01*
X104278569Y-108282280D01*
X104569720Y-108573431D01*
X104950126Y-108731000D01*
X105361874Y-108731000D01*
X105742280Y-108573431D01*
X106033431Y-108282280D01*
X106145460Y-108011819D01*
X106394561Y-108115000D01*
X106965439Y-108115000D01*
X107492862Y-107896534D01*
X107656173Y-107733223D01*
X114758035Y-107733223D01*
X114785222Y-108303454D01*
X114951136Y-108704005D01*
X115197255Y-108778139D01*
X116025395Y-107950000D01*
X116384605Y-107950000D01*
X117212745Y-108778139D01*
X117458864Y-108704005D01*
X117651965Y-108166777D01*
X117624778Y-107596546D01*
X117458864Y-107195995D01*
X117212745Y-107121861D01*
X116384605Y-107950000D01*
X116025395Y-107950000D01*
X115197255Y-107121861D01*
X114951136Y-107195995D01*
X114758035Y-107733223D01*
X107656173Y-107733223D01*
X107896534Y-107492862D01*
X108115000Y-106965439D01*
X108115000Y-106394561D01*
X108093103Y-106341698D01*
X108739051Y-105695750D01*
X109740000Y-105695750D01*
X109740000Y-106061309D01*
X109836673Y-106294698D01*
X110015301Y-106473327D01*
X110248690Y-106570000D01*
X110839250Y-106570000D01*
X110998000Y-106411250D01*
X110998000Y-105537000D01*
X111252000Y-105537000D01*
X111252000Y-106411250D01*
X111410750Y-106570000D01*
X112001310Y-106570000D01*
X112234699Y-106473327D01*
X112413327Y-106294698D01*
X112510000Y-106061309D01*
X112510000Y-105695750D01*
X112351250Y-105537000D01*
X111252000Y-105537000D01*
X110998000Y-105537000D01*
X109898750Y-105537000D01*
X109740000Y-105695750D01*
X108739051Y-105695750D01*
X109534803Y-104900000D01*
X109740000Y-104900000D01*
X109740000Y-105124250D01*
X109898750Y-105283000D01*
X110700290Y-105283000D01*
X110785754Y-105300000D01*
X111464246Y-105300000D01*
X111549710Y-105283000D01*
X112351250Y-105283000D01*
X112510000Y-105124250D01*
X112510000Y-104900000D01*
X114620199Y-104900000D01*
X114806312Y-105086113D01*
X114741887Y-105410000D01*
X114853260Y-105969909D01*
X115170423Y-106444577D01*
X115510203Y-106671611D01*
X115450995Y-106696136D01*
X115376861Y-106942255D01*
X116205000Y-107770395D01*
X117033139Y-106942255D01*
X116959005Y-106696136D01*
X116896641Y-106673720D01*
X117239577Y-106444577D01*
X117556740Y-105969909D01*
X117668113Y-105410000D01*
X117556740Y-104850091D01*
X117239577Y-104375423D01*
X116764909Y-104058260D01*
X116346333Y-103975000D01*
X116063667Y-103975000D01*
X115881114Y-104011312D01*
X115525331Y-103655530D01*
X115482929Y-103592071D01*
X115231537Y-103424096D01*
X115009852Y-103380000D01*
X115009847Y-103380000D01*
X114935000Y-103365112D01*
X114860153Y-103380000D01*
X112404348Y-103380000D01*
X112442695Y-103322609D01*
X112532725Y-102870000D01*
X112442695Y-102417391D01*
X112216274Y-102078528D01*
X112569803Y-101725000D01*
X118367560Y-101725000D01*
X118367560Y-101917500D01*
X118416843Y-102165265D01*
X118557191Y-102375309D01*
X118767235Y-102515657D01*
X119015000Y-102564940D01*
X121015000Y-102564940D01*
X121262765Y-102515657D01*
X121472809Y-102375309D01*
X121613157Y-102165265D01*
X121662440Y-101917500D01*
X121662440Y-100012500D01*
X121613157Y-99764735D01*
X121472809Y-99554691D01*
X121302568Y-99440939D01*
X121555136Y-99062945D01*
X121625191Y-98710750D01*
X122975000Y-98710750D01*
X122975000Y-99401310D01*
X123071673Y-99634699D01*
X123250302Y-99813327D01*
X123483691Y-99910000D01*
X124174250Y-99910000D01*
X124333000Y-99751250D01*
X124333000Y-98552000D01*
X124587000Y-98552000D01*
X124587000Y-99751250D01*
X124745750Y-99910000D01*
X125436309Y-99910000D01*
X125669698Y-99813327D01*
X125848327Y-99634699D01*
X125945000Y-99401310D01*
X125945000Y-98710750D01*
X125786250Y-98552000D01*
X124587000Y-98552000D01*
X124333000Y-98552000D01*
X123133750Y-98552000D01*
X122975000Y-98710750D01*
X121625191Y-98710750D01*
X121682031Y-98425000D01*
X121555136Y-97787055D01*
X121376696Y-97520000D01*
X122975000Y-97520000D01*
X122975000Y-98139250D01*
X123133750Y-98298000D01*
X124333000Y-98298000D01*
X124333000Y-98278000D01*
X124587000Y-98278000D01*
X124587000Y-98298000D01*
X125786250Y-98298000D01*
X125945000Y-98139250D01*
X125945000Y-97448690D01*
X125848327Y-97215301D01*
X125669698Y-97036673D01*
X125659654Y-97032513D01*
X126000136Y-96522945D01*
X126127031Y-95885000D01*
X126000136Y-95247055D01*
X125638769Y-94706231D01*
X125097945Y-94344864D01*
X124621031Y-94250000D01*
X115612239Y-94250000D01*
X114707253Y-93345015D01*
X114302945Y-93074865D01*
X113665000Y-92947969D01*
X113027055Y-93074865D01*
X112508908Y-93421080D01*
X112432809Y-93307191D01*
X112222765Y-93166843D01*
X111975000Y-93117560D01*
X110701462Y-93117560D01*
X110605431Y-92885720D01*
X110314280Y-92594569D01*
X109933874Y-92437000D01*
X109522126Y-92437000D01*
X109141720Y-92594569D01*
X108850569Y-92885720D01*
X108693000Y-93266126D01*
X108693000Y-93677874D01*
X108850569Y-94058280D01*
X109141720Y-94349431D01*
X109476256Y-94488000D01*
X109141720Y-94626569D01*
X108850569Y-94917720D01*
X108693000Y-95298126D01*
X108693000Y-95709874D01*
X108850569Y-96090280D01*
X109141720Y-96381431D01*
X109522126Y-96539000D01*
X109933874Y-96539000D01*
X110314280Y-96381431D01*
X110583271Y-96112440D01*
X111975000Y-96112440D01*
X112222765Y-96063157D01*
X112402776Y-95942876D01*
X112249000Y-96314126D01*
X112249000Y-96725874D01*
X112406569Y-97106280D01*
X112522372Y-97222083D01*
X112486231Y-97246231D01*
X112274731Y-97562763D01*
X112159577Y-97390423D01*
X111684909Y-97073260D01*
X111266333Y-96990000D01*
X110983667Y-96990000D01*
X110565091Y-97073260D01*
X110090423Y-97390423D01*
X109773260Y-97865091D01*
X109661887Y-98425000D01*
X109773260Y-98984909D01*
X110090423Y-99459577D01*
X110365001Y-99643044D01*
X110365001Y-99760149D01*
X110350112Y-99835000D01*
X110409097Y-100131537D01*
X110525040Y-100305057D01*
X110577072Y-100382929D01*
X110640527Y-100425329D01*
X111180198Y-100965000D01*
X110868455Y-101276744D01*
X110822280Y-101230569D01*
X110441874Y-101073000D01*
X110030126Y-101073000D01*
X109649720Y-101230569D01*
X109358569Y-101521720D01*
X109201000Y-101902126D01*
X109201000Y-102313874D01*
X109358569Y-102694280D01*
X109649720Y-102985431D01*
X109748363Y-103026290D01*
X109807305Y-103322609D01*
X109845652Y-103380000D01*
X109294846Y-103380000D01*
X109219999Y-103365112D01*
X109145152Y-103380000D01*
X109145148Y-103380000D01*
X108923463Y-103424096D01*
X108923461Y-103424097D01*
X108923462Y-103424097D01*
X108735526Y-103549671D01*
X108735524Y-103549673D01*
X108672071Y-103592071D01*
X108629673Y-103655524D01*
X107018302Y-105266897D01*
X106965439Y-105245000D01*
X106394561Y-105245000D01*
X106145460Y-105348181D01*
X106033431Y-105077720D01*
X105742280Y-104786569D01*
X105361874Y-104629000D01*
X104950126Y-104629000D01*
X104569720Y-104786569D01*
X104278569Y-105077720D01*
X104209279Y-105245000D01*
X104070721Y-105245000D01*
X104001431Y-105077720D01*
X103710280Y-104786569D01*
X103329874Y-104629000D01*
X102918126Y-104629000D01*
X102537720Y-104786569D01*
X102246569Y-105077720D01*
X102089000Y-105458126D01*
X102089000Y-105869874D01*
X102109763Y-105920000D01*
X99560216Y-105920000D01*
X94626433Y-100986218D01*
X94920400Y-100927744D01*
X95378529Y-100621632D01*
X95684641Y-100163503D01*
X95792133Y-99623103D01*
X95684641Y-99082703D01*
X95378529Y-98624574D01*
X94948684Y-98337361D01*
X95027349Y-98314075D01*
X95449145Y-97972643D01*
X95708173Y-97495787D01*
X95722318Y-97424288D01*
X95599656Y-97210103D01*
X94107000Y-97210103D01*
X94107000Y-97230103D01*
X93853000Y-97230103D01*
X93853000Y-97210103D01*
X92360344Y-97210103D01*
X92237682Y-97424288D01*
X92251827Y-97495787D01*
X92510855Y-97972643D01*
X92932651Y-98314075D01*
X93011316Y-98337361D01*
X92581471Y-98624574D01*
X92454626Y-98814411D01*
X90945745Y-97305530D01*
X90903343Y-97242071D01*
X90651951Y-97074096D01*
X90430266Y-97030000D01*
X90430261Y-97030000D01*
X90355414Y-97015112D01*
X90280567Y-97030000D01*
X76514803Y-97030000D01*
X71559802Y-92075000D01*
X87385908Y-92075000D01*
X87501161Y-92654418D01*
X87829375Y-93145625D01*
X87847619Y-93157816D01*
X87802235Y-93166843D01*
X87592191Y-93307191D01*
X87451843Y-93517235D01*
X87402560Y-93765000D01*
X87402560Y-95465000D01*
X87451843Y-95712765D01*
X87592191Y-95922809D01*
X87802235Y-96063157D01*
X88050000Y-96112440D01*
X89750000Y-96112440D01*
X89997765Y-96063157D01*
X90207809Y-95922809D01*
X90348157Y-95712765D01*
X90397440Y-95465000D01*
X90397440Y-93793103D01*
X92182560Y-93793103D01*
X92182560Y-95293103D01*
X92231843Y-95540868D01*
X92372191Y-95750912D01*
X92582235Y-95891260D01*
X92824725Y-95939494D01*
X92510855Y-96193563D01*
X92251827Y-96670419D01*
X92237682Y-96741918D01*
X92360344Y-96956103D01*
X93853000Y-96956103D01*
X93853000Y-96936103D01*
X94107000Y-96936103D01*
X94107000Y-96956103D01*
X95599656Y-96956103D01*
X95722318Y-96741918D01*
X95708173Y-96670419D01*
X95449145Y-96193563D01*
X95135275Y-95939494D01*
X95377765Y-95891260D01*
X95587809Y-95750912D01*
X95728157Y-95540868D01*
X95777440Y-95293103D01*
X95777440Y-93793103D01*
X95728157Y-93545338D01*
X95587809Y-93335294D01*
X95377765Y-93194946D01*
X95130000Y-93145663D01*
X92830000Y-93145663D01*
X92582235Y-93194946D01*
X92372191Y-93335294D01*
X92231843Y-93545338D01*
X92182560Y-93793103D01*
X90397440Y-93793103D01*
X90397440Y-93765000D01*
X90348157Y-93517235D01*
X90207809Y-93307191D01*
X89997765Y-93166843D01*
X89952381Y-93157816D01*
X89970625Y-93145625D01*
X90298839Y-92654418D01*
X90414092Y-92075000D01*
X90298839Y-91495582D01*
X89970625Y-91004375D01*
X89479418Y-90676161D01*
X89046256Y-90590000D01*
X88753744Y-90590000D01*
X88320582Y-90676161D01*
X87829375Y-91004375D01*
X87501161Y-91495582D01*
X87385908Y-92075000D01*
X71559802Y-92075000D01*
X69340000Y-89855199D01*
X69340000Y-87915750D01*
X84875000Y-87915750D01*
X84875000Y-88606309D01*
X84971673Y-88839698D01*
X85150301Y-89018327D01*
X85383690Y-89115000D01*
X86074250Y-89115000D01*
X86233000Y-88956250D01*
X86233000Y-87757000D01*
X85033750Y-87757000D01*
X84875000Y-87915750D01*
X69340000Y-87915750D01*
X69340000Y-86653691D01*
X84875000Y-86653691D01*
X84875000Y-87344250D01*
X85033750Y-87503000D01*
X86233000Y-87503000D01*
X86233000Y-86303750D01*
X86487000Y-86303750D01*
X86487000Y-87503000D01*
X86507000Y-87503000D01*
X86507000Y-87757000D01*
X86487000Y-87757000D01*
X86487000Y-88956250D01*
X86645750Y-89115000D01*
X87336310Y-89115000D01*
X87569699Y-89018327D01*
X87748327Y-88839698D01*
X87814904Y-88678967D01*
X87829375Y-88700625D01*
X88320582Y-89028839D01*
X88753744Y-89115000D01*
X89046256Y-89115000D01*
X89479418Y-89028839D01*
X89970625Y-88700625D01*
X90298839Y-88209418D01*
X90320603Y-88100000D01*
X92532560Y-88100000D01*
X92532560Y-89700000D01*
X92581843Y-89947765D01*
X92722191Y-90157809D01*
X92932235Y-90298157D01*
X93180000Y-90347440D01*
X94780000Y-90347440D01*
X95027765Y-90298157D01*
X95237809Y-90157809D01*
X95378157Y-89947765D01*
X95427440Y-89700000D01*
X95427440Y-89272745D01*
X115376861Y-89272745D01*
X115450995Y-89518864D01*
X115988223Y-89711965D01*
X116558454Y-89684778D01*
X116959005Y-89518864D01*
X117033139Y-89272745D01*
X116205000Y-88444605D01*
X115376861Y-89272745D01*
X95427440Y-89272745D01*
X95427440Y-88100000D01*
X95378157Y-87852235D01*
X95238005Y-87642484D01*
X95426965Y-87116777D01*
X95399778Y-86546546D01*
X95233864Y-86145995D01*
X94987745Y-86071861D01*
X94159605Y-86900000D01*
X94173748Y-86914142D01*
X93994143Y-87093748D01*
X93980000Y-87079605D01*
X93965858Y-87093748D01*
X93786252Y-86914142D01*
X93800395Y-86900000D01*
X92972255Y-86071861D01*
X92726136Y-86145995D01*
X92533035Y-86683223D01*
X92560222Y-87253454D01*
X92721605Y-87643067D01*
X92581843Y-87852235D01*
X92532560Y-88100000D01*
X90320603Y-88100000D01*
X90414092Y-87630000D01*
X90298839Y-87050582D01*
X89970625Y-86559375D01*
X89479418Y-86231161D01*
X89046256Y-86145000D01*
X88753744Y-86145000D01*
X88320582Y-86231161D01*
X87829375Y-86559375D01*
X87814904Y-86581033D01*
X87748327Y-86420302D01*
X87569699Y-86241673D01*
X87336310Y-86145000D01*
X86645750Y-86145000D01*
X86487000Y-86303750D01*
X86233000Y-86303750D01*
X86074250Y-86145000D01*
X85383690Y-86145000D01*
X85150301Y-86241673D01*
X84971673Y-86420302D01*
X84875000Y-86653691D01*
X69340000Y-86653691D01*
X69340000Y-80324801D01*
X69974905Y-79689896D01*
X69974387Y-79692500D01*
X70085760Y-80252409D01*
X70402923Y-80727077D01*
X70755258Y-80962500D01*
X70402923Y-81197923D01*
X70085760Y-81672591D01*
X69974387Y-82232500D01*
X70085760Y-82792409D01*
X70402923Y-83267077D01*
X70755258Y-83502500D01*
X70402923Y-83737923D01*
X70085760Y-84212591D01*
X69974387Y-84772500D01*
X70085760Y-85332409D01*
X70402923Y-85807077D01*
X70877591Y-86124240D01*
X71296167Y-86207500D01*
X71578833Y-86207500D01*
X71997409Y-86124240D01*
X72472077Y-85807077D01*
X72789240Y-85332409D01*
X72900613Y-84772500D01*
X72789240Y-84212591D01*
X72472077Y-83737923D01*
X72119742Y-83502500D01*
X72472077Y-83267077D01*
X72789240Y-82792409D01*
X72900613Y-82232500D01*
X72836188Y-81908613D01*
X74100545Y-80644256D01*
X74343720Y-80887431D01*
X74724126Y-81045000D01*
X74890199Y-81045000D01*
X77846763Y-84001566D01*
X77705760Y-84212591D01*
X77594387Y-84772500D01*
X77705760Y-85332409D01*
X78022923Y-85807077D01*
X78497591Y-86124240D01*
X78916167Y-86207500D01*
X79198833Y-86207500D01*
X79617409Y-86124240D01*
X79964599Y-85892255D01*
X93151861Y-85892255D01*
X93980000Y-86720395D01*
X94808139Y-85892255D01*
X94734005Y-85646136D01*
X94196777Y-85453035D01*
X93626546Y-85480222D01*
X93225995Y-85646136D01*
X93151861Y-85892255D01*
X79964599Y-85892255D01*
X80092077Y-85807077D01*
X80409240Y-85332409D01*
X80520613Y-84772500D01*
X80448010Y-84407499D01*
X100477698Y-84407499D01*
X101791244Y-85721045D01*
X101738569Y-85773720D01*
X101581000Y-86154126D01*
X101581000Y-86565874D01*
X101738569Y-86946280D01*
X102029720Y-87237431D01*
X102410126Y-87395000D01*
X102756452Y-87395000D01*
X102788260Y-87554909D01*
X103105423Y-88029577D01*
X103580091Y-88346740D01*
X103998667Y-88430000D01*
X104261885Y-88430000D01*
X104278569Y-88470280D01*
X104569720Y-88761431D01*
X104950126Y-88919000D01*
X105361874Y-88919000D01*
X105742280Y-88761431D01*
X106033431Y-88470280D01*
X106100558Y-88308220D01*
X106394561Y-88430000D01*
X106965439Y-88430000D01*
X107492862Y-88211534D01*
X107656173Y-88048223D01*
X114758035Y-88048223D01*
X114785222Y-88618454D01*
X114951136Y-89019005D01*
X115197255Y-89093139D01*
X116025395Y-88265000D01*
X116384605Y-88265000D01*
X117212745Y-89093139D01*
X117458864Y-89019005D01*
X117651965Y-88481777D01*
X117624778Y-87911546D01*
X117458864Y-87510995D01*
X117212745Y-87436861D01*
X116384605Y-88265000D01*
X116025395Y-88265000D01*
X115197255Y-87436861D01*
X114951136Y-87510995D01*
X114758035Y-88048223D01*
X107656173Y-88048223D01*
X107896534Y-87807862D01*
X108115000Y-87280439D01*
X108115000Y-86709561D01*
X108093103Y-86656698D01*
X108739051Y-86010750D01*
X109740000Y-86010750D01*
X109740000Y-86376309D01*
X109836673Y-86609698D01*
X110015301Y-86788327D01*
X110248690Y-86885000D01*
X110839250Y-86885000D01*
X110998000Y-86726250D01*
X110998000Y-85852000D01*
X111252000Y-85852000D01*
X111252000Y-86726250D01*
X111410750Y-86885000D01*
X112001310Y-86885000D01*
X112234699Y-86788327D01*
X112413327Y-86609698D01*
X112510000Y-86376309D01*
X112510000Y-86010750D01*
X112351250Y-85852000D01*
X111252000Y-85852000D01*
X110998000Y-85852000D01*
X109898750Y-85852000D01*
X109740000Y-86010750D01*
X108739051Y-86010750D01*
X109534803Y-85215000D01*
X109740000Y-85215000D01*
X109740000Y-85439250D01*
X109898750Y-85598000D01*
X110700290Y-85598000D01*
X110785754Y-85615000D01*
X111464246Y-85615000D01*
X111549710Y-85598000D01*
X112351250Y-85598000D01*
X112510000Y-85439250D01*
X112510000Y-85215000D01*
X114620199Y-85215000D01*
X114806312Y-85401113D01*
X114741887Y-85725000D01*
X114853260Y-86284909D01*
X115170423Y-86759577D01*
X115510203Y-86986611D01*
X115450995Y-87011136D01*
X115376861Y-87257255D01*
X116205000Y-88085395D01*
X117033139Y-87257255D01*
X116959005Y-87011136D01*
X116896641Y-86988720D01*
X117239577Y-86759577D01*
X117556740Y-86284909D01*
X117668113Y-85725000D01*
X117556740Y-85165091D01*
X117239577Y-84690423D01*
X116764909Y-84373260D01*
X116346333Y-84290000D01*
X116063667Y-84290000D01*
X115881114Y-84326312D01*
X115525331Y-83970530D01*
X115482929Y-83907071D01*
X115231537Y-83739096D01*
X115009852Y-83695000D01*
X115009847Y-83695000D01*
X114935000Y-83680112D01*
X114860153Y-83695000D01*
X112404348Y-83695000D01*
X112442695Y-83637609D01*
X112532725Y-83185000D01*
X112442695Y-82732391D01*
X112216274Y-82393528D01*
X112569803Y-82040000D01*
X118172289Y-82040000D01*
X117994569Y-82217720D01*
X117837000Y-82598126D01*
X117837000Y-83009874D01*
X117994569Y-83390280D01*
X118285720Y-83681431D01*
X118666126Y-83839000D01*
X119077874Y-83839000D01*
X119458280Y-83681431D01*
X119749431Y-83390280D01*
X119907000Y-83009874D01*
X119907000Y-82879940D01*
X121015000Y-82879940D01*
X121262765Y-82830657D01*
X121472809Y-82690309D01*
X121613157Y-82480265D01*
X121662440Y-82232500D01*
X121662440Y-80327500D01*
X121613157Y-80079735D01*
X121472809Y-79869691D01*
X121302568Y-79755939D01*
X121555136Y-79377945D01*
X121625191Y-79025750D01*
X122975000Y-79025750D01*
X122975000Y-79716310D01*
X123071673Y-79949699D01*
X123250302Y-80128327D01*
X123483691Y-80225000D01*
X124174250Y-80225000D01*
X124333000Y-80066250D01*
X124333000Y-78867000D01*
X124587000Y-78867000D01*
X124587000Y-80066250D01*
X124745750Y-80225000D01*
X125436309Y-80225000D01*
X125669698Y-80128327D01*
X125848327Y-79949699D01*
X125945000Y-79716310D01*
X125945000Y-79025750D01*
X125786250Y-78867000D01*
X124587000Y-78867000D01*
X124333000Y-78867000D01*
X123133750Y-78867000D01*
X122975000Y-79025750D01*
X121625191Y-79025750D01*
X121682031Y-78740000D01*
X121555136Y-78102055D01*
X121376696Y-77835000D01*
X122975000Y-77835000D01*
X122975000Y-78454250D01*
X123133750Y-78613000D01*
X124333000Y-78613000D01*
X124333000Y-78593000D01*
X124587000Y-78593000D01*
X124587000Y-78613000D01*
X125786250Y-78613000D01*
X125945000Y-78454250D01*
X125945000Y-77763690D01*
X125848327Y-77530301D01*
X125669698Y-77351673D01*
X125659654Y-77347513D01*
X126000136Y-76837945D01*
X126127031Y-76200000D01*
X126000136Y-75562055D01*
X125638769Y-75021231D01*
X125097945Y-74659864D01*
X124621031Y-74565000D01*
X120692239Y-74565000D01*
X120014988Y-73887750D01*
X119923769Y-73751231D01*
X119382945Y-73389864D01*
X118906031Y-73295000D01*
X118906030Y-73295000D01*
X118745000Y-73262969D01*
X118583970Y-73295000D01*
X113503969Y-73295000D01*
X113027055Y-73389864D01*
X112508907Y-73736079D01*
X112432809Y-73622191D01*
X112222765Y-73481843D01*
X111975000Y-73432560D01*
X111773483Y-73432560D01*
X111672929Y-73282071D01*
X111609473Y-73239671D01*
X107957547Y-69587745D01*
X115376861Y-69587745D01*
X115450995Y-69833864D01*
X115988223Y-70026965D01*
X116558454Y-69999778D01*
X116959005Y-69833864D01*
X117033139Y-69587745D01*
X116205000Y-68759605D01*
X115376861Y-69587745D01*
X107957547Y-69587745D01*
X107071054Y-68701253D01*
X107492862Y-68526534D01*
X107896534Y-68122862D01*
X108115000Y-67595439D01*
X108115000Y-67024561D01*
X108093103Y-66971698D01*
X108739051Y-66325750D01*
X109740000Y-66325750D01*
X109740000Y-66691309D01*
X109836673Y-66924698D01*
X110015301Y-67103327D01*
X110248690Y-67200000D01*
X110839250Y-67200000D01*
X110998000Y-67041250D01*
X110998000Y-66167000D01*
X111252000Y-66167000D01*
X111252000Y-67041250D01*
X111410750Y-67200000D01*
X112001310Y-67200000D01*
X112234699Y-67103327D01*
X112413327Y-66924698D01*
X112510000Y-66691309D01*
X112510000Y-66325750D01*
X112351250Y-66167000D01*
X111252000Y-66167000D01*
X110998000Y-66167000D01*
X109898750Y-66167000D01*
X109740000Y-66325750D01*
X108739051Y-66325750D01*
X109534803Y-65530000D01*
X109740000Y-65530000D01*
X109740000Y-65754250D01*
X109898750Y-65913000D01*
X110700290Y-65913000D01*
X110785754Y-65930000D01*
X111464246Y-65930000D01*
X111549710Y-65913000D01*
X112351250Y-65913000D01*
X112510000Y-65754250D01*
X112510000Y-65530000D01*
X114620199Y-65530000D01*
X114806312Y-65716113D01*
X114741887Y-66040000D01*
X114766426Y-66163365D01*
X114729720Y-66178569D01*
X114438569Y-66469720D01*
X114281000Y-66850126D01*
X114281000Y-67261874D01*
X114438569Y-67642280D01*
X114729720Y-67933431D01*
X114888830Y-67999336D01*
X114758035Y-68363223D01*
X114785222Y-68933454D01*
X114951136Y-69334005D01*
X115197255Y-69408139D01*
X116025395Y-68580000D01*
X116384605Y-68580000D01*
X117212745Y-69408139D01*
X117458864Y-69334005D01*
X117651965Y-68796777D01*
X117624778Y-68226546D01*
X117458864Y-67825995D01*
X117212745Y-67751861D01*
X116384605Y-68580000D01*
X116025395Y-68580000D01*
X116011252Y-68565858D01*
X116190858Y-68386253D01*
X116205000Y-68400395D01*
X117033139Y-67572255D01*
X116959005Y-67326136D01*
X116896641Y-67303720D01*
X117239577Y-67074577D01*
X117556740Y-66599909D01*
X117668113Y-66040000D01*
X117556740Y-65480091D01*
X117239577Y-65005423D01*
X116764909Y-64688260D01*
X116346333Y-64605000D01*
X116063667Y-64605000D01*
X115881114Y-64641312D01*
X115525331Y-64285530D01*
X115482929Y-64222071D01*
X115231537Y-64054096D01*
X115009852Y-64010000D01*
X115009847Y-64010000D01*
X114935000Y-63995112D01*
X114860153Y-64010000D01*
X112404348Y-64010000D01*
X112442695Y-63952609D01*
X112532725Y-63500000D01*
X112442695Y-63047391D01*
X112216274Y-62708528D01*
X112569803Y-62355000D01*
X118367560Y-62355000D01*
X118367560Y-62547500D01*
X118416843Y-62795265D01*
X118557191Y-63005309D01*
X118767235Y-63145657D01*
X119015000Y-63194940D01*
X121015000Y-63194940D01*
X121262765Y-63145657D01*
X121472809Y-63005309D01*
X121613157Y-62795265D01*
X121662440Y-62547500D01*
X121662440Y-60642500D01*
X121613157Y-60394735D01*
X121472809Y-60184691D01*
X121302568Y-60070939D01*
X121555136Y-59692945D01*
X121625191Y-59340750D01*
X122975000Y-59340750D01*
X122975000Y-60031310D01*
X123071673Y-60264699D01*
X123250302Y-60443327D01*
X123483691Y-60540000D01*
X124174250Y-60540000D01*
X124333000Y-60381250D01*
X124333000Y-59182000D01*
X124587000Y-59182000D01*
X124587000Y-60381250D01*
X124745750Y-60540000D01*
X125436309Y-60540000D01*
X125669698Y-60443327D01*
X125848327Y-60264699D01*
X125945000Y-60031310D01*
X125945000Y-59340750D01*
X125786250Y-59182000D01*
X124587000Y-59182000D01*
X124333000Y-59182000D01*
X123133750Y-59182000D01*
X122975000Y-59340750D01*
X121625191Y-59340750D01*
X121682031Y-59055000D01*
X121555136Y-58417055D01*
X121376696Y-58150000D01*
X122975000Y-58150000D01*
X122975000Y-58769250D01*
X123133750Y-58928000D01*
X124333000Y-58928000D01*
X124333000Y-58908000D01*
X124587000Y-58908000D01*
X124587000Y-58928000D01*
X125786250Y-58928000D01*
X125945000Y-58769250D01*
X125945000Y-58078690D01*
X125848327Y-57845301D01*
X125669698Y-57666673D01*
X125659654Y-57662513D01*
X126000136Y-57152945D01*
X126127031Y-56515000D01*
X126000136Y-55877055D01*
X125638769Y-55336231D01*
X125097945Y-54974864D01*
X124621031Y-54880000D01*
X115612239Y-54880000D01*
X114707253Y-53975015D01*
X114302945Y-53704865D01*
X113665000Y-53577969D01*
X113027055Y-53704865D01*
X112508908Y-54051080D01*
X112432809Y-53937191D01*
X112222765Y-53796843D01*
X111975000Y-53747560D01*
X110275000Y-53747560D01*
X110027235Y-53796843D01*
X109817191Y-53937191D01*
X109676843Y-54147235D01*
X109627560Y-54395000D01*
X109627560Y-55353000D01*
X109522126Y-55353000D01*
X109141720Y-55510569D01*
X108850569Y-55801720D01*
X108693000Y-56182126D01*
X108693000Y-56593874D01*
X108850569Y-56974280D01*
X109135744Y-57259455D01*
X105070527Y-61324672D01*
X105007071Y-61367072D01*
X104964671Y-61430528D01*
X104964670Y-61430529D01*
X104839096Y-61618464D01*
X104780111Y-61915001D01*
X104795000Y-61989853D01*
X104795000Y-65005000D01*
X104442126Y-65005000D01*
X104061720Y-65162569D01*
X103770569Y-65453720D01*
X103613000Y-65834126D01*
X103613000Y-65951714D01*
X103580091Y-65958260D01*
X103105423Y-66275423D01*
X102788260Y-66750091D01*
X102676887Y-67310000D01*
X102741312Y-67633886D01*
X92567700Y-77807499D01*
X80345703Y-77807499D01*
X80409240Y-77712409D01*
X80520613Y-77152500D01*
X80409240Y-76592591D01*
X80092077Y-76117923D01*
X79739742Y-75882500D01*
X80092077Y-75647077D01*
X80409240Y-75172409D01*
X80520613Y-74612500D01*
X80409240Y-74052591D01*
X80092077Y-73577923D01*
X79739742Y-73342500D01*
X80092077Y-73107077D01*
X80409240Y-72632409D01*
X80520613Y-72072500D01*
X80409240Y-71512591D01*
X80092077Y-71037923D01*
X79739742Y-70802500D01*
X80092077Y-70567077D01*
X80409240Y-70092409D01*
X80427124Y-70002500D01*
X83325060Y-70002500D01*
X83325060Y-71602500D01*
X83374343Y-71850265D01*
X83514691Y-72060309D01*
X83724735Y-72200657D01*
X83972500Y-72249940D01*
X85572500Y-72249940D01*
X85820265Y-72200657D01*
X86030309Y-72060309D01*
X86170657Y-71850265D01*
X86219940Y-71602500D01*
X86219940Y-70002500D01*
X86170657Y-69754735D01*
X86030505Y-69544984D01*
X86219465Y-69019277D01*
X86192278Y-68449046D01*
X86026364Y-68048495D01*
X85780245Y-67974361D01*
X84952105Y-68802500D01*
X84966248Y-68816642D01*
X84786643Y-68996248D01*
X84772500Y-68982105D01*
X84758358Y-68996248D01*
X84578752Y-68816642D01*
X84592895Y-68802500D01*
X83764755Y-67974361D01*
X83518636Y-68048495D01*
X83325535Y-68585723D01*
X83352722Y-69155954D01*
X83514105Y-69545567D01*
X83374343Y-69754735D01*
X83325060Y-70002500D01*
X80427124Y-70002500D01*
X80520613Y-69532500D01*
X80409240Y-68972591D01*
X80092077Y-68497923D01*
X79708392Y-68241553D01*
X79912634Y-68144889D01*
X80229811Y-67794755D01*
X83944361Y-67794755D01*
X84772500Y-68622895D01*
X85600639Y-67794755D01*
X85526505Y-67548636D01*
X84989277Y-67355535D01*
X84419046Y-67382722D01*
X84018495Y-67548636D01*
X83944361Y-67794755D01*
X80229811Y-67794755D01*
X80288541Y-67729923D01*
X80449404Y-67341539D01*
X80432077Y-67310000D01*
X95640908Y-67310000D01*
X95756161Y-67889418D01*
X96084375Y-68380625D01*
X96575582Y-68708839D01*
X97008744Y-68795000D01*
X97301256Y-68795000D01*
X97734418Y-68708839D01*
X98225625Y-68380625D01*
X98237816Y-68362381D01*
X98246843Y-68407765D01*
X98387191Y-68617809D01*
X98597235Y-68758157D01*
X98845000Y-68807440D01*
X100545000Y-68807440D01*
X100792765Y-68758157D01*
X101002809Y-68617809D01*
X101143157Y-68407765D01*
X101192440Y-68160000D01*
X101192440Y-66460000D01*
X101143157Y-66212235D01*
X101002809Y-66002191D01*
X100792765Y-65861843D01*
X100545000Y-65812560D01*
X98845000Y-65812560D01*
X98597235Y-65861843D01*
X98387191Y-66002191D01*
X98246843Y-66212235D01*
X98237816Y-66257619D01*
X98225625Y-66239375D01*
X97734418Y-65911161D01*
X97301256Y-65825000D01*
X97008744Y-65825000D01*
X96575582Y-65911161D01*
X96084375Y-66239375D01*
X95756161Y-66730582D01*
X95640908Y-67310000D01*
X80432077Y-67310000D01*
X80327415Y-67119500D01*
X79184500Y-67119500D01*
X79184500Y-67139500D01*
X78930500Y-67139500D01*
X78930500Y-67119500D01*
X77787585Y-67119500D01*
X77665596Y-67341539D01*
X77826459Y-67729923D01*
X78202366Y-68144889D01*
X78406608Y-68241553D01*
X78022923Y-68497923D01*
X77705760Y-68972591D01*
X77594387Y-69532500D01*
X77705760Y-70092409D01*
X78022923Y-70567077D01*
X78375258Y-70802500D01*
X78022923Y-71037923D01*
X77705760Y-71512591D01*
X77594387Y-72072500D01*
X77705760Y-72632409D01*
X78022923Y-73107077D01*
X78375258Y-73342500D01*
X78022923Y-73577923D01*
X77705760Y-74052591D01*
X77594387Y-74612500D01*
X77705760Y-75172409D01*
X78022923Y-75647077D01*
X78375258Y-75882500D01*
X78022923Y-76117923D01*
X77705760Y-76592591D01*
X77594387Y-77152500D01*
X77705760Y-77712409D01*
X77769297Y-77807499D01*
X75177349Y-77807499D01*
X75102501Y-77792611D01*
X75027653Y-77807499D01*
X75027649Y-77807499D01*
X74854106Y-77842019D01*
X74805963Y-77851595D01*
X74618919Y-77976575D01*
X74554572Y-78019570D01*
X74512172Y-78083026D01*
X72900095Y-79695103D01*
X72900613Y-79692500D01*
X72789240Y-79132591D01*
X72472077Y-78657923D01*
X72119742Y-78422500D01*
X72472077Y-78187077D01*
X72789240Y-77712409D01*
X72900613Y-77152500D01*
X72789240Y-76592591D01*
X72472077Y-76117923D01*
X72119742Y-75882500D01*
X72472077Y-75647077D01*
X72789240Y-75172409D01*
X72900613Y-74612500D01*
X72789240Y-74052591D01*
X72472077Y-73577923D01*
X72119742Y-73342500D01*
X72472077Y-73107077D01*
X72789240Y-72632409D01*
X72900613Y-72072500D01*
X72789240Y-71512591D01*
X72472077Y-71037923D01*
X72088392Y-70781553D01*
X72292634Y-70684889D01*
X72668541Y-70269923D01*
X72829404Y-69881539D01*
X72707415Y-69659500D01*
X71564500Y-69659500D01*
X71564500Y-69679500D01*
X71310500Y-69679500D01*
X71310500Y-69659500D01*
X70167585Y-69659500D01*
X70045596Y-69881539D01*
X70206459Y-70269923D01*
X70582366Y-70684889D01*
X70786608Y-70781553D01*
X70402923Y-71037923D01*
X70085760Y-71512591D01*
X69974387Y-72072500D01*
X70085760Y-72632409D01*
X70402923Y-73107077D01*
X70755258Y-73342500D01*
X70402923Y-73577923D01*
X70085760Y-74052591D01*
X69974387Y-74612500D01*
X70085760Y-75172409D01*
X70402923Y-75647077D01*
X70656757Y-75816683D01*
X70309874Y-75673000D01*
X69898126Y-75673000D01*
X69517720Y-75830569D01*
X69226569Y-76121720D01*
X69069000Y-76502126D01*
X69069000Y-76913874D01*
X69226569Y-77294280D01*
X69517720Y-77585431D01*
X69809082Y-77706117D01*
X68095530Y-79419669D01*
X68032071Y-79462071D01*
X67864096Y-79713464D01*
X67820000Y-79935149D01*
X67820000Y-79935153D01*
X67805112Y-80010000D01*
X67820000Y-80084847D01*
X67820001Y-85269144D01*
X67820000Y-85269149D01*
X67820000Y-85496888D01*
X66135801Y-85496888D01*
X65888036Y-85546171D01*
X65677992Y-85686519D01*
X65537644Y-85896563D01*
X65488361Y-86144328D01*
X63381688Y-86144328D01*
X63310667Y-85787281D01*
X62982453Y-85296074D01*
X62491246Y-84967860D01*
X62058084Y-84881699D01*
X61765572Y-84881699D01*
X61332410Y-84967860D01*
X60841203Y-85296074D01*
X60633650Y-85606699D01*
X58110006Y-85606699D01*
X57902453Y-85296074D01*
X57411246Y-84967860D01*
X56978084Y-84881699D01*
X56685572Y-84881699D01*
X56252410Y-84967860D01*
X55761203Y-85296074D01*
X55432989Y-85787281D01*
X55317736Y-86366699D01*
X55432989Y-86946117D01*
X55761203Y-87437324D01*
X55779447Y-87449515D01*
X55734063Y-87458542D01*
X55524019Y-87598890D01*
X55383671Y-87808934D01*
X55334388Y-88056699D01*
X55334388Y-88258216D01*
X55183899Y-88358770D01*
X55141499Y-88422226D01*
X47379852Y-96183874D01*
X47308523Y-96154328D01*
X46658079Y-96154328D01*
X46057148Y-96403242D01*
X45630990Y-96829400D01*
X45595833Y-96816401D01*
X44622906Y-97789328D01*
X45595833Y-98762255D01*
X45630990Y-98749256D01*
X46057148Y-99175414D01*
X46658079Y-99424328D01*
X47308523Y-99424328D01*
X47909454Y-99175414D01*
X48253301Y-98831567D01*
X48597148Y-99175414D01*
X49198079Y-99424328D01*
X49848523Y-99424328D01*
X50014676Y-99355505D01*
X50038827Y-99379656D01*
X50038830Y-99379658D01*
X50257971Y-99598799D01*
X50272137Y-99620000D01*
X43215964Y-99620000D01*
X42557396Y-99553105D01*
X41960218Y-99365961D01*
X41412875Y-99062563D01*
X41272049Y-98941860D01*
X43470374Y-98941860D01*
X43569037Y-99208715D01*
X44178762Y-99435236D01*
X44828761Y-99411184D01*
X45317565Y-99208715D01*
X45416228Y-98941860D01*
X44443301Y-97968933D01*
X43470374Y-98941860D01*
X41272049Y-98941860D01*
X40937711Y-98655299D01*
X40554148Y-98160812D01*
X40277852Y-97599304D01*
X40258443Y-97524789D01*
X42797393Y-97524789D01*
X42821445Y-98174788D01*
X43023914Y-98663592D01*
X43290769Y-98762255D01*
X44263696Y-97789328D01*
X43290769Y-96816401D01*
X43023914Y-96915064D01*
X42797393Y-97524789D01*
X40258443Y-97524789D01*
X40117896Y-96985227D01*
X40091086Y-96636796D01*
X43470374Y-96636796D01*
X44443301Y-97609723D01*
X45416228Y-96636796D01*
X45317565Y-96369941D01*
X44707840Y-96143420D01*
X44057841Y-96167472D01*
X43569037Y-96369941D01*
X43470374Y-96636796D01*
X40091086Y-96636796D01*
X40080000Y-96492730D01*
X40080000Y-83009745D01*
X64195861Y-83009745D01*
X64269995Y-83255864D01*
X64807223Y-83448965D01*
X65377454Y-83421778D01*
X65778005Y-83255864D01*
X65852139Y-83009745D01*
X65024000Y-82181605D01*
X64195861Y-83009745D01*
X40080000Y-83009745D01*
X40080000Y-81785223D01*
X63577035Y-81785223D01*
X63604222Y-82355454D01*
X63770136Y-82756005D01*
X64016255Y-82830139D01*
X64844395Y-82002000D01*
X65203605Y-82002000D01*
X66031745Y-82830139D01*
X66277864Y-82756005D01*
X66470965Y-82218777D01*
X66443778Y-81648546D01*
X66277864Y-81247995D01*
X66031745Y-81173861D01*
X65203605Y-82002000D01*
X64844395Y-82002000D01*
X64016255Y-81173861D01*
X63770136Y-81247995D01*
X63577035Y-81785223D01*
X40080000Y-81785223D01*
X40080000Y-79217006D01*
X57987500Y-79217006D01*
X57987500Y-79767994D01*
X58198353Y-80277040D01*
X58587960Y-80666647D01*
X59097006Y-80877500D01*
X59647994Y-80877500D01*
X60157040Y-80666647D01*
X60546647Y-80277040D01*
X60757500Y-79767994D01*
X60757500Y-79217006D01*
X60757316Y-79216561D01*
X63589000Y-79216561D01*
X63589000Y-79787439D01*
X63807466Y-80314862D01*
X64211138Y-80718534D01*
X64276299Y-80745525D01*
X64269995Y-80748136D01*
X64195861Y-80994255D01*
X65024000Y-81822395D01*
X65852139Y-80994255D01*
X65778005Y-80748136D01*
X65771254Y-80745710D01*
X65836862Y-80718534D01*
X66240534Y-80314862D01*
X66459000Y-79787439D01*
X66459000Y-79216561D01*
X66240534Y-78689138D01*
X65836862Y-78285466D01*
X65309439Y-78067000D01*
X64738561Y-78067000D01*
X64211138Y-78285466D01*
X63807466Y-78689138D01*
X63589000Y-79216561D01*
X60757316Y-79216561D01*
X60546647Y-78707960D01*
X60157040Y-78318353D01*
X59647994Y-78107500D01*
X59097006Y-78107500D01*
X58587960Y-78318353D01*
X58198353Y-78707960D01*
X57987500Y-79217006D01*
X40080000Y-79217006D01*
X40080000Y-74337006D01*
X57987500Y-74337006D01*
X57987500Y-74887994D01*
X58198353Y-75397040D01*
X58587960Y-75786647D01*
X59097006Y-75997500D01*
X59647994Y-75997500D01*
X60157040Y-75786647D01*
X60546647Y-75397040D01*
X60757500Y-74887994D01*
X60757500Y-74337006D01*
X60753381Y-74327061D01*
X63589000Y-74327061D01*
X63589000Y-74897939D01*
X63807466Y-75425362D01*
X64211138Y-75829034D01*
X64738561Y-76047500D01*
X65309439Y-76047500D01*
X65836862Y-75829034D01*
X66240534Y-75425362D01*
X66459000Y-74897939D01*
X66459000Y-74327061D01*
X66240534Y-73799638D01*
X65836862Y-73395966D01*
X65771701Y-73368975D01*
X65778005Y-73366364D01*
X65852139Y-73120245D01*
X65024000Y-72292105D01*
X64195861Y-73120245D01*
X64269995Y-73366364D01*
X64276746Y-73368790D01*
X64211138Y-73395966D01*
X63807466Y-73799638D01*
X63589000Y-74327061D01*
X60753381Y-74327061D01*
X60546647Y-73827960D01*
X60157040Y-73438353D01*
X59647994Y-73227500D01*
X59097006Y-73227500D01*
X58587960Y-73438353D01*
X58198353Y-73827960D01*
X57987500Y-74337006D01*
X40080000Y-74337006D01*
X40080000Y-71895723D01*
X63577035Y-71895723D01*
X63604222Y-72465954D01*
X63770136Y-72866505D01*
X64016255Y-72940639D01*
X64844395Y-72112500D01*
X65203605Y-72112500D01*
X66031745Y-72940639D01*
X66277864Y-72866505D01*
X66470965Y-72329277D01*
X66443778Y-71759046D01*
X66277864Y-71358495D01*
X66031745Y-71284361D01*
X65203605Y-72112500D01*
X64844395Y-72112500D01*
X64016255Y-71284361D01*
X63770136Y-71358495D01*
X63577035Y-71895723D01*
X40080000Y-71895723D01*
X40080000Y-71104755D01*
X64195861Y-71104755D01*
X65024000Y-71932895D01*
X65852139Y-71104755D01*
X65778005Y-70858636D01*
X65240777Y-70665535D01*
X64670546Y-70692722D01*
X64269995Y-70858636D01*
X64195861Y-71104755D01*
X40080000Y-71104755D01*
X40080000Y-68730245D01*
X64894361Y-68730245D01*
X64968495Y-68976364D01*
X65505723Y-69169465D01*
X66075954Y-69142278D01*
X66476505Y-68976364D01*
X66550639Y-68730245D01*
X65722500Y-67902105D01*
X64894361Y-68730245D01*
X40080000Y-68730245D01*
X40080000Y-64922500D01*
X64275060Y-64922500D01*
X64275060Y-66522500D01*
X64324343Y-66770265D01*
X64464495Y-66980016D01*
X64275535Y-67505723D01*
X64302722Y-68075954D01*
X64468636Y-68476505D01*
X64714755Y-68550639D01*
X65542895Y-67722500D01*
X65528752Y-67708358D01*
X65708358Y-67528753D01*
X65722500Y-67542895D01*
X65736643Y-67528753D01*
X65916248Y-67708358D01*
X65902105Y-67722500D01*
X66730245Y-68550639D01*
X66976364Y-68476505D01*
X67169465Y-67939277D01*
X67142278Y-67369046D01*
X66980895Y-66979433D01*
X67120657Y-66770265D01*
X67169940Y-66522500D01*
X67169940Y-64922500D01*
X67120657Y-64674735D01*
X66980309Y-64464691D01*
X66770265Y-64324343D01*
X66522500Y-64275060D01*
X64922500Y-64275060D01*
X64674735Y-64324343D01*
X64464691Y-64464691D01*
X64324343Y-64674735D01*
X64275060Y-64922500D01*
X40080000Y-64922500D01*
X40080000Y-56824106D01*
X42808301Y-56824106D01*
X42808301Y-57474550D01*
X43057215Y-58075481D01*
X43517148Y-58535414D01*
X44118079Y-58784328D01*
X44768523Y-58784328D01*
X45369454Y-58535414D01*
X45713301Y-58191567D01*
X46057148Y-58535414D01*
X46658079Y-58784328D01*
X47308523Y-58784328D01*
X47909454Y-58535414D01*
X48253301Y-58191567D01*
X48597148Y-58535414D01*
X49198079Y-58784328D01*
X49848523Y-58784328D01*
X50014676Y-58715505D01*
X52331147Y-61031977D01*
X52373545Y-61095430D01*
X52436998Y-61137828D01*
X52437000Y-61137830D01*
X52528693Y-61199097D01*
X52624937Y-61263405D01*
X52846622Y-61307501D01*
X52846626Y-61307501D01*
X52921473Y-61322389D01*
X52996320Y-61307501D01*
X60530754Y-61307501D01*
X60513661Y-61333082D01*
X60398408Y-61912500D01*
X60513661Y-62491918D01*
X60841875Y-62983125D01*
X61333082Y-63311339D01*
X61766244Y-63397500D01*
X62058756Y-63397500D01*
X62491918Y-63311339D01*
X62983125Y-62983125D01*
X63311339Y-62491918D01*
X63426592Y-61912500D01*
X63311339Y-61333082D01*
X63294246Y-61307501D01*
X70115888Y-61307501D01*
X70085760Y-61352591D01*
X69974387Y-61912500D01*
X70085760Y-62472409D01*
X70402923Y-62947077D01*
X70755258Y-63182500D01*
X70402923Y-63417923D01*
X70085760Y-63892591D01*
X69974387Y-64452500D01*
X70085760Y-65012409D01*
X70402923Y-65487077D01*
X70755258Y-65722500D01*
X70402923Y-65957923D01*
X70085760Y-66432591D01*
X69974387Y-66992500D01*
X70085760Y-67552409D01*
X70402923Y-68027077D01*
X70786608Y-68283447D01*
X70582366Y-68380111D01*
X70206459Y-68795077D01*
X70045596Y-69183461D01*
X70167585Y-69405500D01*
X71310500Y-69405500D01*
X71310500Y-69385500D01*
X71564500Y-69385500D01*
X71564500Y-69405500D01*
X72707415Y-69405500D01*
X72829404Y-69183461D01*
X72668541Y-68795077D01*
X72292634Y-68380111D01*
X72088392Y-68283447D01*
X72472077Y-68027077D01*
X72789240Y-67552409D01*
X72900613Y-66992500D01*
X72789240Y-66432591D01*
X72472077Y-65957923D01*
X72119742Y-65722500D01*
X72472077Y-65487077D01*
X72789240Y-65012409D01*
X72900613Y-64452500D01*
X72789240Y-63892591D01*
X72472077Y-63417923D01*
X72119742Y-63182500D01*
X72472077Y-62947077D01*
X72789240Y-62472409D01*
X72900613Y-61912500D01*
X72789240Y-61352591D01*
X72472077Y-60877923D01*
X72119742Y-60642500D01*
X72472077Y-60407077D01*
X72789240Y-59932409D01*
X72900613Y-59372500D01*
X72789240Y-58812591D01*
X72472077Y-58337923D01*
X72119742Y-58102500D01*
X72472077Y-57867077D01*
X72789240Y-57392409D01*
X72900613Y-56832500D01*
X72789240Y-56272591D01*
X72472077Y-55797923D01*
X72119742Y-55562500D01*
X72472077Y-55327077D01*
X72789240Y-54852409D01*
X72900613Y-54292500D01*
X72789240Y-53732591D01*
X72472077Y-53257923D01*
X72351394Y-53177285D01*
X72485265Y-53150657D01*
X72695309Y-53010309D01*
X72835657Y-52800265D01*
X72884940Y-52552500D01*
X72884940Y-51752500D01*
X77594387Y-51752500D01*
X77705760Y-52312409D01*
X78022923Y-52787077D01*
X78375258Y-53022500D01*
X78022923Y-53257923D01*
X77705760Y-53732591D01*
X77594387Y-54292500D01*
X77705760Y-54852409D01*
X78022923Y-55327077D01*
X78375258Y-55562500D01*
X78022923Y-55797923D01*
X77705760Y-56272591D01*
X77594387Y-56832500D01*
X77705760Y-57392409D01*
X78022923Y-57867077D01*
X78375258Y-58102500D01*
X78022923Y-58337923D01*
X77705760Y-58812591D01*
X77594387Y-59372500D01*
X77705760Y-59932409D01*
X78022923Y-60407077D01*
X78375258Y-60642500D01*
X78022923Y-60877923D01*
X77705760Y-61352591D01*
X77594387Y-61912500D01*
X77705760Y-62472409D01*
X78022923Y-62947077D01*
X78375258Y-63182500D01*
X78022923Y-63417923D01*
X77705760Y-63892591D01*
X77594387Y-64452500D01*
X77705760Y-65012409D01*
X78022923Y-65487077D01*
X78406608Y-65743447D01*
X78202366Y-65840111D01*
X77826459Y-66255077D01*
X77665596Y-66643461D01*
X77787585Y-66865500D01*
X78930500Y-66865500D01*
X78930500Y-66845500D01*
X79184500Y-66845500D01*
X79184500Y-66865500D01*
X80327415Y-66865500D01*
X80449404Y-66643461D01*
X80288541Y-66255077D01*
X79912634Y-65840111D01*
X79708392Y-65743447D01*
X80092077Y-65487077D01*
X80409240Y-65012409D01*
X80520613Y-64452500D01*
X80409240Y-63892591D01*
X80092077Y-63417923D01*
X79739742Y-63182500D01*
X80092077Y-62947077D01*
X80409240Y-62472409D01*
X80520613Y-61912500D01*
X80409240Y-61352591D01*
X80092077Y-60877923D01*
X79739742Y-60642500D01*
X80092077Y-60407077D01*
X80409240Y-59932409D01*
X80520613Y-59372500D01*
X80409240Y-58812591D01*
X80092077Y-58337923D01*
X79739742Y-58102500D01*
X80092077Y-57867077D01*
X80409240Y-57392409D01*
X80520613Y-56832500D01*
X85798408Y-56832500D01*
X85913661Y-57411918D01*
X86241875Y-57903125D01*
X86540261Y-58102500D01*
X86241875Y-58301875D01*
X85913661Y-58793082D01*
X85798408Y-59372500D01*
X85913661Y-59951918D01*
X86241875Y-60443125D01*
X86540261Y-60642500D01*
X86241875Y-60841875D01*
X85913661Y-61333082D01*
X85798408Y-61912500D01*
X85913661Y-62491918D01*
X86241875Y-62983125D01*
X86540261Y-63182500D01*
X86241875Y-63381875D01*
X85913661Y-63873082D01*
X85798408Y-64452500D01*
X85913661Y-65031918D01*
X86241875Y-65523125D01*
X86733082Y-65851339D01*
X87166244Y-65937500D01*
X87458756Y-65937500D01*
X87891918Y-65851339D01*
X88383125Y-65523125D01*
X88711339Y-65031918D01*
X88826592Y-64452500D01*
X88711339Y-63873082D01*
X88383125Y-63381875D01*
X88084739Y-63182500D01*
X88383125Y-62983125D01*
X88711339Y-62491918D01*
X88826592Y-61912500D01*
X88711339Y-61333082D01*
X88383125Y-60841875D01*
X88084739Y-60642500D01*
X88383125Y-60443125D01*
X88711339Y-59951918D01*
X88826592Y-59372500D01*
X88711339Y-58793082D01*
X88383125Y-58301875D01*
X88084739Y-58102500D01*
X88383125Y-57903125D01*
X88711339Y-57411918D01*
X88826592Y-56832500D01*
X88711339Y-56253082D01*
X88383125Y-55761875D01*
X88364881Y-55749684D01*
X88410265Y-55740657D01*
X88620309Y-55600309D01*
X88760657Y-55390265D01*
X88809940Y-55142500D01*
X88809940Y-53442500D01*
X88760657Y-53194735D01*
X88620309Y-52984691D01*
X88410265Y-52844343D01*
X88162500Y-52795060D01*
X86462500Y-52795060D01*
X86214735Y-52844343D01*
X86004691Y-52984691D01*
X85864343Y-53194735D01*
X85815060Y-53442500D01*
X85815060Y-55142500D01*
X85864343Y-55390265D01*
X86004691Y-55600309D01*
X86214735Y-55740657D01*
X86260119Y-55749684D01*
X86241875Y-55761875D01*
X85913661Y-56253082D01*
X85798408Y-56832500D01*
X80520613Y-56832500D01*
X80409240Y-56272591D01*
X80092077Y-55797923D01*
X79739742Y-55562500D01*
X80092077Y-55327077D01*
X80409240Y-54852409D01*
X80520613Y-54292500D01*
X80409240Y-53732591D01*
X80092077Y-53257923D01*
X79739742Y-53022500D01*
X80092077Y-52787077D01*
X80409240Y-52312409D01*
X80520613Y-51752500D01*
X80409240Y-51192591D01*
X80146920Y-50800000D01*
X120872500Y-50800000D01*
X120985927Y-51516147D01*
X121315103Y-52162192D01*
X121827808Y-52674897D01*
X122473853Y-53004073D01*
X123190000Y-53117500D01*
X123906147Y-53004073D01*
X124552192Y-52674897D01*
X125064897Y-52162192D01*
X125394073Y-51516147D01*
X125507500Y-50800000D01*
X125394073Y-50083853D01*
X125064897Y-49437808D01*
X124552192Y-48925103D01*
X123906147Y-48595927D01*
X123190000Y-48482500D01*
X122473853Y-48595927D01*
X121827808Y-48925103D01*
X121315103Y-49437808D01*
X120985927Y-50083853D01*
X120872500Y-50800000D01*
X80146920Y-50800000D01*
X80092077Y-50717923D01*
X79617409Y-50400760D01*
X79198833Y-50317500D01*
X78916167Y-50317500D01*
X78497591Y-50400760D01*
X78022923Y-50717923D01*
X77705760Y-51192591D01*
X77594387Y-51752500D01*
X72884940Y-51752500D01*
X72884940Y-50952500D01*
X72835657Y-50704735D01*
X72695309Y-50494691D01*
X72485265Y-50354343D01*
X72237500Y-50305060D01*
X70637500Y-50305060D01*
X70389735Y-50354343D01*
X70179691Y-50494691D01*
X70039343Y-50704735D01*
X69990060Y-50952500D01*
X69990060Y-50992500D01*
X68230930Y-50992500D01*
X68209034Y-50939638D01*
X67805362Y-50535966D01*
X67277939Y-50317500D01*
X66707061Y-50317500D01*
X66179638Y-50535966D01*
X65775966Y-50939638D01*
X65754070Y-50992500D01*
X63409940Y-50992500D01*
X63409940Y-50902500D01*
X63360657Y-50654735D01*
X63220309Y-50444691D01*
X63010265Y-50304343D01*
X62762500Y-50255060D01*
X61346555Y-50255060D01*
X61329431Y-50213720D01*
X61038280Y-49922569D01*
X60657874Y-49765000D01*
X60246126Y-49765000D01*
X59865720Y-49922569D01*
X59574569Y-50213720D01*
X59417000Y-50594126D01*
X59417000Y-51005874D01*
X59574569Y-51386280D01*
X59865720Y-51677431D01*
X60246126Y-51835000D01*
X60415060Y-51835000D01*
X60415060Y-52602500D01*
X60464343Y-52850265D01*
X60604691Y-53060309D01*
X60814735Y-53200657D01*
X60860119Y-53209684D01*
X60841875Y-53221875D01*
X60513661Y-53713082D01*
X60398408Y-54292500D01*
X60513661Y-54871918D01*
X60841875Y-55363125D01*
X61140261Y-55562500D01*
X60841875Y-55761875D01*
X60634322Y-56072500D01*
X55877302Y-56072500D01*
X55144658Y-55339857D01*
X55102256Y-55276398D01*
X54850864Y-55108423D01*
X54629179Y-55064327D01*
X54629174Y-55064327D01*
X54554327Y-55049439D01*
X54479480Y-55064327D01*
X51503711Y-55064327D01*
X51386280Y-54946896D01*
X51005874Y-54789327D01*
X50594126Y-54789327D01*
X50213720Y-54946896D01*
X50096289Y-55064327D01*
X45843148Y-55064327D01*
X45768301Y-55049439D01*
X45693454Y-55064327D01*
X45693450Y-55064327D01*
X45471765Y-55108423D01*
X45220373Y-55276398D01*
X45177971Y-55339857D01*
X44958830Y-55558998D01*
X44958827Y-55559000D01*
X44934676Y-55583151D01*
X44768523Y-55514328D01*
X44118079Y-55514328D01*
X43517148Y-55763242D01*
X43057215Y-56223175D01*
X42808301Y-56824106D01*
X40080000Y-56824106D01*
X40080000Y-50835964D01*
X40083653Y-50800000D01*
X40862500Y-50800000D01*
X40975927Y-51516147D01*
X41305103Y-52162192D01*
X41817808Y-52674897D01*
X42463853Y-53004073D01*
X43180000Y-53117500D01*
X43896147Y-53004073D01*
X44542192Y-52674897D01*
X44829589Y-52387500D01*
X50924387Y-52387500D01*
X51035760Y-52947409D01*
X51352923Y-53422077D01*
X51827591Y-53739240D01*
X52246167Y-53822500D01*
X52528833Y-53822500D01*
X52947409Y-53739240D01*
X53422077Y-53422077D01*
X53657106Y-53070332D01*
X53710966Y-53200362D01*
X54114638Y-53604034D01*
X54642061Y-53822500D01*
X55212939Y-53822500D01*
X55740362Y-53604034D01*
X56144034Y-53200362D01*
X56362500Y-52672939D01*
X56362500Y-52102061D01*
X56144034Y-51574638D01*
X55740362Y-51170966D01*
X55212939Y-50952500D01*
X54642061Y-50952500D01*
X54114638Y-51170966D01*
X53710966Y-51574638D01*
X53657106Y-51704668D01*
X53422077Y-51352923D01*
X52947409Y-51035760D01*
X52528833Y-50952500D01*
X52246167Y-50952500D01*
X51827591Y-51035760D01*
X51352923Y-51352923D01*
X51035760Y-51827591D01*
X50924387Y-52387500D01*
X44829589Y-52387500D01*
X45054897Y-52162192D01*
X45384073Y-51516147D01*
X45497500Y-50800000D01*
X45384073Y-50083853D01*
X45054897Y-49437808D01*
X44542192Y-48925103D01*
X43896147Y-48595927D01*
X43180000Y-48482500D01*
X42463853Y-48595927D01*
X41817808Y-48925103D01*
X41305103Y-49437808D01*
X40975927Y-50083853D01*
X40862500Y-50800000D01*
X40083653Y-50800000D01*
X40146895Y-50177396D01*
X40334039Y-49580218D01*
X40637436Y-49032876D01*
X41044701Y-48557711D01*
X41539188Y-48174148D01*
X42100700Y-47897850D01*
X42714774Y-47737896D01*
X43207270Y-47700000D01*
X123154036Y-47700000D01*
X123812604Y-47766895D01*
X123812604Y-47766895D01*
G37*
X123812604Y-47766895D02*
X124409782Y-47954039D01*
X124957124Y-48257436D01*
X125432289Y-48664701D01*
X125815852Y-49159188D01*
X126092150Y-49720700D01*
X126252104Y-50334774D01*
X126290000Y-50827270D01*
X126290001Y-112757000D01*
X126286126Y-112757000D01*
X125905720Y-112914569D01*
X125614569Y-113205720D01*
X125457000Y-113586126D01*
X125457000Y-113997874D01*
X125612725Y-114373829D01*
X125097945Y-114029864D01*
X124621031Y-113935000D01*
X115612239Y-113935000D01*
X115108475Y-113431236D01*
X115177431Y-113362280D01*
X115335000Y-112981874D01*
X115335000Y-112570126D01*
X115177431Y-112189720D01*
X114886280Y-111898569D01*
X114505874Y-111741000D01*
X114094126Y-111741000D01*
X113713720Y-111898569D01*
X113422569Y-112189720D01*
X113265000Y-112570126D01*
X113265000Y-112712534D01*
X113027055Y-112759865D01*
X112508908Y-113106080D01*
X112432809Y-112992191D01*
X112222765Y-112851843D01*
X111975000Y-112802560D01*
X110275000Y-112802560D01*
X110027235Y-112851843D01*
X109817191Y-112992191D01*
X109676843Y-113202235D01*
X109627560Y-113450000D01*
X109627560Y-115150000D01*
X109676843Y-115397765D01*
X109817191Y-115607809D01*
X110027235Y-115748157D01*
X110275000Y-115797440D01*
X111975000Y-115797440D01*
X112222765Y-115748157D01*
X112432809Y-115607809D01*
X112524038Y-115471276D01*
X113527761Y-116475000D01*
X113503969Y-116475000D01*
X113027055Y-116569864D01*
X112486231Y-116931231D01*
X112274731Y-117247763D01*
X112159577Y-117075423D01*
X111684909Y-116758260D01*
X111266333Y-116675000D01*
X110983667Y-116675000D01*
X110565091Y-116758260D01*
X110090423Y-117075423D01*
X109773260Y-117550091D01*
X109661887Y-118110000D01*
X109773260Y-118669909D01*
X110090423Y-119144577D01*
X110367713Y-119329856D01*
X110409097Y-119537907D01*
X110487648Y-119655466D01*
X110577072Y-119789299D01*
X110640527Y-119831699D01*
X111319513Y-120510685D01*
X110640530Y-121189669D01*
X110577071Y-121232071D01*
X110409096Y-121483464D01*
X110408080Y-121488572D01*
X110063687Y-121718687D01*
X109807305Y-122102391D01*
X109717275Y-122555000D01*
X109807305Y-123007609D01*
X109845652Y-123065000D01*
X109294846Y-123065000D01*
X109219999Y-123050112D01*
X109145152Y-123065000D01*
X109145148Y-123065000D01*
X108923463Y-123109096D01*
X108923461Y-123109097D01*
X108923462Y-123109097D01*
X108735526Y-123234671D01*
X108735524Y-123234673D01*
X108672071Y-123277071D01*
X108629673Y-123340524D01*
X107018302Y-124951897D01*
X106965439Y-124930000D01*
X106394561Y-124930000D01*
X106100558Y-125051780D01*
X106033431Y-124889720D01*
X105742280Y-124598569D01*
X105361874Y-124441000D01*
X104950126Y-124441000D01*
X104569720Y-124598569D01*
X104278569Y-124889720D01*
X104261885Y-124930000D01*
X103998667Y-124930000D01*
X103580091Y-125013260D01*
X103105423Y-125330423D01*
X102788260Y-125805091D01*
X102676887Y-126365000D01*
X102788260Y-126924909D01*
X103105423Y-127399577D01*
X103580091Y-127716740D01*
X103998667Y-127800000D01*
X104281333Y-127800000D01*
X104699909Y-127716740D01*
X105174577Y-127399577D01*
X105409606Y-127047832D01*
X105463466Y-127177862D01*
X105867138Y-127581534D01*
X106394561Y-127800000D01*
X106965439Y-127800000D01*
X107492862Y-127581534D01*
X107656173Y-127418223D01*
X114758035Y-127418223D01*
X114785222Y-127988454D01*
X114951136Y-128389005D01*
X115197255Y-128463139D01*
X116025395Y-127635000D01*
X116384605Y-127635000D01*
X117212745Y-128463139D01*
X117458864Y-128389005D01*
X117651965Y-127851777D01*
X117624778Y-127281546D01*
X117508158Y-127000000D01*
X120872500Y-127000000D01*
X120985927Y-127716147D01*
X121315103Y-128362192D01*
X121827808Y-128874897D01*
X122473853Y-129204073D01*
X123190000Y-129317500D01*
X123906147Y-129204073D01*
X124552192Y-128874897D01*
X125064897Y-128362192D01*
X125394073Y-127716147D01*
X125507500Y-127000000D01*
X125394073Y-126283853D01*
X125064897Y-125637808D01*
X124552192Y-125125103D01*
X123906147Y-124795927D01*
X123190000Y-124682500D01*
X122473853Y-124795927D01*
X121827808Y-125125103D01*
X121315103Y-125637808D01*
X120985927Y-126283853D01*
X120872500Y-127000000D01*
X117508158Y-127000000D01*
X117458864Y-126880995D01*
X117212745Y-126806861D01*
X116384605Y-127635000D01*
X116025395Y-127635000D01*
X115197255Y-126806861D01*
X114951136Y-126880995D01*
X114758035Y-127418223D01*
X107656173Y-127418223D01*
X107896534Y-127177862D01*
X108115000Y-126650439D01*
X108115000Y-126079561D01*
X108093103Y-126026698D01*
X108739051Y-125380750D01*
X109740000Y-125380750D01*
X109740000Y-125746309D01*
X109836673Y-125979698D01*
X110015301Y-126158327D01*
X110248690Y-126255000D01*
X110839250Y-126255000D01*
X110998000Y-126096250D01*
X110998000Y-125222000D01*
X111252000Y-125222000D01*
X111252000Y-126096250D01*
X111410750Y-126255000D01*
X112001310Y-126255000D01*
X112234699Y-126158327D01*
X112413327Y-125979698D01*
X112510000Y-125746309D01*
X112510000Y-125380750D01*
X112351250Y-125222000D01*
X111252000Y-125222000D01*
X110998000Y-125222000D01*
X109898750Y-125222000D01*
X109740000Y-125380750D01*
X108739051Y-125380750D01*
X109534803Y-124585000D01*
X109740000Y-124585000D01*
X109740000Y-124809250D01*
X109898750Y-124968000D01*
X110700290Y-124968000D01*
X110785754Y-124985000D01*
X111464246Y-124985000D01*
X111549710Y-124968000D01*
X112351250Y-124968000D01*
X112510000Y-124809250D01*
X112510000Y-124585000D01*
X114620199Y-124585000D01*
X114806312Y-124771113D01*
X114741887Y-125095000D01*
X114853260Y-125654909D01*
X115170423Y-126129577D01*
X115510203Y-126356611D01*
X115450995Y-126381136D01*
X115376861Y-126627255D01*
X116205000Y-127455395D01*
X117033139Y-126627255D01*
X116959005Y-126381136D01*
X116896641Y-126358720D01*
X117239577Y-126129577D01*
X117556740Y-125654909D01*
X117668113Y-125095000D01*
X117556740Y-124535091D01*
X117239577Y-124060423D01*
X116764909Y-123743260D01*
X116346333Y-123660000D01*
X116063667Y-123660000D01*
X115881114Y-123696312D01*
X115525331Y-123340530D01*
X115482929Y-123277071D01*
X115231537Y-123109096D01*
X115009852Y-123065000D01*
X115009847Y-123065000D01*
X114935000Y-123050112D01*
X114860153Y-123065000D01*
X112404348Y-123065000D01*
X112442695Y-123007609D01*
X112532725Y-122555000D01*
X112442695Y-122102391D01*
X112216274Y-121763528D01*
X112569803Y-121410000D01*
X118367560Y-121410000D01*
X118367560Y-121602500D01*
X118416843Y-121850265D01*
X118557191Y-122060309D01*
X118767235Y-122200657D01*
X119015000Y-122249940D01*
X121015000Y-122249940D01*
X121262765Y-122200657D01*
X121472809Y-122060309D01*
X121613157Y-121850265D01*
X121662440Y-121602500D01*
X121662440Y-119697500D01*
X121613157Y-119449735D01*
X121472809Y-119239691D01*
X121302568Y-119125939D01*
X121555136Y-118747945D01*
X121625191Y-118395750D01*
X122975000Y-118395750D01*
X122975000Y-119086310D01*
X123071673Y-119319699D01*
X123250302Y-119498327D01*
X123483691Y-119595000D01*
X124174250Y-119595000D01*
X124333000Y-119436250D01*
X124333000Y-118237000D01*
X124587000Y-118237000D01*
X124587000Y-119436250D01*
X124745750Y-119595000D01*
X125436309Y-119595000D01*
X125669698Y-119498327D01*
X125848327Y-119319699D01*
X125945000Y-119086310D01*
X125945000Y-118395750D01*
X125786250Y-118237000D01*
X124587000Y-118237000D01*
X124333000Y-118237000D01*
X123133750Y-118237000D01*
X122975000Y-118395750D01*
X121625191Y-118395750D01*
X121682031Y-118110000D01*
X121555136Y-117472055D01*
X121376696Y-117205000D01*
X122975000Y-117205000D01*
X122975000Y-117824250D01*
X123133750Y-117983000D01*
X124333000Y-117983000D01*
X124333000Y-117963000D01*
X124587000Y-117963000D01*
X124587000Y-117983000D01*
X125786250Y-117983000D01*
X125945000Y-117824250D01*
X125945000Y-117733701D01*
X126286126Y-117875000D01*
X126290001Y-117875000D01*
X126290001Y-126964026D01*
X126223105Y-127622604D01*
X126035961Y-128219782D01*
X125732563Y-128767125D01*
X125325299Y-129242289D01*
X124830812Y-129625852D01*
X124269304Y-129902148D01*
X123655227Y-130062104D01*
X123162730Y-130100000D01*
X92745964Y-130100000D01*
X92087396Y-130033105D01*
X91490218Y-129845961D01*
X90942875Y-129542563D01*
X90467711Y-129135299D01*
X90084148Y-128640812D01*
X89807852Y-128079304D01*
X89647896Y-127465227D01*
X89612099Y-127000000D01*
X90392500Y-127000000D01*
X90505927Y-127716147D01*
X90835103Y-128362192D01*
X91347808Y-128874897D01*
X91993853Y-129204073D01*
X92710000Y-129317500D01*
X93426147Y-129204073D01*
X94072192Y-128874897D01*
X94304344Y-128642745D01*
X115376861Y-128642745D01*
X115450995Y-128888864D01*
X115988223Y-129081965D01*
X116558454Y-129054778D01*
X116959005Y-128888864D01*
X117033139Y-128642745D01*
X116205000Y-127814605D01*
X115376861Y-128642745D01*
X94304344Y-128642745D01*
X94584897Y-128362192D01*
X94914073Y-127716147D01*
X95027500Y-127000000D01*
X94914073Y-126283853D01*
X94584897Y-125637808D01*
X94072192Y-125125103D01*
X93426147Y-124795927D01*
X92710000Y-124682500D01*
X91993853Y-124795927D01*
X91347808Y-125125103D01*
X90835103Y-125637808D01*
X90505927Y-126283853D01*
X90392500Y-127000000D01*
X89612099Y-127000000D01*
X89610000Y-126972730D01*
X89610000Y-120015000D01*
X91195908Y-120015000D01*
X91311161Y-120594418D01*
X91639375Y-121085625D01*
X92130582Y-121413839D01*
X92563744Y-121500000D01*
X92856256Y-121500000D01*
X93289418Y-121413839D01*
X93780625Y-121085625D01*
X93792816Y-121067381D01*
X93801843Y-121112765D01*
X93942191Y-121322809D01*
X94152235Y-121463157D01*
X94400000Y-121512440D01*
X96100000Y-121512440D01*
X96347765Y-121463157D01*
X96557809Y-121322809D01*
X96698157Y-121112765D01*
X96747440Y-120865000D01*
X96747440Y-120015000D01*
X101406887Y-120015000D01*
X101518260Y-120574909D01*
X101835423Y-121049577D01*
X102310091Y-121366740D01*
X102728667Y-121450000D01*
X103011333Y-121450000D01*
X103429909Y-121366740D01*
X103904577Y-121049577D01*
X104139606Y-120697832D01*
X104193466Y-120827862D01*
X104597138Y-121231534D01*
X105124561Y-121450000D01*
X105695439Y-121450000D01*
X106222862Y-121231534D01*
X106626534Y-120827862D01*
X106845000Y-120300439D01*
X106845000Y-119729561D01*
X106626534Y-119202138D01*
X106222862Y-118798466D01*
X105695439Y-118580000D01*
X105124561Y-118580000D01*
X104597138Y-118798466D01*
X104193466Y-119202138D01*
X104139606Y-119332168D01*
X103904577Y-118980423D01*
X103429909Y-118663260D01*
X103011333Y-118580000D01*
X102728667Y-118580000D01*
X102310091Y-118663260D01*
X101835423Y-118980423D01*
X101518260Y-119455091D01*
X101406887Y-120015000D01*
X96747440Y-120015000D01*
X96747440Y-119165000D01*
X96698157Y-118917235D01*
X96557809Y-118707191D01*
X96347765Y-118566843D01*
X96100000Y-118517560D01*
X94400000Y-118517560D01*
X94152235Y-118566843D01*
X93942191Y-118707191D01*
X93801843Y-118917235D01*
X93792816Y-118962619D01*
X93780625Y-118944375D01*
X93289418Y-118616161D01*
X92856256Y-118530000D01*
X92563744Y-118530000D01*
X92130582Y-118616161D01*
X91639375Y-118944375D01*
X91311161Y-119435582D01*
X91195908Y-120015000D01*
X89610000Y-120015000D01*
X89610000Y-115570000D01*
X93481010Y-115570000D01*
X93615666Y-116246963D01*
X93999135Y-116820865D01*
X94573037Y-117204334D01*
X95079120Y-117305000D01*
X95420880Y-117305000D01*
X95926963Y-117204334D01*
X96500865Y-116820865D01*
X96884334Y-116246963D01*
X97018990Y-115570000D01*
X96884334Y-114893037D01*
X96601670Y-114470000D01*
X103662560Y-114470000D01*
X103662560Y-116670000D01*
X103711843Y-116917765D01*
X103852191Y-117127809D01*
X104062235Y-117268157D01*
X104310000Y-117317440D01*
X106510000Y-117317440D01*
X106757765Y-117268157D01*
X106967809Y-117127809D01*
X107108157Y-116917765D01*
X107157440Y-116670000D01*
X107157440Y-114470000D01*
X107108157Y-114222235D01*
X106967809Y-114012191D01*
X106757765Y-113871843D01*
X106510000Y-113822560D01*
X104310000Y-113822560D01*
X104062235Y-113871843D01*
X103852191Y-114012191D01*
X103711843Y-114222235D01*
X103662560Y-114470000D01*
X96601670Y-114470000D01*
X96500865Y-114319135D01*
X95926963Y-113935666D01*
X95420880Y-113835000D01*
X95079120Y-113835000D01*
X94573037Y-113935666D01*
X93999135Y-114319135D01*
X93615666Y-114893037D01*
X93481010Y-115570000D01*
X89610000Y-115570000D01*
X89610000Y-108885848D01*
X93151861Y-108885848D01*
X93225995Y-109131967D01*
X93763223Y-109325068D01*
X94333454Y-109297881D01*
X94734005Y-109131967D01*
X94786482Y-108957745D01*
X115376861Y-108957745D01*
X115450995Y-109203864D01*
X115988223Y-109396965D01*
X116558454Y-109369778D01*
X116959005Y-109203864D01*
X117033139Y-108957745D01*
X116205000Y-108129605D01*
X115376861Y-108957745D01*
X94786482Y-108957745D01*
X94808139Y-108885848D01*
X93980000Y-108057708D01*
X93151861Y-108885848D01*
X89610000Y-108885848D01*
X89610000Y-105078103D01*
X92532560Y-105078103D01*
X92532560Y-106678103D01*
X92581843Y-106925868D01*
X92721995Y-107135619D01*
X92533035Y-107661326D01*
X92560222Y-108231557D01*
X92726136Y-108632108D01*
X92972255Y-108706242D01*
X93800395Y-107878103D01*
X93786252Y-107863961D01*
X93965858Y-107684356D01*
X93980000Y-107698498D01*
X93994143Y-107684356D01*
X94173748Y-107863961D01*
X94159605Y-107878103D01*
X94987745Y-108706242D01*
X95233864Y-108632108D01*
X95426965Y-108094880D01*
X95399778Y-107524649D01*
X95238395Y-107135036D01*
X95378157Y-106925868D01*
X95427440Y-106678103D01*
X95427440Y-105078103D01*
X95378157Y-104830338D01*
X95237809Y-104620294D01*
X95027765Y-104479946D01*
X94780000Y-104430663D01*
X93180000Y-104430663D01*
X92932235Y-104479946D01*
X92722191Y-104620294D01*
X92581843Y-104830338D01*
X92532560Y-105078103D01*
X89610000Y-105078103D01*
X89610000Y-104070074D01*
X89604647Y-104043163D01*
X89563057Y-103502653D01*
X89558442Y-103477004D01*
X89557168Y-103450954D01*
X89542224Y-103378155D01*
X89348117Y-102632971D01*
X89336013Y-102600423D01*
X89327374Y-102566778D01*
X89298097Y-102498471D01*
X88958116Y-101807539D01*
X88939714Y-101778090D01*
X88924487Y-101746869D01*
X88882073Y-101685844D01*
X88410105Y-101077386D01*
X88386157Y-101052238D01*
X88364963Y-101024717D01*
X88311145Y-100973467D01*
X87726469Y-100472339D01*
X87697949Y-100452518D01*
X87671659Y-100429824D01*
X87608634Y-100390442D01*
X86935134Y-100017114D01*
X86903212Y-100003432D01*
X86872894Y-99986488D01*
X86803238Y-99960583D01*
X86068426Y-99730307D01*
X86034401Y-99723323D01*
X86001299Y-99712822D01*
X85927857Y-99701453D01*
X85195368Y-99627050D01*
X85159926Y-99620000D01*
X59827089Y-99620000D01*
X60294897Y-99152192D01*
X60624073Y-98506147D01*
X60737500Y-97790000D01*
X60624073Y-97073853D01*
X60294897Y-96427808D01*
X59782192Y-95915103D01*
X59136147Y-95585927D01*
X58666749Y-95511581D01*
X63984476Y-90193856D01*
X64047929Y-90151458D01*
X64090327Y-90088005D01*
X64090329Y-90088003D01*
X64174102Y-89962627D01*
X64215904Y-89900066D01*
X64260000Y-89678381D01*
X64260000Y-89678377D01*
X64274888Y-89603530D01*
X64260000Y-89528683D01*
X64260000Y-88029717D01*
X64274888Y-87954870D01*
X64260000Y-87880023D01*
X64260000Y-87880019D01*
X64215904Y-87658334D01*
X64138793Y-87542929D01*
X64090329Y-87470397D01*
X64090327Y-87470395D01*
X64047929Y-87406942D01*
X63984476Y-87364544D01*
X63353037Y-86733106D01*
X63425920Y-86366699D01*
X63381688Y-86144328D01*
X65488361Y-86144328D01*
X65488361Y-87844328D01*
X65537644Y-88092093D01*
X65677992Y-88302137D01*
X65888036Y-88442485D01*
X66135801Y-88491768D01*
X67820001Y-88491768D01*
X67820001Y-90095148D01*
X67805112Y-90170000D01*
X67820001Y-90244852D01*
X67864097Y-90466537D01*
X67953988Y-90601069D01*
X67835801Y-90577560D01*
X66135801Y-90577560D01*
X65888036Y-90626843D01*
X65677992Y-90767191D01*
X65537644Y-90977235D01*
X65488361Y-91225000D01*
X65488361Y-92925000D01*
X65537644Y-93172765D01*
X65677992Y-93382809D01*
X65888036Y-93523157D01*
X66135801Y-93572440D01*
X67835801Y-93572440D01*
X68083566Y-93523157D01*
X68293610Y-93382809D01*
X68433958Y-93172765D01*
X68483241Y-92925000D01*
X68483241Y-91225000D01*
X68464132Y-91128934D01*
X75609673Y-98274476D01*
X75652071Y-98337929D01*
X75715524Y-98380327D01*
X75715526Y-98380329D01*
X75840902Y-98464102D01*
X75903463Y-98505904D01*
X76125148Y-98550000D01*
X76125152Y-98550000D01*
X76199999Y-98564888D01*
X76274846Y-98550000D01*
X90040613Y-98550000D01*
X98655085Y-107164473D01*
X98697485Y-107227929D01*
X98948877Y-107395904D01*
X99170562Y-107440000D01*
X99170566Y-107440000D01*
X99245414Y-107454888D01*
X99320262Y-107440000D01*
X102109763Y-107440000D01*
X102089000Y-107490126D01*
X102089000Y-107901874D01*
X102246569Y-108282280D01*
X102537720Y-108573431D01*
X102918126Y-108731000D01*
X103329874Y-108731000D01*
X103710280Y-108573431D01*
X104001431Y-108282280D01*
X104070721Y-108115000D01*
X104209279Y-108115000D01*
X104278569Y-108282280D01*
X104569720Y-108573431D01*
X104950126Y-108731000D01*
X105361874Y-108731000D01*
X105742280Y-108573431D01*
X106033431Y-108282280D01*
X106145460Y-108011819D01*
X106394561Y-108115000D01*
X106965439Y-108115000D01*
X107492862Y-107896534D01*
X107656173Y-107733223D01*
X114758035Y-107733223D01*
X114785222Y-108303454D01*
X114951136Y-108704005D01*
X115197255Y-108778139D01*
X116025395Y-107950000D01*
X116384605Y-107950000D01*
X117212745Y-108778139D01*
X117458864Y-108704005D01*
X117651965Y-108166777D01*
X117624778Y-107596546D01*
X117458864Y-107195995D01*
X117212745Y-107121861D01*
X116384605Y-107950000D01*
X116025395Y-107950000D01*
X115197255Y-107121861D01*
X114951136Y-107195995D01*
X114758035Y-107733223D01*
X107656173Y-107733223D01*
X107896534Y-107492862D01*
X108115000Y-106965439D01*
X108115000Y-106394561D01*
X108093103Y-106341698D01*
X108739051Y-105695750D01*
X109740000Y-105695750D01*
X109740000Y-106061309D01*
X109836673Y-106294698D01*
X110015301Y-106473327D01*
X110248690Y-106570000D01*
X110839250Y-106570000D01*
X110998000Y-106411250D01*
X110998000Y-105537000D01*
X111252000Y-105537000D01*
X111252000Y-106411250D01*
X111410750Y-106570000D01*
X112001310Y-106570000D01*
X112234699Y-106473327D01*
X112413327Y-106294698D01*
X112510000Y-106061309D01*
X112510000Y-105695750D01*
X112351250Y-105537000D01*
X111252000Y-105537000D01*
X110998000Y-105537000D01*
X109898750Y-105537000D01*
X109740000Y-105695750D01*
X108739051Y-105695750D01*
X109534803Y-104900000D01*
X109740000Y-104900000D01*
X109740000Y-105124250D01*
X109898750Y-105283000D01*
X110700290Y-105283000D01*
X110785754Y-105300000D01*
X111464246Y-105300000D01*
X111549710Y-105283000D01*
X112351250Y-105283000D01*
X112510000Y-105124250D01*
X112510000Y-104900000D01*
X114620199Y-104900000D01*
X114806312Y-105086113D01*
X114741887Y-105410000D01*
X114853260Y-105969909D01*
X115170423Y-106444577D01*
X115510203Y-106671611D01*
X115450995Y-106696136D01*
X115376861Y-106942255D01*
X116205000Y-107770395D01*
X117033139Y-106942255D01*
X116959005Y-106696136D01*
X116896641Y-106673720D01*
X117239577Y-106444577D01*
X117556740Y-105969909D01*
X117668113Y-105410000D01*
X117556740Y-104850091D01*
X117239577Y-104375423D01*
X116764909Y-104058260D01*
X116346333Y-103975000D01*
X116063667Y-103975000D01*
X115881114Y-104011312D01*
X115525331Y-103655530D01*
X115482929Y-103592071D01*
X115231537Y-103424096D01*
X115009852Y-103380000D01*
X115009847Y-103380000D01*
X114935000Y-103365112D01*
X114860153Y-103380000D01*
X112404348Y-103380000D01*
X112442695Y-103322609D01*
X112532725Y-102870000D01*
X112442695Y-102417391D01*
X112216274Y-102078528D01*
X112569803Y-101725000D01*
X118367560Y-101725000D01*
X118367560Y-101917500D01*
X118416843Y-102165265D01*
X118557191Y-102375309D01*
X118767235Y-102515657D01*
X119015000Y-102564940D01*
X121015000Y-102564940D01*
X121262765Y-102515657D01*
X121472809Y-102375309D01*
X121613157Y-102165265D01*
X121662440Y-101917500D01*
X121662440Y-100012500D01*
X121613157Y-99764735D01*
X121472809Y-99554691D01*
X121302568Y-99440939D01*
X121555136Y-99062945D01*
X121625191Y-98710750D01*
X122975000Y-98710750D01*
X122975000Y-99401310D01*
X123071673Y-99634699D01*
X123250302Y-99813327D01*
X123483691Y-99910000D01*
X124174250Y-99910000D01*
X124333000Y-99751250D01*
X124333000Y-98552000D01*
X124587000Y-98552000D01*
X124587000Y-99751250D01*
X124745750Y-99910000D01*
X125436309Y-99910000D01*
X125669698Y-99813327D01*
X125848327Y-99634699D01*
X125945000Y-99401310D01*
X125945000Y-98710750D01*
X125786250Y-98552000D01*
X124587000Y-98552000D01*
X124333000Y-98552000D01*
X123133750Y-98552000D01*
X122975000Y-98710750D01*
X121625191Y-98710750D01*
X121682031Y-98425000D01*
X121555136Y-97787055D01*
X121376696Y-97520000D01*
X122975000Y-97520000D01*
X122975000Y-98139250D01*
X123133750Y-98298000D01*
X124333000Y-98298000D01*
X124333000Y-98278000D01*
X124587000Y-98278000D01*
X124587000Y-98298000D01*
X125786250Y-98298000D01*
X125945000Y-98139250D01*
X125945000Y-97448690D01*
X125848327Y-97215301D01*
X125669698Y-97036673D01*
X125659654Y-97032513D01*
X126000136Y-96522945D01*
X126127031Y-95885000D01*
X126000136Y-95247055D01*
X125638769Y-94706231D01*
X125097945Y-94344864D01*
X124621031Y-94250000D01*
X115612239Y-94250000D01*
X114707253Y-93345015D01*
X114302945Y-93074865D01*
X113665000Y-92947969D01*
X113027055Y-93074865D01*
X112508908Y-93421080D01*
X112432809Y-93307191D01*
X112222765Y-93166843D01*
X111975000Y-93117560D01*
X110701462Y-93117560D01*
X110605431Y-92885720D01*
X110314280Y-92594569D01*
X109933874Y-92437000D01*
X109522126Y-92437000D01*
X109141720Y-92594569D01*
X108850569Y-92885720D01*
X108693000Y-93266126D01*
X108693000Y-93677874D01*
X108850569Y-94058280D01*
X109141720Y-94349431D01*
X109476256Y-94488000D01*
X109141720Y-94626569D01*
X108850569Y-94917720D01*
X108693000Y-95298126D01*
X108693000Y-95709874D01*
X108850569Y-96090280D01*
X109141720Y-96381431D01*
X109522126Y-96539000D01*
X109933874Y-96539000D01*
X110314280Y-96381431D01*
X110583271Y-96112440D01*
X111975000Y-96112440D01*
X112222765Y-96063157D01*
X112402776Y-95942876D01*
X112249000Y-96314126D01*
X112249000Y-96725874D01*
X112406569Y-97106280D01*
X112522372Y-97222083D01*
X112486231Y-97246231D01*
X112274731Y-97562763D01*
X112159577Y-97390423D01*
X111684909Y-97073260D01*
X111266333Y-96990000D01*
X110983667Y-96990000D01*
X110565091Y-97073260D01*
X110090423Y-97390423D01*
X109773260Y-97865091D01*
X109661887Y-98425000D01*
X109773260Y-98984909D01*
X110090423Y-99459577D01*
X110365001Y-99643044D01*
X110365001Y-99760149D01*
X110350112Y-99835000D01*
X110409097Y-100131537D01*
X110525040Y-100305057D01*
X110577072Y-100382929D01*
X110640527Y-100425329D01*
X111180198Y-100965000D01*
X110868455Y-101276744D01*
X110822280Y-101230569D01*
X110441874Y-101073000D01*
X110030126Y-101073000D01*
X109649720Y-101230569D01*
X109358569Y-101521720D01*
X109201000Y-101902126D01*
X109201000Y-102313874D01*
X109358569Y-102694280D01*
X109649720Y-102985431D01*
X109748363Y-103026290D01*
X109807305Y-103322609D01*
X109845652Y-103380000D01*
X109294846Y-103380000D01*
X109219999Y-103365112D01*
X109145152Y-103380000D01*
X109145148Y-103380000D01*
X108923463Y-103424096D01*
X108923461Y-103424097D01*
X108923462Y-103424097D01*
X108735526Y-103549671D01*
X108735524Y-103549673D01*
X108672071Y-103592071D01*
X108629673Y-103655524D01*
X107018302Y-105266897D01*
X106965439Y-105245000D01*
X106394561Y-105245000D01*
X106145460Y-105348181D01*
X106033431Y-105077720D01*
X105742280Y-104786569D01*
X105361874Y-104629000D01*
X104950126Y-104629000D01*
X104569720Y-104786569D01*
X104278569Y-105077720D01*
X104209279Y-105245000D01*
X104070721Y-105245000D01*
X104001431Y-105077720D01*
X103710280Y-104786569D01*
X103329874Y-104629000D01*
X102918126Y-104629000D01*
X102537720Y-104786569D01*
X102246569Y-105077720D01*
X102089000Y-105458126D01*
X102089000Y-105869874D01*
X102109763Y-105920000D01*
X99560216Y-105920000D01*
X94626433Y-100986218D01*
X94920400Y-100927744D01*
X95378529Y-100621632D01*
X95684641Y-100163503D01*
X95792133Y-99623103D01*
X95684641Y-99082703D01*
X95378529Y-98624574D01*
X94948684Y-98337361D01*
X95027349Y-98314075D01*
X95449145Y-97972643D01*
X95708173Y-97495787D01*
X95722318Y-97424288D01*
X95599656Y-97210103D01*
X94107000Y-97210103D01*
X94107000Y-97230103D01*
X93853000Y-97230103D01*
X93853000Y-97210103D01*
X92360344Y-97210103D01*
X92237682Y-97424288D01*
X92251827Y-97495787D01*
X92510855Y-97972643D01*
X92932651Y-98314075D01*
X93011316Y-98337361D01*
X92581471Y-98624574D01*
X92454626Y-98814411D01*
X90945745Y-97305530D01*
X90903343Y-97242071D01*
X90651951Y-97074096D01*
X90430266Y-97030000D01*
X90430261Y-97030000D01*
X90355414Y-97015112D01*
X90280567Y-97030000D01*
X76514803Y-97030000D01*
X71559802Y-92075000D01*
X87385908Y-92075000D01*
X87501161Y-92654418D01*
X87829375Y-93145625D01*
X87847619Y-93157816D01*
X87802235Y-93166843D01*
X87592191Y-93307191D01*
X87451843Y-93517235D01*
X87402560Y-93765000D01*
X87402560Y-95465000D01*
X87451843Y-95712765D01*
X87592191Y-95922809D01*
X87802235Y-96063157D01*
X88050000Y-96112440D01*
X89750000Y-96112440D01*
X89997765Y-96063157D01*
X90207809Y-95922809D01*
X90348157Y-95712765D01*
X90397440Y-95465000D01*
X90397440Y-93793103D01*
X92182560Y-93793103D01*
X92182560Y-95293103D01*
X92231843Y-95540868D01*
X92372191Y-95750912D01*
X92582235Y-95891260D01*
X92824725Y-95939494D01*
X92510855Y-96193563D01*
X92251827Y-96670419D01*
X92237682Y-96741918D01*
X92360344Y-96956103D01*
X93853000Y-96956103D01*
X93853000Y-96936103D01*
X94107000Y-96936103D01*
X94107000Y-96956103D01*
X95599656Y-96956103D01*
X95722318Y-96741918D01*
X95708173Y-96670419D01*
X95449145Y-96193563D01*
X95135275Y-95939494D01*
X95377765Y-95891260D01*
X95587809Y-95750912D01*
X95728157Y-95540868D01*
X95777440Y-95293103D01*
X95777440Y-93793103D01*
X95728157Y-93545338D01*
X95587809Y-93335294D01*
X95377765Y-93194946D01*
X95130000Y-93145663D01*
X92830000Y-93145663D01*
X92582235Y-93194946D01*
X92372191Y-93335294D01*
X92231843Y-93545338D01*
X92182560Y-93793103D01*
X90397440Y-93793103D01*
X90397440Y-93765000D01*
X90348157Y-93517235D01*
X90207809Y-93307191D01*
X89997765Y-93166843D01*
X89952381Y-93157816D01*
X89970625Y-93145625D01*
X90298839Y-92654418D01*
X90414092Y-92075000D01*
X90298839Y-91495582D01*
X89970625Y-91004375D01*
X89479418Y-90676161D01*
X89046256Y-90590000D01*
X88753744Y-90590000D01*
X88320582Y-90676161D01*
X87829375Y-91004375D01*
X87501161Y-91495582D01*
X87385908Y-92075000D01*
X71559802Y-92075000D01*
X69340000Y-89855199D01*
X69340000Y-87915750D01*
X84875000Y-87915750D01*
X84875000Y-88606309D01*
X84971673Y-88839698D01*
X85150301Y-89018327D01*
X85383690Y-89115000D01*
X86074250Y-89115000D01*
X86233000Y-88956250D01*
X86233000Y-87757000D01*
X85033750Y-87757000D01*
X84875000Y-87915750D01*
X69340000Y-87915750D01*
X69340000Y-86653691D01*
X84875000Y-86653691D01*
X84875000Y-87344250D01*
X85033750Y-87503000D01*
X86233000Y-87503000D01*
X86233000Y-86303750D01*
X86487000Y-86303750D01*
X86487000Y-87503000D01*
X86507000Y-87503000D01*
X86507000Y-87757000D01*
X86487000Y-87757000D01*
X86487000Y-88956250D01*
X86645750Y-89115000D01*
X87336310Y-89115000D01*
X87569699Y-89018327D01*
X87748327Y-88839698D01*
X87814904Y-88678967D01*
X87829375Y-88700625D01*
X88320582Y-89028839D01*
X88753744Y-89115000D01*
X89046256Y-89115000D01*
X89479418Y-89028839D01*
X89970625Y-88700625D01*
X90298839Y-88209418D01*
X90320603Y-88100000D01*
X92532560Y-88100000D01*
X92532560Y-89700000D01*
X92581843Y-89947765D01*
X92722191Y-90157809D01*
X92932235Y-90298157D01*
X93180000Y-90347440D01*
X94780000Y-90347440D01*
X95027765Y-90298157D01*
X95237809Y-90157809D01*
X95378157Y-89947765D01*
X95427440Y-89700000D01*
X95427440Y-89272745D01*
X115376861Y-89272745D01*
X115450995Y-89518864D01*
X115988223Y-89711965D01*
X116558454Y-89684778D01*
X116959005Y-89518864D01*
X117033139Y-89272745D01*
X116205000Y-88444605D01*
X115376861Y-89272745D01*
X95427440Y-89272745D01*
X95427440Y-88100000D01*
X95378157Y-87852235D01*
X95238005Y-87642484D01*
X95426965Y-87116777D01*
X95399778Y-86546546D01*
X95233864Y-86145995D01*
X94987745Y-86071861D01*
X94159605Y-86900000D01*
X94173748Y-86914142D01*
X93994143Y-87093748D01*
X93980000Y-87079605D01*
X93965858Y-87093748D01*
X93786252Y-86914142D01*
X93800395Y-86900000D01*
X92972255Y-86071861D01*
X92726136Y-86145995D01*
X92533035Y-86683223D01*
X92560222Y-87253454D01*
X92721605Y-87643067D01*
X92581843Y-87852235D01*
X92532560Y-88100000D01*
X90320603Y-88100000D01*
X90414092Y-87630000D01*
X90298839Y-87050582D01*
X89970625Y-86559375D01*
X89479418Y-86231161D01*
X89046256Y-86145000D01*
X88753744Y-86145000D01*
X88320582Y-86231161D01*
X87829375Y-86559375D01*
X87814904Y-86581033D01*
X87748327Y-86420302D01*
X87569699Y-86241673D01*
X87336310Y-86145000D01*
X86645750Y-86145000D01*
X86487000Y-86303750D01*
X86233000Y-86303750D01*
X86074250Y-86145000D01*
X85383690Y-86145000D01*
X85150301Y-86241673D01*
X84971673Y-86420302D01*
X84875000Y-86653691D01*
X69340000Y-86653691D01*
X69340000Y-80324801D01*
X69974905Y-79689896D01*
X69974387Y-79692500D01*
X70085760Y-80252409D01*
X70402923Y-80727077D01*
X70755258Y-80962500D01*
X70402923Y-81197923D01*
X70085760Y-81672591D01*
X69974387Y-82232500D01*
X70085760Y-82792409D01*
X70402923Y-83267077D01*
X70755258Y-83502500D01*
X70402923Y-83737923D01*
X70085760Y-84212591D01*
X69974387Y-84772500D01*
X70085760Y-85332409D01*
X70402923Y-85807077D01*
X70877591Y-86124240D01*
X71296167Y-86207500D01*
X71578833Y-86207500D01*
X71997409Y-86124240D01*
X72472077Y-85807077D01*
X72789240Y-85332409D01*
X72900613Y-84772500D01*
X72789240Y-84212591D01*
X72472077Y-83737923D01*
X72119742Y-83502500D01*
X72472077Y-83267077D01*
X72789240Y-82792409D01*
X72900613Y-82232500D01*
X72836188Y-81908613D01*
X74100545Y-80644256D01*
X74343720Y-80887431D01*
X74724126Y-81045000D01*
X74890199Y-81045000D01*
X77846763Y-84001566D01*
X77705760Y-84212591D01*
X77594387Y-84772500D01*
X77705760Y-85332409D01*
X78022923Y-85807077D01*
X78497591Y-86124240D01*
X78916167Y-86207500D01*
X79198833Y-86207500D01*
X79617409Y-86124240D01*
X79964599Y-85892255D01*
X93151861Y-85892255D01*
X93980000Y-86720395D01*
X94808139Y-85892255D01*
X94734005Y-85646136D01*
X94196777Y-85453035D01*
X93626546Y-85480222D01*
X93225995Y-85646136D01*
X93151861Y-85892255D01*
X79964599Y-85892255D01*
X80092077Y-85807077D01*
X80409240Y-85332409D01*
X80520613Y-84772500D01*
X80448010Y-84407499D01*
X100477698Y-84407499D01*
X101791244Y-85721045D01*
X101738569Y-85773720D01*
X101581000Y-86154126D01*
X101581000Y-86565874D01*
X101738569Y-86946280D01*
X102029720Y-87237431D01*
X102410126Y-87395000D01*
X102756452Y-87395000D01*
X102788260Y-87554909D01*
X103105423Y-88029577D01*
X103580091Y-88346740D01*
X103998667Y-88430000D01*
X104261885Y-88430000D01*
X104278569Y-88470280D01*
X104569720Y-88761431D01*
X104950126Y-88919000D01*
X105361874Y-88919000D01*
X105742280Y-88761431D01*
X106033431Y-88470280D01*
X106100558Y-88308220D01*
X106394561Y-88430000D01*
X106965439Y-88430000D01*
X107492862Y-88211534D01*
X107656173Y-88048223D01*
X114758035Y-88048223D01*
X114785222Y-88618454D01*
X114951136Y-89019005D01*
X115197255Y-89093139D01*
X116025395Y-88265000D01*
X116384605Y-88265000D01*
X117212745Y-89093139D01*
X117458864Y-89019005D01*
X117651965Y-88481777D01*
X117624778Y-87911546D01*
X117458864Y-87510995D01*
X117212745Y-87436861D01*
X116384605Y-88265000D01*
X116025395Y-88265000D01*
X115197255Y-87436861D01*
X114951136Y-87510995D01*
X114758035Y-88048223D01*
X107656173Y-88048223D01*
X107896534Y-87807862D01*
X108115000Y-87280439D01*
X108115000Y-86709561D01*
X108093103Y-86656698D01*
X108739051Y-86010750D01*
X109740000Y-86010750D01*
X109740000Y-86376309D01*
X109836673Y-86609698D01*
X110015301Y-86788327D01*
X110248690Y-86885000D01*
X110839250Y-86885000D01*
X110998000Y-86726250D01*
X110998000Y-85852000D01*
X111252000Y-85852000D01*
X111252000Y-86726250D01*
X111410750Y-86885000D01*
X112001310Y-86885000D01*
X112234699Y-86788327D01*
X112413327Y-86609698D01*
X112510000Y-86376309D01*
X112510000Y-86010750D01*
X112351250Y-85852000D01*
X111252000Y-85852000D01*
X110998000Y-85852000D01*
X109898750Y-85852000D01*
X109740000Y-86010750D01*
X108739051Y-86010750D01*
X109534803Y-85215000D01*
X109740000Y-85215000D01*
X109740000Y-85439250D01*
X109898750Y-85598000D01*
X110700290Y-85598000D01*
X110785754Y-85615000D01*
X111464246Y-85615000D01*
X111549710Y-85598000D01*
X112351250Y-85598000D01*
X112510000Y-85439250D01*
X112510000Y-85215000D01*
X114620199Y-85215000D01*
X114806312Y-85401113D01*
X114741887Y-85725000D01*
X114853260Y-86284909D01*
X115170423Y-86759577D01*
X115510203Y-86986611D01*
X115450995Y-87011136D01*
X115376861Y-87257255D01*
X116205000Y-88085395D01*
X117033139Y-87257255D01*
X116959005Y-87011136D01*
X116896641Y-86988720D01*
X117239577Y-86759577D01*
X117556740Y-86284909D01*
X117668113Y-85725000D01*
X117556740Y-85165091D01*
X117239577Y-84690423D01*
X116764909Y-84373260D01*
X116346333Y-84290000D01*
X116063667Y-84290000D01*
X115881114Y-84326312D01*
X115525331Y-83970530D01*
X115482929Y-83907071D01*
X115231537Y-83739096D01*
X115009852Y-83695000D01*
X115009847Y-83695000D01*
X114935000Y-83680112D01*
X114860153Y-83695000D01*
X112404348Y-83695000D01*
X112442695Y-83637609D01*
X112532725Y-83185000D01*
X112442695Y-82732391D01*
X112216274Y-82393528D01*
X112569803Y-82040000D01*
X118172289Y-82040000D01*
X117994569Y-82217720D01*
X117837000Y-82598126D01*
X117837000Y-83009874D01*
X117994569Y-83390280D01*
X118285720Y-83681431D01*
X118666126Y-83839000D01*
X119077874Y-83839000D01*
X119458280Y-83681431D01*
X119749431Y-83390280D01*
X119907000Y-83009874D01*
X119907000Y-82879940D01*
X121015000Y-82879940D01*
X121262765Y-82830657D01*
X121472809Y-82690309D01*
X121613157Y-82480265D01*
X121662440Y-82232500D01*
X121662440Y-80327500D01*
X121613157Y-80079735D01*
X121472809Y-79869691D01*
X121302568Y-79755939D01*
X121555136Y-79377945D01*
X121625191Y-79025750D01*
X122975000Y-79025750D01*
X122975000Y-79716310D01*
X123071673Y-79949699D01*
X123250302Y-80128327D01*
X123483691Y-80225000D01*
X124174250Y-80225000D01*
X124333000Y-80066250D01*
X124333000Y-78867000D01*
X124587000Y-78867000D01*
X124587000Y-80066250D01*
X124745750Y-80225000D01*
X125436309Y-80225000D01*
X125669698Y-80128327D01*
X125848327Y-79949699D01*
X125945000Y-79716310D01*
X125945000Y-79025750D01*
X125786250Y-78867000D01*
X124587000Y-78867000D01*
X124333000Y-78867000D01*
X123133750Y-78867000D01*
X122975000Y-79025750D01*
X121625191Y-79025750D01*
X121682031Y-78740000D01*
X121555136Y-78102055D01*
X121376696Y-77835000D01*
X122975000Y-77835000D01*
X122975000Y-78454250D01*
X123133750Y-78613000D01*
X124333000Y-78613000D01*
X124333000Y-78593000D01*
X124587000Y-78593000D01*
X124587000Y-78613000D01*
X125786250Y-78613000D01*
X125945000Y-78454250D01*
X125945000Y-77763690D01*
X125848327Y-77530301D01*
X125669698Y-77351673D01*
X125659654Y-77347513D01*
X126000136Y-76837945D01*
X126127031Y-76200000D01*
X126000136Y-75562055D01*
X125638769Y-75021231D01*
X125097945Y-74659864D01*
X124621031Y-74565000D01*
X120692239Y-74565000D01*
X120014988Y-73887750D01*
X119923769Y-73751231D01*
X119382945Y-73389864D01*
X118906031Y-73295000D01*
X118906030Y-73295000D01*
X118745000Y-73262969D01*
X118583970Y-73295000D01*
X113503969Y-73295000D01*
X113027055Y-73389864D01*
X112508907Y-73736079D01*
X112432809Y-73622191D01*
X112222765Y-73481843D01*
X111975000Y-73432560D01*
X111773483Y-73432560D01*
X111672929Y-73282071D01*
X111609473Y-73239671D01*
X107957547Y-69587745D01*
X115376861Y-69587745D01*
X115450995Y-69833864D01*
X115988223Y-70026965D01*
X116558454Y-69999778D01*
X116959005Y-69833864D01*
X117033139Y-69587745D01*
X116205000Y-68759605D01*
X115376861Y-69587745D01*
X107957547Y-69587745D01*
X107071054Y-68701253D01*
X107492862Y-68526534D01*
X107896534Y-68122862D01*
X108115000Y-67595439D01*
X108115000Y-67024561D01*
X108093103Y-66971698D01*
X108739051Y-66325750D01*
X109740000Y-66325750D01*
X109740000Y-66691309D01*
X109836673Y-66924698D01*
X110015301Y-67103327D01*
X110248690Y-67200000D01*
X110839250Y-67200000D01*
X110998000Y-67041250D01*
X110998000Y-66167000D01*
X111252000Y-66167000D01*
X111252000Y-67041250D01*
X111410750Y-67200000D01*
X112001310Y-67200000D01*
X112234699Y-67103327D01*
X112413327Y-66924698D01*
X112510000Y-66691309D01*
X112510000Y-66325750D01*
X112351250Y-66167000D01*
X111252000Y-66167000D01*
X110998000Y-66167000D01*
X109898750Y-66167000D01*
X109740000Y-66325750D01*
X108739051Y-66325750D01*
X109534803Y-65530000D01*
X109740000Y-65530000D01*
X109740000Y-65754250D01*
X109898750Y-65913000D01*
X110700290Y-65913000D01*
X110785754Y-65930000D01*
X111464246Y-65930000D01*
X111549710Y-65913000D01*
X112351250Y-65913000D01*
X112510000Y-65754250D01*
X112510000Y-65530000D01*
X114620199Y-65530000D01*
X114806312Y-65716113D01*
X114741887Y-66040000D01*
X114766426Y-66163365D01*
X114729720Y-66178569D01*
X114438569Y-66469720D01*
X114281000Y-66850126D01*
X114281000Y-67261874D01*
X114438569Y-67642280D01*
X114729720Y-67933431D01*
X114888830Y-67999336D01*
X114758035Y-68363223D01*
X114785222Y-68933454D01*
X114951136Y-69334005D01*
X115197255Y-69408139D01*
X116025395Y-68580000D01*
X116384605Y-68580000D01*
X117212745Y-69408139D01*
X117458864Y-69334005D01*
X117651965Y-68796777D01*
X117624778Y-68226546D01*
X117458864Y-67825995D01*
X117212745Y-67751861D01*
X116384605Y-68580000D01*
X116025395Y-68580000D01*
X116011252Y-68565858D01*
X116190858Y-68386253D01*
X116205000Y-68400395D01*
X117033139Y-67572255D01*
X116959005Y-67326136D01*
X116896641Y-67303720D01*
X117239577Y-67074577D01*
X117556740Y-66599909D01*
X117668113Y-66040000D01*
X117556740Y-65480091D01*
X117239577Y-65005423D01*
X116764909Y-64688260D01*
X116346333Y-64605000D01*
X116063667Y-64605000D01*
X115881114Y-64641312D01*
X115525331Y-64285530D01*
X115482929Y-64222071D01*
X115231537Y-64054096D01*
X115009852Y-64010000D01*
X115009847Y-64010000D01*
X114935000Y-63995112D01*
X114860153Y-64010000D01*
X112404348Y-64010000D01*
X112442695Y-63952609D01*
X112532725Y-63500000D01*
X112442695Y-63047391D01*
X112216274Y-62708528D01*
X112569803Y-62355000D01*
X118367560Y-62355000D01*
X118367560Y-62547500D01*
X118416843Y-62795265D01*
X118557191Y-63005309D01*
X118767235Y-63145657D01*
X119015000Y-63194940D01*
X121015000Y-63194940D01*
X121262765Y-63145657D01*
X121472809Y-63005309D01*
X121613157Y-62795265D01*
X121662440Y-62547500D01*
X121662440Y-60642500D01*
X121613157Y-60394735D01*
X121472809Y-60184691D01*
X121302568Y-60070939D01*
X121555136Y-59692945D01*
X121625191Y-59340750D01*
X122975000Y-59340750D01*
X122975000Y-60031310D01*
X123071673Y-60264699D01*
X123250302Y-60443327D01*
X123483691Y-60540000D01*
X124174250Y-60540000D01*
X124333000Y-60381250D01*
X124333000Y-59182000D01*
X124587000Y-59182000D01*
X124587000Y-60381250D01*
X124745750Y-60540000D01*
X125436309Y-60540000D01*
X125669698Y-60443327D01*
X125848327Y-60264699D01*
X125945000Y-60031310D01*
X125945000Y-59340750D01*
X125786250Y-59182000D01*
X124587000Y-59182000D01*
X124333000Y-59182000D01*
X123133750Y-59182000D01*
X122975000Y-59340750D01*
X121625191Y-59340750D01*
X121682031Y-59055000D01*
X121555136Y-58417055D01*
X121376696Y-58150000D01*
X122975000Y-58150000D01*
X122975000Y-58769250D01*
X123133750Y-58928000D01*
X124333000Y-58928000D01*
X124333000Y-58908000D01*
X124587000Y-58908000D01*
X124587000Y-58928000D01*
X125786250Y-58928000D01*
X125945000Y-58769250D01*
X125945000Y-58078690D01*
X125848327Y-57845301D01*
X125669698Y-57666673D01*
X125659654Y-57662513D01*
X126000136Y-57152945D01*
X126127031Y-56515000D01*
X126000136Y-55877055D01*
X125638769Y-55336231D01*
X125097945Y-54974864D01*
X124621031Y-54880000D01*
X115612239Y-54880000D01*
X114707253Y-53975015D01*
X114302945Y-53704865D01*
X113665000Y-53577969D01*
X113027055Y-53704865D01*
X112508908Y-54051080D01*
X112432809Y-53937191D01*
X112222765Y-53796843D01*
X111975000Y-53747560D01*
X110275000Y-53747560D01*
X110027235Y-53796843D01*
X109817191Y-53937191D01*
X109676843Y-54147235D01*
X109627560Y-54395000D01*
X109627560Y-55353000D01*
X109522126Y-55353000D01*
X109141720Y-55510569D01*
X108850569Y-55801720D01*
X108693000Y-56182126D01*
X108693000Y-56593874D01*
X108850569Y-56974280D01*
X109135744Y-57259455D01*
X105070527Y-61324672D01*
X105007071Y-61367072D01*
X104964671Y-61430528D01*
X104964670Y-61430529D01*
X104839096Y-61618464D01*
X104780111Y-61915001D01*
X104795000Y-61989853D01*
X104795000Y-65005000D01*
X104442126Y-65005000D01*
X104061720Y-65162569D01*
X103770569Y-65453720D01*
X103613000Y-65834126D01*
X103613000Y-65951714D01*
X103580091Y-65958260D01*
X103105423Y-66275423D01*
X102788260Y-66750091D01*
X102676887Y-67310000D01*
X102741312Y-67633886D01*
X92567700Y-77807499D01*
X80345703Y-77807499D01*
X80409240Y-77712409D01*
X80520613Y-77152500D01*
X80409240Y-76592591D01*
X80092077Y-76117923D01*
X79739742Y-75882500D01*
X80092077Y-75647077D01*
X80409240Y-75172409D01*
X80520613Y-74612500D01*
X80409240Y-74052591D01*
X80092077Y-73577923D01*
X79739742Y-73342500D01*
X80092077Y-73107077D01*
X80409240Y-72632409D01*
X80520613Y-72072500D01*
X80409240Y-71512591D01*
X80092077Y-71037923D01*
X79739742Y-70802500D01*
X80092077Y-70567077D01*
X80409240Y-70092409D01*
X80427124Y-70002500D01*
X83325060Y-70002500D01*
X83325060Y-71602500D01*
X83374343Y-71850265D01*
X83514691Y-72060309D01*
X83724735Y-72200657D01*
X83972500Y-72249940D01*
X85572500Y-72249940D01*
X85820265Y-72200657D01*
X86030309Y-72060309D01*
X86170657Y-71850265D01*
X86219940Y-71602500D01*
X86219940Y-70002500D01*
X86170657Y-69754735D01*
X86030505Y-69544984D01*
X86219465Y-69019277D01*
X86192278Y-68449046D01*
X86026364Y-68048495D01*
X85780245Y-67974361D01*
X84952105Y-68802500D01*
X84966248Y-68816642D01*
X84786643Y-68996248D01*
X84772500Y-68982105D01*
X84758358Y-68996248D01*
X84578752Y-68816642D01*
X84592895Y-68802500D01*
X83764755Y-67974361D01*
X83518636Y-68048495D01*
X83325535Y-68585723D01*
X83352722Y-69155954D01*
X83514105Y-69545567D01*
X83374343Y-69754735D01*
X83325060Y-70002500D01*
X80427124Y-70002500D01*
X80520613Y-69532500D01*
X80409240Y-68972591D01*
X80092077Y-68497923D01*
X79708392Y-68241553D01*
X79912634Y-68144889D01*
X80229811Y-67794755D01*
X83944361Y-67794755D01*
X84772500Y-68622895D01*
X85600639Y-67794755D01*
X85526505Y-67548636D01*
X84989277Y-67355535D01*
X84419046Y-67382722D01*
X84018495Y-67548636D01*
X83944361Y-67794755D01*
X80229811Y-67794755D01*
X80288541Y-67729923D01*
X80449404Y-67341539D01*
X80432077Y-67310000D01*
X95640908Y-67310000D01*
X95756161Y-67889418D01*
X96084375Y-68380625D01*
X96575582Y-68708839D01*
X97008744Y-68795000D01*
X97301256Y-68795000D01*
X97734418Y-68708839D01*
X98225625Y-68380625D01*
X98237816Y-68362381D01*
X98246843Y-68407765D01*
X98387191Y-68617809D01*
X98597235Y-68758157D01*
X98845000Y-68807440D01*
X100545000Y-68807440D01*
X100792765Y-68758157D01*
X101002809Y-68617809D01*
X101143157Y-68407765D01*
X101192440Y-68160000D01*
X101192440Y-66460000D01*
X101143157Y-66212235D01*
X101002809Y-66002191D01*
X100792765Y-65861843D01*
X100545000Y-65812560D01*
X98845000Y-65812560D01*
X98597235Y-65861843D01*
X98387191Y-66002191D01*
X98246843Y-66212235D01*
X98237816Y-66257619D01*
X98225625Y-66239375D01*
X97734418Y-65911161D01*
X97301256Y-65825000D01*
X97008744Y-65825000D01*
X96575582Y-65911161D01*
X96084375Y-66239375D01*
X95756161Y-66730582D01*
X95640908Y-67310000D01*
X80432077Y-67310000D01*
X80327415Y-67119500D01*
X79184500Y-67119500D01*
X79184500Y-67139500D01*
X78930500Y-67139500D01*
X78930500Y-67119500D01*
X77787585Y-67119500D01*
X77665596Y-67341539D01*
X77826459Y-67729923D01*
X78202366Y-68144889D01*
X78406608Y-68241553D01*
X78022923Y-68497923D01*
X77705760Y-68972591D01*
X77594387Y-69532500D01*
X77705760Y-70092409D01*
X78022923Y-70567077D01*
X78375258Y-70802500D01*
X78022923Y-71037923D01*
X77705760Y-71512591D01*
X77594387Y-72072500D01*
X77705760Y-72632409D01*
X78022923Y-73107077D01*
X78375258Y-73342500D01*
X78022923Y-73577923D01*
X77705760Y-74052591D01*
X77594387Y-74612500D01*
X77705760Y-75172409D01*
X78022923Y-75647077D01*
X78375258Y-75882500D01*
X78022923Y-76117923D01*
X77705760Y-76592591D01*
X77594387Y-77152500D01*
X77705760Y-77712409D01*
X77769297Y-77807499D01*
X75177349Y-77807499D01*
X75102501Y-77792611D01*
X75027653Y-77807499D01*
X75027649Y-77807499D01*
X74854106Y-77842019D01*
X74805963Y-77851595D01*
X74618919Y-77976575D01*
X74554572Y-78019570D01*
X74512172Y-78083026D01*
X72900095Y-79695103D01*
X72900613Y-79692500D01*
X72789240Y-79132591D01*
X72472077Y-78657923D01*
X72119742Y-78422500D01*
X72472077Y-78187077D01*
X72789240Y-77712409D01*
X72900613Y-77152500D01*
X72789240Y-76592591D01*
X72472077Y-76117923D01*
X72119742Y-75882500D01*
X72472077Y-75647077D01*
X72789240Y-75172409D01*
X72900613Y-74612500D01*
X72789240Y-74052591D01*
X72472077Y-73577923D01*
X72119742Y-73342500D01*
X72472077Y-73107077D01*
X72789240Y-72632409D01*
X72900613Y-72072500D01*
X72789240Y-71512591D01*
X72472077Y-71037923D01*
X72088392Y-70781553D01*
X72292634Y-70684889D01*
X72668541Y-70269923D01*
X72829404Y-69881539D01*
X72707415Y-69659500D01*
X71564500Y-69659500D01*
X71564500Y-69679500D01*
X71310500Y-69679500D01*
X71310500Y-69659500D01*
X70167585Y-69659500D01*
X70045596Y-69881539D01*
X70206459Y-70269923D01*
X70582366Y-70684889D01*
X70786608Y-70781553D01*
X70402923Y-71037923D01*
X70085760Y-71512591D01*
X69974387Y-72072500D01*
X70085760Y-72632409D01*
X70402923Y-73107077D01*
X70755258Y-73342500D01*
X70402923Y-73577923D01*
X70085760Y-74052591D01*
X69974387Y-74612500D01*
X70085760Y-75172409D01*
X70402923Y-75647077D01*
X70656757Y-75816683D01*
X70309874Y-75673000D01*
X69898126Y-75673000D01*
X69517720Y-75830569D01*
X69226569Y-76121720D01*
X69069000Y-76502126D01*
X69069000Y-76913874D01*
X69226569Y-77294280D01*
X69517720Y-77585431D01*
X69809082Y-77706117D01*
X68095530Y-79419669D01*
X68032071Y-79462071D01*
X67864096Y-79713464D01*
X67820000Y-79935149D01*
X67820000Y-79935153D01*
X67805112Y-80010000D01*
X67820000Y-80084847D01*
X67820001Y-85269144D01*
X67820000Y-85269149D01*
X67820000Y-85496888D01*
X66135801Y-85496888D01*
X65888036Y-85546171D01*
X65677992Y-85686519D01*
X65537644Y-85896563D01*
X65488361Y-86144328D01*
X63381688Y-86144328D01*
X63310667Y-85787281D01*
X62982453Y-85296074D01*
X62491246Y-84967860D01*
X62058084Y-84881699D01*
X61765572Y-84881699D01*
X61332410Y-84967860D01*
X60841203Y-85296074D01*
X60633650Y-85606699D01*
X58110006Y-85606699D01*
X57902453Y-85296074D01*
X57411246Y-84967860D01*
X56978084Y-84881699D01*
X56685572Y-84881699D01*
X56252410Y-84967860D01*
X55761203Y-85296074D01*
X55432989Y-85787281D01*
X55317736Y-86366699D01*
X55432989Y-86946117D01*
X55761203Y-87437324D01*
X55779447Y-87449515D01*
X55734063Y-87458542D01*
X55524019Y-87598890D01*
X55383671Y-87808934D01*
X55334388Y-88056699D01*
X55334388Y-88258216D01*
X55183899Y-88358770D01*
X55141499Y-88422226D01*
X47379852Y-96183874D01*
X47308523Y-96154328D01*
X46658079Y-96154328D01*
X46057148Y-96403242D01*
X45630990Y-96829400D01*
X45595833Y-96816401D01*
X44622906Y-97789328D01*
X45595833Y-98762255D01*
X45630990Y-98749256D01*
X46057148Y-99175414D01*
X46658079Y-99424328D01*
X47308523Y-99424328D01*
X47909454Y-99175414D01*
X48253301Y-98831567D01*
X48597148Y-99175414D01*
X49198079Y-99424328D01*
X49848523Y-99424328D01*
X50014676Y-99355505D01*
X50038827Y-99379656D01*
X50038830Y-99379658D01*
X50257971Y-99598799D01*
X50272137Y-99620000D01*
X43215964Y-99620000D01*
X42557396Y-99553105D01*
X41960218Y-99365961D01*
X41412875Y-99062563D01*
X41272049Y-98941860D01*
X43470374Y-98941860D01*
X43569037Y-99208715D01*
X44178762Y-99435236D01*
X44828761Y-99411184D01*
X45317565Y-99208715D01*
X45416228Y-98941860D01*
X44443301Y-97968933D01*
X43470374Y-98941860D01*
X41272049Y-98941860D01*
X40937711Y-98655299D01*
X40554148Y-98160812D01*
X40277852Y-97599304D01*
X40258443Y-97524789D01*
X42797393Y-97524789D01*
X42821445Y-98174788D01*
X43023914Y-98663592D01*
X43290769Y-98762255D01*
X44263696Y-97789328D01*
X43290769Y-96816401D01*
X43023914Y-96915064D01*
X42797393Y-97524789D01*
X40258443Y-97524789D01*
X40117896Y-96985227D01*
X40091086Y-96636796D01*
X43470374Y-96636796D01*
X44443301Y-97609723D01*
X45416228Y-96636796D01*
X45317565Y-96369941D01*
X44707840Y-96143420D01*
X44057841Y-96167472D01*
X43569037Y-96369941D01*
X43470374Y-96636796D01*
X40091086Y-96636796D01*
X40080000Y-96492730D01*
X40080000Y-83009745D01*
X64195861Y-83009745D01*
X64269995Y-83255864D01*
X64807223Y-83448965D01*
X65377454Y-83421778D01*
X65778005Y-83255864D01*
X65852139Y-83009745D01*
X65024000Y-82181605D01*
X64195861Y-83009745D01*
X40080000Y-83009745D01*
X40080000Y-81785223D01*
X63577035Y-81785223D01*
X63604222Y-82355454D01*
X63770136Y-82756005D01*
X64016255Y-82830139D01*
X64844395Y-82002000D01*
X65203605Y-82002000D01*
X66031745Y-82830139D01*
X66277864Y-82756005D01*
X66470965Y-82218777D01*
X66443778Y-81648546D01*
X66277864Y-81247995D01*
X66031745Y-81173861D01*
X65203605Y-82002000D01*
X64844395Y-82002000D01*
X64016255Y-81173861D01*
X63770136Y-81247995D01*
X63577035Y-81785223D01*
X40080000Y-81785223D01*
X40080000Y-79217006D01*
X57987500Y-79217006D01*
X57987500Y-79767994D01*
X58198353Y-80277040D01*
X58587960Y-80666647D01*
X59097006Y-80877500D01*
X59647994Y-80877500D01*
X60157040Y-80666647D01*
X60546647Y-80277040D01*
X60757500Y-79767994D01*
X60757500Y-79217006D01*
X60757316Y-79216561D01*
X63589000Y-79216561D01*
X63589000Y-79787439D01*
X63807466Y-80314862D01*
X64211138Y-80718534D01*
X64276299Y-80745525D01*
X64269995Y-80748136D01*
X64195861Y-80994255D01*
X65024000Y-81822395D01*
X65852139Y-80994255D01*
X65778005Y-80748136D01*
X65771254Y-80745710D01*
X65836862Y-80718534D01*
X66240534Y-80314862D01*
X66459000Y-79787439D01*
X66459000Y-79216561D01*
X66240534Y-78689138D01*
X65836862Y-78285466D01*
X65309439Y-78067000D01*
X64738561Y-78067000D01*
X64211138Y-78285466D01*
X63807466Y-78689138D01*
X63589000Y-79216561D01*
X60757316Y-79216561D01*
X60546647Y-78707960D01*
X60157040Y-78318353D01*
X59647994Y-78107500D01*
X59097006Y-78107500D01*
X58587960Y-78318353D01*
X58198353Y-78707960D01*
X57987500Y-79217006D01*
X40080000Y-79217006D01*
X40080000Y-74337006D01*
X57987500Y-74337006D01*
X57987500Y-74887994D01*
X58198353Y-75397040D01*
X58587960Y-75786647D01*
X59097006Y-75997500D01*
X59647994Y-75997500D01*
X60157040Y-75786647D01*
X60546647Y-75397040D01*
X60757500Y-74887994D01*
X60757500Y-74337006D01*
X60753381Y-74327061D01*
X63589000Y-74327061D01*
X63589000Y-74897939D01*
X63807466Y-75425362D01*
X64211138Y-75829034D01*
X64738561Y-76047500D01*
X65309439Y-76047500D01*
X65836862Y-75829034D01*
X66240534Y-75425362D01*
X66459000Y-74897939D01*
X66459000Y-74327061D01*
X66240534Y-73799638D01*
X65836862Y-73395966D01*
X65771701Y-73368975D01*
X65778005Y-73366364D01*
X65852139Y-73120245D01*
X65024000Y-72292105D01*
X64195861Y-73120245D01*
X64269995Y-73366364D01*
X64276746Y-73368790D01*
X64211138Y-73395966D01*
X63807466Y-73799638D01*
X63589000Y-74327061D01*
X60753381Y-74327061D01*
X60546647Y-73827960D01*
X60157040Y-73438353D01*
X59647994Y-73227500D01*
X59097006Y-73227500D01*
X58587960Y-73438353D01*
X58198353Y-73827960D01*
X57987500Y-74337006D01*
X40080000Y-74337006D01*
X40080000Y-71895723D01*
X63577035Y-71895723D01*
X63604222Y-72465954D01*
X63770136Y-72866505D01*
X64016255Y-72940639D01*
X64844395Y-72112500D01*
X65203605Y-72112500D01*
X66031745Y-72940639D01*
X66277864Y-72866505D01*
X66470965Y-72329277D01*
X66443778Y-71759046D01*
X66277864Y-71358495D01*
X66031745Y-71284361D01*
X65203605Y-72112500D01*
X64844395Y-72112500D01*
X64016255Y-71284361D01*
X63770136Y-71358495D01*
X63577035Y-71895723D01*
X40080000Y-71895723D01*
X40080000Y-71104755D01*
X64195861Y-71104755D01*
X65024000Y-71932895D01*
X65852139Y-71104755D01*
X65778005Y-70858636D01*
X65240777Y-70665535D01*
X64670546Y-70692722D01*
X64269995Y-70858636D01*
X64195861Y-71104755D01*
X40080000Y-71104755D01*
X40080000Y-68730245D01*
X64894361Y-68730245D01*
X64968495Y-68976364D01*
X65505723Y-69169465D01*
X66075954Y-69142278D01*
X66476505Y-68976364D01*
X66550639Y-68730245D01*
X65722500Y-67902105D01*
X64894361Y-68730245D01*
X40080000Y-68730245D01*
X40080000Y-64922500D01*
X64275060Y-64922500D01*
X64275060Y-66522500D01*
X64324343Y-66770265D01*
X64464495Y-66980016D01*
X64275535Y-67505723D01*
X64302722Y-68075954D01*
X64468636Y-68476505D01*
X64714755Y-68550639D01*
X65542895Y-67722500D01*
X65528752Y-67708358D01*
X65708358Y-67528753D01*
X65722500Y-67542895D01*
X65736643Y-67528753D01*
X65916248Y-67708358D01*
X65902105Y-67722500D01*
X66730245Y-68550639D01*
X66976364Y-68476505D01*
X67169465Y-67939277D01*
X67142278Y-67369046D01*
X66980895Y-66979433D01*
X67120657Y-66770265D01*
X67169940Y-66522500D01*
X67169940Y-64922500D01*
X67120657Y-64674735D01*
X66980309Y-64464691D01*
X66770265Y-64324343D01*
X66522500Y-64275060D01*
X64922500Y-64275060D01*
X64674735Y-64324343D01*
X64464691Y-64464691D01*
X64324343Y-64674735D01*
X64275060Y-64922500D01*
X40080000Y-64922500D01*
X40080000Y-56824106D01*
X42808301Y-56824106D01*
X42808301Y-57474550D01*
X43057215Y-58075481D01*
X43517148Y-58535414D01*
X44118079Y-58784328D01*
X44768523Y-58784328D01*
X45369454Y-58535414D01*
X45713301Y-58191567D01*
X46057148Y-58535414D01*
X46658079Y-58784328D01*
X47308523Y-58784328D01*
X47909454Y-58535414D01*
X48253301Y-58191567D01*
X48597148Y-58535414D01*
X49198079Y-58784328D01*
X49848523Y-58784328D01*
X50014676Y-58715505D01*
X52331147Y-61031977D01*
X52373545Y-61095430D01*
X52436998Y-61137828D01*
X52437000Y-61137830D01*
X52528693Y-61199097D01*
X52624937Y-61263405D01*
X52846622Y-61307501D01*
X52846626Y-61307501D01*
X52921473Y-61322389D01*
X52996320Y-61307501D01*
X60530754Y-61307501D01*
X60513661Y-61333082D01*
X60398408Y-61912500D01*
X60513661Y-62491918D01*
X60841875Y-62983125D01*
X61333082Y-63311339D01*
X61766244Y-63397500D01*
X62058756Y-63397500D01*
X62491918Y-63311339D01*
X62983125Y-62983125D01*
X63311339Y-62491918D01*
X63426592Y-61912500D01*
X63311339Y-61333082D01*
X63294246Y-61307501D01*
X70115888Y-61307501D01*
X70085760Y-61352591D01*
X69974387Y-61912500D01*
X70085760Y-62472409D01*
X70402923Y-62947077D01*
X70755258Y-63182500D01*
X70402923Y-63417923D01*
X70085760Y-63892591D01*
X69974387Y-64452500D01*
X70085760Y-65012409D01*
X70402923Y-65487077D01*
X70755258Y-65722500D01*
X70402923Y-65957923D01*
X70085760Y-66432591D01*
X69974387Y-66992500D01*
X70085760Y-67552409D01*
X70402923Y-68027077D01*
X70786608Y-68283447D01*
X70582366Y-68380111D01*
X70206459Y-68795077D01*
X70045596Y-69183461D01*
X70167585Y-69405500D01*
X71310500Y-69405500D01*
X71310500Y-69385500D01*
X71564500Y-69385500D01*
X71564500Y-69405500D01*
X72707415Y-69405500D01*
X72829404Y-69183461D01*
X72668541Y-68795077D01*
X72292634Y-68380111D01*
X72088392Y-68283447D01*
X72472077Y-68027077D01*
X72789240Y-67552409D01*
X72900613Y-66992500D01*
X72789240Y-66432591D01*
X72472077Y-65957923D01*
X72119742Y-65722500D01*
X72472077Y-65487077D01*
X72789240Y-65012409D01*
X72900613Y-64452500D01*
X72789240Y-63892591D01*
X72472077Y-63417923D01*
X72119742Y-63182500D01*
X72472077Y-62947077D01*
X72789240Y-62472409D01*
X72900613Y-61912500D01*
X72789240Y-61352591D01*
X72472077Y-60877923D01*
X72119742Y-60642500D01*
X72472077Y-60407077D01*
X72789240Y-59932409D01*
X72900613Y-59372500D01*
X72789240Y-58812591D01*
X72472077Y-58337923D01*
X72119742Y-58102500D01*
X72472077Y-57867077D01*
X72789240Y-57392409D01*
X72900613Y-56832500D01*
X72789240Y-56272591D01*
X72472077Y-55797923D01*
X72119742Y-55562500D01*
X72472077Y-55327077D01*
X72789240Y-54852409D01*
X72900613Y-54292500D01*
X72789240Y-53732591D01*
X72472077Y-53257923D01*
X72351394Y-53177285D01*
X72485265Y-53150657D01*
X72695309Y-53010309D01*
X72835657Y-52800265D01*
X72884940Y-52552500D01*
X72884940Y-51752500D01*
X77594387Y-51752500D01*
X77705760Y-52312409D01*
X78022923Y-52787077D01*
X78375258Y-53022500D01*
X78022923Y-53257923D01*
X77705760Y-53732591D01*
X77594387Y-54292500D01*
X77705760Y-54852409D01*
X78022923Y-55327077D01*
X78375258Y-55562500D01*
X78022923Y-55797923D01*
X77705760Y-56272591D01*
X77594387Y-56832500D01*
X77705760Y-57392409D01*
X78022923Y-57867077D01*
X78375258Y-58102500D01*
X78022923Y-58337923D01*
X77705760Y-58812591D01*
X77594387Y-59372500D01*
X77705760Y-59932409D01*
X78022923Y-60407077D01*
X78375258Y-60642500D01*
X78022923Y-60877923D01*
X77705760Y-61352591D01*
X77594387Y-61912500D01*
X77705760Y-62472409D01*
X78022923Y-62947077D01*
X78375258Y-63182500D01*
X78022923Y-63417923D01*
X77705760Y-63892591D01*
X77594387Y-64452500D01*
X77705760Y-65012409D01*
X78022923Y-65487077D01*
X78406608Y-65743447D01*
X78202366Y-65840111D01*
X77826459Y-66255077D01*
X77665596Y-66643461D01*
X77787585Y-66865500D01*
X78930500Y-66865500D01*
X78930500Y-66845500D01*
X79184500Y-66845500D01*
X79184500Y-66865500D01*
X80327415Y-66865500D01*
X80449404Y-66643461D01*
X80288541Y-66255077D01*
X79912634Y-65840111D01*
X79708392Y-65743447D01*
X80092077Y-65487077D01*
X80409240Y-65012409D01*
X80520613Y-64452500D01*
X80409240Y-63892591D01*
X80092077Y-63417923D01*
X79739742Y-63182500D01*
X80092077Y-62947077D01*
X80409240Y-62472409D01*
X80520613Y-61912500D01*
X80409240Y-61352591D01*
X80092077Y-60877923D01*
X79739742Y-60642500D01*
X80092077Y-60407077D01*
X80409240Y-59932409D01*
X80520613Y-59372500D01*
X80409240Y-58812591D01*
X80092077Y-58337923D01*
X79739742Y-58102500D01*
X80092077Y-57867077D01*
X80409240Y-57392409D01*
X80520613Y-56832500D01*
X85798408Y-56832500D01*
X85913661Y-57411918D01*
X86241875Y-57903125D01*
X86540261Y-58102500D01*
X86241875Y-58301875D01*
X85913661Y-58793082D01*
X85798408Y-59372500D01*
X85913661Y-59951918D01*
X86241875Y-60443125D01*
X86540261Y-60642500D01*
X86241875Y-60841875D01*
X85913661Y-61333082D01*
X85798408Y-61912500D01*
X85913661Y-62491918D01*
X86241875Y-62983125D01*
X86540261Y-63182500D01*
X86241875Y-63381875D01*
X85913661Y-63873082D01*
X85798408Y-64452500D01*
X85913661Y-65031918D01*
X86241875Y-65523125D01*
X86733082Y-65851339D01*
X87166244Y-65937500D01*
X87458756Y-65937500D01*
X87891918Y-65851339D01*
X88383125Y-65523125D01*
X88711339Y-65031918D01*
X88826592Y-64452500D01*
X88711339Y-63873082D01*
X88383125Y-63381875D01*
X88084739Y-63182500D01*
X88383125Y-62983125D01*
X88711339Y-62491918D01*
X88826592Y-61912500D01*
X88711339Y-61333082D01*
X88383125Y-60841875D01*
X88084739Y-60642500D01*
X88383125Y-60443125D01*
X88711339Y-59951918D01*
X88826592Y-59372500D01*
X88711339Y-58793082D01*
X88383125Y-58301875D01*
X88084739Y-58102500D01*
X88383125Y-57903125D01*
X88711339Y-57411918D01*
X88826592Y-56832500D01*
X88711339Y-56253082D01*
X88383125Y-55761875D01*
X88364881Y-55749684D01*
X88410265Y-55740657D01*
X88620309Y-55600309D01*
X88760657Y-55390265D01*
X88809940Y-55142500D01*
X88809940Y-53442500D01*
X88760657Y-53194735D01*
X88620309Y-52984691D01*
X88410265Y-52844343D01*
X88162500Y-52795060D01*
X86462500Y-52795060D01*
X86214735Y-52844343D01*
X86004691Y-52984691D01*
X85864343Y-53194735D01*
X85815060Y-53442500D01*
X85815060Y-55142500D01*
X85864343Y-55390265D01*
X86004691Y-55600309D01*
X86214735Y-55740657D01*
X86260119Y-55749684D01*
X86241875Y-55761875D01*
X85913661Y-56253082D01*
X85798408Y-56832500D01*
X80520613Y-56832500D01*
X80409240Y-56272591D01*
X80092077Y-55797923D01*
X79739742Y-55562500D01*
X80092077Y-55327077D01*
X80409240Y-54852409D01*
X80520613Y-54292500D01*
X80409240Y-53732591D01*
X80092077Y-53257923D01*
X79739742Y-53022500D01*
X80092077Y-52787077D01*
X80409240Y-52312409D01*
X80520613Y-51752500D01*
X80409240Y-51192591D01*
X80146920Y-50800000D01*
X120872500Y-50800000D01*
X120985927Y-51516147D01*
X121315103Y-52162192D01*
X121827808Y-52674897D01*
X122473853Y-53004073D01*
X123190000Y-53117500D01*
X123906147Y-53004073D01*
X124552192Y-52674897D01*
X125064897Y-52162192D01*
X125394073Y-51516147D01*
X125507500Y-50800000D01*
X125394073Y-50083853D01*
X125064897Y-49437808D01*
X124552192Y-48925103D01*
X123906147Y-48595927D01*
X123190000Y-48482500D01*
X122473853Y-48595927D01*
X121827808Y-48925103D01*
X121315103Y-49437808D01*
X120985927Y-50083853D01*
X120872500Y-50800000D01*
X80146920Y-50800000D01*
X80092077Y-50717923D01*
X79617409Y-50400760D01*
X79198833Y-50317500D01*
X78916167Y-50317500D01*
X78497591Y-50400760D01*
X78022923Y-50717923D01*
X77705760Y-51192591D01*
X77594387Y-51752500D01*
X72884940Y-51752500D01*
X72884940Y-50952500D01*
X72835657Y-50704735D01*
X72695309Y-50494691D01*
X72485265Y-50354343D01*
X72237500Y-50305060D01*
X70637500Y-50305060D01*
X70389735Y-50354343D01*
X70179691Y-50494691D01*
X70039343Y-50704735D01*
X69990060Y-50952500D01*
X69990060Y-50992500D01*
X68230930Y-50992500D01*
X68209034Y-50939638D01*
X67805362Y-50535966D01*
X67277939Y-50317500D01*
X66707061Y-50317500D01*
X66179638Y-50535966D01*
X65775966Y-50939638D01*
X65754070Y-50992500D01*
X63409940Y-50992500D01*
X63409940Y-50902500D01*
X63360657Y-50654735D01*
X63220309Y-50444691D01*
X63010265Y-50304343D01*
X62762500Y-50255060D01*
X61346555Y-50255060D01*
X61329431Y-50213720D01*
X61038280Y-49922569D01*
X60657874Y-49765000D01*
X60246126Y-49765000D01*
X59865720Y-49922569D01*
X59574569Y-50213720D01*
X59417000Y-50594126D01*
X59417000Y-51005874D01*
X59574569Y-51386280D01*
X59865720Y-51677431D01*
X60246126Y-51835000D01*
X60415060Y-51835000D01*
X60415060Y-52602500D01*
X60464343Y-52850265D01*
X60604691Y-53060309D01*
X60814735Y-53200657D01*
X60860119Y-53209684D01*
X60841875Y-53221875D01*
X60513661Y-53713082D01*
X60398408Y-54292500D01*
X60513661Y-54871918D01*
X60841875Y-55363125D01*
X61140261Y-55562500D01*
X60841875Y-55761875D01*
X60634322Y-56072500D01*
X55877302Y-56072500D01*
X55144658Y-55339857D01*
X55102256Y-55276398D01*
X54850864Y-55108423D01*
X54629179Y-55064327D01*
X54629174Y-55064327D01*
X54554327Y-55049439D01*
X54479480Y-55064327D01*
X51503711Y-55064327D01*
X51386280Y-54946896D01*
X51005874Y-54789327D01*
X50594126Y-54789327D01*
X50213720Y-54946896D01*
X50096289Y-55064327D01*
X45843148Y-55064327D01*
X45768301Y-55049439D01*
X45693454Y-55064327D01*
X45693450Y-55064327D01*
X45471765Y-55108423D01*
X45220373Y-55276398D01*
X45177971Y-55339857D01*
X44958830Y-55558998D01*
X44958827Y-55559000D01*
X44934676Y-55583151D01*
X44768523Y-55514328D01*
X44118079Y-55514328D01*
X43517148Y-55763242D01*
X43057215Y-56223175D01*
X42808301Y-56824106D01*
X40080000Y-56824106D01*
X40080000Y-50835964D01*
X40083653Y-50800000D01*
X40862500Y-50800000D01*
X40975927Y-51516147D01*
X41305103Y-52162192D01*
X41817808Y-52674897D01*
X42463853Y-53004073D01*
X43180000Y-53117500D01*
X43896147Y-53004073D01*
X44542192Y-52674897D01*
X44829589Y-52387500D01*
X50924387Y-52387500D01*
X51035760Y-52947409D01*
X51352923Y-53422077D01*
X51827591Y-53739240D01*
X52246167Y-53822500D01*
X52528833Y-53822500D01*
X52947409Y-53739240D01*
X53422077Y-53422077D01*
X53657106Y-53070332D01*
X53710966Y-53200362D01*
X54114638Y-53604034D01*
X54642061Y-53822500D01*
X55212939Y-53822500D01*
X55740362Y-53604034D01*
X56144034Y-53200362D01*
X56362500Y-52672939D01*
X56362500Y-52102061D01*
X56144034Y-51574638D01*
X55740362Y-51170966D01*
X55212939Y-50952500D01*
X54642061Y-50952500D01*
X54114638Y-51170966D01*
X53710966Y-51574638D01*
X53657106Y-51704668D01*
X53422077Y-51352923D01*
X52947409Y-51035760D01*
X52528833Y-50952500D01*
X52246167Y-50952500D01*
X51827591Y-51035760D01*
X51352923Y-51352923D01*
X51035760Y-51827591D01*
X50924387Y-52387500D01*
X44829589Y-52387500D01*
X45054897Y-52162192D01*
X45384073Y-51516147D01*
X45497500Y-50800000D01*
X45384073Y-50083853D01*
X45054897Y-49437808D01*
X44542192Y-48925103D01*
X43896147Y-48595927D01*
X43180000Y-48482500D01*
X42463853Y-48595927D01*
X41817808Y-48925103D01*
X41305103Y-49437808D01*
X40975927Y-50083853D01*
X40862500Y-50800000D01*
X40083653Y-50800000D01*
X40146895Y-50177396D01*
X40334039Y-49580218D01*
X40637436Y-49032876D01*
X41044701Y-48557711D01*
X41539188Y-48174148D01*
X42100700Y-47897850D01*
X42714774Y-47737896D01*
X43207270Y-47700000D01*
X123154036Y-47700000D01*
X123812604Y-47766895D01*
G36*
X112486231Y-99603769D02*
X113027055Y-99965136D01*
X113503969Y-100060000D01*
X118367560Y-100060000D01*
X118367560Y-100205000D01*
X112569803Y-100205000D01*
X111958640Y-99593839D01*
X112159577Y-99459577D01*
X112274731Y-99287237D01*
X112486231Y-99603769D01*
X112486231Y-99603769D01*
G37*
X112486231Y-99603769D02*
X113027055Y-99965136D01*
X113503969Y-100060000D01*
X118367560Y-100060000D01*
X118367560Y-100205000D01*
X112569803Y-100205000D01*
X111958640Y-99593839D01*
X112159577Y-99459577D01*
X112274731Y-99287237D01*
X112486231Y-99603769D01*
G36*
X105007070Y-68807928D02*
X105070529Y-68850330D01*
X109402676Y-73182478D01*
X109141720Y-73290569D01*
X108850569Y-73581720D01*
X108693000Y-73962126D01*
X108693000Y-74373874D01*
X108850569Y-74754280D01*
X109026289Y-74930000D01*
X108850569Y-75105720D01*
X108693000Y-75486126D01*
X108693000Y-75897874D01*
X108850569Y-76278280D01*
X109141720Y-76569431D01*
X109522126Y-76727000D01*
X109933874Y-76727000D01*
X110314280Y-76569431D01*
X110456271Y-76427440D01*
X111975000Y-76427440D01*
X112222765Y-76378157D01*
X112432809Y-76237809D01*
X112508907Y-76123921D01*
X113027055Y-76470136D01*
X113503969Y-76565000D01*
X118067762Y-76565000D01*
X118607761Y-77105000D01*
X113503969Y-77105000D01*
X113027055Y-77199864D01*
X112486231Y-77561231D01*
X112274731Y-77877763D01*
X112159577Y-77705423D01*
X111684909Y-77388260D01*
X111266333Y-77305000D01*
X110983667Y-77305000D01*
X110565091Y-77388260D01*
X110090423Y-77705423D01*
X109773260Y-78180091D01*
X109661887Y-78740000D01*
X109686426Y-78863365D01*
X109649720Y-78878569D01*
X109358569Y-79169720D01*
X109201000Y-79550126D01*
X109201000Y-79961874D01*
X109358569Y-80342280D01*
X109649720Y-80633431D01*
X110030126Y-80791000D01*
X110441874Y-80791000D01*
X110815194Y-80636366D01*
X111319513Y-81140685D01*
X110931955Y-81528244D01*
X110822280Y-81418569D01*
X110441874Y-81261000D01*
X110030126Y-81261000D01*
X109649720Y-81418569D01*
X109358569Y-81709720D01*
X109201000Y-82090126D01*
X109201000Y-82501874D01*
X109358569Y-82882280D01*
X109649720Y-83173431D01*
X109720833Y-83202887D01*
X109807305Y-83637609D01*
X109845652Y-83695000D01*
X109294846Y-83695000D01*
X109219999Y-83680112D01*
X109145152Y-83695000D01*
X109145148Y-83695000D01*
X108923463Y-83739096D01*
X108923461Y-83739097D01*
X108923462Y-83739097D01*
X108735526Y-83864671D01*
X108735524Y-83864673D01*
X108672071Y-83907071D01*
X108629673Y-83970524D01*
X107018302Y-85581897D01*
X106965439Y-85560000D01*
X106394561Y-85560000D01*
X105867138Y-85778466D01*
X105463466Y-86182138D01*
X105409606Y-86312168D01*
X105174577Y-85960423D01*
X104699909Y-85643260D01*
X104281333Y-85560000D01*
X103998667Y-85560000D01*
X103816114Y-85596312D01*
X101382830Y-83163029D01*
X101340428Y-83099570D01*
X101089036Y-82931595D01*
X100867351Y-82887499D01*
X100867346Y-82887499D01*
X100792499Y-82872611D01*
X100717652Y-82887499D01*
X80345703Y-82887499D01*
X80409240Y-82792409D01*
X80520613Y-82232500D01*
X80409240Y-81672591D01*
X80092077Y-81197923D01*
X79739742Y-80962500D01*
X80092077Y-80727077D01*
X80409240Y-80252409D01*
X80520613Y-79692500D01*
X80448010Y-79327499D01*
X92807654Y-79327499D01*
X92882501Y-79342387D01*
X92957348Y-79327499D01*
X92957353Y-79327499D01*
X93179038Y-79283403D01*
X93430430Y-79115428D01*
X93472832Y-79051969D01*
X103816114Y-68708688D01*
X103998667Y-68745000D01*
X104281333Y-68745000D01*
X104699909Y-68661740D01*
X104844732Y-68564972D01*
X105007070Y-68807928D01*
X105007070Y-68807928D01*
G37*
X105007070Y-68807928D02*
X105070529Y-68850330D01*
X109402676Y-73182478D01*
X109141720Y-73290569D01*
X108850569Y-73581720D01*
X108693000Y-73962126D01*
X108693000Y-74373874D01*
X108850569Y-74754280D01*
X109026289Y-74930000D01*
X108850569Y-75105720D01*
X108693000Y-75486126D01*
X108693000Y-75897874D01*
X108850569Y-76278280D01*
X109141720Y-76569431D01*
X109522126Y-76727000D01*
X109933874Y-76727000D01*
X110314280Y-76569431D01*
X110456271Y-76427440D01*
X111975000Y-76427440D01*
X112222765Y-76378157D01*
X112432809Y-76237809D01*
X112508907Y-76123921D01*
X113027055Y-76470136D01*
X113503969Y-76565000D01*
X118067762Y-76565000D01*
X118607761Y-77105000D01*
X113503969Y-77105000D01*
X113027055Y-77199864D01*
X112486231Y-77561231D01*
X112274731Y-77877763D01*
X112159577Y-77705423D01*
X111684909Y-77388260D01*
X111266333Y-77305000D01*
X110983667Y-77305000D01*
X110565091Y-77388260D01*
X110090423Y-77705423D01*
X109773260Y-78180091D01*
X109661887Y-78740000D01*
X109686426Y-78863365D01*
X109649720Y-78878569D01*
X109358569Y-79169720D01*
X109201000Y-79550126D01*
X109201000Y-79961874D01*
X109358569Y-80342280D01*
X109649720Y-80633431D01*
X110030126Y-80791000D01*
X110441874Y-80791000D01*
X110815194Y-80636366D01*
X111319513Y-81140685D01*
X110931955Y-81528244D01*
X110822280Y-81418569D01*
X110441874Y-81261000D01*
X110030126Y-81261000D01*
X109649720Y-81418569D01*
X109358569Y-81709720D01*
X109201000Y-82090126D01*
X109201000Y-82501874D01*
X109358569Y-82882280D01*
X109649720Y-83173431D01*
X109720833Y-83202887D01*
X109807305Y-83637609D01*
X109845652Y-83695000D01*
X109294846Y-83695000D01*
X109219999Y-83680112D01*
X109145152Y-83695000D01*
X109145148Y-83695000D01*
X108923463Y-83739096D01*
X108923461Y-83739097D01*
X108923462Y-83739097D01*
X108735526Y-83864671D01*
X108735524Y-83864673D01*
X108672071Y-83907071D01*
X108629673Y-83970524D01*
X107018302Y-85581897D01*
X106965439Y-85560000D01*
X106394561Y-85560000D01*
X105867138Y-85778466D01*
X105463466Y-86182138D01*
X105409606Y-86312168D01*
X105174577Y-85960423D01*
X104699909Y-85643260D01*
X104281333Y-85560000D01*
X103998667Y-85560000D01*
X103816114Y-85596312D01*
X101382830Y-83163029D01*
X101340428Y-83099570D01*
X101089036Y-82931595D01*
X100867351Y-82887499D01*
X100867346Y-82887499D01*
X100792499Y-82872611D01*
X100717652Y-82887499D01*
X80345703Y-82887499D01*
X80409240Y-82792409D01*
X80520613Y-82232500D01*
X80409240Y-81672591D01*
X80092077Y-81197923D01*
X79739742Y-80962500D01*
X80092077Y-80727077D01*
X80409240Y-80252409D01*
X80520613Y-79692500D01*
X80448010Y-79327499D01*
X92807654Y-79327499D01*
X92882501Y-79342387D01*
X92957348Y-79327499D01*
X92957353Y-79327499D01*
X93179038Y-79283403D01*
X93430430Y-79115428D01*
X93472832Y-79051969D01*
X103816114Y-68708688D01*
X103998667Y-68745000D01*
X104281333Y-68745000D01*
X104699909Y-68661740D01*
X104844732Y-68564972D01*
X105007070Y-68807928D01*
G36*
X113027055Y-80280136D02*
X113503969Y-80375000D01*
X118367560Y-80375000D01*
X118367560Y-80520000D01*
X112847403Y-80520000D01*
X112845329Y-80516896D01*
X112845327Y-80516894D01*
X112802929Y-80453441D01*
X112739476Y-80411043D01*
X112647179Y-80318746D01*
X112742052Y-80089703D01*
X113027055Y-80280136D01*
X113027055Y-80280136D01*
G37*
X113027055Y-80280136D02*
X113503969Y-80375000D01*
X118367560Y-80375000D01*
X118367560Y-80520000D01*
X112847403Y-80520000D01*
X112845329Y-80516896D01*
X112845327Y-80516894D01*
X112802929Y-80453441D01*
X112739476Y-80411043D01*
X112647179Y-80318746D01*
X112742052Y-80089703D01*
X113027055Y-80280136D01*
G36*
X109141720Y-59805431D02*
X109522126Y-59963000D01*
X109933874Y-59963000D01*
X109990245Y-59939650D01*
X110090423Y-60089577D01*
X110365001Y-60273044D01*
X110365001Y-60390149D01*
X110350112Y-60465000D01*
X110365001Y-60539852D01*
X110367097Y-60550391D01*
X110409097Y-60761537D01*
X110493866Y-60888402D01*
X110577072Y-61012929D01*
X110640527Y-61055329D01*
X111180198Y-61595000D01*
X110640530Y-62134669D01*
X110577071Y-62177071D01*
X110409096Y-62428464D01*
X110408080Y-62433572D01*
X110063687Y-62663687D01*
X109807305Y-63047391D01*
X109717275Y-63500000D01*
X109807305Y-63952609D01*
X109845652Y-64010000D01*
X109294846Y-64010000D01*
X109219999Y-63995112D01*
X109145152Y-64010000D01*
X109145148Y-64010000D01*
X108923463Y-64054096D01*
X108923461Y-64054097D01*
X108923462Y-64054097D01*
X108735526Y-64179671D01*
X108735524Y-64179673D01*
X108672071Y-64222071D01*
X108629673Y-64285524D01*
X107018302Y-65896897D01*
X106965439Y-65875000D01*
X106394561Y-65875000D01*
X106314999Y-65907956D01*
X106314999Y-62229802D01*
X108940545Y-59604256D01*
X109141720Y-59805431D01*
X109141720Y-59805431D01*
G37*
X109141720Y-59805431D02*
X109522126Y-59963000D01*
X109933874Y-59963000D01*
X109990245Y-59939650D01*
X110090423Y-60089577D01*
X110365001Y-60273044D01*
X110365001Y-60390149D01*
X110350112Y-60465000D01*
X110365001Y-60539852D01*
X110367097Y-60550391D01*
X110409097Y-60761537D01*
X110493866Y-60888402D01*
X110577072Y-61012929D01*
X110640527Y-61055329D01*
X111180198Y-61595000D01*
X110640530Y-62134669D01*
X110577071Y-62177071D01*
X110409096Y-62428464D01*
X110408080Y-62433572D01*
X110063687Y-62663687D01*
X109807305Y-63047391D01*
X109717275Y-63500000D01*
X109807305Y-63952609D01*
X109845652Y-64010000D01*
X109294846Y-64010000D01*
X109219999Y-63995112D01*
X109145152Y-64010000D01*
X109145148Y-64010000D01*
X108923463Y-64054096D01*
X108923461Y-64054097D01*
X108923462Y-64054097D01*
X108735526Y-64179671D01*
X108735524Y-64179673D01*
X108672071Y-64222071D01*
X108629673Y-64285524D01*
X107018302Y-65896897D01*
X106965439Y-65875000D01*
X106394561Y-65875000D01*
X106314999Y-65907956D01*
X106314999Y-62229802D01*
X108940545Y-59604256D01*
X109141720Y-59805431D01*
G36*
X112486231Y-60233769D02*
X113027055Y-60595136D01*
X113503969Y-60690000D01*
X118367560Y-60690000D01*
X118367560Y-60835000D01*
X112569803Y-60835000D01*
X111958640Y-60223839D01*
X112159577Y-60089577D01*
X112274731Y-59917237D01*
X112486231Y-60233769D01*
X112486231Y-60233769D01*
G37*
X112486231Y-60233769D02*
X113027055Y-60595136D01*
X113503969Y-60690000D01*
X118367560Y-60690000D01*
X118367560Y-60835000D01*
X112569803Y-60835000D01*
X111958640Y-60223839D01*
X112159577Y-60089577D01*
X112274731Y-59917237D01*
X112486231Y-60233769D01*
G36*
X113527761Y-57420000D02*
X113503969Y-57420000D01*
X113027055Y-57514864D01*
X112486231Y-57876231D01*
X112274731Y-58192763D01*
X112159577Y-58020423D01*
X111684909Y-57703260D01*
X111266333Y-57620000D01*
X110983667Y-57620000D01*
X110910185Y-57634616D01*
X111609473Y-56935329D01*
X111672929Y-56892929D01*
X111773483Y-56742440D01*
X111975000Y-56742440D01*
X112222765Y-56693157D01*
X112432809Y-56552809D01*
X112524038Y-56416276D01*
X113527761Y-57420000D01*
X113527761Y-57420000D01*
G37*
X113527761Y-57420000D02*
X113503969Y-57420000D01*
X113027055Y-57514864D01*
X112486231Y-57876231D01*
X112274731Y-58192763D01*
X112159577Y-58020423D01*
X111684909Y-57703260D01*
X111266333Y-57620000D01*
X110983667Y-57620000D01*
X110910185Y-57634616D01*
X111609473Y-56935329D01*
X111672929Y-56892929D01*
X111773483Y-56742440D01*
X111975000Y-56742440D01*
X112222765Y-56693157D01*
X112432809Y-56552809D01*
X112524038Y-56416276D01*
X113527761Y-57420000D01*
G36*
X54972171Y-57316973D02*
X55014571Y-57380429D01*
X55265963Y-57548404D01*
X55487648Y-57592500D01*
X55487653Y-57592500D01*
X55562500Y-57607388D01*
X55637347Y-57592500D01*
X60634322Y-57592500D01*
X60841875Y-57903125D01*
X61160978Y-58116343D01*
X61031142Y-58177317D01*
X60640855Y-58605576D01*
X60471024Y-59015610D01*
X60592345Y-59245500D01*
X61785500Y-59245500D01*
X61785500Y-59225500D01*
X62039500Y-59225500D01*
X62039500Y-59245500D01*
X63232655Y-59245500D01*
X63353976Y-59015610D01*
X63184145Y-58605576D01*
X62793858Y-58177317D01*
X62664022Y-58116343D01*
X62983125Y-57903125D01*
X63190678Y-57592500D01*
X70219457Y-57592500D01*
X70402923Y-57867077D01*
X70755258Y-58102500D01*
X70402923Y-58337923D01*
X70349742Y-58417514D01*
X70309874Y-58401000D01*
X69898126Y-58401000D01*
X69517720Y-58558569D01*
X69226569Y-58849720D01*
X69069000Y-59230126D01*
X69069000Y-59641874D01*
X69129321Y-59787501D01*
X63329907Y-59787501D01*
X63353976Y-59729390D01*
X63232655Y-59499500D01*
X62039500Y-59499500D01*
X62039500Y-59519500D01*
X61785500Y-59519500D01*
X61785500Y-59499500D01*
X60592345Y-59499500D01*
X60471024Y-59729390D01*
X60495093Y-59787501D01*
X53236277Y-59787501D01*
X52233103Y-58784328D01*
X52388523Y-58784328D01*
X52989454Y-58535414D01*
X53449387Y-58075481D01*
X53698301Y-57474550D01*
X53698301Y-57359863D01*
X53926280Y-57265431D01*
X54217431Y-56974280D01*
X54338117Y-56682918D01*
X54972171Y-57316973D01*
X54972171Y-57316973D01*
G37*
X54972171Y-57316973D02*
X55014571Y-57380429D01*
X55265963Y-57548404D01*
X55487648Y-57592500D01*
X55487653Y-57592500D01*
X55562500Y-57607388D01*
X55637347Y-57592500D01*
X60634322Y-57592500D01*
X60841875Y-57903125D01*
X61160978Y-58116343D01*
X61031142Y-58177317D01*
X60640855Y-58605576D01*
X60471024Y-59015610D01*
X60592345Y-59245500D01*
X61785500Y-59245500D01*
X61785500Y-59225500D01*
X62039500Y-59225500D01*
X62039500Y-59245500D01*
X63232655Y-59245500D01*
X63353976Y-59015610D01*
X63184145Y-58605576D01*
X62793858Y-58177317D01*
X62664022Y-58116343D01*
X62983125Y-57903125D01*
X63190678Y-57592500D01*
X70219457Y-57592500D01*
X70402923Y-57867077D01*
X70755258Y-58102500D01*
X70402923Y-58337923D01*
X70349742Y-58417514D01*
X70309874Y-58401000D01*
X69898126Y-58401000D01*
X69517720Y-58558569D01*
X69226569Y-58849720D01*
X69069000Y-59230126D01*
X69069000Y-59641874D01*
X69129321Y-59787501D01*
X63329907Y-59787501D01*
X63353976Y-59729390D01*
X63232655Y-59499500D01*
X62039500Y-59499500D01*
X62039500Y-59519500D01*
X61785500Y-59519500D01*
X61785500Y-59499500D01*
X60592345Y-59499500D01*
X60471024Y-59729390D01*
X60495093Y-59787501D01*
X53236277Y-59787501D01*
X52233103Y-58784328D01*
X52388523Y-58784328D01*
X52989454Y-58535414D01*
X53449387Y-58075481D01*
X53698301Y-57474550D01*
X53698301Y-57359863D01*
X53926280Y-57265431D01*
X54217431Y-56974280D01*
X54338117Y-56682918D01*
X54972171Y-57316973D01*
G36*
X65775966Y-52565362D02*
X66179638Y-52969034D01*
X66309668Y-53022894D01*
X65957923Y-53257923D01*
X65640760Y-53732591D01*
X65529387Y-54292500D01*
X65640760Y-54852409D01*
X65819559Y-55120000D01*
X63814802Y-55120000D01*
X63353709Y-54658908D01*
X63426592Y-54292500D01*
X63311339Y-53713082D01*
X62983125Y-53221875D01*
X62964881Y-53209684D01*
X63010265Y-53200657D01*
X63220309Y-53060309D01*
X63360657Y-52850265D01*
X63409940Y-52602500D01*
X63409940Y-52512500D01*
X65754070Y-52512500D01*
X65775966Y-52565362D01*
X65775966Y-52565362D01*
G37*
X65775966Y-52565362D02*
X66179638Y-52969034D01*
X66309668Y-53022894D01*
X65957923Y-53257923D01*
X65640760Y-53732591D01*
X65529387Y-54292500D01*
X65640760Y-54852409D01*
X65819559Y-55120000D01*
X63814802Y-55120000D01*
X63353709Y-54658908D01*
X63426592Y-54292500D01*
X63311339Y-53713082D01*
X62983125Y-53221875D01*
X62964881Y-53209684D01*
X63010265Y-53200657D01*
X63220309Y-53060309D01*
X63360657Y-52850265D01*
X63409940Y-52602500D01*
X63409940Y-52512500D01*
X65754070Y-52512500D01*
X65775966Y-52565362D01*
G36*
X112486231Y-119288769D02*
X113027055Y-119650136D01*
X113503969Y-119745000D01*
X118367560Y-119745000D01*
X118367560Y-119890000D01*
X112847403Y-119890000D01*
X112845329Y-119886896D01*
X112845327Y-119886894D01*
X112802929Y-119823441D01*
X112739476Y-119781043D01*
X112125667Y-119167235D01*
X112159577Y-119144577D01*
X112274731Y-118972237D01*
X112486231Y-119288769D01*
X112486231Y-119288769D01*
G37*
X112486231Y-119288769D02*
X113027055Y-119650136D01*
X113503969Y-119745000D01*
X118367560Y-119745000D01*
X118367560Y-119890000D01*
X112847403Y-119890000D01*
X112845329Y-119886896D01*
X112845327Y-119886894D01*
X112802929Y-119823441D01*
X112739476Y-119781043D01*
X112125667Y-119167235D01*
X112159577Y-119144577D01*
X112274731Y-118972237D01*
X112486231Y-119288769D01*
G36*
X60414388Y-89756699D02*
X60463671Y-90004464D01*
X60604019Y-90214508D01*
X60814063Y-90354856D01*
X61061828Y-90404139D01*
X61624587Y-90404139D01*
X54140219Y-97888508D01*
X53926280Y-97674569D01*
X53698301Y-97580137D01*
X53698301Y-97464106D01*
X53449387Y-96863175D01*
X52989454Y-96403242D01*
X52388523Y-96154328D01*
X51738079Y-96154328D01*
X51137148Y-96403242D01*
X50793301Y-96747089D01*
X50449454Y-96403242D01*
X49848523Y-96154328D01*
X49559000Y-96154328D01*
X55513926Y-90199403D01*
X55524019Y-90214508D01*
X55734063Y-90354856D01*
X55981828Y-90404139D01*
X57681828Y-90404139D01*
X57929593Y-90354856D01*
X58139637Y-90214508D01*
X58279985Y-90004464D01*
X58329268Y-89756699D01*
X58329268Y-89666699D01*
X60414388Y-89666699D01*
X60414388Y-89756699D01*
X60414388Y-89756699D01*
G37*
X60414388Y-89756699D02*
X60463671Y-90004464D01*
X60604019Y-90214508D01*
X60814063Y-90354856D01*
X61061828Y-90404139D01*
X61624587Y-90404139D01*
X54140219Y-97888508D01*
X53926280Y-97674569D01*
X53698301Y-97580137D01*
X53698301Y-97464106D01*
X53449387Y-96863175D01*
X52989454Y-96403242D01*
X52388523Y-96154328D01*
X51738079Y-96154328D01*
X51137148Y-96403242D01*
X50793301Y-96747089D01*
X50449454Y-96403242D01*
X49848523Y-96154328D01*
X49559000Y-96154328D01*
X55513926Y-90199403D01*
X55524019Y-90214508D01*
X55734063Y-90354856D01*
X55981828Y-90404139D01*
X57681828Y-90404139D01*
X57929593Y-90354856D01*
X58139637Y-90214508D01*
X58279985Y-90004464D01*
X58329268Y-89756699D01*
X58329268Y-89666699D01*
X60414388Y-89666699D01*
X60414388Y-89756699D01*
G36*
X60841203Y-87437324D02*
X60859447Y-87449515D01*
X60814063Y-87458542D01*
X60604019Y-87598890D01*
X60463671Y-87808934D01*
X60414388Y-88056699D01*
X60414388Y-88146699D01*
X58329268Y-88146699D01*
X58329268Y-88056699D01*
X58279985Y-87808934D01*
X58139637Y-87598890D01*
X57929593Y-87458542D01*
X57884209Y-87449515D01*
X57902453Y-87437324D01*
X58110006Y-87126699D01*
X60633650Y-87126699D01*
X60841203Y-87437324D01*
X60841203Y-87437324D01*
G37*
X60841203Y-87437324D02*
X60859447Y-87449515D01*
X60814063Y-87458542D01*
X60604019Y-87598890D01*
X60463671Y-87808934D01*
X60414388Y-88056699D01*
X60414388Y-88146699D01*
X58329268Y-88146699D01*
X58329268Y-88056699D01*
X58279985Y-87808934D01*
X58139637Y-87598890D01*
X57929593Y-87458542D01*
X57884209Y-87449515D01*
X57902453Y-87437324D01*
X58110006Y-87126699D01*
X60633650Y-87126699D01*
X60841203Y-87437324D01*
G04 #@! TD*
M02*
