M48
;DRILL file {KiCad (5.0.1)-4} date 12/26/2018 8:48:02 PM
;FORMAT={-:-/ absolute / inch / decimal}
FMAT,2
INCH,TZ
T1C0.0157
T2C0.0295
T3C0.0315
T4C0.0394
T5C0.0433
%
G90
G05
M72
T1
X1.68Y-3.8
X1.68Y-3.9
X1.7Y-2.2
X1.7Y-2.3
X1.74Y-3.02
X1.76Y-3.26
X1.76Y-3.64
X1.78Y-2.56
X1.78Y-3.5
X1.8Y-2.16
X1.8Y-2.3
X1.8Y-2.84
X1.8Y-3.78
X1.8Y-3.9
X1.84Y-3.14
X1.84Y-3.54
X1.9Y-2.16
X1.9Y-2.22
X1.9Y-2.3
X1.9Y-2.54
X1.9Y-3.9
X1.92Y-3.34
X1.94Y-2.92
X1.94Y-3.6
X2.Y-2.06
X2.Y-2.1978
X2.Y-3.8
X2.04Y-2.52
X2.1Y-2.
X2.1Y-2.12
X2.1Y-2.22
X2.1Y-2.3
X2.1Y-2.8
X2.1Y-3.8
X2.1Y-3.88
X2.16Y-3.36
X2.16Y-3.46
X2.18Y-2.
X2.18Y-3.56
X2.2Y-2.7
X2.22Y-2.12
X2.24Y-3.32
X2.26Y-2.56
X2.26Y-3.04
X2.3Y-2.6
X2.32Y-2.46
X2.34Y-2.84
X2.34Y-3.
X2.34Y-3.06
X2.34Y-3.24
X2.34Y-3.36
X2.34Y-3.46
X2.34Y-3.56
X2.38Y-2.
X2.38Y-2.18
X2.42Y-3.04
X2.5Y-2.
X2.5Y-3.18
X2.5Y-3.36
X2.5Y-3.58
X2.52Y-2.1
X2.52Y-2.26
X2.52Y-2.44
X2.52Y-3.8
X2.56Y-3.04
X2.56Y-3.36
X2.56Y-3.42
X2.56Y-3.62
X2.56Y-3.7
X2.62Y-2.78
X2.62Y-2.98
X2.62Y-3.18
X2.64Y-2.46
X2.66Y-3.36
X2.66Y-3.5
X2.66Y-3.56
X2.7Y-3.62
X2.7Y-3.7
X2.72Y-3.88
X2.74Y-2.68
X2.74Y-2.78
X2.74Y-2.9
X2.74Y-3.42
X2.76Y-2.28
X2.76Y-2.34
X2.76Y-2.48
X2.76Y-3.02
X2.76Y-3.18
X2.76Y-3.3
X2.8Y-3.84
X2.88Y-2.1
X2.88Y-2.2
X2.88Y-2.3
X2.88Y-2.4
X2.88Y-2.5
X2.88Y-2.6
X2.88Y-2.8
X2.88Y-2.9
X2.88Y-3.
X2.88Y-3.1
X2.88Y-3.2
X2.88Y-3.3
X2.9Y-3.56
X2.94Y-2.96
X2.95Y-3.15
X2.95Y-3.3
X2.96Y-2.22
X2.98Y-2.4
X2.98Y-2.58
X2.98Y-3.38
X2.98Y-3.66
X3.Y-2.68
X3.02Y-3.78
X3.06Y-3.5
X3.12Y-3.4
X3.12Y-3.56
X3.12Y-3.7
X3.18Y-2.02
X3.18Y-2.12
X3.18Y-2.22
X3.18Y-2.32
X3.18Y-2.42
X3.18Y-2.56
X3.18Y-2.66
X3.18Y-2.78
X3.18Y-2.88
X3.18Y-2.96
X3.18Y-3.06
X3.18Y-3.16
X3.18Y-3.26
X3.18Y-3.62
X3.18Y-3.9
X3.2Y-3.46
X3.24Y-3.52
X3.26Y-3.7
X3.3Y-3.56
X3.34Y-1.96
X3.34Y-3.78
X3.35Y-3.2
X3.36Y-2.06
X3.36Y-2.2
X3.36Y-2.28
X3.36Y-2.38
X3.36Y-2.48
X3.36Y-2.56
X3.36Y-3.64
X3.42Y-2.94
X3.44Y-3.58
X3.44Y-3.68
X3.44Y-3.88
X3.5Y-3.94
X3.52Y-2.06
X3.52Y-2.2
X3.52Y-2.28
X3.52Y-2.38
X3.52Y-2.48
X3.52Y-2.56
X3.56Y-3.66
X3.56Y-3.78
X3.56Y-4.78
X3.58Y-3.2
X3.6Y-2.85
X3.6Y-3.98
X3.62Y-4.84
X3.64Y-3.54
X3.64Y-3.64
X3.64Y-3.78
X3.64Y-4.02
X3.64Y-4.08
X3.65Y-2.25
X3.66Y-3.2
X3.66Y-4.32
X3.66Y-4.4
X3.66Y-4.5
X3.66Y-4.56
X3.66Y-4.62
X3.68Y-2.6
X3.7Y-4.9
X3.74Y-5.1
X3.76Y-3.62
X3.76Y-4.82
X3.78Y-3.7
X3.78Y-3.76
X3.78Y-4.02
X3.78Y-4.12
X3.78Y-4.18
X3.78Y-4.28
X3.78Y-4.94
X3.8Y-2.78
X3.8Y-3.56
X3.82Y-3.16
X3.82Y-3.42
X3.82Y-4.48
X3.82Y-4.62
X3.84Y-2.06
X3.84Y-4.86
X3.86Y-2.84
X3.86Y-4.1
X3.88Y-3.88
X3.9Y-2.4
X3.9Y-4.94
X3.9Y-5.05
X3.92Y-3.32
X3.92Y-3.52
X3.94Y-2.92
X3.94Y-4.86
X3.95Y-4.4
X3.95Y-4.55
X3.95Y-4.8
X3.96Y-4.14
X3.96Y-4.26
X4.Y-2.98
X4.Y-3.06
X4.Y-3.15
X4.Y-3.24
X4.Y-3.66
X4.02Y-2.8
X4.02Y-4.86
X4.04Y-3.4
X4.04Y-4.96
X4.06Y-2.6
X4.06Y-4.04
X4.06Y-4.16
X4.06Y-4.24
X4.06Y-5.02
X4.08Y-3.36
X4.08Y-4.46
X4.08Y-4.62
X4.08Y-4.92
X4.1Y-2.25
X4.1Y-2.88
X4.12Y-2.6
X4.12Y-2.8
X4.12Y-2.98
X4.12Y-3.08
X4.12Y-3.16
X4.12Y-3.24
X4.14Y-3.38
X4.14Y-3.46
X4.14Y-4.16
X4.14Y-4.24
X4.14Y-4.94
X4.14Y-5.02
X4.15Y-3.75
X4.18Y-4.64
X4.22Y-2.56
X4.22Y-2.8
X4.22Y-2.96
X4.22Y-4.7
X4.24Y-2.02
X4.24Y-4.58
X4.26Y-2.68
X4.26Y-3.1
X4.26Y-3.16
X4.26Y-3.22
X4.26Y-3.28
X4.26Y-3.4
X4.26Y-3.52
X4.26Y-3.6
X4.26Y-3.94
X4.26Y-4.06
X4.26Y-4.18
X4.26Y-4.24
X4.26Y-4.32
X4.28Y-2.86
X4.28Y-3.04
X4.28Y-3.82
X4.28Y-4.42
X4.28Y-4.64
X4.3Y-2.6
X4.3Y-4.52
X4.32Y-2.12
X4.32Y-2.22
X4.32Y-2.32
X4.32Y-2.48
X4.32Y-2.8
X4.32Y-2.92
X4.32Y-2.98
X4.32Y-3.68
X4.32Y-3.76
X4.32Y-4.84
X4.34Y-3.14
X4.34Y-3.24
X4.34Y-3.46
X4.34Y-3.6
X4.34Y-3.96
X4.34Y-4.02
X4.34Y-4.2
X4.34Y-4.32
X4.34Y-4.58
X4.38Y-2.42
X4.38Y-2.86
X4.38Y-3.8
X4.38Y-4.42
X4.38Y-5.06
X4.4Y-2.26
X4.4Y-2.68
X4.4Y-3.04
X4.4Y-3.14
X4.4Y-3.44
X4.4Y-3.52
X4.4Y-4.2
X4.4Y-4.26
X4.42Y-2.8
X4.42Y-3.66
X4.44Y-2.1
X4.44Y-4.8
X4.46Y-2.26
X4.46Y-3.02
X4.46Y-3.56
X4.46Y-3.8
X4.46Y-4.36
X4.48Y-2.8
X4.48Y-2.88
X4.48Y-4.72
X4.5Y-3.66
X4.5Y-4.44
X4.5Y-4.84
X4.52Y-4.96
X4.54Y-2.4
X4.54Y-2.52
X4.54Y-2.64
X4.54Y-3.16
X4.54Y-3.24
X4.54Y-3.3
X4.54Y-3.42
X4.54Y-3.94
X4.54Y-4.06
X4.54Y-4.2
X4.56Y-2.16
X4.56Y-4.72
X4.62Y-2.8
X4.62Y-2.88
X4.62Y-3.04
X4.62Y-3.56
X4.62Y-3.7
X4.62Y-4.1
X4.62Y-4.2
X4.62Y-4.3
X4.62Y-4.38
X4.62Y-4.48
X4.62Y-4.88
X4.62Y-4.96
X4.64Y-2.48
X4.64Y-3.24
X4.66Y-1.98
X4.66Y-2.4
X4.66Y-3.02
X4.66Y-3.16
X4.66Y-3.94
X4.66Y-4.72
X4.66Y-4.78
X4.68Y-2.16
X4.68Y-3.26
X4.68Y-4.04
X4.68Y-4.82
X4.7Y-4.2
X4.7Y-5.05
X4.72Y-3.52
X4.72Y-4.94
X4.74Y-2.68
X4.74Y-2.92
X4.74Y-3.7
X4.74Y-4.36
X4.74Y-4.48
X4.76Y-2.5
X4.76Y-3.4
X4.76Y-4.82
X4.8Y-2.16
X4.8Y-2.3
X4.8Y-2.42
X4.8Y-3.06
X4.8Y-3.14
X4.8Y-3.26
X4.8Y-3.84
X4.8Y-3.92
X4.8Y-4.02
X4.8Y-4.62
X4.8Y-4.74
X4.84Y-3.06
X4.86Y-2.82
X4.86Y-2.92
X4.86Y-3.7
X4.86Y-4.48
X4.88Y-2.54
X4.88Y-4.16
X4.9Y-2.74
X4.9Y-3.38
X4.9Y-3.56
X4.92Y-2.16
X4.92Y-4.34
X4.92Y-4.84
X4.96Y-2.2
X4.96Y-2.26
X4.96Y-2.92
X4.96Y-2.98
X4.96Y-3.06
X4.96Y-3.7
X4.96Y-3.82
X4.98Y-4.48
X4.98Y-4.6
T2
X4.375Y-2.5
X4.375Y-2.55
X4.375Y-2.6
X4.375Y-3.275
X4.375Y-3.325
X4.375Y-3.375
X4.375Y-4.825
X4.375Y-4.875
X4.375Y-4.925
X4.375Y-4.05
X4.375Y-4.1
X4.375Y-4.15
T3
X2.56Y-3.13
X2.56Y-3.2284
X4.375Y-3.875
X4.475Y-3.875
X4.375Y-3.1
X4.475Y-3.1
X2.3375Y-2.9375
X2.3375Y-3.1296
X2.8125Y-2.0375
X2.8125Y-2.1375
X2.8125Y-2.2375
X2.8125Y-2.3375
X2.8125Y-2.4375
X2.8125Y-2.5375
X2.8125Y-2.6375
X2.8125Y-2.7375
X2.8125Y-2.8375
X2.8125Y-2.9375
X2.8125Y-3.0375
X2.8125Y-3.1375
X2.8125Y-3.2375
X2.8125Y-3.3375
X3.1125Y-2.0375
X3.1125Y-2.1375
X3.1125Y-2.2375
X3.1125Y-2.3375
X3.1125Y-2.4375
X3.1125Y-2.5375
X3.1125Y-2.6375
X3.1125Y-2.7375
X3.1125Y-2.8375
X3.1125Y-2.9375
X3.1125Y-3.0375
X3.1125Y-3.1375
X3.1125Y-3.2375
X3.1125Y-3.3375
X3.7Y-4.1684
X3.7Y-4.2472
X3.3375Y-2.7088
X3.3375Y-2.7875
X2.0625Y-2.0625
X2.1625Y-2.0625
X3.7Y-3.4213
X3.7Y-3.5
X4.375Y-4.65
X4.475Y-4.65
X4.1Y-4.2
X4.2Y-4.2
X2.56Y-2.8391
X2.56Y-2.9375
X4.375Y-2.325
X4.475Y-2.325
X4.1Y-3.425
X4.2Y-3.425
X4.1Y-2.65
X4.2Y-2.65
X4.575Y-3.375
X4.575Y-3.475
X4.575Y-4.925
X4.575Y-5.025
X4.575Y-4.15
X4.575Y-4.25
X4.1Y-4.975
X4.2Y-4.975
X2.5875Y-2.5875
X2.5875Y-2.6662
X4.05Y-4.725
X4.15Y-4.725
X2.6375Y-2.0375
X2.6375Y-2.1375
X4.575Y-2.6
X4.575Y-2.7
T4
X4.375Y-4.5
X4.475Y-4.5
X4.9Y-3.
X4.9Y-3.1
X2.2375Y-3.4003
X2.2375Y-3.5003
X4.9Y-2.225
X4.9Y-2.325
X3.65Y-4.725
X3.75Y-4.725
X4.9Y-3.775
X4.9Y-3.875
X3.825Y-2.65
X3.925Y-2.65
X1.7497Y-2.25
X1.7497Y-3.85
X1.8497Y-2.25
X1.8497Y-3.85
X1.9497Y-2.25
X1.9497Y-3.85
X2.0497Y-2.25
X2.0497Y-3.85
X3.4375Y-2.1375
X3.4375Y-2.2375
X3.4375Y-2.3375
X3.4375Y-2.4375
X3.4375Y-2.5375
X2.4375Y-2.0375
X2.4375Y-2.1375
X2.4375Y-2.2375
X2.4375Y-2.3375
X2.4375Y-2.4375
X3.5Y-3.625
X3.5Y-3.725
X4.375Y-2.175
X4.475Y-2.175
X4.375Y-2.95
X4.475Y-2.95
X2.6372Y-3.625
X3.4Y-3.45
X3.5Y-3.45
X4.375Y-3.725
X4.475Y-3.725
X2.4375Y-3.4003
X2.4375Y-3.5003
X3.7Y-3.7222
X3.7Y-3.8222
X3.7Y-3.9222
X2.6372Y-3.425
X4.9Y-4.55
X4.9Y-4.65
T5
X4.725Y-4.55
X4.725Y-4.65
X4.725Y-4.75
X3.75Y-4.55
X4.15Y-4.55
X4.725Y-2.225
X4.725Y-2.325
X4.725Y-2.425
X4.725Y-3.
X4.725Y-3.1
X4.725Y-3.2
X4.725Y-3.775
X4.725Y-3.875
X4.725Y-3.975
T0
M30
